<svg width="770" height="335" viewBox="0 0 770 335" fill="none" xmlns="http://www.w3.org/2000/svg">
<g filter="url(#filter0_d)">
<path d="M334.736 26.4471C333.964 29.7751 332.423 32.4353 330.113 34.4276C327.77 36.4311 325.028 37.4271 321.887 37.4158C318.914 37.405 316.687 36.6146 315.206 35.0444C313.725 33.4631 312.99 31.1021 313.002 27.9613C313.012 25.1 313.727 22.1686 315.146 19.1671C316.565 16.1655 318.385 13.7355 320.604 11.8769C322.163 10.5748 323.831 9.92699 325.608 9.93341C326.692 9.93732 328.166 10.3338 330.03 11.123C332.239 12.0587 333.342 13.0518 333.338 14.1025C333.336 14.706 333.105 15.2473 332.645 15.7262C332.185 16.194 331.62 16.4267 330.949 16.4243C330.614 16.4231 329.872 16.1074 328.723 15.4774C327.585 14.8361 326.541 14.5138 325.591 14.5104C324.585 14.5068 323.223 15.586 321.505 17.7482C319.002 20.8911 317.743 24.3012 317.73 27.9784C317.723 29.845 317.992 31.1145 318.537 31.7871C319.116 32.4934 320.238 32.8495 321.903 32.8555C323.614 32.8617 325.119 32.3809 326.419 31.4132C327.797 30.3899 328.82 28.8959 329.486 26.9311C326.892 27.1229 324.633 27.6457 322.707 28.4994C322.36 28.6546 322.013 28.7316 321.667 28.7303C320.974 28.7278 320.399 28.4687 319.943 27.9529C319.531 27.4931 319.326 26.9726 319.328 26.3914C319.334 24.6813 321.362 23.4927 325.41 22.8255C327.692 22.4538 330.353 22.2734 333.393 22.2843C334.063 22.2868 334.621 22.5067 335.067 22.9443C335.524 23.3818 335.751 23.9191 335.748 24.5562C335.745 25.3721 335.408 26.0024 334.736 26.4471Z" fill="white" fill-opacity="0.9"/>
<path d="M351.459 24.2777C351.352 25.9874 350.572 26.8396 349.119 26.8344C347.711 26.8293 347.009 26.1002 347.015 24.6472L346.937 22.9536C344.421 23.3469 342.617 24.6313 341.524 26.8069L341.511 35.24C341.508 35.8771 341.289 36.4017 340.851 36.8136C340.414 37.2368 339.86 37.4472 339.189 37.4447C338.496 37.4422 337.96 37.2168 337.582 36.7683C337.226 36.3646 337.049 35.8498 337.051 35.2239L337.091 24.2425C337.092 23.896 337.105 23.3819 337.13 22.7002C337.155 22.0073 337.168 21.4876 337.169 21.1412C337.171 20.5152 337.358 19.9962 337.728 19.584C338.11 19.1606 338.647 18.9502 339.34 18.9527C340.58 18.9572 341.316 19.5969 341.546 20.8719C343.53 19.4037 345.729 18.674 348.143 18.6827C350.378 18.6908 351.49 20.1814 351.48 23.1544C351.478 23.7245 351.471 24.0989 351.459 24.2777Z" fill="white" fill-opacity="0.9"/>
<path d="M360.767 37.3886C358.699 37.3811 356.924 36.6649 355.443 35.2401C353.817 33.6806 352.969 31.6042 352.9 29.0108C352.831 26.5404 353.515 24.341 354.953 22.4125C356.66 20.1386 359.028 19.007 362.057 19.018C364.292 19.0261 366.066 19.9266 367.379 21.7197C368.558 23.3335 369.143 25.3307 369.134 27.7114C369.125 30.3045 368.424 32.515 367.031 34.3431C365.47 36.3828 363.382 37.398 360.767 37.3886ZM361.823 23.4433C360.448 23.4272 359.362 24.0491 358.564 25.3093C357.889 26.3687 357.55 27.6081 357.544 29.0276C357.54 30.3688 357.916 31.3985 358.673 32.1166C359.275 32.6888 359.978 32.9763 360.783 32.9792C361.755 32.9827 362.6 32.6561 363.318 31.9992C364.137 31.2309 364.576 30.1875 364.637 28.8688C364.795 25.2703 363.857 23.4618 361.823 23.4433Z" fill="white" fill-opacity="0.9"/>
<path d="M393.367 23.7934C392.177 28.1706 390.984 32.1453 389.786 35.7177C389.447 36.7224 388.896 37.7543 388.132 38.8134C387.593 39.5491 386.876 39.9098 385.982 39.8954C384.574 39.8679 383.472 38.5059 382.677 35.8094C382.379 34.78 382.028 32.8618 381.625 30.0549C381.388 30.5459 381.242 30.8751 381.185 31.0425C380.599 32.4264 379.742 34.5749 378.614 37.488C378.444 37.9569 378.191 38.3304 377.855 38.6086C377.383 39.3557 376.683 39.7444 375.755 39.7746C375.23 39.7951 374.678 39.3236 374.1 38.3603C373.489 37.3857 372.996 36.1321 372.622 34.5994C372.28 33.2122 371.755 30.1925 371.045 25.5402C370.892 24.5338 370.817 23.7455 370.819 23.1755C370.821 22.5607 371.052 22.053 371.512 21.6523C371.983 21.2404 372.542 21.0357 373.191 21.038C374.398 21.0424 375.139 21.643 375.414 22.84C375.557 23.4664 375.677 24.2381 375.774 25.155C375.904 26.4743 375.985 27.2514 376.018 27.4863C376.16 28.3586 376.378 29.7845 376.673 31.7639C377.508 29.498 378.468 26.6792 379.553 23.3076C380.017 21.8563 380.88 21.1329 382.143 21.1374C383.384 21.1419 384.197 21.9552 384.582 23.5773C384.857 24.7183 385.148 26.2004 385.455 28.0233C385.903 30.6739 386.177 32.2509 386.276 32.7542C386.378 32.4081 387.267 29.0135 388.945 22.5703C389.194 21.61 389.895 21.1319 391.046 21.1361C391.683 21.1384 392.241 21.3472 392.72 21.7624C393.21 22.1778 393.454 22.6928 393.452 23.3075C393.452 23.4193 393.423 23.5813 393.367 23.7934Z" fill="white" fill-opacity="0.9"/>
<path d="M416.644 38.5008C413.335 38.4888 410.522 37.5286 408.204 35.6201C405.73 33.5769 404.499 30.9403 404.511 27.7101C404.524 23.9099 405.727 20.4494 408.119 17.3284C410.803 13.8173 414.174 12.0691 418.231 12.0837C422.132 12.0978 425.051 13.0025 426.99 14.7979C428.928 16.5932 429.891 19.2848 429.878 22.8726C429.864 26.6728 428.756 30.1114 426.555 33.1883C424.016 36.7447 420.712 38.5155 416.644 38.5008ZM418.215 16.6272C415.722 16.6182 413.583 17.8176 411.797 20.2254C410.124 22.4771 409.282 24.9778 409.272 27.7273C409.265 29.5827 409.981 31.0942 411.418 32.2618C412.8 33.3845 414.548 33.9497 416.66 33.9573C419.119 33.9662 421.174 32.7665 422.826 30.3582C424.343 28.1618 425.106 25.6609 425.116 22.8554C425.125 20.5083 424.606 18.8745 423.558 17.9542C422.555 17.0788 420.774 16.6364 418.215 16.6272Z" fill="white" fill-opacity="0.9"/>
<path d="M437.781 35.0899C437.773 37.2135 436.998 38.2725 435.456 38.267C434.785 38.2645 434.232 38.0502 433.798 37.6239C433.364 37.1976 433.148 36.6491 433.15 35.9785L433.234 12.7918C433.236 12.1435 433.473 11.6135 433.944 11.2016C434.392 10.8232 434.946 10.6352 435.606 10.6376C436.265 10.64 436.806 10.8431 437.23 11.247C437.653 11.6397 437.864 12.1602 437.861 12.8085L437.781 35.0899Z" fill="white" fill-opacity="0.9"/>
<path d="M454.429 18.7182C454.589 14.9073 454.771 12.2758 454.978 10.8235C455.173 9.50528 455.901 8.84846 457.164 8.85302C457.824 8.8554 458.354 9.06968 458.755 9.49586C459.156 9.92204 459.355 10.4425 459.353 11.0572C459.347 12.6779 459.21 15.0917 458.941 18.2985C458.683 21.5055 458.552 23.9192 458.546 25.5399C458.532 29.4966 458.651 32.146 458.903 33.4882C458.936 33.6671 458.952 33.8292 458.951 33.9745C458.949 34.5893 458.724 35.097 458.275 35.4978C457.827 35.8874 457.306 36.0811 456.714 36.0789C455.887 36.0759 455.273 35.7049 454.874 34.9657C454.112 35.4213 453.323 35.7593 452.506 35.9799C451.689 36.2117 450.845 36.326 449.973 36.3228C447.47 36.3138 445.394 35.5071 443.745 33.9028C442.063 32.2649 441.227 30.1829 441.236 27.6569C441.247 24.6503 442.105 22.228 443.811 20.3899C445.516 18.5406 447.738 17.621 450.477 17.6309C451.315 17.6339 452.064 17.726 452.722 17.9072C453.381 18.0884 453.95 18.3588 454.429 18.7182ZM454.075 23.9981C453.709 23.2926 453.23 22.7655 452.639 22.4169C452.048 22.0683 451.344 21.8925 450.528 21.8895C448.874 21.8836 447.632 22.3597 446.801 23.3179C445.971 24.265 445.552 25.6942 445.545 27.6054C445.541 28.8125 445.984 29.848 446.875 30.7119C447.766 31.5757 448.804 32.0098 449.989 32.0141C450.849 32.0172 451.504 31.919 451.951 31.7194C452.254 31.5864 452.769 31.2306 453.498 30.652C453.688 30.4962 453.873 30.3236 454.053 30.1343C454.033 29.5977 454.04 27.5523 454.075 23.9981Z" fill="white" fill-opacity="0.9"/>
<path d="M251.912 78.941C251.033 78.9229 250.296 78.6222 249.702 78.0388C249.108 77.4406 248.813 76.7242 248.816 75.8896C248.821 74.3993 248.896 72.1642 249.041 69.1841C249.201 66.2041 249.283 63.969 249.289 62.4787C249.295 60.8245 249.267 58.3431 249.204 55.0344C249.156 51.7258 249.135 49.2444 249.141 47.5902C249.144 46.7706 249.542 45.9598 250.335 45.1579C251.128 44.3411 251.971 43.9344 252.865 43.9376C253.357 43.9394 254.592 44.4058 256.571 45.3369C258.877 46.4481 260.246 47.0715 260.678 47.2072C265.039 48.6387 268.757 50.8429 271.831 53.8196C275.499 57.3649 277.325 61.276 277.31 65.5531C277.301 68.1312 276.658 70.5805 275.383 72.9007C274.108 75.2656 272.365 77.1595 270.154 78.5822C267.675 80.1827 264.192 80.9749 259.706 80.9587C258.618 80.9547 257.367 80.7937 255.952 80.4757C254.24 80.082 252.893 79.5704 251.912 78.941ZM264.558 56.0064C263.116 55.0921 260.021 53.6503 255.274 51.6809L255.194 73.8113C255.774 74.186 256.436 74.4716 257.181 74.668C257.94 74.8496 258.782 74.942 259.706 74.9454C262.925 74.957 265.236 74.5183 266.64 73.6292C267.97 72.7845 269.024 71.6333 269.805 70.1757C270.6 68.718 271 67.1994 271.006 65.6197C271.019 61.9239 268.87 58.7194 264.558 56.0064Z" fill="white" fill-opacity="0.9"/>
<path d="M286.177 50.281C285.223 50.2776 284.397 49.9542 283.699 49.3109C283.001 48.6675 282.653 47.8839 282.657 46.9599C282.66 46.0359 283.013 45.2548 283.716 44.6165C284.418 43.9782 285.247 43.6608 286.2 43.6643C287.154 43.6677 287.973 43.9911 288.656 44.6344C289.354 45.2777 289.701 46.0614 289.698 46.9853C289.695 47.9093 289.342 48.6904 288.639 49.3287C287.951 49.967 287.13 50.2845 286.177 50.281ZM288.017 66.6734C288.014 67.5228 288.032 68.8865 288.07 70.7644C288.123 72.6424 288.147 74.0061 288.144 74.8555C288.141 75.7199 287.848 76.4342 287.265 76.9984C286.682 77.5477 285.943 77.8207 285.049 77.8175C284.155 77.8142 283.418 77.5359 282.839 76.9824C282.26 76.414 281.971 75.6976 281.975 74.8333C281.978 73.9838 281.953 72.6201 281.9 70.7421C281.862 68.8642 281.845 67.5006 281.848 66.6511C281.852 65.3248 281.933 63.6634 282.089 61.667C282.245 59.6706 282.326 58.0092 282.331 56.6828C282.334 55.8185 282.627 55.1117 283.21 54.5624C283.794 53.9981 284.532 53.7177 285.426 53.7209C286.321 53.7241 287.057 54.0099 287.636 54.5783C288.216 55.1318 288.504 55.8408 288.5 56.7051C288.496 58.0315 288.415 59.6928 288.259 61.6893C288.103 63.6857 288.022 65.3471 288.017 66.6734Z" fill="white" fill-opacity="0.9"/>
<path d="M309.556 62.5623C308.08 62.557 307.196 61.9353 306.902 60.6973C306.307 60.5909 305.696 60.5365 305.07 60.5342C301.478 60.5213 299.681 61.0066 299.677 61.9901C299.675 62.5713 300.753 63.3576 302.91 64.349C305.856 65.7158 307.849 66.7811 308.889 67.5449C311.045 69.1175 312.119 70.8874 312.112 72.8545C312.102 75.4178 310.903 77.3583 308.514 78.676C306.588 79.7272 304.224 80.2477 301.422 80.2376C299.44 80.2304 297.63 79.9183 295.993 79.3014C293.761 78.4588 292.648 77.2253 292.653 75.6009C292.659 74.1106 293.548 73.3687 295.322 73.3751C296.007 73.3776 296.997 73.5973 298.292 74.0341C299.587 74.471 300.585 74.6907 301.286 74.6932C304.311 74.7041 305.833 74.0986 305.852 72.8766C305.855 72.1166 304.808 71.2708 302.71 70.3392C299.645 68.972 297.681 67.9888 296.819 67.3895C294.723 65.9066 293.679 64.107 293.686 61.9908C293.697 58.9954 295.291 56.9818 298.47 55.9501C300.335 55.3458 303.167 55.0506 306.967 55.0643C308.458 55.0697 309.56 55.2674 310.274 55.6574C311.255 56.1826 311.744 57.1456 311.739 58.5464C311.729 61.2289 311.001 62.5676 309.556 62.5623Z" fill="white" fill-opacity="0.9"/>
<path d="M336.839 65.7011C336.2 69.2009 335.815 72.8955 335.681 76.7846C335.515 81.5977 334.697 85.0894 333.229 87.2599C331.266 90.1589 327.804 91.5994 322.841 91.5815C317.044 91.5606 314.15 90.4026 314.158 88.1076C314.161 87.2879 314.424 86.6257 314.947 86.1209C315.471 85.6161 316.157 85.3652 317.007 85.3683C317.677 85.3707 318.638 85.5009 319.889 85.7587C321.14 86.0166 322.25 86.1473 323.218 86.1508C325.439 86.1588 327.081 85.4866 328.144 84.1343C329.162 82.8116 329.766 80.7051 329.955 77.8146C329.192 78.5868 328.333 79.1649 327.378 79.5489C326.423 79.933 325.379 80.1229 324.246 80.1188C321.281 80.1081 318.87 79.1382 317.014 77.209C315.173 75.265 314.258 72.7878 314.269 69.7774C314.283 65.7239 315.532 62.4498 318.015 59.9551C320.588 57.3713 324.057 56.0873 328.424 56.103C329.825 56.1081 331.031 56.2838 332.043 56.6303C333.055 56.9767 333.873 57.5012 334.497 58.2039C336.388 58.4343 337.331 59.5554 337.323 61.5673C337.32 62.5658 337.158 63.9437 336.839 65.7011ZM328.182 61.1989C325.663 61.1898 323.701 62.0099 322.294 63.659C321.036 65.1597 320.403 67.1096 320.395 69.509C320.388 71.2824 320.719 72.6174 321.386 73.514C322.054 74.4106 323.058 74.8613 324.399 74.8661C325.621 74.8705 326.853 74.1671 328.095 72.7558C329.263 71.4188 329.931 70.0948 330.099 68.784C330.388 67.3543 330.723 65.1276 331.107 62.1037C330.601 61.8038 330.103 61.5785 329.612 61.4277C329.12 61.2769 328.644 61.2006 328.182 61.1989Z" fill="white" fill-opacity="0.9"/>
<path d="M359.082 66.0575C358.939 68.3371 357.899 69.4734 355.962 69.4664C354.084 69.4596 353.149 68.4875 353.156 66.5502L353.052 64.292C349.697 64.8164 347.292 66.529 345.836 69.4298L345.817 80.674C345.814 81.5234 345.521 82.2228 344.938 82.7721C344.355 83.3363 343.616 83.6168 342.722 83.6135C341.798 83.6102 341.084 83.3096 340.579 82.7116C340.104 82.1734 339.868 81.487 339.871 80.6525L339.924 66.0106C339.926 65.5486 339.943 64.8631 339.976 63.9542C340.009 63.0303 340.027 62.3374 340.029 61.8754C340.032 61.0409 340.28 60.3488 340.774 59.7992C341.282 59.2347 341.999 58.9541 342.923 58.9575C344.577 58.9634 345.558 59.8165 345.864 61.5165C348.509 59.5589 351.441 58.5859 354.66 58.5975C357.641 58.6083 359.124 60.5957 359.109 64.5598C359.107 65.3198 359.097 65.8191 359.082 66.0575Z" fill="white" fill-opacity="0.9"/>
<path d="M381.606 82.7082C380.921 82.7058 379.836 81.9567 378.351 80.461C376.977 81.1118 375.768 81.5992 374.724 81.9233C373.68 82.2623 372.792 82.4305 372.062 82.4279C368.471 82.4149 365.777 81.4439 363.98 79.515C362.199 77.5861 361.315 74.7066 361.329 70.8766C361.342 67.2851 362.679 64.2199 365.341 61.6811C368.003 59.1275 371.182 57.8573 374.878 57.8706C376.294 57.8758 377.932 58.2841 379.792 59.0955C382.038 60.0723 383.159 61.2015 383.155 62.4832C383.153 63.0197 382.98 63.4885 382.636 63.8896C382.484 64.4852 382.362 65.2373 382.27 66.1461C382.192 67.04 382.151 68.0905 382.147 69.2976C382.136 72.144 382.33 74.1939 382.728 75.4471C382.772 75.5814 383.112 76.3576 383.748 77.7757C384.324 79.0594 384.612 79.7907 384.612 79.9695C384.609 80.7594 384.301 81.414 383.688 81.9334C383.09 82.4528 382.396 82.7111 381.606 82.7082ZM376.118 67.3533C376.12 66.8765 376.151 66.3326 376.213 65.7218C376.29 65.0962 376.397 64.4036 376.534 63.644C376.236 63.4939 375.968 63.3886 375.73 63.3282C375.507 63.2529 375.313 63.2149 375.149 63.2143C373.123 63.207 371.346 63.9979 369.82 65.587C368.295 67.1612 367.528 68.9914 367.52 71.0778C367.513 73.0748 367.865 74.5812 368.577 75.5972C369.289 76.5983 370.36 77.1014 371.791 77.1065C372.715 77.1099 373.587 76.964 374.408 76.6689C375.243 76.359 376.027 75.9073 376.76 75.3138C376.326 71.7654 376.112 69.1119 376.118 67.3533Z" fill="white" fill-opacity="0.9"/>
<path d="M398.103 80.6539C394.824 80.6421 392.078 79.7007 389.864 77.8299C387.532 75.8542 386.371 73.257 386.383 70.038C386.394 67.0723 387.455 64.0136 389.568 60.8619C391.965 57.264 394.744 55.4708 397.903 55.4822C399.453 55.4878 401.262 55.9117 403.331 56.7537C405.845 57.7911 407.1 58.9804 407.096 60.3216C407.093 61.0519 406.837 61.6992 406.329 62.2637C405.79 62.8727 405.096 63.1757 404.246 63.1727C403.606 63.1704 402.832 62.8248 401.925 62.136C401.034 61.4323 399.686 61.0772 397.883 61.0707C396.735 61.0666 395.487 62.1872 394.138 64.4327C392.848 66.6039 392.201 68.4793 392.195 70.059C392.189 71.6238 392.751 72.8553 393.88 73.7535C394.95 74.6069 396.365 75.0367 398.123 75.0431C399.122 75.0467 400.345 74.6711 401.793 73.9162C403.242 73.1614 404.159 72.7847 404.547 72.7861C405.352 72.789 406.036 73.0821 406.6 73.6654C407.179 74.2487 407.468 74.9129 407.465 75.658C407.461 76.8204 406.19 77.9782 403.652 79.1315C401.383 80.1516 399.533 80.6591 398.103 80.6539Z" fill="white" fill-opacity="0.9"/>
<path d="M422.604 80.3624C419.042 80.3495 416.132 79.4896 413.873 77.7825C411.376 75.8957 410.134 73.2459 410.146 69.8332C410.16 66.0628 411.162 62.8772 413.154 60.2764C415.37 57.3933 418.348 55.9585 422.089 55.972C424.682 55.9814 426.834 56.4064 428.545 57.2471C430.791 58.3581 431.91 60.0759 431.901 62.4008C431.895 64.0401 430.974 65.4898 429.136 66.7499C428.299 67.3281 426.62 68.1714 424.097 69.28L416.552 72.5836C417.264 73.3611 418.127 73.9454 419.139 74.3366C420.151 74.7277 421.312 74.9256 422.624 74.9304C424.621 74.9376 426.314 74.5339 427.703 73.7192C428.942 72.9935 429.935 72.6319 430.68 72.6346C432.23 72.6402 433.002 73.3956 432.996 74.9008C432.99 76.5997 431.741 77.9811 429.248 79.0451C427.159 79.9318 424.944 80.3708 422.604 80.3624ZM422.069 61.3817C420.683 61.3767 419.497 61.8344 418.51 62.7548C417.523 63.6752 416.728 65.0583 416.125 66.904C417.812 66.1799 419.491 65.4632 421.163 64.7539C423.178 63.8521 424.783 63.0159 425.978 62.2452C424.982 61.6753 423.679 61.3875 422.069 61.3817Z" fill="white" fill-opacity="0.9"/>
<path d="M447.561 59.5367C449.559 59.3651 450.99 59.2808 451.854 59.2839C454.641 59.294 456.031 60.2528 456.024 62.1604C456.017 64.1275 454.531 65.061 451.565 64.9609C450.627 64.9277 449.203 64.9896 447.295 65.1467C447.23 66.7261 447.208 68.7379 447.229 71.1821C447.275 74.6993 447.298 76.7039 447.296 77.1956C447.286 79.9228 447.107 82.0831 446.759 83.6764C446.41 85.2698 445.424 86.0635 443.799 86.0577C442.965 86.0547 442.235 85.7838 441.611 85.245C441.002 84.7063 440.699 84.0271 440.702 83.2075C440.703 83.0137 440.719 82.8275 440.749 82.6488C441.114 80.519 441.3 78.5152 441.307 76.6375L441.348 65.4605C441.079 65.4744 440.587 65.5322 439.872 65.634C439.305 65.7064 438.873 65.7421 438.575 65.7411C437.666 65.7378 436.914 65.4743 436.32 64.9505C435.726 64.4119 435.43 63.6955 435.433 62.8013C435.438 61.4154 436.172 60.5089 437.634 60.082C438.29 59.8907 439.595 59.7687 441.547 59.7161C441.563 59.448 441.663 58.6063 441.847 57.1912C442.276 53.8694 443.187 51.3988 444.579 49.7794C446.315 47.7589 448.971 46.7551 452.548 46.768C455.275 46.7779 456.635 47.7589 456.628 49.7112C456.621 51.6485 455.351 52.6126 452.817 52.6035C451.014 52.597 449.7 53.2256 448.876 54.4894C448.262 55.426 447.846 56.8925 447.631 58.8887L447.561 59.5367Z" fill="white" fill-opacity="0.9"/>
<path d="M479.881 66.6202C479.877 67.6187 479.879 69.1239 479.887 71.1358C479.895 73.1477 479.897 74.6529 479.893 75.6514C479.892 75.9644 479.912 76.4339 479.955 77.06C480.012 77.6712 480.04 78.1333 480.039 78.4462C480.036 79.2808 479.728 79.9652 479.115 80.4995C478.517 81.0487 477.779 81.3218 476.899 81.3186C475.662 81.3141 474.763 80.752 474.201 79.6323C472.29 80.3258 470.315 80.6689 468.273 80.6615C466.157 80.6539 464.378 80.2004 462.935 79.301C461.314 78.2668 460.351 76.7656 460.045 74.7973C459.478 71.0695 459.199 67.7377 459.21 64.8019C459.217 62.8646 459.448 60.6523 459.904 58.1652C460.208 56.4823 461.217 55.6439 462.931 55.6501C463.796 55.6532 464.532 55.9316 465.141 56.4852C465.75 57.0239 466.053 57.7105 466.05 58.5451C466.048 59.2008 465.933 60.2287 465.704 61.6287C465.49 63.0288 465.382 64.094 465.379 64.8242C465.372 66.9255 465.432 68.7662 465.561 70.3464C465.704 71.9117 465.915 73.209 466.195 74.2383C466.567 74.4036 466.924 74.5316 467.266 74.6222C467.624 74.7129 467.966 74.7589 468.294 74.76C469.948 74.766 471.767 74.5341 473.751 74.0644C473.755 72.9169 473.753 71.6129 473.743 70.1524C473.719 68.4087 473.709 67.1568 473.712 66.3968C473.723 63.3417 473.874 60.7044 474.165 58.485C474.395 56.7124 475.412 55.8293 477.215 55.8358C478.094 55.839 478.846 56.1174 479.47 56.6711C480.094 57.2247 480.382 57.9188 480.334 58.7532C480.03 64.4301 479.879 67.0524 479.881 66.6202Z" fill="white" fill-opacity="0.9"/>
<path d="M491.044 74.2484C491.034 77.0799 490.001 78.4919 487.944 78.4845C487.05 78.4813 486.313 78.1955 485.734 77.6271C485.155 77.0587 484.867 76.3274 484.87 75.4332L484.982 44.5176C484.985 43.6533 485.301 42.9465 485.929 42.3974C486.526 41.8929 487.265 41.6422 488.144 41.6454C489.024 41.6485 489.745 41.9194 490.31 42.4579C490.874 42.9816 491.155 43.6756 491.152 44.5399L491.044 74.2484Z" fill="white" fill-opacity="0.9"/>
<path d="M503.541 76.3404C503.531 79.1719 502.498 80.584 500.441 80.5765C499.547 80.5733 498.81 80.2875 498.231 79.7191C497.652 79.1507 497.364 78.4194 497.367 77.5252L497.479 46.6096C497.482 45.7453 497.798 45.0385 498.425 44.4894C499.023 43.9849 499.762 43.7342 500.641 43.7374C501.521 43.7405 502.242 44.0114 502.807 44.5499C503.371 45.0736 503.652 45.7676 503.649 46.6319L503.541 76.3404Z" fill="white" fill-opacity="0.9"/>
<path d="M531.495 60.8381C529.859 64.2151 527.269 69.5187 523.726 76.7487C521.804 80.6314 520.339 83.8525 519.332 86.4122C519.015 87.335 518.519 88.7043 517.842 90.52C517.3 91.9189 516.344 92.6159 514.973 92.6109C514.123 92.6079 513.379 92.3295 512.74 91.7758C512.101 91.2221 511.783 90.5279 511.786 89.6934C511.791 88.3074 513.386 84.2075 516.57 77.3934C514.942 74.1536 512.359 69.3828 508.82 63.081C508.464 62.5134 508.101 61.9384 507.731 61.3558C507.331 60.6688 507.132 60.0422 507.134 59.4759C507.137 58.6712 507.46 57.9644 508.103 57.3557C508.746 56.747 509.485 56.4442 510.319 56.4472C511.303 56.4508 512.069 56.8187 512.618 57.5509C514.724 60.3751 517.175 64.6239 519.971 70.297C521.579 66.7709 522.555 64.6433 522.9 63.9143C523.966 61.6976 525.009 59.7491 526.029 58.0688C526.673 56.9981 527.555 56.4648 528.672 56.4688C529.507 56.4718 530.251 56.7577 530.905 57.3263C531.558 57.895 531.884 58.5892 531.881 59.4088C531.879 59.841 531.751 60.3174 531.495 60.8381Z" fill="white" fill-opacity="0.9"/>
</g>
<path fill-rule="evenodd" clip-rule="evenodd" d="M759.439 333.488H424.005C424.5 267.754 499.4 214.576 591.722 214.576C684.044 214.576 758.944 267.754 759.439 333.488Z" fill="#8CAE90"/>
<path fill-rule="evenodd" clip-rule="evenodd" d="M344.149 333.488H0.00292969C0.00292969 267.453 77.0426 213.921 172.076 213.921C267.109 213.921 344.149 267.453 344.149 333.488Z" fill="#B4C9B6"/>
<path d="M111.463 200.445C111.646 203.193 117.325 211.802 117.325 211.802C117.325 211.802 121.904 203.01 121.904 200.445C121.904 197.881 120.439 196.232 117.325 196.415C114.211 196.599 111.28 197.698 111.463 200.445Z" fill="white"/>
<path d="M122.739 199.87C120.687 201.707 117.401 211.482 117.401 211.482C117.401 211.482 127.148 209.675 129.169 208.096C131.189 206.517 131.586 204.347 129.524 202.007C127.462 199.666 124.791 198.034 122.739 199.87Z" fill="white"/>
<path d="M129.236 208.502C126.534 207.968 116.749 211.224 116.749 211.224C116.749 211.224 124.056 217.923 126.533 218.587C129.01 219.25 130.982 218.262 131.611 215.206C132.24 212.151 131.937 209.036 129.236 208.502Z" fill="white"/>
<path d="M126.873 219.541C125.63 217.084 117.038 211.38 117.038 211.38C117.038 211.38 116.26 221.263 117.263 223.623C118.265 225.983 120.259 226.928 123.053 225.542C125.848 224.156 128.115 221.999 126.873 219.541Z" fill="white"/>
<path d="M117.93 224.037C118.873 221.45 117.162 211.28 117.162 211.28C117.162 211.28 109.418 217.469 108.381 219.814C107.344 222.16 108.017 224.26 110.939 225.352C113.861 226.444 116.986 226.624 117.93 224.037Z" fill="white"/>
<path d="M107.386 220.003C110.005 219.153 116.963 211.542 116.963 211.542C116.963 211.542 107.318 209.252 104.832 209.879C102.345 210.507 101.105 212.331 102.045 215.305C102.984 218.28 104.766 220.853 107.386 220.003Z" fill="white"/>
<path d="M105.213 209.396C107.501 210.928 117.786 211.687 117.786 211.687C117.786 211.687 113.619 202.692 111.588 201.127C109.557 199.561 107.356 199.715 105.6 202.293C103.844 204.871 102.925 207.863 105.213 209.396Z" fill="white"/>
<path d="M124.587 224.822C124.587 224.822 132.056 231.703 132.355 244.482" stroke="#8CAE90"/>
<circle cx="117.804" cy="211.35" r="5.32809" fill="#F2C94C"/>
<path d="M160.891 209.037C160.779 210.717 157.307 215.98 157.307 215.98C157.307 215.98 154.508 210.605 154.508 209.037C154.508 207.47 155.404 206.462 157.307 206.574C159.211 206.686 161.002 207.358 160.891 209.037Z" fill="white"/>
<path d="M153.997 208.686C155.252 209.808 157.26 215.784 157.26 215.784C157.26 215.784 151.302 214.68 150.067 213.714C148.832 212.749 148.589 211.423 149.85 209.992C151.11 208.561 152.743 207.563 153.997 208.686Z" fill="white"/>
<path d="M150.026 213.962C151.677 213.636 157.659 215.627 157.659 215.627C157.659 215.627 153.192 219.722 151.678 220.127C150.163 220.533 148.958 219.929 148.574 218.061C148.189 216.193 148.374 214.289 150.026 213.962Z" fill="white"/>
<path d="M151.47 220.711C152.23 219.209 157.482 215.722 157.482 215.722C157.482 215.722 157.957 221.763 157.345 223.206C156.732 224.649 155.513 225.226 153.805 224.379C152.097 223.532 150.71 222.213 151.47 220.711Z" fill="white"/>
<path d="M156.937 223.459C156.361 221.878 157.407 215.661 157.407 215.661C157.407 215.661 162.141 219.444 162.775 220.878C163.409 222.312 162.997 223.596 161.211 224.263C159.425 224.931 157.514 225.041 156.937 223.459Z" fill="white"/>
<path d="M163.383 220.993C161.782 220.474 157.528 215.821 157.528 215.821C157.528 215.821 163.424 214.421 164.944 214.805C166.464 215.188 167.222 216.303 166.648 218.121C166.074 219.94 164.984 221.513 163.383 220.993Z" fill="white"/>
<path d="M164.711 214.509C163.313 215.446 157.025 215.91 157.025 215.91C157.025 215.91 159.573 210.411 160.814 209.454C162.056 208.497 163.401 208.591 164.474 210.167C165.548 211.743 166.11 213.572 164.711 214.509Z" fill="white"/>
<path d="M152.868 223.939C152.868 223.939 148.302 228.146 148.12 235.958" stroke="#8CAE90"/>
<circle r="3.25714" transform="matrix(-1 0 0 1 157.014 215.704)" fill="#F2C94C"/>
<path d="M112.242 248.482C112.242 248.482 111.622 251.464 113.155 257.065" stroke="#8CAE90"/>
<path d="M112.57 238.205C112.726 239.345 111.126 243.347 111.126 243.347C111.126 243.347 108.511 240.133 108.296 239.083C108.08 238.033 108.541 237.235 109.832 237.048C111.122 236.861 112.414 237.065 112.57 238.205Z" fill="white"/>
<path d="M107.906 238.918C108.9 239.497 111.067 243.223 111.067 243.223C111.067 243.223 106.925 243.303 105.965 242.826C105.005 242.35 104.66 241.495 105.308 240.363C105.955 239.231 106.911 238.339 107.906 238.918Z" fill="white"/>
<path d="M105.971 242.998C107.032 242.552 111.312 243.062 111.312 243.062C111.312 243.062 108.884 246.419 107.926 246.899C106.968 247.379 106.077 247.14 105.563 245.942C105.048 244.744 104.911 243.444 105.971 242.998Z" fill="white"/>
<path d="M107.867 247.319C108.169 246.208 111.207 243.15 111.207 243.15C111.207 243.15 112.356 247.131 112.144 248.181C111.932 249.232 111.196 249.786 109.935 249.454C108.675 249.122 107.565 248.429 107.867 247.319Z" fill="white"/>
<path d="M111.907 248.407C111.303 247.427 111.149 243.12 111.149 243.12C111.149 243.12 114.839 245.002 115.461 245.875C116.083 246.748 115.984 247.665 114.879 248.357C113.775 249.05 112.511 249.387 111.907 248.407Z" fill="white"/>
<path d="M115.884 245.869C114.74 245.741 111.251 243.21 111.251 243.21C111.251 243.21 115.008 241.462 116.078 241.51C117.149 241.557 117.81 242.2 117.676 243.496C117.541 244.793 117.028 245.996 115.884 245.869Z" fill="white"/>
<path d="M115.881 241.344C115.074 242.163 110.927 243.339 110.927 243.339C110.927 243.339 111.877 239.306 112.576 238.494C113.276 237.683 114.19 237.561 115.126 238.468C116.061 239.376 116.689 240.524 115.881 241.344Z" fill="white"/>
<circle r="2.22681" transform="matrix(-0.979547 0.201216 0.201216 0.979547 110.892 243.203)" fill="#F2C94C"/>
<path fill-rule="evenodd" clip-rule="evenodd" d="M769.684 334.143H0C72.4115 275.475 217.573 235.428 384.842 235.428C552.111 235.428 697.272 275.475 769.684 334.143Z" fill="#CFDED1"/>
<g filter="url(#filter1_d)">
<path d="M404.534 231.674C403.853 217.732 406.497 209.638 416.417 194.723H431.777C440.173 196.894 443.879 201.806 449.166 215.445C437.268 228.59 428.153 232.952 404.534 231.674Z" fill="#DFF2E1"/>
<path fill-rule="evenodd" clip-rule="evenodd" d="M416.184 194.288H431.832L431.886 194.302C436.16 195.407 439.27 197.222 441.973 200.507C444.658 203.769 446.926 208.464 449.571 215.288L449.668 215.538L449.488 215.736C443.519 222.332 438.211 226.765 431.401 229.374C424.599 231.981 416.343 232.749 404.511 232.108L404.12 232.087L404.1 231.696C403.758 224.69 404.25 219.125 406.087 213.43C407.921 207.743 411.087 201.951 416.055 194.482L416.184 194.288ZM416.65 195.158C411.773 202.509 408.696 208.171 406.914 213.697C405.153 219.158 404.649 224.51 404.95 231.261C416.525 231.861 424.53 231.076 431.09 228.562C437.649 226.049 442.809 221.791 448.664 215.352C446.064 208.674 443.859 204.167 441.302 201.06C438.742 197.95 435.816 196.225 431.722 195.158H416.65Z" fill="black"/>
<path d="M414.363 244.95H401.466C402.752 241.587 403.956 240.294 407.407 239.588C410.486 239.745 411.945 240.823 413.488 243.378C413.773 243.85 414.061 244.373 414.363 244.95Z" fill="#ACA6A6"/>
<path fill-rule="evenodd" clip-rule="evenodd" d="M411.384 240.301C410.117 237.661 409.361 235.261 409.147 231.936L410.014 231.88C410.301 236.311 411.571 239.009 413.864 243.161C414.154 243.641 414.445 244.17 414.748 244.748L415.08 245.384H400.834L401.06 244.794C401.709 243.097 402.36 241.856 403.328 240.955C404.303 240.046 405.555 239.523 407.32 239.162L407.374 239.151L407.429 239.154C409.016 239.235 410.232 239.555 411.259 240.218C411.301 240.245 411.343 240.273 411.384 240.301ZM413.111 243.596C412.357 242.347 411.649 241.505 410.788 240.949C409.94 240.402 408.903 240.105 407.44 240.025C405.784 240.369 404.723 240.844 403.921 241.591C403.203 242.259 402.659 243.177 402.106 244.515H413.622C413.447 244.201 413.276 243.895 413.111 243.596Z" fill="black"/>
<path d="M453.684 230.968L461.33 220.583C457.86 219.625 456.105 219.828 453.49 222.188C451.791 224.761 451.794 226.575 452.937 229.332C453.148 229.842 453.398 230.384 453.684 230.968Z" fill="#ACA6A6"/>
<path fill-rule="evenodd" clip-rule="evenodd" d="M451.706 225.814C450.331 223.228 448.847 221.197 446.296 219.052L445.737 219.718C449.135 222.576 450.555 225.198 452.538 229.506C452.753 230.025 453.006 230.572 453.292 231.159L453.607 231.804L462.054 220.332L461.445 220.164C459.694 219.68 458.308 219.469 457.008 219.714C455.699 219.961 454.536 220.659 453.198 221.866L453.157 221.903L453.127 221.949C452.251 223.274 451.788 224.444 451.713 225.664C451.71 225.714 451.708 225.764 451.706 225.814ZM453.335 229.158C452.777 227.81 452.518 226.74 452.581 225.717C452.643 224.711 453.019 223.7 453.822 222.474C455.081 221.345 456.092 220.771 457.169 220.568C458.133 220.387 459.195 220.492 460.6 220.841L453.772 230.114C453.623 229.787 453.477 229.468 453.335 229.158Z" fill="black"/>
<path d="M401.492 178.928L385.117 189.361C387.997 190.736 388.719 192.05 389.464 194.723C399.71 188.817 405.41 185.088 414.968 177.044C415.278 185.164 415.499 189.314 416.127 194.723H432.067C433.707 189.07 434.139 184.747 434.241 175.45C439.596 179.889 444.239 185.739 447.572 186.029C450.905 186.318 456.682 176.232 462.787 168.495L458.44 165.162C454.027 170.234 451.691 172.211 447.572 175.45C442.693 170.472 438.898 167.781 432.067 162.988C425.706 170.872 422.235 170.757 416.127 166.611L401.492 178.928Z" fill="#E2C8E2"/>
<path fill-rule="evenodd" clip-rule="evenodd" d="M431.983 162.399L432.316 162.633C439.019 167.336 442.828 170.034 447.608 174.868C451.524 171.781 453.83 169.796 458.111 164.877L458.38 164.568L463.401 168.418L463.128 168.764C461.608 170.69 460.108 172.764 458.656 174.792C458.437 175.097 458.22 175.401 458.004 175.704C456.785 177.41 455.604 179.063 454.485 180.535C453.17 182.265 451.926 183.765 450.792 184.818C450.224 185.345 449.671 185.771 449.138 186.059C448.606 186.345 448.064 186.508 447.534 186.462C446.592 186.38 445.604 185.912 444.594 185.239C443.578 184.562 442.499 183.647 441.371 182.616C440.579 181.892 439.765 181.113 438.927 180.312C437.569 179.012 436.149 177.654 434.663 176.377C434.542 185.061 434.084 189.327 432.484 194.844L432.393 195.158H415.739L415.695 194.773C415.088 189.547 414.86 185.493 414.567 177.948C405.39 185.621 399.698 189.326 389.681 195.1L389.195 195.379L389.045 194.84C388.675 193.513 388.325 192.584 387.744 191.818C387.167 191.059 386.334 190.424 384.929 189.754L384.222 189.416L401.233 178.577L416.098 166.067L416.371 166.251C419.417 168.319 421.682 169.289 423.924 168.883C426.182 168.475 428.553 166.65 431.728 162.715L431.983 162.399ZM432.148 163.577C429.08 167.321 426.603 169.283 424.078 169.739C421.546 170.197 419.095 169.117 416.156 167.155L401.749 179.279L385.993 189.319C387.09 189.913 387.86 190.533 388.436 191.292C389.029 192.072 389.396 192.972 389.727 194.069C399.655 188.332 405.304 184.609 414.687 176.712L415.368 176.139L415.402 177.028C415.704 184.952 415.922 189.081 416.514 194.288H431.739C433.289 188.842 433.706 184.553 433.805 175.446L433.815 174.534L434.517 175.116C436.279 176.576 437.978 178.2 439.564 179.717C440.395 180.512 441.195 181.278 441.957 181.974C443.076 182.997 444.117 183.876 445.077 184.516C446.042 185.16 446.884 185.532 447.609 185.596C447.911 185.622 448.28 185.533 448.726 185.293C449.17 185.054 449.662 184.68 450.201 184.181C451.277 183.182 452.484 181.731 453.793 180.009C454.903 178.548 456.076 176.907 457.295 175.201C457.512 174.898 457.729 174.593 457.949 174.286C459.315 172.377 460.733 170.416 462.173 168.572L458.499 165.755C454.235 170.627 451.891 172.607 447.84 175.792L447.534 176.033L447.261 175.755C442.492 170.888 438.771 168.225 432.148 163.577Z" fill="black"/>
<path fill-rule="evenodd" clip-rule="evenodd" d="M425.387 124.96L426.02 124.365L467.873 168.893C467.894 168.907 467.924 168.926 467.963 168.95C468.049 169.003 468.178 169.078 468.344 169.161C468.677 169.329 469.153 169.53 469.721 169.664C470.853 169.93 472.343 169.93 473.842 168.872C474.583 168.348 474.918 167.799 475.042 167.289C475.168 166.771 475.088 166.241 474.904 165.743C474.72 165.246 474.441 164.805 474.201 164.484C474.083 164.325 473.976 164.198 473.9 164.112C473.862 164.069 473.832 164.037 473.812 164.016C473.802 164.005 473.795 163.997 473.79 163.993L473.786 163.988L473.785 163.987C473.785 163.987 473.785 163.987 474.093 163.68C474.4 163.373 474.4 163.373 474.4 163.373L474.401 163.373L474.402 163.374L474.404 163.377L474.413 163.386C474.421 163.394 474.431 163.405 474.444 163.419C474.47 163.446 474.507 163.486 474.552 163.536C474.641 163.637 474.763 163.783 474.898 163.964C475.167 164.325 475.497 164.84 475.72 165.442C475.942 166.044 476.066 166.757 475.887 167.494C475.706 168.24 475.228 168.957 474.343 169.582C472.591 170.819 470.829 170.818 469.522 170.511C468.872 170.357 468.331 170.128 467.953 169.938C467.763 169.842 467.613 169.755 467.509 169.692C467.457 169.66 467.416 169.634 467.388 169.615C467.373 169.605 467.362 169.598 467.354 169.592L467.344 169.585L467.341 169.583L467.34 169.582L467.339 169.582C467.339 169.582 467.339 169.582 467.59 169.227L467.339 169.582L467.303 169.556L425.387 124.96Z" fill="black"/>
<path d="M459.788 160.752C461.334 159.779 461.793 160.008 464.083 161.725C466.373 163.443 466.03 167.222 465.056 168.196C464.083 169.169 462.022 168.768 462.022 168.768L458.529 165.848C458.529 165.848 458.242 161.725 459.788 160.752Z" fill="#EAD8C8"/>
<path fill-rule="evenodd" clip-rule="evenodd" d="M462.897 160.345C463.302 160.603 463.773 160.949 464.344 161.378C465.625 162.338 466.144 163.854 466.228 165.213C466.27 165.897 466.203 166.56 466.058 167.124C465.916 167.677 465.686 168.181 465.364 168.503C464.755 169.112 463.852 169.259 463.189 169.282C462.845 169.293 462.535 169.272 462.313 169.248C462.201 169.236 462.11 169.223 462.045 169.213C462.013 169.208 461.988 169.204 461.97 169.201C461.961 169.199 461.954 169.198 461.948 169.197L461.942 169.196L461.94 169.195L461.939 169.195C461.939 169.195 461.939 169.195 462.022 168.768L461.939 169.195L461.829 169.174L458.108 166.063L458.095 165.878L458.529 165.848C458.095 165.878 458.095 165.878 458.095 165.878L458.095 165.877L458.095 165.874L458.094 165.864C458.094 165.855 458.093 165.842 458.092 165.826C458.09 165.794 458.088 165.747 458.085 165.687C458.08 165.568 458.075 165.398 458.074 165.192C458.071 164.779 458.084 164.217 458.147 163.619C458.209 163.025 458.324 162.38 458.531 161.81C458.736 161.249 459.052 160.702 459.557 160.384C460.349 159.886 460.985 159.611 461.763 159.808C462.126 159.9 462.493 160.088 462.897 160.345ZM458.953 165.636L462.21 168.359C462.26 168.366 462.326 168.375 462.405 168.384C462.6 168.404 462.867 168.423 463.159 168.413C463.77 168.392 464.384 168.253 464.749 167.888C464.914 167.724 465.092 167.391 465.216 166.907C465.338 166.436 465.397 165.864 465.36 165.266C465.286 164.063 464.832 162.83 463.822 162.073C463.248 161.643 462.803 161.316 462.43 161.078C462.056 160.84 461.781 160.709 461.55 160.651C461.14 160.547 460.775 160.645 460.02 161.12C459.753 161.288 459.525 161.622 459.348 162.108C459.174 162.585 459.07 163.152 459.011 163.711C458.953 164.266 458.94 164.795 458.943 165.186C458.944 165.373 458.949 165.527 458.953 165.636Z" fill="black"/>
<path d="M389.609 193.709C389.609 196.19 387.468 198.201 384.827 198.201C382.186 198.201 380.045 196.19 380.045 193.709C380.045 191.228 382.186 189.217 384.827 189.217C387.468 189.217 389.609 191.228 389.609 193.709Z" fill="#EAD8C8"/>
<path fill-rule="evenodd" clip-rule="evenodd" d="M384.827 197.331C387.04 197.331 388.739 195.659 388.739 193.709C388.739 191.758 387.04 190.086 384.827 190.086C382.614 190.086 380.914 191.758 380.914 193.709C380.914 195.659 382.614 197.331 384.827 197.331ZM384.827 198.201C387.468 198.201 389.609 196.19 389.609 193.709C389.609 191.228 387.468 189.217 384.827 189.217C382.186 189.217 380.045 191.228 380.045 193.709C380.045 196.19 382.186 198.201 384.827 198.201Z" fill="black"/>
<path fill-rule="evenodd" clip-rule="evenodd" d="M305.697 136.662C309.255 152.104 311.581 160.784 316.412 176.336L315.581 176.594C310.744 161.021 308.412 152.319 304.85 136.858L305.697 136.662ZM319.38 192.925C320.236 191.318 320.264 189.792 319.338 185.246L320.19 185.072C321.113 189.606 321.165 191.422 320.148 193.333C319.824 193.941 319.144 194.276 318.403 194.429C317.646 194.586 316.731 194.575 315.791 194.413C313.92 194.09 311.829 193.14 310.58 191.51L311.27 190.981C312.346 192.385 314.206 193.257 315.939 193.556C316.801 193.705 317.602 193.707 318.227 193.578C318.867 193.445 319.236 193.196 319.38 192.925Z" fill="black"/>
<path d="M351.21 160.96C338.758 166.41 331.969 169.667 321.214 176.899L323.098 183.275C332.549 178.156 337.898 175.578 347.732 172.697V196.317C347.732 196.317 348.175 195.956 354.503 195.447C360.83 194.939 361.353 195.447 361.353 195.447L362.078 170.813C371.924 179.614 376.855 184.669 384.828 193.853L388.596 189.506C379.685 177.392 373.863 170.861 362.078 159.655C357.839 163.792 355.459 164.15 351.21 160.96Z" fill="#EEEFCF"/>
<path fill-rule="evenodd" clip-rule="evenodd" d="M362.073 159.052L362.377 159.34C374.178 170.562 380.018 177.112 388.945 189.249L389.151 189.529L384.828 194.517L384.499 194.139C376.728 185.187 371.857 180.169 362.484 171.761L361.758 196.448L361.099 195.808C361.089 195.804 361.076 195.8 361.059 195.796C360.948 195.766 360.716 195.721 360.27 195.691C359.38 195.629 357.692 195.627 354.537 195.881C351.378 196.135 349.7 196.351 348.817 196.501C348.375 196.577 348.141 196.634 348.023 196.669C347.996 196.677 347.977 196.684 347.963 196.689L347.297 197.231V173.279C337.856 176.082 332.561 178.643 323.304 183.658L322.832 183.913L320.706 176.717L320.971 176.539C331.756 169.286 338.572 166.017 351.035 160.561L351.267 160.46L351.47 160.612C353.571 162.19 355.111 162.81 356.593 162.624C358.096 162.435 359.661 161.406 361.774 159.344L362.073 159.052ZM362.079 160.258C360.088 162.155 358.424 163.27 356.701 163.487C354.93 163.709 353.209 162.97 351.152 161.459C338.961 166.799 332.226 170.039 321.721 177.082L323.362 182.638C332.537 177.679 337.9 175.125 347.609 172.28L348.166 172.117V195.74C348.302 195.711 348.468 195.679 348.671 195.644C349.591 195.487 351.299 195.269 354.467 195.014C357.639 194.759 359.377 194.757 360.33 194.823C360.577 194.84 360.775 194.862 360.934 194.886L361.67 169.866L362.367 170.489C372.091 179.181 377.033 184.23 384.827 193.19L388.039 189.484C379.337 177.674 373.555 171.186 362.079 160.258Z" fill="black"/>
<path d="M323.677 180.522C323.677 183.243 321.406 185.449 318.605 185.449C315.804 185.449 313.533 183.243 313.533 180.522C313.533 177.801 315.804 175.595 318.605 175.595C321.406 175.595 323.677 177.801 323.677 180.522Z" fill="#C0B4A9"/>
<path fill-rule="evenodd" clip-rule="evenodd" d="M318.605 184.579C320.95 184.579 322.807 182.739 322.807 180.522C322.807 178.305 320.95 176.465 318.605 176.465C316.26 176.465 314.403 178.305 314.403 180.522C314.403 182.739 316.26 184.579 318.605 184.579ZM318.605 185.449C321.406 185.449 323.677 183.243 323.677 180.522C323.677 177.801 321.406 175.595 318.605 175.595C315.804 175.595 313.533 177.801 313.533 180.522C313.533 183.243 315.804 185.449 318.605 185.449Z" fill="black"/>
<path d="M392.942 193.709C392.942 196.189 390.996 198.201 388.595 198.201C386.194 198.201 384.248 196.189 384.248 193.709C384.248 191.228 386.194 189.216 388.595 189.216C390.996 189.216 392.942 191.228 392.942 193.709Z" fill="#C0B4A9"/>
<path fill-rule="evenodd" clip-rule="evenodd" d="M388.595 197.331C390.489 197.331 392.073 195.736 392.073 193.709C392.073 191.681 390.489 190.086 388.595 190.086C386.701 190.086 385.117 191.681 385.117 193.709C385.117 195.736 386.701 197.331 388.595 197.331ZM388.595 198.201C390.996 198.201 392.942 196.189 392.942 193.709C392.942 191.228 390.996 189.216 388.595 189.216C386.194 189.216 384.248 191.228 384.248 193.709C384.248 196.189 386.194 198.201 388.595 198.201Z" fill="black"/>
<path d="M367.439 145.724C368.308 153.404 361.766 162.571 356.426 163.258C354.685 163.481 352.689 162.797 350.745 161.415C346.726 158.555 342.931 152.708 342.08 145.724C341.91 144.329 341.929 142.966 342.126 141.667C342.398 139.877 343.009 138.207 343.935 136.732C344.961 135.098 346.373 133.704 348.137 132.656C349.638 131.765 351.393 131.124 353.383 130.799C356.628 130.267 359.418 131.371 361.642 133.384C363.03 134.639 364.198 136.248 365.12 138.036C365.895 139.537 366.497 141.165 366.909 142.814C367.152 143.783 367.33 144.76 367.439 145.724Z" fill="#C0B4A9"/>
<path fill-rule="evenodd" clip-rule="evenodd" d="M348.361 132.028L347.383 129.483L346.572 129.795L347.601 132.474C346.032 133.464 344.744 134.729 343.765 136.194L340.91 135.032L340.583 135.838L343.301 136.943C342.559 138.24 342.043 139.668 341.766 141.182L338.802 140.8L338.691 141.663L341.636 142.041C341.491 143.247 341.493 144.499 341.648 145.776C342.513 152.874 346.368 158.834 350.493 161.768C352.486 163.186 354.591 163.931 356.481 163.688C357.921 163.503 359.404 162.754 360.793 161.648C362.185 160.539 363.506 159.053 364.624 157.352C366.855 153.958 368.32 149.645 367.87 145.675C367.779 144.871 367.642 144.058 367.459 143.248H369.728V142.379H367.246C366.861 140.931 366.333 139.503 365.672 138.164L367.7 136.64L367.177 135.945L365.265 137.383C364.45 135.897 363.461 134.539 362.309 133.414L364.489 131.708L363.954 131.023L361.658 132.819C359.398 130.886 356.576 129.835 353.312 130.369C351.466 130.671 349.809 131.24 348.361 132.028ZM361.351 133.706C359.206 131.765 356.546 130.721 353.453 131.227C351.513 131.544 349.81 132.168 348.359 133.029C346.653 134.042 345.292 135.387 344.303 136.963C343.41 138.385 342.819 139.998 342.556 141.731C342.38 142.884 342.35 144.09 342.473 145.328C344.215 145.509 345.82 145.662 347.332 145.785C350.667 146.056 353.545 146.18 356.42 146.142C359.17 146.106 361.922 145.92 365.072 145.569C365.683 145.501 366.31 145.427 366.954 145.347C366.846 144.541 366.69 143.728 366.487 142.919C366.082 141.3 365.492 139.705 364.734 138.235C363.83 136.484 362.692 134.919 361.351 133.706ZM367.048 146.211C366.529 146.276 366.022 146.337 365.524 146.394C365.512 146.498 365.496 146.621 365.475 146.759C365.406 147.198 365.277 147.793 365.036 148.411C364.556 149.642 363.597 151.041 361.717 151.368C359.798 151.702 358.35 150.434 357.438 149.24C356.988 148.65 356.643 148.045 356.407 147.581C355.91 148.524 355.373 149.368 354.712 150.018C353.847 150.867 352.778 151.375 351.354 151.375C349.968 151.375 348.902 151 348.151 150.106C347.475 149.301 347.104 148.133 346.907 146.622C345.55 146.509 344.119 146.372 342.584 146.213C343.546 152.843 347.187 158.349 350.997 161.06C352.892 162.408 354.779 163.031 356.37 162.826C357.6 162.668 358.937 162.014 360.251 160.968C361.56 159.925 362.822 158.511 363.898 156.874C365.97 153.722 367.318 149.803 367.048 146.211ZM347.794 146.694C347.988 148.043 348.321 148.956 348.816 149.546C349.351 150.182 350.132 150.505 351.354 150.505C352.538 150.505 353.391 150.097 354.103 149.397C354.708 148.803 355.216 147.994 355.72 147.018C353.201 147.028 350.656 146.916 347.794 146.694ZM357.089 147C359.498 146.947 361.928 146.781 364.635 146.492C364.63 146.534 364.623 146.578 364.616 146.624C364.553 147.021 364.438 147.552 364.226 148.096C363.8 149.189 363.02 150.259 361.568 150.512C360.154 150.758 358.994 149.844 358.13 148.712C357.707 148.158 357.381 147.584 357.16 147.145C357.135 147.094 357.111 147.046 357.089 147Z" fill="black"/>
<path d="M353.209 144.357C353.209 145.177 352.56 145.841 351.76 145.841C350.959 145.841 350.311 145.177 350.311 144.357C350.311 143.537 350.959 142.872 351.76 142.872C352.56 142.872 353.209 143.537 353.209 144.357Z" fill="black"/>
<path d="M362.193 144.357C362.193 145.177 361.544 145.841 360.744 145.841C359.944 145.841 359.295 145.177 359.295 144.357C359.295 143.537 359.944 142.872 360.744 142.872C361.544 142.872 362.193 143.537 362.193 144.357Z" fill="black"/>
<path fill-rule="evenodd" clip-rule="evenodd" d="M355.651 157.84C354.177 157.751 352.867 156.9 351.753 155.644L352.403 155.067C353.434 156.229 354.546 156.902 355.703 156.972C356.851 157.041 358.156 156.521 359.592 155.052L360.214 155.66C358.67 157.24 357.134 157.929 355.651 157.84Z" fill="black"/>
<path d="M354.397 195.447C333.395 197.813 327.581 202.664 317.373 225.226L322.517 228.372C332.427 212.757 344.324 198.78 359.323 202.693C374.323 206.605 364.91 225.452 354.397 244.281H365.265C383.474 210.502 375.398 193.082 354.397 195.447Z" fill="#B3CAD7"/>
<path fill-rule="evenodd" clip-rule="evenodd" d="M367.311 197.713C363.986 195.938 359.638 195.295 354.446 195.879C343.962 197.06 337.364 198.854 332.111 203.101C326.899 207.315 322.956 213.984 317.928 225.055L322.38 227.779C327.28 220.095 332.687 212.799 338.737 207.873C344.892 202.861 351.756 200.27 359.433 202.272C363.287 203.277 365.638 205.266 366.763 208.03C367.876 210.764 367.756 214.181 366.851 217.994C365.083 225.443 360.255 234.657 355.137 243.846H365.005C373.996 227.095 376.426 214.504 374.117 206.43C372.963 202.394 370.626 199.482 367.311 197.713ZM365.991 243.846C374.83 227.247 377.339 214.536 374.953 206.191C373.739 201.945 371.257 198.834 367.72 196.946C364.194 195.064 359.656 194.418 354.348 195.015C343.831 196.2 337.02 198.014 331.564 202.425C326.194 206.766 322.189 213.582 317.18 224.598L310.137 220.29L309.684 221.032L324.609 230.161L325.063 229.42L323.122 228.232C328.007 220.572 333.352 213.379 339.286 208.547C345.307 203.644 351.892 201.204 359.214 203.113C362.861 204.065 364.957 205.899 365.958 208.358C366.97 210.846 366.893 214.051 366.005 217.793C364.229 225.278 359.281 234.643 354.017 244.069L353.656 244.716H370.916V243.846H365.991Z" fill="black"/>
<path d="M422.992 169.791C412.733 170.68 412.087 156.786 412.087 155.252C412.087 154.834 412.201 153.583 412.58 151.987C412.752 151.264 412.978 150.471 413.273 149.652C414.718 145.64 417.809 141.018 424.203 141.116C431.26 141.223 433.862 145.858 434.789 149.652C434.994 150.49 435.117 151.288 435.188 151.987C435.277 152.867 435.285 153.59 435.27 154.04C435.189 156.463 433.25 168.903 422.992 169.791Z" fill="#EAD8C8"/>
<path fill-rule="evenodd" clip-rule="evenodd" d="M412.864 149.505C414.333 145.428 417.535 140.579 424.21 140.681C427.843 140.736 430.368 141.962 432.102 143.694C433.826 145.416 434.737 147.606 435.211 149.549C435.422 150.41 435.548 151.227 435.621 151.943C435.712 152.843 435.72 153.586 435.704 154.054C435.662 155.316 435.147 159.096 433.336 162.687C431.52 166.288 428.364 169.762 423.029 170.224C420.356 170.456 418.281 169.723 416.689 168.45C415.107 167.186 414.028 165.411 413.29 163.594C411.816 159.965 411.652 156.044 411.652 155.252C411.652 154.791 411.773 153.505 412.157 151.886C412.333 151.15 412.563 150.341 412.864 149.505ZM413.912 149.193C413.953 149.191 413.995 149.188 414.039 149.185C414.523 149.153 415.195 149.088 415.952 148.959C417.479 148.699 419.289 148.185 420.589 147.192C421.878 146.209 422.678 144.693 423.158 143.385C423.396 142.736 423.55 142.15 423.645 141.727C423.659 141.665 423.671 141.607 423.683 141.553C418.217 141.699 415.37 145.529 413.912 149.193ZM424.332 142.564C424.24 142.9 424.122 143.28 423.974 143.684C423.471 145.058 422.596 146.754 421.117 147.884C419.648 149.005 417.669 149.548 416.098 149.816C415.306 149.951 414.603 150.019 414.097 150.053C413.891 150.066 413.718 150.075 413.584 150.079C413.388 150.649 413.226 151.203 413.092 151.726L416.421 153.084C416.461 153.047 416.506 153.007 416.555 152.962C416.77 152.772 417.073 152.519 417.429 152.27C417.783 152.023 418.2 151.774 418.639 151.598C419.075 151.424 419.562 151.31 420.047 151.369C420.936 151.476 421.761 151.982 422.336 152.421C422.63 152.646 422.872 152.864 423.041 153.026C423.094 153.076 423.139 153.121 423.177 153.159H426.217C426.226 153.139 426.236 153.117 426.247 153.096C426.35 152.887 426.512 152.609 426.752 152.327C427.238 151.758 428.042 151.18 429.279 151.146C430.531 151.112 431.346 151.699 431.833 152.288C432.04 152.538 432.189 152.788 432.291 152.991L434.723 151.737C434.662 151.223 434.572 150.663 434.442 150.078C434.321 150.072 434.171 150.065 433.997 150.052C433.514 150.019 432.848 149.951 432.11 149.815C430.655 149.548 428.839 149.001 427.657 147.849C426.518 146.739 425.552 145.079 424.879 143.728C424.669 143.306 424.485 142.91 424.332 142.564ZM434.219 149.196C433.737 147.504 432.904 145.723 431.488 144.309C430.027 142.85 427.919 141.754 424.853 141.574C424.864 141.6 424.875 141.627 424.887 141.654C425.066 142.085 425.329 142.68 425.658 143.34C426.321 144.672 427.234 146.223 428.264 147.227C429.252 148.189 430.85 148.699 432.267 148.96C432.965 149.089 433.599 149.153 434.058 149.185C434.114 149.189 434.168 149.193 434.219 149.196ZM434.809 152.671L432.56 153.831C432.59 154.013 432.625 154.26 432.649 154.54C432.699 155.119 432.706 155.897 432.484 156.551C432.052 157.824 430.823 158.962 429.282 158.932C427.835 158.905 426.431 158.164 426.084 156.5C425.926 155.745 425.927 154.997 425.965 154.445C425.976 154.291 425.99 154.151 426.004 154.028H423.427V156.997C423.427 157.339 423.291 157.685 423.103 157.99C422.911 158.301 422.644 158.603 422.331 158.865C421.714 159.382 420.859 159.789 419.969 159.737C419.171 159.689 418.307 159.474 417.591 159.055C416.87 158.633 416.272 157.987 416.092 157.082C415.932 156.279 415.934 155.386 415.972 154.708C415.991 154.369 416.02 154.078 416.044 153.869L412.891 152.583C412.607 153.913 412.522 154.917 412.522 155.252C412.522 155.994 412.682 159.787 414.095 163.267C414.801 165.003 415.807 166.632 417.232 167.771C418.646 168.901 420.498 169.571 422.954 169.358C427.879 168.932 430.821 165.743 432.559 162.295C434.303 158.839 434.797 155.188 434.835 154.025C434.846 153.707 434.845 153.24 434.809 152.671ZM416.928 153.801C416.922 153.846 416.915 153.901 416.908 153.964C416.885 154.16 416.858 154.436 416.84 154.757C416.803 155.406 416.806 156.215 416.945 156.912C417.063 157.508 417.459 157.97 418.03 158.304C418.604 158.641 419.329 158.828 420.021 158.869C420.621 158.904 421.264 158.624 421.773 158.198C422.023 157.988 422.226 157.755 422.363 157.533C422.504 157.305 422.557 157.119 422.557 156.997V153.768C422.525 153.736 422.485 153.697 422.44 153.654C422.288 153.508 422.071 153.313 421.808 153.112C421.271 152.702 420.598 152.311 419.943 152.232C419.655 152.197 419.322 152.261 418.962 152.405C418.604 152.548 418.248 152.759 417.926 152.984C417.606 153.207 417.33 153.437 417.133 153.612C417.048 153.687 416.979 153.752 416.928 153.801ZM426.93 153.705C426.929 153.713 426.927 153.723 426.925 153.734C426.918 153.771 426.909 153.828 426.898 153.9C426.876 154.045 426.85 154.254 426.833 154.506C426.798 155.012 426.799 155.673 426.935 156.323C427.175 157.471 428.123 158.04 429.299 158.063C430.381 158.084 431.323 157.268 431.66 156.272C431.823 155.792 431.83 155.161 431.783 154.614C431.76 154.348 431.726 154.114 431.698 153.948C431.683 153.865 431.671 153.799 431.662 153.754C431.657 153.733 431.654 153.716 431.651 153.705C431.651 153.705 431.651 153.705 431.651 153.705C431.648 153.695 431.642 153.677 431.634 153.654C431.617 153.608 431.589 153.539 431.55 153.455C431.471 153.286 431.346 153.062 431.164 152.842C430.806 152.41 430.23 151.99 429.302 152.015C428.36 152.041 427.773 152.469 427.413 152.891C427.23 153.106 427.106 153.319 427.027 153.479C426.988 153.558 426.961 153.623 426.945 153.666C426.938 153.683 426.934 153.696 426.93 153.705ZM431.655 153.716L431.655 153.716L431.655 153.716C431.655 153.716 431.655 153.716 431.655 153.716ZM419.594 162.381C419.594 162.381 419.594 162.38 419.995 162.213C420.396 162.046 420.396 162.045 420.396 162.045L420.397 162.048C420.399 162.052 420.401 162.057 420.405 162.065C420.412 162.081 420.423 162.106 420.439 162.138C420.47 162.202 420.518 162.296 420.582 162.409C420.712 162.637 420.907 162.936 421.166 163.226C421.687 163.81 422.424 164.313 423.398 164.222C424.438 164.126 425.111 163.647 425.529 163.193C425.74 162.965 425.887 162.743 425.979 162.579C426.025 162.497 426.058 162.431 426.078 162.387C426.088 162.365 426.095 162.349 426.099 162.339C426.101 162.335 426.102 162.331 426.103 162.33L426.103 162.33C426.103 162.331 426.102 162.331 426.509 162.484C426.916 162.638 426.916 162.638 426.916 162.638L426.915 162.64L426.914 162.643L426.911 162.65C426.909 162.656 426.906 162.664 426.902 162.673C426.894 162.692 426.883 162.718 426.868 162.75C426.839 162.814 426.795 162.902 426.736 163.007C426.617 163.217 426.433 163.496 426.168 163.783C425.635 164.361 424.773 164.968 423.479 165.088C422.119 165.214 421.134 164.496 420.517 163.805C420.207 163.457 419.978 163.105 419.827 162.841C419.751 162.708 419.694 162.596 419.656 162.516C419.636 162.476 419.621 162.443 419.611 162.42C419.606 162.409 419.602 162.4 419.599 162.393L419.596 162.385L419.594 162.382L419.594 162.381L419.594 162.381Z" fill="black"/>
<path d="M420.928 154.886C420.928 155.522 420.412 156.038 419.776 156.038C419.14 156.038 418.624 155.522 418.624 154.886C418.624 154.25 419.14 153.734 419.776 153.734C420.412 153.734 420.928 154.25 420.928 154.886Z" fill="black"/>
<path d="M430.491 154.597C430.491 155.233 429.976 155.748 429.339 155.748C428.703 155.748 428.188 155.233 428.188 154.597C428.188 153.96 428.703 153.445 429.339 153.445C429.976 153.445 430.491 153.96 430.491 154.597Z" fill="black"/>
<path d="M416.756 143.999C419.685 141.714 424.155 141.32 424.155 141.32C424.155 141.32 423.461 146.048 420.764 147.939C418.066 149.831 413.442 149.831 413.442 149.831C413.442 149.831 413.828 146.285 416.756 143.999Z" fill="#C4C4C4"/>
<path d="M431.571 144.139C428.624 141.271 424.155 141.32 424.155 141.32C424.155 141.32 426.057 145.695 427.863 147.688C429.67 149.681 434.519 149.681 434.519 149.681C434.519 149.681 434.519 147.008 431.571 144.139Z" fill="#C4C4C4"/>
<path fill-rule="evenodd" clip-rule="evenodd" d="M424.146 140.45L424.155 141.32L424.079 140.454L424.112 140.451L424.146 140.45ZM434.519 149.681C435.389 149.681 435.389 149.681 435.389 149.68L435.389 149.677L435.389 149.672L435.389 149.658C435.388 149.648 435.388 149.635 435.388 149.62C435.386 149.589 435.384 149.548 435.381 149.497C435.373 149.396 435.359 149.257 435.332 149.085C435.279 148.74 435.174 148.262 434.969 147.692C434.559 146.549 433.752 145.048 432.178 143.516C430.549 141.931 428.526 141.173 426.956 140.807C426.165 140.623 425.472 140.534 424.975 140.491C424.725 140.469 424.524 140.459 424.382 140.454C424.311 140.452 424.255 140.451 424.215 140.45C424.195 140.45 424.179 140.45 424.168 140.45L424.153 140.45L424.149 140.45L424.146 140.45C424.146 140.45 424.146 140.45 424.155 141.32C424.079 140.454 424.079 140.454 424.078 140.454L424.076 140.454L424.073 140.454L424.06 140.455C424.049 140.456 424.034 140.458 424.015 140.46C423.977 140.464 423.923 140.47 423.855 140.478C423.717 140.494 423.521 140.52 423.277 140.558C422.79 140.634 422.111 140.76 421.336 140.961C419.803 141.358 417.822 142.065 416.222 143.314C414.599 144.58 413.692 146.186 413.193 147.453C412.942 148.089 412.79 148.648 412.7 149.052C412.655 149.255 412.625 149.419 412.606 149.536C412.597 149.595 412.59 149.642 412.586 149.675C412.584 149.692 412.582 149.706 412.581 149.716L412.579 149.729L412.579 149.734L412.578 149.735L412.578 149.736C412.578 149.736 412.578 149.737 413.443 149.831L412.578 149.737L412.474 150.7H413.443V149.831C413.443 150.7 413.443 150.7 413.443 150.7L413.445 150.7L413.449 150.7L413.462 150.7C413.472 150.7 413.488 150.7 413.507 150.7C413.545 150.699 413.601 150.698 413.671 150.696C413.812 150.692 414.013 150.684 414.261 150.669C414.758 150.638 415.448 150.577 416.228 150.453C417.76 150.21 419.75 149.712 421.263 148.651C422.838 147.547 423.762 145.681 424.289 144.215C424.332 144.097 424.372 143.981 424.41 143.867C424.459 143.962 424.51 144.06 424.561 144.159C425.265 145.507 426.235 147.186 427.219 148.272C427.794 148.907 428.571 149.343 429.346 149.649C430.128 149.958 430.966 150.158 431.72 150.289C432.478 150.42 433.173 150.485 433.677 150.518C433.93 150.534 434.137 150.542 434.283 150.547C434.355 150.549 434.413 150.55 434.453 150.55C434.473 150.55 434.488 150.551 434.5 150.551L434.513 150.551L434.517 150.551L434.519 150.551C434.519 150.551 434.519 150.551 434.519 149.681ZM433.648 149.644C434.18 149.681 434.519 149.681 434.519 149.681H435.389V150.551H434.519V149.681C434.519 149.681 434.519 149.356 434.394 148.81C434.16 147.792 433.491 146.007 431.572 144.139C429.478 142.102 426.618 141.537 425.135 141.38C424.531 141.316 424.155 141.32 424.155 141.32C424.155 141.32 423.811 141.35 423.251 141.443C421.794 141.684 418.873 142.348 416.757 143.999C414.732 145.579 413.923 147.761 413.616 148.958C413.479 149.493 413.443 149.831 413.443 149.831C413.443 149.831 413.78 149.831 414.326 149.793C415.801 149.693 418.796 149.32 420.764 147.939C422.52 146.708 423.427 144.275 423.846 142.726C423.896 142.542 423.939 142.37 423.975 142.215C424.104 141.669 424.155 141.32 424.155 141.32C424.155 141.32 424.305 141.664 424.56 142.204C424.623 142.337 424.693 142.482 424.768 142.636C425.474 144.089 426.689 146.392 427.863 147.688C429.192 149.154 432.167 149.542 433.648 149.644Z" fill="black"/>
</g>
<path d="M639.469 196.413C639.313 198.741 634.502 206.037 634.502 206.037C634.502 206.037 630.621 198.586 630.621 196.413C630.621 194.24 631.863 192.843 634.502 192.998C637.14 193.153 639.624 194.085 639.469 196.413Z" fill="white"/>
<path d="M629.914 195.926C631.653 197.482 634.438 205.766 634.438 205.766C634.438 205.766 626.178 204.235 624.466 202.896C622.753 201.558 622.417 199.719 624.165 197.736C625.912 195.753 628.175 194.369 629.914 195.926Z" fill="white"/>
<path d="M624.408 203.24C626.697 202.788 634.99 205.547 634.99 205.547C634.99 205.547 628.797 211.224 626.698 211.786C624.599 212.349 622.928 211.511 622.395 208.922C621.862 206.333 622.119 203.693 624.408 203.24Z" fill="white"/>
<path d="M626.41 212.595C627.464 210.513 634.744 205.679 634.744 205.679C634.744 205.679 635.403 214.054 634.554 216.054C633.704 218.055 632.015 218.855 629.647 217.68C627.279 216.506 625.357 214.678 626.41 212.595Z" fill="white"/>
<path d="M633.989 216.405C633.189 214.213 634.639 205.595 634.639 205.595C634.639 205.595 641.202 210.84 642.08 212.827C642.959 214.814 642.389 216.594 639.912 217.52C637.436 218.445 634.788 218.597 633.989 216.405Z" fill="white"/>
<path d="M642.924 212.987C640.705 212.267 634.808 205.817 634.808 205.817C634.808 205.817 642.981 203.876 645.088 204.408C647.195 204.939 648.246 206.485 647.45 209.006C646.654 211.526 645.144 213.707 642.924 212.987Z" fill="white"/>
<path d="M644.766 203.998C642.828 205.296 634.112 205.939 634.112 205.939C634.112 205.939 637.643 198.317 639.365 196.99C641.086 195.664 642.95 195.794 644.438 197.979C645.926 200.164 646.705 202.699 644.766 203.998Z" fill="white"/>
<path d="M628.349 217.07C628.349 217.07 622.019 222.901 621.766 233.731" stroke="#B4C9B6"/>
<circle r="4.51515" transform="matrix(-1 0 0 1 634.096 205.654)" fill="#F2C94C"/>
<path d="M585.807 210.918C585.902 212.341 588.843 216.801 588.843 216.801C588.843 216.801 591.216 212.246 591.216 210.918C591.216 209.589 590.457 208.735 588.843 208.83C587.23 208.925 585.712 209.495 585.807 210.918Z" fill="white"/>
<path d="M591.648 210.62C590.585 211.571 588.883 216.635 588.883 216.635C588.883 216.635 593.932 215.699 594.979 214.881C596.026 214.063 596.231 212.939 595.163 211.727C594.095 210.514 592.711 209.669 591.648 210.62Z" fill="white"/>
<path d="M595.014 215.092C593.614 214.815 588.545 216.502 588.545 216.502C588.545 216.502 592.331 219.972 593.614 220.316C594.897 220.66 595.918 220.148 596.244 218.565C596.57 216.982 596.413 215.368 595.014 215.092Z" fill="white"/>
<path d="M593.79 220.81C593.147 219.537 588.696 216.583 588.696 216.583C588.696 216.583 588.293 221.702 588.812 222.925C589.332 224.148 590.364 224.637 591.812 223.919C593.259 223.201 594.434 222.083 593.79 220.81Z" fill="white"/>
<path d="M589.157 223.139C589.646 221.799 588.759 216.531 588.759 216.531C588.759 216.531 584.747 219.737 584.21 220.952C583.673 222.167 584.022 223.255 585.535 223.821C587.049 224.386 588.668 224.48 589.157 223.139Z" fill="white"/>
<path d="M583.695 221.05C585.052 220.609 588.657 216.666 588.657 216.666C588.657 216.666 583.66 215.48 582.372 215.805C581.084 216.13 580.442 217.075 580.928 218.616C581.415 220.157 582.338 221.49 583.695 221.05Z" fill="white"/>
<path d="M582.569 215.554C583.754 216.348 589.082 216.742 589.082 216.742C589.082 216.742 586.923 212.082 585.871 211.271C584.819 210.46 583.679 210.54 582.769 211.875C581.86 213.211 581.384 214.761 582.569 215.554Z" fill="white"/>
<path d="M592.605 223.546C592.605 223.546 596.475 227.111 596.629 233.731" stroke="#B4C9B6"/>
<circle cx="589.091" cy="216.567" r="2.76017" fill="#F2C94C"/>
<path d="M606.978 234.423C606.978 234.423 607.705 237.921 605.906 244.491" stroke="#B4C9B6"/>
<path d="M606.593 222.367C606.41 223.705 608.288 228.399 608.288 228.399C608.288 228.399 611.355 224.629 611.608 223.397C611.861 222.166 611.319 221.229 609.806 221.01C608.292 220.791 606.776 221.029 606.593 222.367Z" fill="white"/>
<path d="M612.065 223.203C610.898 223.883 608.356 228.253 608.356 228.253C608.356 228.253 613.215 228.347 614.341 227.788C615.468 227.229 615.872 226.226 615.113 224.899C614.353 223.571 613.232 222.524 612.065 223.203Z" fill="white"/>
<path d="M614.333 227.99C613.088 227.467 608.068 228.065 608.068 228.065C608.068 228.065 610.916 232.003 612.04 232.566C613.164 233.13 614.209 232.849 614.812 231.444C615.416 230.039 615.578 228.513 614.333 227.99Z" fill="white"/>
<path d="M612.11 233.059C611.756 231.756 608.192 228.169 608.192 228.169C608.192 228.169 606.843 232.838 607.092 234.071C607.341 235.303 608.205 235.953 609.684 235.563C611.162 235.174 612.464 234.361 612.11 233.059Z" fill="white"/>
<path d="M607.371 234.335C608.079 233.186 608.26 228.133 608.26 228.133C608.26 228.133 603.931 230.341 603.201 231.365C602.472 232.389 602.588 233.465 603.884 234.277C605.179 235.09 606.662 235.485 607.371 234.335Z" fill="white"/>
<path d="M602.705 231.358C604.047 231.208 608.14 228.239 608.14 228.239C608.14 228.239 603.733 226.188 602.477 226.244C601.221 226.3 600.446 227.054 600.603 228.575C600.761 230.096 601.363 231.507 602.705 231.358Z" fill="white"/>
<path d="M602.708 226.049C603.655 227.011 608.52 228.39 608.52 228.39C608.52 228.39 607.406 223.659 606.585 222.707C605.764 221.754 604.692 221.611 603.594 222.676C602.497 223.741 601.76 225.087 602.708 226.049Z" fill="white"/>
<circle cx="608.562" cy="228.23" r="2.61231" transform="rotate(11.6081 608.562 228.23)" fill="#F2C94C"/>
<defs>
<filter id="filter0_d" x="248.759" y="8.1012" width="285.304" height="86.5704" filterUnits="userSpaceOnUse" color-interpolation-filters="sRGB">
<feFlood flood-opacity="0" result="BackgroundImageFix"/>
<feColorMatrix in="SourceAlpha" type="matrix" values="0 0 0 0 0 0 0 0 0 0 0 0 0 0 0 0 0 0 127 0"/>
<feOffset dx="2" dy="2"/>
<feColorMatrix type="matrix" values="0 0 0 0 0 0 0 0 0 0 0 0 0 0 0 0 0 0 0.1 0"/>
<feBlend mode="normal" in2="BackgroundImageFix" result="effect1_dropShadow"/>
<feBlend mode="normal" in="SourceGraphic" in2="effect1_dropShadow" result="shape"/>
</filter>
<filter id="filter1_d" x="302.85" y="123.365" width="175.123" height="125.019" filterUnits="userSpaceOnUse" color-interpolation-filters="sRGB">
<feFlood flood-opacity="0" result="BackgroundImageFix"/>
<feColorMatrix in="SourceAlpha" type="matrix" values="0 0 0 0 0 0 0 0 0 0 0 0 0 0 0 0 0 0 127 0"/>
<feOffset dy="1"/>
<feGaussianBlur stdDeviation="1"/>
<feColorMatrix type="matrix" values="0 0 0 0 0 0 0 0 0 0 0 0 0 0 0 0 0 0 0.25 0"/>
<feBlend mode="normal" in2="BackgroundImageFix" result="effect1_dropShadow"/>
<feBlend mode="normal" in="SourceGraphic" in2="effect1_dropShadow" result="shape"/>
</filter>
</defs>
</svg>
