<svg width="771" height="366" viewBox="0 0 771 366" fill="none" xmlns="http://www.w3.org/2000/svg">
<path d="M312.957 38.0601C311.874 42.7292 309.712 46.4615 306.471 49.2567C303.184 52.0675 299.337 53.4649 294.93 53.449C290.759 53.4339 287.635 52.3249 285.557 50.122C283.48 47.9035 282.449 44.591 282.465 40.1845C282.479 36.1702 283.482 32.0574 285.473 27.8463C287.464 23.6352 290.017 20.2259 293.131 17.6183C295.317 15.7915 297.657 14.8826 300.151 14.8916C301.672 14.8971 303.74 15.4534 306.354 16.5606C309.454 17.8733 311.002 19.2667 310.997 20.7408C310.994 21.5875 310.669 22.3469 310.024 23.0189C309.379 23.6752 308.586 24.0016 307.645 23.9982C307.174 23.9965 306.133 23.5537 304.521 22.6697C302.925 21.7701 301.46 21.3179 300.127 21.3131C298.716 21.308 296.805 22.8222 294.395 25.8556C290.882 30.2651 289.116 35.0494 289.098 40.2085C289.088 42.8273 289.466 44.6085 290.231 45.5521C291.043 46.543 292.617 47.0426 294.954 47.0511C297.353 47.0597 299.464 46.3852 301.288 45.0275C303.222 43.5918 304.657 41.4957 305.592 38.7392C301.953 39.0083 298.783 39.7417 296.081 40.9394C295.594 41.1572 295.108 41.2652 294.622 41.2634C293.649 41.2599 292.843 40.8963 292.203 40.1727C291.625 39.5277 291.337 38.7974 291.34 37.982C291.349 35.5828 294.193 33.9152 299.873 32.9791C303.074 32.4575 306.807 32.2044 311.073 32.2198C312.014 32.2232 312.797 32.5318 313.422 33.1457C314.062 33.7596 314.381 34.5134 314.378 35.4072C314.374 36.552 313.9 37.4363 312.957 38.0601Z" fill="white" fill-opacity="0.9"/>
<path d="M336.419 35.0164C336.27 37.4151 335.175 38.6108 333.137 38.6035C331.161 38.5963 330.177 37.5735 330.184 35.5349L330.075 33.1588C326.545 33.7106 324.014 35.5126 322.482 38.565L322.462 50.3965C322.459 51.2903 322.151 52.0262 321.537 52.6042C320.923 53.1979 320.146 53.4931 319.205 53.4897C318.233 53.4861 317.481 53.1698 316.95 52.5406C316.451 51.9743 316.202 51.2521 316.206 50.3739L316.261 34.9671C316.263 34.481 316.281 33.7597 316.316 32.8033C316.351 31.8312 316.369 31.1021 316.371 30.6159C316.374 29.7378 316.636 29.0095 317.155 28.4312C317.69 27.8373 318.444 27.542 319.416 27.5455C321.157 27.5518 322.189 28.4494 322.512 30.2382C325.295 28.1784 328.38 27.1545 331.767 27.1668C334.903 27.1781 336.464 29.2694 336.449 33.4406C336.446 34.2403 336.436 34.7656 336.419 35.0164Z" fill="white" fill-opacity="0.9"/>
<path d="M349.478 53.4108C346.577 53.4004 344.088 52.3956 342.009 50.3966C339.728 48.2086 338.539 45.2954 338.442 41.657C338.345 38.191 339.304 35.1053 341.321 32.3997C343.717 29.2093 347.039 27.6218 351.289 27.6372C354.425 27.6485 356.914 28.912 358.755 31.4277C360.409 33.6918 361.23 36.4939 361.218 39.834C361.205 43.472 360.221 46.5734 358.268 49.1381C356.077 51.9998 353.148 53.4241 349.478 53.4108ZM350.96 33.8458C349.032 33.8232 347.507 34.6958 346.388 36.4638C345.441 37.9501 344.965 39.689 344.957 41.6805C344.951 43.5623 345.479 45.0069 346.541 46.0143C347.385 46.8171 348.372 47.2205 349.501 47.2246C350.865 47.2295 352.051 46.7712 353.057 45.8497C354.206 44.7718 354.823 43.3078 354.908 41.4577C355.13 36.4091 353.814 33.8718 350.96 33.8458Z" fill="white" fill-opacity="0.9"/>
<path d="M395.215 34.337C393.547 40.4781 391.872 46.0547 390.192 51.0666C389.716 52.4762 388.943 53.924 387.871 55.4098C387.115 56.4421 386.109 56.9481 384.855 56.9279C382.879 56.8894 381.333 54.9785 380.218 51.1953C379.8 49.7511 379.308 47.0599 378.742 43.1218C378.41 43.8106 378.204 44.2725 378.125 44.5074C377.303 46.4489 376.1 49.4633 374.517 53.5504C374.28 54.2082 373.925 54.7322 373.453 55.1225C372.791 56.1708 371.808 56.7161 370.507 56.7584C369.77 56.7871 368.996 56.1257 368.185 54.7742C367.328 53.4068 366.636 51.648 366.111 49.4977C365.632 47.5515 364.894 43.3149 363.899 36.7878C363.684 35.3757 363.578 34.2698 363.581 33.4701C363.584 32.6076 363.909 31.8953 364.553 31.3331C365.214 30.7552 365.999 30.468 366.909 30.4712C368.602 30.4774 369.642 31.3201 370.028 32.9994C370.229 33.8783 370.397 34.9609 370.534 36.2473C370.715 38.0983 370.829 39.1886 370.875 39.5181C371.074 40.7419 371.381 42.7424 371.794 45.5195C372.966 42.3404 374.313 38.3857 375.836 33.6555C376.486 31.6192 377.697 30.6043 379.469 30.6107C381.21 30.617 382.35 31.758 382.891 34.0338C383.277 35.6347 383.685 37.7139 384.115 40.2716C384.745 43.9903 385.129 46.2028 385.267 46.9089C385.41 46.4233 386.658 41.6607 389.012 32.621C389.362 31.2737 390.344 30.603 391.959 30.6088C392.853 30.612 393.636 30.9049 394.308 31.4876C394.996 32.0703 395.339 32.7929 395.336 33.6553C395.335 33.8121 395.295 34.0394 395.215 34.337Z" fill="white" fill-opacity="0.9"/>
<path d="M427.873 54.9713C423.231 54.9545 419.284 53.6073 416.032 50.9297C412.561 48.0632 410.834 44.364 410.85 39.8321C410.87 34.5005 412.557 29.6454 415.913 25.2667C419.679 20.3407 424.408 17.8879 430.1 17.9085C435.573 17.9283 439.669 19.1976 442.388 21.7164C445.108 24.2353 446.458 28.0115 446.44 33.0452C446.421 38.3768 444.867 43.2011 441.778 47.518C438.216 52.5075 433.581 54.9919 427.873 54.9713ZM430.077 24.2829C426.58 24.2703 423.579 25.953 421.073 29.3311C418.725 32.4903 417.544 35.9987 417.531 39.8562C417.521 42.4593 418.525 44.5799 420.542 46.2181C422.481 47.7932 424.932 48.5862 427.896 48.5969C431.346 48.6093 434.229 46.9262 436.547 43.5473C438.675 40.4658 439.746 36.957 439.76 33.0211C439.772 29.728 439.043 27.4359 437.574 26.1447C436.167 24.9165 433.668 24.2959 430.077 24.2829Z" fill="white" fill-opacity="0.9"/>
<path d="M457.528 50.1858C457.517 53.1652 456.43 54.651 454.266 54.6432C453.325 54.6398 452.55 54.3391 451.94 53.741C451.331 53.1429 451.028 52.3734 451.031 51.4325L451.149 18.9019C451.152 17.9924 451.484 17.2487 452.145 16.6709C452.774 16.14 453.551 15.8762 454.476 15.8796C455.401 15.8829 456.161 16.1679 456.755 16.7346C457.349 17.2856 457.644 18.0158 457.641 18.9253L457.528 50.1858Z" fill="white" fill-opacity="0.9"/>
<path d="M480.886 27.2165C481.109 21.8699 481.365 18.1779 481.655 16.1404C481.928 14.291 482.951 13.3694 484.723 13.3758C485.648 13.3792 486.392 13.6798 486.954 14.2777C487.517 14.8757 487.796 15.6059 487.793 16.4683C487.785 18.7421 487.592 22.1286 487.215 26.6278C486.854 31.127 486.669 34.5136 486.661 36.7873C486.641 42.3385 486.808 46.0556 487.162 47.9386C487.208 48.1897 487.231 48.4172 487.23 48.621C487.227 49.4835 486.911 50.1958 486.281 50.7581C485.652 51.3047 484.922 51.5765 484.091 51.5735C482.931 51.5693 482.07 51.0487 481.509 50.0117C480.441 50.6507 479.333 51.125 478.187 51.4345C477.041 51.7597 475.857 51.9201 474.634 51.9156C471.121 51.903 468.209 50.7712 465.896 48.5204C463.536 46.2224 462.363 43.3014 462.376 39.7575C462.391 35.5392 463.595 32.1407 465.988 29.5619C468.381 26.9675 471.498 25.6772 475.34 25.691C476.516 25.6953 477.566 25.8245 478.491 26.0788C479.415 26.333 480.213 26.7123 480.886 27.2165ZM480.389 34.6242C479.875 33.6344 479.203 32.8949 478.374 32.4058C477.544 31.9167 476.557 31.6701 475.413 31.6659C473.092 31.6575 471.349 32.3255 470.184 33.6699C469.018 34.9986 468.431 37.0037 468.421 39.6852C468.415 41.3788 469.037 42.8316 470.287 44.0436C471.537 45.2555 472.993 45.8645 474.656 45.8705C475.863 45.8749 476.781 45.7371 477.409 45.4571C477.833 45.2704 478.556 44.7713 479.579 43.9595C479.846 43.7409 480.106 43.4988 480.358 43.2331C480.329 42.4803 480.339 39.6107 480.389 34.6242Z" fill="white" fill-opacity="0.9"/>
<path d="M196.756 111.708C195.523 111.683 194.489 111.261 193.656 110.443C192.823 109.603 192.408 108.598 192.412 107.427C192.42 105.336 192.525 102.201 192.729 98.0196C192.953 93.8387 193.069 90.7029 193.076 88.612C193.085 86.2912 193.045 82.8098 192.957 78.1678C192.89 73.5258 192.861 70.0445 192.869 67.7237C192.873 66.5737 193.432 65.4362 194.544 64.3112C195.656 63.1652 196.84 62.5945 198.094 62.599C198.784 62.6015 200.517 63.256 203.293 64.5623C206.528 66.1212 208.449 66.9959 209.054 67.1862C215.173 69.1947 220.389 72.287 224.702 76.4634C229.849 81.4373 232.411 86.9246 232.39 92.9253C232.376 96.5424 231.475 99.9786 229.686 103.234C227.897 106.552 225.452 109.209 222.35 111.205C218.871 113.45 213.985 114.562 207.692 114.539C206.165 114.534 204.41 114.308 202.425 113.862C200.023 113.309 198.133 112.591 196.756 111.708ZM214.498 79.5315C212.475 78.2488 208.133 76.2258 201.473 73.4628L201.361 104.512C202.175 105.037 203.104 105.438 204.148 105.713C205.214 105.968 206.394 106.098 207.691 106.103C212.207 106.119 215.45 105.503 217.42 104.256C219.285 103.071 220.765 101.456 221.86 99.4107C222.975 97.3657 223.537 95.2351 223.545 93.0188C223.564 87.8336 220.548 83.3378 214.498 79.5315Z" fill="white" fill-opacity="0.9"/>
<path d="M244.829 71.4988C243.491 71.494 242.332 71.0403 241.353 70.1377C240.373 69.2351 239.886 68.1356 239.891 66.8393C239.895 65.543 240.391 64.4471 241.377 63.5516C242.362 62.6561 243.524 62.2107 244.863 62.2156C246.201 62.2204 247.349 62.6741 248.308 63.5766C249.287 64.4792 249.774 65.5787 249.77 66.875C249.765 68.1713 249.27 69.2672 248.284 70.1627C247.319 71.0583 246.167 71.5037 244.829 71.4988ZM247.412 94.4971C247.408 95.6889 247.432 97.6021 247.485 100.237C247.559 102.872 247.594 104.785 247.59 105.977C247.586 107.189 247.174 108.191 246.356 108.983C245.538 109.754 244.501 110.137 243.247 110.132C241.992 110.128 240.959 109.737 240.146 108.96C239.334 108.163 238.929 107.158 238.934 105.945C238.938 104.753 238.903 102.84 238.829 100.205C238.776 97.5708 238.751 95.6576 238.756 94.4658C238.763 92.605 238.875 90.2741 239.095 87.4732C239.314 84.6722 239.427 82.3413 239.434 80.4805C239.438 79.2678 239.849 78.2761 240.667 77.5055C241.486 76.7139 242.522 76.3204 243.777 76.3249C245.031 76.3294 246.065 76.7304 246.877 77.5279C247.69 78.3044 248.094 79.2991 248.09 80.5117C248.083 82.3726 247.97 84.7035 247.751 87.5044C247.532 90.3054 247.419 92.6363 247.412 94.4971Z" fill="white" fill-opacity="0.9"/>
<path d="M277.63 88.7293C275.56 88.7218 274.319 87.8497 273.907 86.1128C273.071 85.9634 272.214 85.8871 271.336 85.8839C266.297 85.8657 263.775 86.5466 263.77 87.9265C263.767 88.742 265.279 89.8451 268.306 91.236C272.439 93.1536 275.235 94.6482 276.695 95.7199C279.719 97.9262 281.226 100.409 281.216 103.169C281.203 106.765 279.52 109.488 276.168 111.337C273.466 112.811 270.149 113.542 266.218 113.527C263.437 113.517 260.899 113.08 258.602 112.214C255.47 111.032 253.908 109.301 253.916 107.022C253.924 104.931 255.172 103.891 257.66 103.9C258.621 103.903 260.011 104.211 261.828 104.824C263.644 105.437 265.044 105.745 266.027 105.749C270.271 105.764 272.407 104.915 272.434 103.2C272.438 102.134 270.968 100.947 268.025 99.6402C263.725 97.722 260.97 96.3426 259.76 95.5019C256.819 93.4213 255.354 90.8965 255.365 87.9275C255.38 83.725 257.617 80.9 262.076 79.4525C264.693 78.6047 268.667 78.1904 273.998 78.2097C276.089 78.2172 277.635 78.4946 278.637 79.0419C280.014 79.7786 280.699 81.1297 280.692 83.0951C280.679 86.8586 279.658 88.7366 277.63 88.7293Z" fill="white" fill-opacity="0.9"/>
<path d="M315.908 93.133C315.012 98.0432 314.471 103.227 314.284 108.683C314.05 115.436 312.903 120.335 310.843 123.38C308.09 127.447 303.231 129.468 296.269 129.443C288.136 129.413 284.075 127.789 284.087 124.569C284.091 123.419 284.46 122.49 285.194 121.782C285.929 121.073 286.892 120.721 288.083 120.726C289.024 120.729 290.372 120.912 292.127 121.274C293.882 121.635 295.439 121.819 296.798 121.824C299.914 121.835 302.217 120.892 303.708 118.995C305.137 117.139 305.984 114.183 306.249 110.128C305.179 111.211 303.974 112.023 302.634 112.561C301.294 113.1 299.829 113.367 298.24 113.361C294.08 113.346 290.697 111.985 288.093 109.278C285.511 106.551 284.227 103.076 284.242 98.852C284.263 93.165 286.015 88.5714 289.498 85.0714C293.108 81.4463 297.975 79.6449 304.101 79.667C306.067 79.6741 307.759 79.9207 309.179 80.4067C310.6 80.8927 311.747 81.6287 312.621 82.6145C315.276 82.9378 316.598 84.5107 316.587 87.3333C316.582 88.7341 316.356 90.6674 315.908 93.133ZM303.762 86.8165C300.228 86.8037 297.475 87.9542 295.501 90.2679C293.737 92.3733 292.849 95.1091 292.837 98.4754C292.828 100.963 293.292 102.836 294.228 104.094C295.164 105.352 296.573 105.985 298.455 105.991C300.17 105.998 301.898 105.011 303.641 103.031C305.278 101.155 306.215 99.2973 306.452 97.4582C306.857 95.4525 307.328 92.3283 307.866 88.0859C307.157 87.6651 306.457 87.349 305.768 87.1374C305.079 86.9258 304.41 86.8189 303.762 86.8165Z" fill="white" fill-opacity="0.9"/>
<path d="M347.114 93.6329C346.914 96.8312 345.455 98.4255 342.737 98.4156C340.103 98.4061 338.791 97.0423 338.8 94.3242L338.655 91.1561C333.948 91.8918 330.573 94.2945 328.53 98.3643L328.505 114.14C328.5 115.331 328.089 116.313 327.271 117.083C326.453 117.875 325.416 118.268 324.162 118.264C322.865 118.259 321.863 117.837 321.155 116.999C320.489 116.243 320.158 115.28 320.162 114.11L320.236 93.5672C320.239 92.919 320.263 91.9573 320.31 90.6821C320.356 89.3859 320.38 88.4138 320.383 87.7656C320.387 86.5947 320.736 85.6238 321.428 84.8526C322.142 84.0607 323.147 83.6671 324.443 83.6718C326.764 83.6801 328.14 84.8769 328.57 87.262C332.281 84.5155 336.395 83.1504 340.911 83.1667C345.092 83.1818 347.173 85.9702 347.153 91.5318C347.149 92.5981 347.136 93.2985 347.114 93.6329Z" fill="white" fill-opacity="0.9"/>
<path d="M378.716 116.994C377.754 116.99 376.232 115.939 374.148 113.841C372.221 114.754 370.525 115.438 369.06 115.893C367.595 116.368 366.35 116.604 365.325 116.6C360.287 116.582 356.507 115.22 353.987 112.514C351.488 109.807 350.248 105.768 350.267 100.394C350.285 95.3553 352.162 91.0549 355.896 87.493C359.631 83.9102 364.091 82.1282 369.276 82.147C371.262 82.1541 373.56 82.727 376.17 83.8654C379.322 85.2359 380.895 86.8202 380.888 88.6183C380.886 89.371 380.643 90.0287 380.16 90.5915C379.948 91.4271 379.777 92.4823 379.647 93.7573C379.538 95.0114 379.48 96.4853 379.474 98.1788C379.459 102.172 379.731 105.048 380.289 106.807C380.352 106.995 380.828 108.084 381.72 110.073C382.529 111.875 382.933 112.9 382.932 113.151C382.928 114.26 382.496 115.178 381.637 115.907C380.798 116.635 379.824 116.998 378.716 116.994ZM371.016 95.4511C371.018 94.782 371.063 94.019 371.149 93.1621C371.257 92.2843 371.407 91.3126 371.599 90.247C371.182 90.0364 370.806 89.8886 370.472 89.8038C370.158 89.6981 369.887 89.6449 369.657 89.644C366.813 89.6338 364.321 90.7434 362.18 92.9728C360.04 95.1814 358.964 97.7493 358.954 100.676C358.943 103.478 359.438 105.592 360.436 107.017C361.435 108.422 362.937 109.127 364.945 109.135C366.241 109.139 367.465 108.935 368.616 108.521C369.789 108.086 370.889 107.452 371.916 106.619C371.307 101.641 371.007 97.9182 371.016 95.4511Z" fill="white" fill-opacity="0.9"/>
<path d="M401.86 114.112C397.26 114.095 393.408 112.774 390.302 110.149C387.029 107.378 385.401 103.734 385.417 99.2176C385.432 95.0568 386.922 90.7655 389.886 86.3436C393.249 81.2959 397.148 78.78 401.58 78.796C403.755 78.8039 406.293 79.3985 409.195 80.5799C412.723 82.0353 414.484 83.7039 414.477 85.5856C414.473 86.6101 414.115 87.5184 413.401 88.3103C412.645 89.1648 411.671 89.5899 410.48 89.5856C409.58 89.5824 408.495 89.0976 407.223 88.1312C405.972 87.144 404.082 86.6458 401.552 86.6366C399.942 86.6308 398.19 88.2031 396.297 91.3534C394.488 94.3995 393.579 97.0307 393.571 99.247C393.564 101.442 394.352 103.17 395.936 104.43C397.437 105.628 399.422 106.231 401.889 106.24C403.29 106.245 405.006 105.718 407.038 104.659C409.07 103.6 410.358 103.071 410.901 103.073C412.03 103.077 412.991 103.488 413.782 104.307C414.595 105.125 414.999 106.057 414.995 107.102C414.989 108.733 413.206 110.358 409.646 111.976C406.463 113.407 403.867 114.119 401.86 114.112Z" fill="white" fill-opacity="0.9"/>
<path d="M436.235 113.703C431.238 113.685 427.155 112.478 423.986 110.083C420.483 107.436 418.74 103.718 418.757 98.9303C418.776 93.6405 420.183 89.1711 422.977 85.5222C426.086 81.4772 430.264 79.4642 435.512 79.4832C439.15 79.4963 442.169 80.0926 444.57 81.2722C447.721 82.8308 449.291 85.241 449.279 88.5027C449.271 90.8026 447.978 92.8365 445.4 94.6044C444.226 95.4156 441.869 96.5988 438.33 98.1542L427.744 102.789C428.744 103.88 429.954 104.7 431.373 105.248C432.793 105.797 434.423 106.075 436.263 106.082C439.065 106.092 441.44 105.525 443.388 104.382C445.127 103.364 446.52 102.857 447.565 102.861C449.74 102.868 450.823 103.928 450.815 106.04C450.807 108.424 449.054 110.362 445.557 111.855C442.625 113.098 439.518 113.714 436.235 113.703ZM435.485 87.0729C433.54 87.0658 431.876 87.708 430.491 88.9993C429.106 90.2906 427.991 92.2311 427.146 94.8207C429.512 93.8047 431.868 92.7992 434.213 91.804C437.04 90.5388 439.292 89.3656 440.969 88.2844C439.571 87.4849 437.743 87.081 435.485 87.0729Z" fill="white" fill-opacity="0.9"/>
<path d="M471.25 84.4844C474.052 84.2436 476.06 84.1254 477.273 84.1298C481.183 84.1439 483.133 85.4891 483.123 88.1654C483.113 90.9253 481.028 92.235 476.868 92.0945C475.55 92.0479 473.553 92.1348 470.876 92.3551C470.785 94.5711 470.754 97.3936 470.783 100.823C470.849 105.757 470.88 108.57 470.878 109.26C470.864 113.086 470.613 116.117 470.124 118.352C469.635 120.588 468.251 121.701 465.972 121.693C464.801 121.689 463.778 121.309 462.902 120.553C462.048 119.797 461.623 118.844 461.627 117.694C461.628 117.422 461.65 117.161 461.692 116.91C462.205 113.922 462.466 111.111 462.476 108.477L462.532 92.7954C462.156 92.8149 461.466 92.8961 460.461 93.0388C459.667 93.1405 459.06 93.1906 458.642 93.1891C457.366 93.1845 456.312 92.8147 455.478 92.0799C454.645 91.3242 454.23 90.3191 454.235 89.0646C454.242 87.1201 455.271 85.8484 457.322 85.2495C458.243 84.981 460.073 84.8099 462.812 84.7362C462.835 84.3599 462.975 83.1791 463.233 81.1937C463.835 76.5333 465.113 73.0671 467.065 70.7951C469.501 67.9603 473.228 66.552 478.246 66.5701C482.072 66.584 483.98 67.9604 483.97 70.6993C483.96 73.4174 482.178 74.77 478.624 74.7572C476.094 74.7481 474.251 75.63 473.094 77.4031C472.232 78.7172 471.65 80.7746 471.347 83.5752L471.25 84.4844Z" fill="white" fill-opacity="0.9"/>
<path d="M516.594 94.4225C516.589 95.8234 516.592 97.9351 516.602 100.758C516.613 103.581 516.616 105.692 516.611 107.093C516.609 107.532 516.638 108.191 516.698 109.069C516.778 109.927 516.818 110.575 516.816 111.014C516.812 112.185 516.38 113.145 515.52 113.895C514.681 114.666 513.644 115.049 512.411 115.044C510.675 115.038 509.413 114.249 508.624 112.678C505.945 113.651 503.172 114.133 500.308 114.122C497.339 114.112 494.843 113.475 492.819 112.213C490.545 110.763 489.194 108.656 488.765 105.895C487.968 100.665 487.578 95.9904 487.592 91.8714C487.602 89.1534 487.927 86.0496 488.567 82.5602C488.994 80.1991 490.409 79.0229 492.814 79.0315C494.026 79.0359 495.06 79.4265 495.914 80.2032C496.769 80.959 497.194 81.9223 497.19 83.0932C497.186 84.0131 497.024 85.4552 496.704 87.4195C496.404 89.3838 496.252 90.8782 496.248 91.9027C496.238 94.8508 496.323 97.4333 496.503 99.6502C496.704 101.846 497 103.666 497.393 105.111C497.914 105.342 498.416 105.522 498.896 105.649C499.397 105.776 499.878 105.841 500.338 105.843C502.659 105.851 505.211 105.526 507.994 104.867C508 103.257 507.996 101.427 507.982 99.3781C507.949 96.9317 507.935 95.1753 507.939 94.109C507.954 89.8228 508.166 86.1227 508.575 83.0088C508.897 80.5219 510.324 79.283 512.854 79.2921C514.087 79.2966 515.142 79.6872 516.017 80.464C516.892 81.2408 517.297 82.2145 517.23 83.3851C516.804 91.3497 516.592 95.0289 516.594 94.4225Z" fill="white" fill-opacity="0.9"/>
<path d="M532.256 105.125C532.242 109.097 530.792 111.078 527.907 111.068C526.652 111.063 525.619 110.662 524.806 109.865C523.993 109.067 523.589 108.042 523.594 106.787L523.751 63.4128C523.755 62.2002 524.198 61.2086 525.079 60.4382C525.918 59.7303 526.954 59.3786 528.187 59.3831C529.421 59.3875 530.434 59.7675 531.225 60.5231C532.017 61.2578 532.411 62.2314 532.407 63.4441L532.256 105.125Z" fill="white" fill-opacity="0.9"/>
<path d="M549.789 108.06C549.775 112.032 548.325 114.013 545.44 114.003C544.185 113.998 543.152 113.597 542.339 112.8C541.526 112.003 541.122 110.977 541.127 109.722L541.284 66.3479C541.288 65.1352 541.731 64.1437 542.612 63.3732C543.451 62.6654 544.487 62.3137 545.72 62.3181C546.954 62.3226 547.967 62.7026 548.758 63.4582C549.55 64.1928 549.944 65.1665 549.94 66.3792L549.789 108.06Z" fill="white" fill-opacity="0.9"/>
<path d="M589.008 86.3103C586.712 91.0482 583.079 98.489 578.108 108.633C575.412 114.08 573.357 118.599 571.943 122.19C571.499 123.485 570.802 125.406 569.852 127.954C569.092 129.916 567.751 130.894 565.827 130.887C564.635 130.883 563.591 130.492 562.695 129.715C561.799 128.939 561.353 127.965 561.357 126.794C561.364 124.849 563.601 119.097 568.068 109.537C565.785 104.992 562.16 98.2984 557.195 89.4571C556.696 88.6607 556.187 87.8539 555.667 87.0366C555.106 86.0728 554.827 85.1936 554.83 84.3991C554.834 83.2701 555.287 82.2785 556.189 81.4245C557.091 80.5705 558.128 80.1457 559.299 80.1499C560.679 80.1549 561.754 80.671 562.524 81.6983C565.478 85.6607 568.917 91.6216 572.84 99.581C575.095 94.6339 576.465 91.6489 576.95 90.6261C578.445 87.5162 579.908 84.7824 581.339 82.4249C582.243 80.9228 583.479 80.1745 585.048 80.1802C586.218 80.1844 587.262 80.5855 588.179 81.3833C589.097 82.1811 589.553 83.155 589.549 84.305C589.547 84.9113 589.367 85.5798 589.008 86.3103Z" fill="white" fill-opacity="0.9"/>
<path fill-rule="evenodd" clip-rule="evenodd" d="M770.097 364.748H434.663C435.158 299.014 510.058 245.836 602.38 245.836C694.702 245.836 769.602 299.014 770.097 364.748Z" fill="#8CAE90"/>
<path fill-rule="evenodd" clip-rule="evenodd" d="M344.807 364.748C344.807 290.284 267.767 229.918 172.734 229.918C77.7008 229.918 0.661133 290.284 0.661133 364.748H344.807Z" fill="#B4C9B6"/>
<path d="M112.121 231.705C112.305 234.453 117.983 243.062 117.983 243.062C117.983 243.062 122.562 234.27 122.562 231.705C122.562 229.141 121.097 227.492 117.983 227.676C114.869 227.859 111.938 228.958 112.121 231.705Z" fill="white"/>
<path d="M123.397 231.13C121.345 232.967 118.06 242.742 118.06 242.742C118.06 242.742 127.807 240.935 129.827 239.356C131.847 237.777 132.244 235.607 130.182 233.267C128.12 230.926 125.449 229.294 123.397 231.13Z" fill="white"/>
<path d="M129.894 239.762C127.193 239.228 117.407 242.484 117.407 242.484C117.407 242.484 124.715 249.183 127.192 249.847C129.669 250.51 131.64 249.522 132.269 246.467C132.898 243.411 132.595 240.296 129.894 239.762Z" fill="white"/>
<path d="M127.531 250.801C126.288 248.344 117.696 242.64 117.696 242.64C117.696 242.64 116.919 252.523 117.921 254.883C118.924 257.243 120.917 258.188 123.711 256.802C126.506 255.416 128.774 253.259 127.531 250.801Z" fill="white"/>
<path d="M118.588 255.297C119.531 252.71 117.82 242.54 117.82 242.54C117.82 242.54 110.076 248.729 109.039 251.075C108.002 253.42 108.675 255.52 111.597 256.612C114.519 257.704 117.644 257.884 118.588 255.297Z" fill="white"/>
<path d="M108.044 251.263C110.663 250.413 117.622 242.802 117.622 242.802C117.622 242.802 107.977 240.512 105.49 241.14C103.004 241.767 101.764 243.591 102.703 246.565C103.642 249.54 105.424 252.113 108.044 251.263Z" fill="white"/>
<path d="M105.872 240.656C108.159 242.188 118.444 242.947 118.444 242.947C118.444 242.947 114.277 233.953 112.246 232.387C110.215 230.821 108.015 230.975 106.259 233.553C104.503 236.131 103.584 239.123 105.872 240.656Z" fill="white"/>
<path d="M125.245 256.082C125.245 256.082 132.714 262.963 133.013 275.742" stroke="#8CAE90"/>
<circle cx="118.462" cy="242.61" r="5.32809" fill="#F2C94C"/>
<path d="M161.549 240.297C161.437 241.977 157.966 247.24 157.966 247.24C157.966 247.24 155.166 241.865 155.166 240.297C155.166 238.73 156.062 237.722 157.966 237.834C159.869 237.946 161.661 238.618 161.549 240.297Z" fill="white"/>
<path d="M154.655 239.946C155.91 241.068 157.918 247.044 157.918 247.044C157.918 247.044 151.96 245.94 150.725 244.974C149.49 244.009 149.247 242.683 150.508 241.252C151.768 239.821 153.401 238.823 154.655 239.946Z" fill="white"/>
<path d="M150.684 245.222C152.335 244.896 158.317 246.887 158.317 246.887C158.317 246.887 153.85 250.982 152.336 251.387C150.822 251.793 149.616 251.189 149.232 249.321C148.847 247.453 149.033 245.549 150.684 245.222Z" fill="white"/>
<path d="M152.128 251.971C152.888 250.469 158.14 246.982 158.14 246.982C158.14 246.982 158.616 253.023 158.003 254.466C157.39 255.909 156.171 256.487 154.463 255.639C152.755 254.792 151.368 253.473 152.128 251.971Z" fill="white"/>
<path d="M157.596 254.719C157.019 253.138 158.065 246.921 158.065 246.921C158.065 246.921 162.799 250.704 163.433 252.138C164.067 253.572 163.655 254.856 161.869 255.523C160.083 256.191 158.173 256.301 157.596 254.719Z" fill="white"/>
<path d="M164.041 252.253C162.44 251.734 158.186 247.081 158.186 247.081C158.186 247.081 164.082 245.681 165.602 246.065C167.122 246.448 167.88 247.563 167.306 249.382C166.732 251.2 165.642 252.773 164.041 252.253Z" fill="white"/>
<path d="M165.369 245.769C163.971 246.706 157.683 247.17 157.683 247.17C157.683 247.17 160.231 241.671 161.473 240.714C162.714 239.757 164.059 239.851 165.133 241.427C166.206 243.003 166.768 244.832 165.369 245.769Z" fill="white"/>
<path d="M153.526 255.199C153.526 255.199 148.961 259.406 148.778 267.218" stroke="#8CAE90"/>
<circle r="3.25714" transform="matrix(-1 0 0 1 157.673 246.964)" fill="#F2C94C"/>
<path d="M112.9 279.742C112.9 279.742 112.281 282.724 113.814 288.325" stroke="#8CAE90"/>
<path d="M113.228 269.465C113.384 270.605 111.784 274.607 111.784 274.607C111.784 274.607 109.17 271.393 108.954 270.343C108.738 269.293 109.2 268.495 110.49 268.308C111.78 268.121 113.072 268.325 113.228 269.465Z" fill="white"/>
<path d="M108.564 270.178C109.558 270.757 111.726 274.483 111.726 274.483C111.726 274.483 107.583 274.563 106.623 274.086C105.663 273.61 105.319 272.755 105.966 271.623C106.613 270.492 107.569 269.599 108.564 270.178Z" fill="white"/>
<path d="M106.63 274.258C107.691 273.812 111.971 274.322 111.971 274.322C111.971 274.322 109.542 277.679 108.584 278.159C107.626 278.639 106.736 278.4 106.221 277.202C105.707 276.005 105.569 274.704 106.63 274.258Z" fill="white"/>
<path d="M108.525 278.579C108.827 277.468 111.865 274.411 111.865 274.411C111.865 274.411 113.014 278.391 112.802 279.442C112.59 280.492 111.854 281.046 110.593 280.714C109.333 280.382 108.223 279.689 108.525 278.579Z" fill="white"/>
<path d="M112.565 279.667C111.961 278.687 111.807 274.38 111.807 274.38C111.807 274.38 115.497 276.263 116.119 277.135C116.741 278.008 116.642 278.925 115.538 279.618C114.433 280.31 113.169 280.647 112.565 279.667Z" fill="white"/>
<path d="M116.542 277.129C115.399 277.001 111.91 274.471 111.91 274.471C111.91 274.471 115.666 272.722 116.736 272.77C117.807 272.817 118.468 273.46 118.334 274.757C118.199 276.053 117.686 277.256 116.542 277.129Z" fill="white"/>
<path d="M116.539 272.604C115.732 273.423 111.585 274.599 111.585 274.599C111.585 274.599 112.535 270.566 113.234 269.755C113.934 268.943 114.848 268.821 115.784 269.729C116.719 270.636 117.347 271.784 116.539 272.604Z" fill="white"/>
<circle r="2.22681" transform="matrix(-0.979547 0.201216 0.201216 0.979547 111.55 274.463)" fill="#F2C94C"/>
<path fill-rule="evenodd" clip-rule="evenodd" d="M770.342 365.403H0.658203C73.0697 306.735 218.231 266.689 385.5 266.689C552.769 266.689 697.931 306.735 770.342 365.403Z" fill="#CFDED1"/>
<path d="M405.193 262.934C404.511 248.992 407.156 240.898 417.075 225.983H432.435C440.831 228.154 444.537 233.066 449.824 246.705C437.926 259.851 428.811 264.212 405.193 262.934Z" fill="#DFF2E1"/>
<path fill-rule="evenodd" clip-rule="evenodd" d="M416.842 225.548H432.491L432.544 225.562C436.818 226.667 439.928 228.482 442.631 231.767C445.316 235.029 447.584 239.724 450.23 246.548L450.326 246.798L450.147 246.997C444.177 253.592 438.869 258.025 432.059 260.635C425.257 263.241 417.002 264.009 405.169 263.369L404.778 263.347L404.759 262.956C404.416 255.95 404.908 250.385 406.745 244.69C408.579 239.003 411.746 233.212 416.713 225.742L416.842 225.548ZM417.308 226.418C412.431 233.769 409.354 239.431 407.572 244.957C405.811 250.418 405.307 255.77 405.609 262.521C417.183 263.121 425.188 262.336 431.748 259.823C438.307 257.31 443.468 253.051 449.322 246.612C446.722 239.934 444.517 235.427 441.96 232.32C439.401 229.21 436.474 227.485 432.38 226.418H417.308Z" fill="black"/>
<path d="M415.021 276.21H402.124C403.41 272.847 404.614 271.554 408.065 270.848C411.144 271.005 412.603 272.083 414.146 274.638C414.431 275.11 414.719 275.633 415.021 276.21Z" fill="#ACA6A6"/>
<path fill-rule="evenodd" clip-rule="evenodd" d="M412.042 271.561C410.775 268.921 410.02 266.521 409.805 263.196L410.673 263.14C410.959 267.571 412.229 270.269 414.522 274.421C414.812 274.901 415.103 275.43 415.406 276.008L415.739 276.644H401.492L401.718 276.054C402.367 274.357 403.018 273.116 403.986 272.215C404.961 271.306 406.213 270.783 407.978 270.422L408.032 270.411L408.087 270.414C409.674 270.495 410.891 270.815 411.917 271.478C411.959 271.505 412.001 271.533 412.042 271.561ZM413.769 274.856C413.015 273.607 412.307 272.765 411.446 272.209C410.598 271.662 409.561 271.365 408.098 271.285C406.443 271.629 405.381 272.104 404.579 272.851C403.862 273.519 403.317 274.437 402.764 275.775H414.28C414.105 275.461 413.935 275.155 413.769 274.856Z" fill="black"/>
<path d="M454.342 262.228L461.988 251.843C458.518 250.885 456.763 251.088 454.148 253.448C452.449 256.021 452.452 257.835 453.595 260.592C453.806 261.102 454.056 261.644 454.342 262.228Z" fill="#ACA6A6"/>
<path fill-rule="evenodd" clip-rule="evenodd" d="M452.364 257.074C450.989 254.488 449.505 252.457 446.954 250.312L446.395 250.978C449.794 253.836 451.213 256.458 453.196 260.766C453.411 261.285 453.664 261.833 453.951 262.419L454.266 263.064L462.713 251.592L462.104 251.424C460.352 250.941 458.967 250.729 457.667 250.974C456.357 251.221 455.194 251.919 453.857 253.126L453.816 253.163L453.785 253.209C452.909 254.535 452.446 255.704 452.371 256.924C452.368 256.974 452.366 257.024 452.364 257.074ZM453.993 260.418C453.435 259.07 453.176 258.001 453.239 256.978C453.301 255.971 453.678 254.96 454.48 253.734C455.739 252.605 456.75 252.032 457.828 251.829C458.791 251.647 459.853 251.752 461.258 252.101L454.43 261.374C454.281 261.047 454.136 260.728 453.993 260.418Z" fill="black"/>
<path d="M402.15 210.188L385.775 220.622C388.655 221.996 389.377 223.31 390.123 225.983C400.368 220.077 406.069 216.348 415.626 208.305C415.936 216.424 416.157 220.574 416.786 225.983H432.725C434.365 220.33 434.797 216.007 434.899 206.711C440.254 211.149 444.897 216.999 448.23 217.289C451.563 217.579 457.34 207.492 463.446 199.755L459.098 196.422C454.685 201.494 452.35 203.471 448.23 206.711C443.351 201.732 439.556 199.041 432.725 194.249C426.364 202.133 422.893 202.018 416.786 197.871L402.15 210.188Z" fill="#E2C8E2"/>
<path fill-rule="evenodd" clip-rule="evenodd" d="M432.641 193.659L432.974 193.893C439.678 198.596 443.486 201.294 448.266 206.128C452.182 203.042 454.488 201.057 458.77 196.137L459.038 195.829L464.059 199.678L463.786 200.024C462.267 201.95 460.766 204.024 459.314 206.053C459.096 206.358 458.878 206.662 458.662 206.964C457.443 208.67 456.262 210.323 455.144 211.795C453.829 213.525 452.585 215.026 451.45 216.078C450.883 216.605 450.329 217.032 449.796 217.319C449.264 217.605 448.723 217.768 448.192 217.722C447.25 217.64 446.262 217.173 445.252 216.499C444.237 215.822 443.157 214.907 442.029 213.876C441.237 213.152 440.423 212.373 439.585 211.572C438.227 210.272 436.807 208.914 435.321 207.637C435.2 216.321 434.743 220.587 433.142 226.104L433.051 226.418H416.398L416.353 226.033C415.746 220.807 415.518 216.753 415.225 209.208C406.048 216.881 400.356 220.586 390.339 226.36L389.854 226.64L389.703 226.1C389.333 224.773 388.983 223.844 388.402 223.078C387.826 222.319 386.992 221.684 385.587 221.014L384.88 220.676L401.891 209.837L416.757 197.327L417.029 197.512C420.075 199.58 422.34 200.549 424.582 200.143C426.84 199.735 429.212 197.91 432.386 193.976L432.641 193.659ZM432.806 194.837C429.739 198.581 427.261 200.543 424.737 200.999C422.204 201.457 419.753 200.377 416.814 198.415L402.407 210.539L386.651 220.579C387.748 221.173 388.518 221.793 389.095 222.552C389.687 223.332 390.054 224.232 390.385 225.329C400.313 219.592 405.962 215.869 415.346 207.972L416.026 207.399L416.06 208.288C416.362 216.212 416.58 220.341 417.172 225.548H432.397C433.947 220.103 434.364 215.813 434.463 206.706L434.473 205.794L435.175 206.376C436.938 207.836 438.636 209.461 440.222 210.978C441.053 211.772 441.853 212.538 442.616 213.234C443.735 214.257 444.775 215.136 445.735 215.776C446.701 216.42 447.542 216.793 448.267 216.856C448.57 216.882 448.938 216.793 449.384 216.553C449.828 216.314 450.321 215.94 450.859 215.441C451.936 214.442 453.142 212.991 454.451 211.269C455.561 209.808 456.734 208.167 457.953 206.461C458.17 206.158 458.388 205.853 458.607 205.547C459.973 203.637 461.391 201.676 462.831 199.832L459.157 197.015C454.893 201.887 452.549 203.867 448.498 207.052L448.192 207.293L447.919 207.015C443.15 202.148 439.429 199.485 432.806 194.837Z" fill="black"/>
<path fill-rule="evenodd" clip-rule="evenodd" d="M426.045 156.221L426.678 155.625L468.531 200.154C468.552 200.167 468.582 200.186 468.621 200.21C468.707 200.263 468.836 200.338 469.003 200.421C469.335 200.589 469.811 200.79 470.38 200.924C471.512 201.191 473.001 201.19 474.5 200.132C475.241 199.608 475.576 199.059 475.7 198.549C475.826 198.031 475.746 197.501 475.562 197.004C475.378 196.506 475.099 196.065 474.86 195.744C474.741 195.585 474.634 195.458 474.558 195.372C474.521 195.329 474.49 195.297 474.471 195.276C474.461 195.265 474.453 195.257 474.448 195.253L474.444 195.248L474.443 195.247C474.443 195.247 474.443 195.248 474.751 194.94C475.058 194.633 475.058 194.633 475.059 194.633L475.059 194.633L475.06 194.634L475.063 194.637L475.072 194.646C475.079 194.654 475.09 194.665 475.103 194.679C475.129 194.706 475.165 194.746 475.21 194.796C475.299 194.897 475.421 195.043 475.557 195.224C475.825 195.585 476.155 196.1 476.378 196.702C476.601 197.305 476.724 198.018 476.545 198.754C476.364 199.5 475.886 200.218 475.002 200.842C473.249 202.079 471.487 202.078 470.181 201.771C469.53 201.618 468.989 201.388 468.611 201.198C468.421 201.102 468.271 201.016 468.167 200.952C468.115 200.92 468.074 200.894 468.046 200.875C468.031 200.865 468.02 200.858 468.012 200.852L468.002 200.845L467.999 200.843L467.998 200.843L467.998 200.842C467.997 200.842 467.997 200.842 468.248 200.487L467.997 200.842L467.961 200.817L426.045 156.221Z" fill="black"/>
<path d="M460.447 192.012C461.993 191.039 462.451 191.268 464.741 192.986C467.032 194.703 466.688 198.483 465.715 199.456C464.741 200.429 462.68 200.029 462.68 200.029L459.187 197.108C459.187 197.108 458.901 192.986 460.447 192.012Z" fill="#EAD8C8"/>
<path fill-rule="evenodd" clip-rule="evenodd" d="M463.555 191.605C463.96 191.863 464.431 192.209 465.002 192.638C466.283 193.599 466.802 195.114 466.886 196.473C466.928 197.157 466.862 197.82 466.716 198.384C466.574 198.937 466.344 199.442 466.022 199.763C465.414 200.372 464.51 200.519 463.847 200.542C463.503 200.553 463.194 200.532 462.971 200.508C462.859 200.496 462.768 200.483 462.704 200.473C462.672 200.468 462.646 200.464 462.628 200.461C462.619 200.459 462.612 200.458 462.607 200.457L462.6 200.456L462.598 200.456L462.597 200.455C462.597 200.455 462.597 200.455 462.68 200.029L462.597 200.455L462.487 200.434L458.766 197.323L458.753 197.138L459.187 197.108C458.753 197.138 458.753 197.139 458.753 197.138L458.753 197.137L458.753 197.134L458.752 197.124C458.752 197.115 458.751 197.102 458.75 197.086C458.748 197.054 458.746 197.007 458.743 196.947C458.738 196.828 458.733 196.658 458.732 196.452C458.729 196.04 458.742 195.477 458.805 194.88C458.868 194.285 458.982 193.64 459.189 193.07C459.394 192.509 459.71 191.962 460.215 191.644C461.007 191.146 461.643 190.871 462.422 191.068C462.785 191.16 463.151 191.348 463.555 191.605ZM459.612 196.897L462.868 199.619C462.918 199.626 462.984 199.635 463.064 199.644C463.258 199.665 463.525 199.683 463.818 199.673C464.428 199.652 465.043 199.513 465.407 199.149C465.572 198.984 465.75 198.651 465.874 198.168C465.996 197.696 466.055 197.124 466.018 196.527C465.944 195.323 465.49 194.09 464.481 193.333C463.906 192.903 463.461 192.576 463.088 192.339C462.714 192.1 462.439 191.969 462.208 191.911C461.798 191.807 461.433 191.905 460.678 192.38C460.411 192.549 460.183 192.883 460.006 193.368C459.833 193.845 459.728 194.413 459.67 194.971C459.611 195.526 459.599 196.055 459.601 196.446C459.602 196.633 459.607 196.787 459.612 196.897Z" fill="black"/>
<path d="M390.267 224.969C390.267 227.45 388.126 229.461 385.485 229.461C382.844 229.461 380.703 227.45 380.703 224.969C380.703 222.488 382.844 220.477 385.485 220.477C388.126 220.477 390.267 222.488 390.267 224.969Z" fill="#EAD8C8"/>
<path fill-rule="evenodd" clip-rule="evenodd" d="M385.485 228.591C387.698 228.591 389.398 226.919 389.398 224.969C389.398 223.018 387.698 221.346 385.485 221.346C383.272 221.346 381.573 223.018 381.573 224.969C381.573 226.919 383.272 228.591 385.485 228.591ZM385.485 229.461C388.126 229.461 390.267 227.45 390.267 224.969C390.267 222.488 388.126 220.477 385.485 220.477C382.844 220.477 380.703 222.488 380.703 224.969C380.703 227.45 382.844 229.461 385.485 229.461Z" fill="black"/>
<path fill-rule="evenodd" clip-rule="evenodd" d="M306.355 167.923C309.913 183.364 312.239 192.044 317.07 207.596L316.239 207.854C311.402 192.281 309.07 183.58 305.508 168.118L306.355 167.923ZM320.038 224.185C320.894 222.578 320.922 221.052 319.996 216.506L320.848 216.332C321.771 220.866 321.823 222.683 320.806 224.593C320.482 225.202 319.802 225.536 319.061 225.689C318.304 225.846 317.389 225.836 316.449 225.673C314.578 225.35 312.488 224.4 311.238 222.77L311.928 222.241C313.004 223.645 314.865 224.517 316.597 224.816C317.46 224.965 318.26 224.967 318.885 224.838C319.525 224.705 319.894 224.456 320.038 224.185Z" fill="black"/>
<path d="M351.868 192.22C339.416 197.67 332.627 200.928 321.872 208.159L323.756 214.535C333.207 209.416 338.556 206.838 348.39 203.957V227.577C348.39 227.577 348.834 227.216 355.161 226.708C361.488 226.199 362.011 226.708 362.011 226.708L362.736 202.073C372.582 210.874 377.513 215.929 385.486 225.114L389.254 220.766C380.344 208.652 374.521 202.121 362.736 190.916C358.497 195.052 356.117 195.411 351.868 192.22Z" fill="#EEEFCF"/>
<path fill-rule="evenodd" clip-rule="evenodd" d="M362.731 190.312L363.035 190.601C374.837 201.822 380.677 208.372 389.604 220.509L389.809 220.789L385.486 225.777L385.157 225.399C377.386 216.447 372.515 211.429 363.142 203.021L362.416 227.708L361.758 227.068C361.747 227.064 361.734 227.06 361.717 227.056C361.607 227.026 361.374 226.981 360.928 226.951C360.038 226.889 358.35 226.887 355.195 227.141C352.036 227.395 350.358 227.611 349.475 227.762C349.033 227.837 348.799 227.895 348.682 227.929C348.655 227.937 348.635 227.944 348.622 227.949L347.955 228.491V204.539C338.514 207.342 333.219 209.903 323.962 214.918L323.491 215.173L321.364 207.977L321.629 207.799C332.415 200.546 339.23 197.277 351.693 191.822L351.925 191.72L352.128 191.872C354.229 193.45 355.769 194.07 357.251 193.884C358.754 193.696 360.319 192.666 362.432 190.604L362.731 190.312ZM362.737 191.518C360.747 193.415 359.082 194.531 357.359 194.747C355.588 194.969 353.868 194.23 351.811 192.719C339.619 198.059 332.884 201.3 322.379 208.343L324.02 213.898C333.195 208.939 338.558 206.385 348.267 203.54L348.824 203.377V227C348.961 226.971 349.127 226.939 349.329 226.905C350.249 226.748 351.957 226.529 355.125 226.274C358.298 226.019 360.035 226.018 360.988 226.083C361.235 226.1 361.433 226.122 361.592 226.146L362.328 201.127L363.025 201.749C372.749 210.441 377.691 215.49 385.485 224.45L388.697 220.744C379.995 208.934 374.214 202.447 362.737 191.518Z" fill="black"/>
<path d="M324.335 211.782C324.335 214.503 322.064 216.709 319.263 216.709C316.462 216.709 314.191 214.503 314.191 211.782C314.191 209.061 316.462 206.855 319.263 206.855C322.064 206.855 324.335 209.061 324.335 211.782Z" fill="#C0B4A9"/>
<path fill-rule="evenodd" clip-rule="evenodd" d="M319.263 215.84C321.608 215.84 323.465 213.999 323.465 211.782C323.465 209.565 321.608 207.725 319.263 207.725C316.918 207.725 315.061 209.565 315.061 211.782C315.061 213.999 316.918 215.84 319.263 215.84ZM319.263 216.709C322.064 216.709 324.335 214.503 324.335 211.782C324.335 209.061 322.064 206.855 319.263 206.855C316.462 206.855 314.191 209.061 314.191 211.782C314.191 214.503 316.462 216.709 319.263 216.709Z" fill="black"/>
<path d="M393.601 224.969C393.601 227.45 391.654 229.461 389.253 229.461C386.853 229.461 384.906 227.45 384.906 224.969C384.906 222.488 386.853 220.477 389.253 220.477C391.654 220.477 393.601 222.488 393.601 224.969Z" fill="#C0B4A9"/>
<path fill-rule="evenodd" clip-rule="evenodd" d="M389.253 228.591C391.148 228.591 392.731 226.997 392.731 224.969C392.731 222.941 391.148 221.346 389.253 221.346C387.359 221.346 385.776 222.941 385.776 224.969C385.776 226.997 387.359 228.591 389.253 228.591ZM389.253 229.461C391.654 229.461 393.601 227.45 393.601 224.969C393.601 222.488 391.654 220.477 389.253 220.477C386.853 220.477 384.906 222.488 384.906 224.969C384.906 227.45 386.853 229.461 389.253 229.461Z" fill="black"/>
<path d="M368.097 176.984C368.966 184.664 362.425 193.832 357.084 194.518C355.343 194.742 353.347 194.057 351.403 192.675C347.384 189.815 343.589 183.968 342.738 176.984C342.568 175.589 342.587 174.226 342.784 172.927C343.056 171.137 343.667 169.467 344.593 167.992C345.619 166.358 347.031 164.964 348.795 163.916C350.296 163.025 352.052 162.384 354.041 162.059C357.287 161.528 360.076 162.631 362.301 164.644C363.688 165.899 364.856 167.508 365.778 169.296C366.553 170.798 367.155 172.425 367.568 174.074C367.81 175.043 367.988 176.021 368.097 176.984Z" fill="#C0B4A9"/>
<path fill-rule="evenodd" clip-rule="evenodd" d="M349.019 163.288L348.041 160.743L347.23 161.055L348.259 163.734C346.69 164.724 345.403 165.989 344.423 167.454L341.568 166.293L341.241 167.098L343.959 168.203C343.217 169.5 342.701 170.928 342.424 172.442L339.461 172.06L339.35 172.923L342.294 173.302C342.149 174.507 342.151 175.76 342.306 177.036C343.171 184.134 347.026 190.094 351.151 193.028C353.144 194.446 355.249 195.191 357.139 194.949C358.58 194.764 360.063 194.014 361.451 192.908C362.843 191.799 364.164 190.313 365.282 188.612C367.514 185.218 368.978 180.905 368.529 176.935C368.438 176.131 368.3 175.318 368.118 174.508H370.386V173.639H367.904C367.519 172.191 366.992 170.764 366.33 169.424L368.358 167.9L367.835 167.205L365.923 168.643C365.108 167.157 364.119 165.799 362.967 164.674L365.148 162.968L364.612 162.283L362.317 164.079C360.056 162.146 357.235 161.095 353.971 161.629C352.124 161.931 350.467 162.5 349.019 163.288ZM362.009 164.966C359.864 163.025 357.204 161.981 354.111 162.487C352.171 162.805 350.468 163.428 349.017 164.29C347.312 165.302 345.95 166.647 344.961 168.223C344.068 169.645 343.477 171.259 343.214 172.992C343.039 174.144 343.008 175.35 343.132 176.588C344.873 176.769 346.478 176.922 347.99 177.045C351.325 177.316 354.203 177.44 357.078 177.402C359.828 177.366 362.58 177.18 365.73 176.83C366.341 176.762 366.968 176.687 367.612 176.607C367.504 175.801 367.348 174.988 367.146 174.179C366.741 172.56 366.15 170.965 365.392 169.495C364.488 167.744 363.35 166.18 362.009 164.966ZM367.706 177.471C367.187 177.536 366.68 177.597 366.182 177.654C366.17 177.758 366.155 177.881 366.133 178.019C366.064 178.458 365.935 179.053 365.694 179.671C365.215 180.902 364.255 182.302 362.375 182.629C360.456 182.962 359.008 181.694 358.097 180.5C357.647 179.91 357.301 179.305 357.065 178.841C356.568 179.784 356.032 180.628 355.371 181.278C354.505 182.127 353.437 182.635 352.012 182.635C350.626 182.635 349.56 182.26 348.809 181.366C348.133 180.561 347.763 179.393 347.565 177.882C346.208 177.769 344.777 177.632 343.242 177.473C344.204 184.103 347.845 189.61 351.655 192.32C353.55 193.668 355.437 194.291 357.028 194.086C358.258 193.928 359.596 193.274 360.909 192.228C362.219 191.185 363.48 189.771 364.556 188.134C366.628 184.982 367.976 181.064 367.706 177.471ZM348.453 177.954C348.646 179.303 348.979 180.216 349.475 180.806C350.009 181.442 350.79 181.766 352.012 181.766C353.196 181.766 354.049 181.357 354.761 180.657C355.366 180.063 355.874 179.254 356.378 178.278C353.859 178.288 351.314 178.176 348.453 177.954ZM357.747 178.26C360.156 178.207 362.587 178.041 365.294 177.752C365.288 177.794 365.281 177.838 365.274 177.884C365.212 178.281 365.096 178.812 364.884 179.356C364.458 180.449 363.679 181.519 362.226 181.772C360.812 182.018 359.652 181.105 358.788 179.972C358.365 179.418 358.039 178.844 357.818 178.405C357.793 178.355 357.769 178.306 357.747 178.26Z" fill="black"/>
<path d="M353.867 175.617C353.867 176.437 353.218 177.101 352.418 177.101C351.618 177.101 350.969 176.437 350.969 175.617C350.969 174.797 351.618 174.132 352.418 174.132C353.218 174.132 353.867 174.797 353.867 175.617Z" fill="black"/>
<path d="M362.851 175.617C362.851 176.437 362.202 177.101 361.402 177.101C360.602 177.101 359.953 176.437 359.953 175.617C359.953 174.797 360.602 174.132 361.402 174.132C362.202 174.132 362.851 174.797 362.851 175.617Z" fill="black"/>
<path fill-rule="evenodd" clip-rule="evenodd" d="M356.309 189.1C354.835 189.011 353.525 188.16 352.411 186.904L353.062 186.327C354.092 187.489 355.204 188.162 356.361 188.232C357.509 188.301 358.814 187.781 360.25 186.312L360.872 186.92C359.328 188.5 357.792 189.189 356.309 189.1Z" fill="black"/>
<path d="M355.055 226.708C334.054 229.073 328.239 233.924 318.031 256.486L323.175 259.632C333.085 244.017 344.982 230.04 359.982 233.953C374.982 237.865 365.569 256.712 355.055 275.541H365.923C384.132 241.762 376.056 224.342 355.055 226.708Z" fill="#B3CAD7"/>
<path fill-rule="evenodd" clip-rule="evenodd" d="M367.969 228.973C364.644 227.199 360.297 226.555 355.104 227.14C344.62 228.32 338.022 230.115 332.769 234.361C327.557 238.575 323.614 245.244 318.586 256.316L323.038 259.039C327.938 251.355 333.346 244.059 339.396 239.133C345.551 234.121 352.414 231.53 360.092 233.532C363.945 234.537 366.297 236.526 367.421 239.29C368.534 242.024 368.414 245.441 367.509 249.254C365.742 256.703 360.913 265.917 355.795 275.107H365.663C374.655 258.355 377.084 245.764 374.775 237.69C373.621 233.654 371.284 230.742 367.969 228.973ZM366.649 275.107C375.489 258.507 377.997 245.796 375.611 237.451C374.397 233.205 371.916 230.094 368.379 228.206C364.852 226.324 360.314 225.678 355.006 226.276C344.489 227.46 337.679 229.275 332.222 233.685C326.852 238.027 322.847 244.842 317.839 255.858L310.795 251.551L310.342 252.292L325.267 261.421L325.721 260.68L323.78 259.492C328.666 251.832 334.01 244.639 339.945 239.807C345.965 234.904 352.55 232.464 359.872 234.374C363.519 235.325 365.616 237.159 366.616 239.618C367.629 242.106 367.551 245.311 366.663 249.053C364.887 256.538 359.939 265.903 354.676 275.329L354.314 275.976H371.575V275.107H366.649Z" fill="black"/>
<path d="M423.65 201.051C413.391 201.94 412.745 188.046 412.745 186.512C412.745 186.094 412.859 184.843 413.238 183.247C413.41 182.524 413.637 181.731 413.932 180.912C415.376 176.9 418.467 172.278 424.862 172.376C431.918 172.484 434.521 177.118 435.447 180.912C435.652 181.751 435.775 182.548 435.846 183.247C435.936 184.127 435.943 184.85 435.928 185.3C435.847 187.723 433.909 200.163 423.65 201.051Z" fill="#EAD8C8"/>
<path fill-rule="evenodd" clip-rule="evenodd" d="M413.523 180.765C414.991 176.688 418.194 171.839 424.868 171.941C428.501 171.997 431.026 173.222 432.761 174.954C434.485 176.676 435.395 178.866 435.87 180.809C436.08 181.67 436.206 182.488 436.279 183.203C436.37 184.104 436.378 184.846 436.363 185.315C436.321 186.576 435.805 190.356 433.994 193.947C432.178 197.548 429.022 201.023 423.688 201.485C421.014 201.716 418.939 200.983 417.347 199.71C415.766 198.446 414.686 196.671 413.948 194.854C412.474 191.225 412.311 187.304 412.311 186.512C412.311 186.051 412.431 184.765 412.816 183.146C412.991 182.41 413.222 181.601 413.523 180.765ZM414.57 180.453C414.611 180.451 414.654 180.448 414.698 180.445C415.181 180.413 415.853 180.348 416.61 180.219C418.137 179.959 419.947 179.445 421.247 178.453C422.536 177.469 423.337 175.953 423.816 174.645C424.054 173.996 424.209 173.41 424.303 172.987C424.317 172.926 424.33 172.868 424.341 172.813C418.875 172.959 416.029 176.79 414.57 180.453ZM424.99 173.824C424.898 174.16 424.78 174.541 424.633 174.944C424.129 176.318 423.254 178.014 421.775 179.144C420.306 180.265 418.327 180.808 416.756 181.076C415.964 181.211 415.261 181.279 414.756 181.313C414.55 181.326 414.376 181.335 414.242 181.34C414.046 181.909 413.884 182.463 413.751 182.986L417.079 184.344C417.119 184.308 417.164 184.267 417.214 184.223C417.428 184.032 417.731 183.779 418.087 183.531C418.442 183.283 418.858 183.034 419.297 182.858C419.733 182.684 420.221 182.57 420.705 182.629C421.594 182.736 422.419 183.242 422.995 183.682C423.288 183.906 423.531 184.124 423.7 184.286C423.752 184.336 423.797 184.381 423.835 184.419H426.875C426.885 184.399 426.895 184.378 426.905 184.356C427.008 184.147 427.17 183.869 427.41 183.587C427.896 183.018 428.7 182.44 429.937 182.406C431.189 182.372 432.004 182.959 432.492 183.548C432.699 183.798 432.847 184.048 432.95 184.251L435.381 182.998C435.32 182.483 435.23 181.923 435.1 181.338C434.979 181.333 434.829 181.325 434.655 181.313C434.173 181.279 433.506 181.211 432.768 181.075C431.314 180.808 429.497 180.261 428.315 179.11C427.176 177.999 426.21 176.339 425.537 174.988C425.327 174.566 425.144 174.17 424.99 173.824ZM434.877 180.456C434.395 178.764 433.562 176.983 432.146 175.569C430.686 174.11 428.577 173.014 425.512 172.835C425.522 172.86 425.533 172.887 425.545 172.914C425.725 173.345 425.987 173.94 426.316 174.6C426.979 175.932 427.892 177.483 428.922 178.487C429.91 179.449 431.508 179.959 432.925 180.22C433.624 180.349 434.257 180.413 434.716 180.445C434.773 180.449 434.826 180.453 434.877 180.456ZM435.467 183.932L433.218 185.091C433.248 185.273 433.284 185.52 433.308 185.8C433.357 186.379 433.364 187.157 433.142 187.811C432.71 189.084 431.481 190.222 429.94 190.192C428.494 190.165 427.09 189.424 426.742 187.761C426.584 187.005 426.585 186.257 426.624 185.705C426.634 185.551 426.648 185.411 426.662 185.288H424.085V188.257C424.085 188.599 423.95 188.945 423.761 189.25C423.569 189.561 423.302 189.863 422.989 190.125C422.372 190.642 421.517 191.05 420.627 190.997C419.829 190.95 418.965 190.734 418.249 190.315C417.528 189.893 416.93 189.247 416.75 188.342C416.59 187.539 416.592 186.646 416.63 185.968C416.649 185.629 416.678 185.338 416.702 185.13L413.55 183.843C413.266 185.173 413.18 186.177 413.18 186.512C413.18 187.254 413.34 191.047 414.753 194.527C415.459 196.263 416.465 197.892 417.89 199.031C419.304 200.161 421.156 200.831 423.613 200.618C428.537 200.192 431.479 197.003 433.218 193.556C434.961 190.099 435.455 186.448 435.494 185.286C435.504 184.967 435.503 184.5 435.467 183.932ZM417.586 185.061C417.58 185.106 417.574 185.161 417.566 185.224C417.544 185.42 417.516 185.696 417.498 186.017C417.462 186.667 417.464 187.475 417.603 188.172C417.722 188.768 418.117 189.23 418.688 189.564C419.263 189.901 419.987 190.088 420.679 190.129C421.279 190.164 421.923 189.884 422.431 189.458C422.682 189.248 422.884 189.015 423.021 188.793C423.162 188.565 423.215 188.379 423.215 188.257V185.029C423.183 184.996 423.144 184.957 423.098 184.914C422.947 184.769 422.729 184.573 422.467 184.372C421.93 183.962 421.256 183.571 420.601 183.492C420.314 183.457 419.98 183.521 419.62 183.666C419.263 183.809 418.906 184.019 418.584 184.244C418.264 184.467 417.988 184.697 417.791 184.872C417.707 184.947 417.637 185.012 417.586 185.061ZM427.589 184.965C427.587 184.973 427.585 184.983 427.583 184.994C427.576 185.032 427.567 185.088 427.556 185.16C427.535 185.305 427.508 185.514 427.491 185.766C427.456 186.272 427.457 186.933 427.593 187.583C427.833 188.731 428.781 189.301 429.957 189.323C431.039 189.344 431.981 188.528 432.318 187.532C432.481 187.052 432.488 186.421 432.441 185.874C432.418 185.608 432.384 185.374 432.356 185.208C432.342 185.125 432.329 185.059 432.32 185.014C432.315 184.993 432.312 184.976 432.31 184.965C432.31 184.965 432.31 184.965 432.31 184.965C432.306 184.955 432.3 184.937 432.292 184.914C432.275 184.868 432.248 184.799 432.208 184.715C432.129 184.546 432.004 184.323 431.822 184.102C431.464 183.67 430.888 183.25 429.961 183.275C429.018 183.301 428.431 183.729 428.071 184.151C427.889 184.366 427.764 184.58 427.686 184.739C427.647 184.819 427.62 184.883 427.603 184.926C427.597 184.943 427.592 184.956 427.589 184.965ZM432.313 184.976L432.313 184.976L432.313 184.977C432.313 184.976 432.313 184.976 432.313 184.976ZM420.252 193.641C420.252 193.641 420.252 193.641 420.653 193.473C421.054 193.306 421.054 193.306 421.054 193.305L421.055 193.308C421.057 193.312 421.059 193.317 421.063 193.325C421.07 193.341 421.081 193.366 421.097 193.398C421.128 193.462 421.176 193.556 421.24 193.67C421.37 193.897 421.565 194.196 421.824 194.486C422.346 195.071 423.082 195.573 424.056 195.482C425.096 195.386 425.769 194.907 426.188 194.454C426.399 194.225 426.545 194.003 426.637 193.839C426.684 193.757 426.716 193.691 426.736 193.647C426.746 193.626 426.753 193.609 426.757 193.6C426.759 193.595 426.76 193.592 426.761 193.59L426.761 193.591C426.761 193.591 426.761 193.591 427.167 193.744C427.574 193.898 427.574 193.898 427.574 193.898L427.573 193.9L427.572 193.903L427.569 193.91C427.567 193.916 427.564 193.924 427.56 193.933C427.552 193.952 427.541 193.978 427.526 194.01C427.497 194.074 427.453 194.162 427.394 194.267C427.276 194.477 427.092 194.756 426.826 195.043C426.293 195.621 425.431 196.228 424.137 196.348C422.778 196.475 421.792 195.756 421.175 195.065C420.865 194.718 420.637 194.365 420.486 194.101C420.41 193.968 420.353 193.856 420.314 193.776C420.295 193.736 420.28 193.704 420.269 193.681C420.264 193.669 420.26 193.66 420.257 193.653L420.254 193.645L420.253 193.642L420.252 193.641L420.252 193.641Z" fill="black"/>
<path d="M421.586 186.146C421.586 186.783 421.07 187.298 420.434 187.298C419.798 187.298 419.282 186.783 419.282 186.146C419.282 185.51 419.798 184.995 420.434 184.995C421.07 184.995 421.586 185.51 421.586 186.146Z" fill="black"/>
<path d="M431.15 185.857C431.15 186.493 430.634 187.009 429.998 187.009C429.361 187.009 428.846 186.493 428.846 185.857C428.846 185.22 429.361 184.705 429.998 184.705C430.634 184.705 431.15 185.22 431.15 185.857Z" fill="black"/>
<path d="M417.415 175.259C420.343 172.974 424.813 172.58 424.813 172.58C424.813 172.58 424.119 177.308 421.422 179.2C418.725 181.091 414.101 181.091 414.101 181.091C414.101 181.091 414.486 177.545 417.415 175.259Z" fill="#C4C4C4"/>
<path d="M432.23 175.4C429.282 172.531 424.813 172.58 424.813 172.58C424.813 172.58 426.715 176.955 428.521 178.948C430.328 180.942 435.177 180.942 435.177 180.942C435.177 180.942 435.177 178.268 432.23 175.4Z" fill="#C4C4C4"/>
<path fill-rule="evenodd" clip-rule="evenodd" d="M424.804 171.71L424.813 172.58L424.737 171.714L424.77 171.711L424.804 171.71ZM435.178 180.941C436.047 180.941 436.047 180.941 436.047 180.94L436.047 180.937L436.047 180.932L436.047 180.919C436.047 180.908 436.046 180.895 436.046 180.88C436.045 180.849 436.043 180.808 436.039 180.758C436.032 180.657 436.017 180.517 435.991 180.345C435.937 180 435.832 179.522 435.627 178.952C435.217 177.809 434.411 176.308 432.836 174.776C431.207 173.191 429.184 172.433 427.614 172.067C426.823 171.883 426.13 171.794 425.633 171.751C425.384 171.729 425.182 171.719 425.04 171.714C424.969 171.712 424.913 171.711 424.873 171.711C424.853 171.71 424.837 171.71 424.826 171.71L424.812 171.71L424.807 171.71L424.805 171.71C424.804 171.71 424.804 171.71 424.813 172.58C424.737 171.714 424.737 171.714 424.737 171.714L424.735 171.714L424.731 171.714L424.718 171.716C424.707 171.717 424.692 171.718 424.673 171.72C424.636 171.724 424.582 171.73 424.513 171.738C424.375 171.754 424.179 171.78 423.935 171.818C423.448 171.894 422.769 172.02 421.994 172.221C420.461 172.618 418.48 173.325 416.88 174.574C415.257 175.84 414.351 177.446 413.851 178.713C413.6 179.349 413.448 179.908 413.358 180.312C413.313 180.515 413.283 180.679 413.265 180.796C413.255 180.855 413.249 180.902 413.244 180.936C413.242 180.952 413.24 180.966 413.239 180.976L413.237 180.989L413.237 180.994L413.237 180.996L413.237 180.996C413.237 180.997 413.237 180.997 414.101 181.091L413.237 180.997L413.132 181.96H414.101V181.091C414.101 181.96 414.101 181.96 414.101 181.96L414.103 181.96L414.107 181.96L414.12 181.96C414.131 181.96 414.146 181.96 414.165 181.96C414.204 181.959 414.259 181.958 414.329 181.956C414.47 181.952 414.671 181.945 414.919 181.929C415.416 181.898 416.106 181.837 416.886 181.713C418.418 181.471 420.408 180.973 421.922 179.911C423.496 178.808 424.42 176.941 424.947 175.475C424.99 175.357 425.03 175.241 425.068 175.127C425.117 175.223 425.168 175.32 425.219 175.419C425.923 176.767 426.893 178.446 427.877 179.532C428.453 180.167 429.229 180.603 430.004 180.909C430.786 181.218 431.624 181.418 432.379 181.549C433.136 181.68 433.831 181.745 434.336 181.778C434.589 181.794 434.796 181.803 434.941 181.807C435.013 181.809 435.071 181.81 435.111 181.81C435.131 181.811 435.147 181.811 435.158 181.811L435.171 181.811L435.175 181.811L435.177 181.811C435.177 181.811 435.178 181.811 435.178 180.941ZM434.306 180.905C434.838 180.941 435.178 180.941 435.178 180.941H436.047V181.811H435.178V180.941C435.178 180.941 435.178 180.616 435.052 180.07C434.819 179.052 434.149 177.267 432.23 175.399C430.137 173.363 427.276 172.797 425.794 172.64C425.189 172.576 424.813 172.58 424.813 172.58C424.813 172.58 424.469 172.61 423.91 172.703C422.452 172.944 419.531 173.608 417.415 175.259C415.39 176.839 414.581 179.021 414.275 180.218C414.138 180.753 414.101 181.091 414.101 181.091C414.101 181.091 414.439 181.091 414.985 181.054C416.459 180.953 419.454 180.58 421.422 179.2C423.178 177.968 424.085 175.535 424.504 173.986C424.554 173.802 424.597 173.631 424.634 173.475C424.762 172.929 424.813 172.58 424.813 172.58C424.813 172.58 424.963 172.924 425.218 173.464C425.281 173.597 425.351 173.742 425.426 173.896C426.132 175.349 427.347 177.652 428.522 178.948C429.851 180.414 432.825 180.802 434.306 180.905Z" fill="black"/>
<path d="M640.127 227.673C639.972 230.001 635.16 237.297 635.16 237.297C635.16 237.297 631.279 229.846 631.279 227.673C631.279 225.5 632.521 224.103 635.16 224.258C637.799 224.413 640.282 225.345 640.127 227.673Z" fill="white"/>
<path d="M630.572 227.186C632.311 228.742 635.096 237.026 635.096 237.026C635.096 237.026 626.836 235.495 625.124 234.157C623.412 232.818 623.076 230.98 624.823 228.996C626.57 227.013 628.834 225.63 630.572 227.186Z" fill="white"/>
<path d="M625.067 234.5C627.356 234.048 635.648 236.807 635.648 236.807C635.648 236.807 629.456 242.484 627.356 243.047C625.257 243.609 623.587 242.771 623.054 240.182C622.521 237.593 622.777 234.953 625.067 234.5Z" fill="white"/>
<path d="M627.069 243.856C628.122 241.773 635.403 236.94 635.403 236.94C635.403 236.94 636.062 245.314 635.212 247.315C634.363 249.315 632.673 250.115 630.305 248.941C627.937 247.766 626.016 245.938 627.069 243.856Z" fill="white"/>
<path d="M634.647 247.665C633.847 245.473 635.298 236.855 635.298 236.855C635.298 236.855 641.86 242.1 642.739 244.087C643.618 246.075 643.047 247.854 640.571 248.78C638.095 249.705 635.447 249.858 634.647 247.665Z" fill="white"/>
<path d="M643.582 244.247C641.363 243.527 635.466 237.077 635.466 237.077C635.466 237.077 643.639 235.136 645.747 235.668C647.854 236.199 648.904 237.745 648.109 240.266C647.313 242.787 645.802 244.967 643.582 244.247Z" fill="white"/>
<path d="M645.425 235.258C643.486 236.556 634.77 237.2 634.77 237.2C634.77 237.2 638.302 229.577 640.023 228.251C641.744 226.924 643.608 227.054 645.096 229.239C646.585 231.424 647.363 233.959 645.425 235.258Z" fill="white"/>
<path d="M629.007 248.33C629.007 248.33 622.678 254.162 622.424 264.991" stroke="#B4C9B6"/>
<circle r="4.51515" transform="matrix(-1 0 0 1 634.754 236.914)" fill="#F2C94C"/>
<path d="M586.465 242.178C586.56 243.601 589.502 248.061 589.502 248.061C589.502 248.061 591.874 243.506 591.874 242.178C591.874 240.85 591.115 239.996 589.502 240.09C587.888 240.185 586.37 240.755 586.465 242.178Z" fill="white"/>
<path d="M592.306 241.88C591.243 242.831 589.541 247.896 589.541 247.896C589.541 247.896 594.591 246.96 595.637 246.141C596.684 245.323 596.889 244.199 595.821 242.987C594.753 241.774 593.369 240.929 592.306 241.88Z" fill="white"/>
<path d="M595.672 246.352C594.272 246.075 589.203 247.762 589.203 247.762C589.203 247.762 592.989 251.232 594.272 251.576C595.555 251.92 596.577 251.408 596.902 249.825C597.228 248.242 597.071 246.628 595.672 246.352Z" fill="white"/>
<path d="M594.449 252.071C593.805 250.798 589.354 247.843 589.354 247.843C589.354 247.843 588.951 252.962 589.47 254.185C589.99 255.408 591.022 255.897 592.47 255.179C593.918 254.461 595.092 253.344 594.449 252.071Z" fill="white"/>
<path d="M589.815 254.4C590.304 253.059 589.417 247.791 589.417 247.791C589.417 247.791 585.406 250.997 584.868 252.212C584.331 253.427 584.68 254.515 586.194 255.081C587.707 255.646 589.326 255.74 589.815 254.4Z" fill="white"/>
<path d="M584.353 252.31C585.71 251.87 589.315 247.927 589.315 247.927C589.315 247.927 584.319 246.74 583.03 247.065C581.742 247.39 581.1 248.335 581.586 249.876C582.073 251.417 582.996 252.75 584.353 252.31Z" fill="white"/>
<path d="M583.227 246.815C584.412 247.608 589.74 248.002 589.74 248.002C589.74 248.002 587.581 243.342 586.529 242.531C585.477 241.72 584.337 241.8 583.428 243.135C582.518 244.471 582.042 246.021 583.227 246.815Z" fill="white"/>
<path d="M593.264 254.806C593.264 254.806 597.133 258.371 597.288 264.991" stroke="#B4C9B6"/>
<circle cx="589.749" cy="247.827" r="2.76017" fill="#F2C94C"/>
<path d="M607.636 265.684C607.636 265.684 608.363 269.181 606.564 275.752" stroke="#B4C9B6"/>
<path d="M607.251 253.627C607.068 254.965 608.946 259.66 608.946 259.66C608.946 259.66 612.013 255.889 612.266 254.657C612.519 253.426 611.978 252.489 610.464 252.27C608.95 252.051 607.435 252.29 607.251 253.627Z" fill="white"/>
<path d="M612.723 254.463C611.557 255.143 609.014 259.513 609.014 259.513C609.014 259.513 613.873 259.607 615 259.048C616.126 258.489 616.53 257.486 615.771 256.159C615.011 254.831 613.89 253.784 612.723 254.463Z" fill="white"/>
<path d="M614.991 259.25C613.747 258.727 608.726 259.325 608.726 259.325C608.726 259.325 611.574 263.263 612.699 263.827C613.823 264.39 614.867 264.109 615.471 262.704C616.074 261.299 616.236 259.773 614.991 259.25Z" fill="white"/>
<path d="M612.768 264.319C612.414 263.016 608.85 259.429 608.85 259.429C608.85 259.429 607.502 264.098 607.75 265.331C607.999 266.563 608.863 267.214 610.342 266.824C611.821 266.434 613.123 265.621 612.768 264.319Z" fill="white"/>
<path d="M608.029 265.595C608.737 264.446 608.919 259.393 608.919 259.393C608.919 259.393 604.589 261.602 603.859 262.626C603.13 263.65 603.246 264.725 604.542 265.537C605.837 266.35 607.32 266.745 608.029 265.595Z" fill="white"/>
<path d="M603.363 262.618C604.705 262.468 608.798 259.499 608.798 259.499C608.798 259.499 604.392 257.448 603.135 257.504C601.879 257.56 601.104 258.314 601.262 259.835C601.419 261.356 602.021 262.768 603.363 262.618Z" fill="white"/>
<path d="M603.366 257.309C604.313 258.271 609.178 259.65 609.178 259.65C609.178 259.65 608.064 254.919 607.243 253.967C606.422 253.014 605.35 252.871 604.252 253.936C603.155 255.001 602.418 256.347 603.366 257.309Z" fill="white"/>
<circle cx="609.22" cy="259.49" r="2.61231" transform="rotate(11.6081 609.22 259.49)" fill="#F2C94C"/>
</svg>
