<svg width="1634" height="366" viewBox="0 0 1634 366" fill="none" xmlns="http://www.w3.org/2000/svg">
<path d="M1573.82 69.5473C1573.23 78.7473 1555.22 107.597 1555.22 107.597C1555.22 107.597 1540.68 78.1373 1540.68 69.5473C1540.68 60.9573 1545.33 55.4273 1555.22 56.0473C1565.09 56.6573 1574.38 60.3373 1573.82 69.5473Z" fill="white"/>
<path d="M1538.04 67.6176C1544.55 73.7776 1554.97 106.528 1554.97 106.528C1554.97 106.528 1524.04 100.468 1517.62 95.1875C1511.23 89.8875 1509.95 82.6276 1516.5 74.7776C1523.05 66.9376 1531.51 61.4676 1538.04 67.6176Z" fill="white"/>
<path d="M1517.41 96.5373C1525.99 94.7473 1557.04 105.657 1557.04 105.657C1557.04 105.657 1533.85 128.107 1525.99 130.327C1518.13 132.557 1511.87 129.237 1509.88 119.007C1507.89 108.767 1508.85 98.3273 1517.41 96.5373Z" fill="white"/>
<path d="M1524.91 133.527C1528.86 125.297 1556.13 106.187 1556.13 106.187C1556.13 106.187 1558.59 139.297 1555.41 147.207C1552.22 155.117 1545.9 158.277 1537.04 153.627C1528.17 148.987 1520.96 141.757 1524.91 133.527Z" fill="white"/>
<path d="M1553.3 148.587C1550.3 139.927 1555.73 105.847 1555.73 105.847C1555.73 105.847 1580.31 126.577 1583.59 134.447C1586.87 142.297 1584.75 149.337 1575.47 152.997C1566.21 156.657 1556.28 157.257 1553.3 148.587Z" fill="white"/>
<path d="M1586.76 135.077C1578.45 132.227 1556.36 106.727 1556.36 106.727C1556.36 106.727 1586.97 99.0575 1594.86 101.158C1602.74 103.258 1606.69 109.367 1603.71 119.337C1600.73 129.297 1595.07 137.917 1586.76 135.077Z" fill="white"/>
<path d="M1593.65 99.5371C1586.38 104.667 1553.76 107.207 1553.76 107.207C1553.76 107.207 1566.98 77.077 1573.42 71.827C1579.87 66.587 1586.85 67.097 1592.41 75.7371C1597.99 84.3771 1600.9 94.3971 1593.65 99.5371Z" fill="white"/>
<path d="M1553.7 123.937C1544.36 123.937 1536.79 115.937 1536.79 106.087C1536.79 96.227 1544.36 88.2271 1553.7 88.2271C1563.04 88.2271 1570.61 96.227 1570.61 106.087C1570.61 115.937 1563.04 123.937 1553.7 123.937Z" fill="#F2C94C"/>
<path d="M1613.98 144.927C1613.59 150.989 1601.65 170 1601.65 170C1601.65 170 1592 150.587 1592 144.927C1592 139.267 1595.08 135.623 1601.65 136.031C1608.19 136.433 1614.36 138.858 1613.98 144.927Z" fill="white"/>
<path d="M1590.93 143.72C1595.18 147.722 1602 169 1602 169C1602 169 1581.77 165.063 1577.57 161.632C1573.39 158.189 1572.55 153.472 1576.84 148.372C1581.12 143.278 1586.65 139.724 1590.93 143.72Z" fill="white"/>
<path d="M1577.42 162.132C1582.96 160.944 1603 168.185 1603 168.185C1603 168.185 1588.03 183.087 1582.96 184.561C1577.89 186.041 1573.85 183.837 1572.57 177.047C1571.28 170.25 1571.9 163.32 1577.42 162.132Z" fill="white"/>
<path d="M1581.73 186.637C1584.35 181.328 1602.4 169 1602.4 169C1602.4 169 1604.03 190.359 1601.92 195.462C1599.81 200.564 1595.63 202.603 1589.76 199.603C1583.89 196.61 1579.12 191.946 1581.73 186.637Z" fill="white"/>
<path d="M1600.58 196.529C1598.65 190.951 1602.14 169 1602.14 169C1602.14 169 1617.96 182.352 1620.07 187.421C1622.18 192.477 1620.81 197.012 1614.84 199.369C1608.89 201.726 1602.5 202.113 1600.58 196.529Z" fill="white"/>
<path d="M1622.49 187.638C1617.17 185.756 1603 168.918 1603 168.918C1603 168.918 1622.63 163.854 1627.69 165.24C1632.74 166.627 1635.27 170.661 1633.36 177.245C1631.45 183.821 1627.82 189.513 1622.49 187.638Z" fill="white"/>
<path d="M1627.17 164.053C1622.4 167.362 1601 169 1601 169C1601 169 1609.67 149.568 1613.9 146.182C1618.13 142.802 1622.71 143.131 1626.36 148.704C1630.02 154.276 1631.93 160.738 1627.17 164.053Z" fill="white"/>
<path d="M1601 180C1594.92 180 1590 174.847 1590 168.503C1590 162.153 1594.92 157 1601 157C1607.08 157 1612 162.153 1612 168.503C1612 174.847 1607.08 180 1601 180Z" fill="#F2C94C"/>
<path d="M17.5583 70.2877C17.9183 75.9077 28.9382 93.5477 28.9382 93.5477C28.9382 93.5477 37.8182 75.5377 37.8182 70.2877C37.8182 65.0277 34.9782 61.6577 28.9382 62.0277C22.8982 62.4077 17.2083 64.6577 17.5583 70.2877Z" fill="white"/>
<path d="M39.4381 69.1076C35.4481 72.8676 29.0781 92.8876 29.0781 92.8876C29.0781 92.8876 47.9882 89.1875 51.9082 85.9575C55.8282 82.7175 56.5981 78.2776 52.5981 73.4876C48.5981 68.6876 43.4181 65.3476 39.4381 69.1076Z" fill="white"/>
<path d="M52.0385 86.7874C46.7985 85.6974 27.8184 92.3673 27.8184 92.3673C27.8184 92.3673 41.9885 106.087 46.7985 107.437C51.5985 108.807 55.4284 106.777 56.6484 100.517C57.8684 94.2574 57.2785 87.8774 52.0385 86.7874Z" fill="white"/>
<path d="M47.4578 109.398C45.0378 104.368 28.3779 92.6875 28.3779 92.6875C28.3779 92.6875 26.8678 112.918 28.8178 117.758C30.7578 122.598 34.6279 124.527 40.0479 121.688C45.4679 118.848 49.8678 114.428 47.4578 109.398Z" fill="white"/>
<path d="M30.1089 118.608C31.9389 113.308 28.6189 92.4775 28.6189 92.4775C28.6189 92.4775 13.5989 105.158 11.5889 109.958C9.57889 114.758 10.879 119.068 16.549 121.298C22.219 123.538 28.2789 123.908 30.1089 118.608Z" fill="white"/>
<path d="M10.9681 109.578C16.0481 107.838 29.5482 92.2476 29.5482 92.2476C29.5482 92.2476 10.8381 87.5575 6.00814 88.8375C1.18814 90.1275 -1.21188 93.8675 0.608116 99.9575C2.42812 106.048 5.8881 111.318 10.9681 109.578Z" fill="white"/>
<path d="M4.6379 87.6173C9.0779 90.7573 29.0279 92.3073 29.0279 92.3073C29.0279 92.3073 20.9479 73.8873 17.0079 70.6873C13.0579 67.4773 8.7979 67.7973 5.3879 73.0773C1.9879 78.3573 0.1979 84.4873 4.6379 87.6173Z" fill="white"/>
<path d="M29.8573 103.538C35.5673 103.538 40.1973 98.6476 40.1973 92.6176C40.1973 86.5976 35.5673 81.7075 29.8573 81.7075C24.1573 81.7075 19.5273 86.5976 19.5273 92.6176C19.5273 98.6476 24.1573 103.538 29.8573 103.538Z" fill="#F2C94C"/>
<path d="M1542.56 192.288C1542.92 197.908 1553.94 215.548 1553.94 215.548C1553.94 215.548 1562.82 197.538 1562.82 192.288C1562.82 187.028 1559.98 183.658 1553.94 184.028C1547.9 184.408 1542.21 186.658 1542.56 192.288Z" fill="white"/>
<path d="M1564.44 191.108C1560.45 194.868 1554.08 214.888 1554.08 214.888C1554.08 214.888 1572.99 211.188 1576.91 207.958C1580.83 204.718 1581.6 200.278 1577.6 195.488C1573.6 190.688 1568.42 187.348 1564.44 191.108Z" fill="white"/>
<path d="M1577.04 208.787C1571.8 207.697 1552.82 214.367 1552.82 214.367C1552.82 214.367 1566.99 228.087 1571.8 229.437C1576.6 230.807 1580.43 228.777 1581.65 222.517C1582.87 216.257 1582.28 209.877 1577.04 208.787Z" fill="white"/>
<path d="M1572.46 231.398C1570.04 226.368 1553.38 214.688 1553.38 214.688C1553.38 214.688 1551.87 234.918 1553.82 239.758C1555.76 244.598 1559.63 246.527 1565.05 243.688C1570.47 240.848 1574.87 236.428 1572.46 231.398Z" fill="white"/>
<path d="M1555.11 240.608C1556.94 235.308 1553.62 214.478 1553.62 214.478C1553.62 214.478 1538.6 227.158 1536.59 231.958C1534.58 236.758 1535.88 241.068 1541.55 243.298C1547.22 245.538 1553.28 245.908 1555.11 240.608Z" fill="white"/>
<path d="M1535.97 231.578C1541.05 229.838 1554.55 214.248 1554.55 214.248C1554.55 214.248 1535.84 209.558 1531.01 210.838C1526.19 212.128 1523.79 215.868 1525.61 221.958C1527.43 228.048 1530.89 233.318 1535.97 231.578Z" fill="white"/>
<path d="M1529.64 209.617C1534.08 212.757 1554.03 214.307 1554.03 214.307C1554.03 214.307 1545.95 195.887 1542.01 192.687C1538.06 189.477 1533.8 189.797 1530.39 195.077C1526.99 200.357 1525.2 206.487 1529.64 209.617Z" fill="white"/>
<path d="M1554.86 225.538C1560.57 225.538 1565.2 220.648 1565.2 214.618C1565.2 208.598 1560.57 203.708 1554.86 203.708C1549.16 203.708 1544.53 208.598 1544.53 214.618C1544.53 220.648 1549.16 225.538 1554.86 225.538Z" fill="#F2C94C"/>
<path d="M147.141 152.797C144.828 152.797 141.266 152.609 136.453 152.234C131.766 151.891 128.203 151.734 125.766 151.766H122.438C122.531 156.078 122.953 163.078 123.703 172.766C124.391 181.797 124.734 188.812 124.734 193.812C124.734 194.906 124.844 196.562 125.062 198.781C125.281 201 125.391 202.672 125.391 203.797C125.391 205.922 125.047 207.75 124.359 209.281C123.484 211.344 122.125 212.375 120.281 212.375C119.031 212.375 117.906 211.938 116.906 211.062C115.906 210.188 115.406 209.062 115.406 207.688C115.406 207.219 115.484 206.516 115.641 205.578C115.797 204.641 115.875 203.938 115.875 203.469C115.875 201.938 115.766 199.641 115.547 196.578C115.359 193.516 115.266 191.203 115.266 189.641C115.266 185.172 114.906 178.891 114.188 170.797C113.438 162.047 113.016 155.766 112.922 151.953L108.656 152C101.812 152 96.4375 151.5 92.5312 150.5C90 149.844 88.7344 148.297 88.7344 145.859C88.7344 144.578 89.1406 143.453 89.9531 142.484C90.8906 141.391 92.0938 140.891 93.5625 140.984C94.6562 141.047 97.1562 141.328 101.062 141.828C104.188 142.203 106.719 142.391 108.656 142.391C110.531 142.391 113.375 142.359 117.188 142.297C121 142.203 123.844 142.156 125.719 142.156C128.125 142.156 131.688 142.328 136.406 142.672C141.156 143.016 144.734 143.188 147.141 143.188C148.484 143.188 149.609 143.656 150.516 144.594C151.422 145.5 151.875 146.641 151.875 148.016C151.875 149.359 151.422 150.5 150.516 151.438C149.609 152.344 148.484 152.797 147.141 152.797ZM194.297 214.906C192.078 214.906 190.625 213.719 189.938 211.344C189.219 208.781 188.562 205.141 187.969 200.422C187.406 195.891 187.125 192.172 187.125 189.266C187.125 188.453 187.156 187.219 187.219 185.562C187.312 183.906 187.359 182.672 187.359 181.859C187.359 175.984 185.891 173.047 182.953 173.047C178.984 173.047 175.438 174.844 172.312 178.438C170.719 180.281 168.531 183.797 165.75 188.984C165.75 200.891 165.25 207.938 164.25 210.125C163.375 212.062 162.016 213.031 160.172 213.031C158.891 213.031 157.766 212.594 156.797 211.719C155.828 210.844 155.344 209.781 155.344 208.531C155.344 208.094 155.484 207.406 155.766 206.469C156.016 205.688 156.188 203.406 156.281 199.625L156.422 192.688L156.562 158.234C156.781 154.359 156.891 151.75 156.891 150.406C156.891 148.812 156.734 147.312 156.422 145.906C156.141 144.469 156 142.984 156 141.453C156 140.141 156.453 139.062 157.359 138.219C158.266 137.344 159.375 136.906 160.688 136.906C163.25 136.906 164.75 138.281 165.188 141.031C165.688 144.062 165.938 146.797 165.938 149.234C165.938 152.516 165.828 155.938 165.609 159.5C165.422 162.906 165.344 166.328 165.375 169.766L165.422 173.891C167.984 170.453 170.719 167.891 173.625 166.203C176.562 164.484 179.672 163.625 182.953 163.625C188.141 163.625 191.703 165.312 193.641 168.688C195.016 171.062 195.797 175.062 195.984 180.688L196.359 189.641L197.297 199.391C197.734 203.047 198.266 206.266 198.891 209.047C199.016 209.578 199.078 210.031 199.078 210.406C199.078 211.688 198.609 212.75 197.672 213.594C196.734 214.469 195.609 214.906 194.297 214.906ZM232.453 214.156C225.391 214.156 219.672 212.391 215.297 208.859C210.516 204.953 208.125 199.484 208.125 192.453C208.125 184.328 210.094 177.516 214.031 172.016C218.312 166.016 224.031 163.016 231.188 163.016C236.375 163.016 240.609 163.891 243.891 165.641C247.922 167.797 249.938 171.109 249.938 175.578C249.938 178.703 248.172 181.547 244.641 184.109C243.078 185.234 239.766 186.984 234.703 189.359L216.797 197.844C218.547 200.438 220.719 202.391 223.312 203.703C225.938 205.016 228.984 205.672 232.453 205.672C234.609 205.672 237.141 205.266 240.047 204.453C243.734 203.422 246.109 202.078 247.172 200.422C248.234 198.734 249.375 197.891 250.594 197.891C251.688 197.891 252.656 198.312 253.5 199.156C254.375 199.969 254.812 200.922 254.812 202.016C254.812 205.484 252.016 208.469 246.422 210.969C241.641 213.094 236.984 214.156 232.453 214.156ZM231.188 171.453C227.375 171.453 224.203 172.938 221.672 175.906C219.141 178.844 217.25 183.281 216 189.219L230.391 182.375C236.047 179.625 240.078 177.234 242.484 175.203C239.797 172.703 236.031 171.453 231.188 171.453ZM346.266 183.641C344.328 193.234 340.25 200.906 334.031 206.656C327.844 212.375 320.531 215.234 312.094 215.234C304.406 215.234 298.641 213.094 294.797 208.812C290.953 204.5 289.031 198.047 289.031 189.453C289.031 181.359 290.938 173.031 294.75 164.469C298.594 155.875 303.516 148.938 309.516 143.656C313.516 140.125 317.75 138.359 322.219 138.359C325.062 138.359 328.812 139.297 333.469 141.172C339.156 143.422 342 145.906 342 148.625C342 149.906 341.531 151.047 340.594 152.047C339.656 153.047 338.531 153.547 337.219 153.547C336.531 153.547 335.562 153.156 334.312 152.375C329.531 149.469 325.5 148.016 322.219 148.016C319.875 148.016 317.422 149.234 314.859 151.672C313.578 152.891 311.734 155.109 309.328 158.328C302.109 167.891 298.5 178.266 298.5 189.453C298.5 195.328 299.406 199.438 301.219 201.781C303.188 204.344 306.812 205.625 312.094 205.625C317.688 205.625 322.547 203.859 326.672 200.328C331.016 196.578 334.047 191.219 335.766 184.25C327.109 184.688 319.688 186.359 313.5 189.266C312.781 189.609 312.078 189.781 311.391 189.781C310.016 189.781 308.875 189.25 307.969 188.188C307.125 187.219 306.703 186.094 306.703 184.812C306.703 183.094 307.531 181.719 309.188 180.688C315.938 176.562 327.578 174.5 344.109 174.5C345.453 174.5 346.578 174.953 347.484 175.859C348.391 176.766 348.844 177.906 348.844 179.281C348.844 181.312 347.984 182.766 346.266 183.641ZM393.562 177.359C393.344 181.266 391.781 183.219 388.875 183.219C386.188 183.219 384.844 181.672 384.844 178.578C384.844 177.984 384.797 176.891 384.703 175.297L384.562 171.359C379.625 171.953 375.672 173.344 372.703 175.531C369.922 177.562 367.609 180.625 365.766 184.719L365.859 210.406C365.859 213.562 364.312 215.141 361.219 215.141C358.469 215.141 357.094 213.562 357.094 210.406V177.5C357.094 176.469 357.125 174.922 357.188 172.859C357.281 170.797 357.328 169.25 357.328 168.219C357.328 165.062 358.703 163.484 361.453 163.484C364.516 163.484 366.062 166.078 366.094 171.266C372.094 165.484 378.75 162.594 386.062 162.594C388.594 162.594 390.484 163.547 391.734 165.453C392.984 167.359 393.609 170.234 393.609 174.078C393.609 175.703 393.594 176.797 393.562 177.359ZM420.797 214.766C415.547 214.766 411.031 212.828 407.25 208.953C403.031 204.641 400.812 198.844 400.594 191.562C400.406 184.5 402.188 178.281 405.938 172.906C410.312 166.562 416.406 163.391 424.219 163.391C430.469 163.391 435.203 166.25 438.422 171.969C440.984 176.594 442.219 182.156 442.125 188.656C442.031 195.594 440.219 201.516 436.688 206.422C432.688 211.984 427.391 214.766 420.797 214.766ZM423.609 172.906C419.016 172.875 415.438 175.062 412.875 179.469C410.844 183 409.828 187.031 409.828 191.562C409.828 196.094 411.062 199.625 413.531 202.156C415.594 204.25 418.016 205.297 420.797 205.297C424.047 205.297 426.844 204.109 429.188 201.734C431.844 199.109 433.25 195.562 433.406 191.094C433.844 179 430.578 172.938 423.609 172.906ZM509.859 170.047C507.422 180.234 504.234 191.75 500.297 204.594C499.422 207.438 497.969 210.359 495.938 213.359C494.844 215.016 493.359 215.828 491.484 215.797C488.078 215.734 485.422 211.5 483.516 203.094C482.891 200.406 482.25 196.75 481.594 192.125L480.047 181.672L476.203 190.625L469.078 209.984C468.672 211.172 468.078 212.078 467.297 212.703C466.359 214.516 464.859 215.453 462.797 215.516C460.422 215.609 458.125 210.953 455.906 201.547C454.781 196.703 453.656 190.141 452.531 181.859L451.406 174.828C451 172.016 450.797 169.656 450.797 167.75C450.797 166.438 451.25 165.359 452.156 164.516C453.094 163.641 454.219 163.203 455.531 163.203C457.906 163.203 459.375 164.5 459.938 167.094C460.344 168.938 460.672 171.219 460.922 173.938L461.625 180.828L464.391 201.875C467.859 192.25 471.453 181.156 475.172 168.594C476.203 165.125 478 163.391 480.562 163.391C483.031 163.391 484.703 165.328 485.578 169.203C486.391 172.859 487.406 178.484 488.625 186.078C489.875 193.953 490.984 200.094 491.953 204.5L495.375 191.75L501.422 166.203C501.891 164.297 503.234 163.344 505.453 163.344C506.766 163.344 507.906 163.797 508.875 164.703C509.844 165.578 510.328 166.641 510.328 167.891C510.328 168.047 510.172 168.766 509.859 170.047ZM579.234 214.859C570.422 214.859 562.953 212.219 556.828 206.938C550.328 201.312 547.078 194.062 547.078 185.188C547.078 174.375 550.281 164.547 556.688 155.703C563.844 145.891 572.766 140.984 583.453 140.984C593.734 140.984 601.375 143.297 606.375 147.922C611.594 152.734 614.203 160.328 614.203 170.703C614.203 181.516 611.266 191.266 605.391 199.953C598.641 209.891 589.922 214.859 579.234 214.859ZM583.453 150.594C575.797 150.594 569.312 154.406 564 162.031C559.094 169.031 556.641 176.75 556.641 185.188C556.641 191.219 558.875 196.125 563.344 199.906C567.625 203.469 572.922 205.25 579.234 205.25C586.828 205.25 593.094 201.422 598.031 193.766C602.438 186.922 604.641 179.234 604.641 170.703C604.641 163.234 602.969 157.984 599.625 154.953C596.438 152.047 591.047 150.594 583.453 150.594ZM636.75 175.156L636.047 198.453C636.047 200.922 635.922 204.547 635.672 209.328C635.359 212.453 633.828 214.016 631.078 214.016C628.016 214.016 626.484 212.422 626.484 209.234C626.484 205.453 626.656 199.781 627 192.219C627.344 184.625 627.516 178.938 627.516 175.156C627.516 170.219 627.594 164.578 627.75 158.234C627.906 151.859 627.984 146.203 627.984 141.266C627.984 138.141 629.516 136.578 632.578 136.578C635.672 136.578 637.219 138.141 637.219 141.266C637.219 146.203 637.141 151.859 636.984 158.234C636.828 164.578 636.75 170.219 636.75 175.156ZM694.359 170.609C693.984 175.203 693.797 179.797 693.797 184.391C693.797 194.797 694.281 202.656 695.25 207.969C695.312 208.406 695.344 208.766 695.344 209.047C695.344 210.297 694.906 211.328 694.031 212.141C693.156 212.953 692.141 213.359 690.984 213.359C689.047 213.359 687.625 211.953 686.719 209.141C684.469 210.797 682.125 212.047 679.688 212.891C677.281 213.734 674.766 214.156 672.141 214.156C665.672 214.156 660.312 212 656.062 207.688C651.688 203.281 649.5 197.625 649.5 190.719C649.5 182.375 651.703 175.688 656.109 170.656C660.547 165.625 666.297 163.109 673.359 163.109C676.984 163.109 679.781 163.672 681.75 164.797L686.156 168.031C686.594 154.875 687.109 146.016 687.703 141.453C688.109 138.672 689.531 137.281 691.969 137.281C694.812 137.281 696.234 138.797 696.234 141.828C696.234 146.172 695.609 155.766 694.359 170.609ZM673.547 171.828C668.297 171.828 664.359 173.391 661.734 176.516C659.109 179.609 657.797 184.281 657.797 190.531C657.797 194.562 659.219 198.031 662.062 200.938C664.938 203.844 668.297 205.297 672.141 205.297C674.766 205.297 676.984 204.812 678.797 203.844C679.859 203.281 681.594 201.984 684 199.953C684.469 199.547 684.922 199.062 685.359 198.5L685.219 190.391L685.266 184.953L685.359 179.422C684.172 176.891 682.594 175 680.625 173.75C678.656 172.469 676.297 171.828 673.547 171.828ZM780.234 211.672C775.391 214.984 768.438 216.641 759.375 216.641C757.094 216.641 754.484 216.281 751.547 215.562C748.016 214.719 745.359 213.625 743.578 212.281H743.109C741.766 212.281 740.641 211.812 739.734 210.875C738.828 209.938 738.375 208.797 738.375 207.453C738.375 204.172 738.516 199.266 738.797 192.734C739.109 186.172 739.266 181.25 739.266 177.969C739.266 174.312 739.188 168.859 739.031 161.609C738.906 154.328 738.844 148.859 738.844 145.203C738.844 143.922 739.5 142.578 740.812 141.172C742.125 139.766 743.438 139.062 744.75 139.062C745.5 139.062 748 140.109 752.25 142.203C757.062 144.547 759.844 145.844 760.594 146.094C769.469 149.125 777.031 153.781 783.281 160.062C790.625 167.469 794.297 175.609 794.297 184.484C794.297 189.828 793.031 194.953 790.5 199.859C788 204.766 784.578 208.703 780.234 211.672ZM770.391 162.078C767.203 159.984 759.844 156.391 748.312 151.297L748.547 164.797L748.688 178.25L747.938 203.844C748.156 203.938 748.484 204.141 748.922 204.453C751.672 206.297 755.141 207.219 759.328 207.219C766.453 207.219 771.641 206.125 774.891 203.938C777.922 201.875 780.328 199.109 782.109 195.641C783.922 192.141 784.828 188.5 784.828 184.719C784.828 175.906 780.016 168.359 770.391 162.078ZM814.547 152.656C813.047 152.656 811.75 152.125 810.656 151.062C809.562 150 809.016 148.719 809.016 147.219C809.016 145.719 809.562 144.438 810.656 143.375C811.75 142.312 813.047 141.781 814.547 141.781C816.047 141.781 817.328 142.312 818.391 143.375C819.484 144.438 820.031 145.719 820.031 147.219C820.031 148.719 819.484 150 818.391 151.062C817.328 152.125 816.047 152.656 814.547 152.656ZM816.656 190.719C816.656 192.594 816.703 195.406 816.797 199.156C816.922 202.875 816.984 205.672 816.984 207.547C816.984 208.922 816.562 210.047 815.719 210.922C814.875 211.797 813.766 212.234 812.391 212.234C811.047 212.234 809.938 211.797 809.062 210.922C808.219 210.047 807.797 208.922 807.797 207.547C807.797 205.672 807.734 202.875 807.609 199.156C807.516 195.406 807.469 192.594 807.469 190.719C807.469 187.781 807.625 184.125 807.938 179.75C808.25 175.344 808.406 171.672 808.406 168.734C808.406 167.328 808.828 166.188 809.672 165.312C810.547 164.438 811.656 164 813 164C814.344 164 815.438 164.438 816.281 165.312C817.156 166.188 817.594 167.328 817.594 168.734C817.594 171.672 817.438 175.344 817.125 179.75C816.812 184.125 816.656 187.781 816.656 190.719ZM864.141 175.906C862.422 175.906 861.219 175.328 860.531 174.172C860.062 173.359 859.656 171.672 859.312 169.109C856.969 169.703 853.359 170.797 848.484 172.391C843.453 174.391 840.922 176.859 840.891 179.797C841.828 180.141 842.75 180.391 843.656 180.547C850.844 181.828 856.188 183.594 859.688 185.844C864.781 189.125 867.328 193.875 867.328 200.094C867.328 205.188 865.125 209.031 860.719 211.625C857.062 213.75 852.438 214.812 846.844 214.812C842.75 214.812 838.844 214.125 835.125 212.75C830.312 211 827.906 208.562 827.906 205.438C827.906 204.188 828.391 203.094 829.359 202.156C830.359 201.219 831.484 200.75 832.734 200.75C833.703 200.75 834.953 201.5 836.484 203C837.234 203.719 838.922 204.312 841.547 204.781C843.641 205.156 845.406 205.344 846.844 205.344C849.469 205.344 851.781 205.031 853.781 204.406C856.688 203.5 858.141 202.062 858.141 200.094C858.141 195.844 855.172 192.969 849.234 191.469L844.359 190.391C840.203 189.484 837.25 188.422 835.5 187.203C832.969 185.453 831.703 182.812 831.703 179.281C831.703 172.75 834.781 168.094 840.938 165.312C842.812 164.469 845.812 163.469 849.938 162.312C854.062 161.125 857.016 160.125 858.797 159.312C860.078 158.75 861.469 158.469 862.969 158.469C864.312 158.469 865.406 158.906 866.25 159.781C867.125 160.656 867.562 161.797 867.562 163.203C867.562 164.109 867.75 165.438 868.125 167.188C868.531 168.938 868.734 170.266 868.734 171.172C868.734 172.578 868.297 173.719 867.422 174.594C866.578 175.469 865.484 175.906 864.141 175.906ZM917.859 191.797L916.781 207.547C916.594 213.797 915.953 218.906 914.859 222.875C913.453 227.938 911.203 231.672 908.109 234.078C904.359 236.984 898.938 238.438 891.844 238.438C887.688 238.438 884.203 238.156 881.391 237.594C877.453 236.812 875.484 235.188 875.484 232.719C875.484 229.938 876.844 228.547 879.562 228.547C880.688 228.547 882.562 228.812 885.188 229.344C887.812 229.906 890.719 230.156 893.906 230.094C899.906 230 904.047 227.094 906.328 221.375C907.828 217.562 908.625 211.703 908.719 203.797C907.031 206.922 905.016 209.266 902.672 210.828C900.359 212.391 897.703 213.172 894.703 213.172C889.047 213.172 884.438 211.25 880.875 207.406C877.344 203.531 875.578 198.516 875.578 192.359C875.578 183.922 878 177.125 882.844 171.969C887.844 166.656 894.656 164 903.281 164C906.188 164 908.625 164.375 910.594 165.125C912.562 165.875 914.062 167 915.094 168.5C918.438 168.594 920.109 170.453 920.109 174.078C920.109 176.297 919.781 179.266 919.125 182.984C918.406 187.297 917.984 190.234 917.859 191.797ZM902.812 171.5C896.875 171.5 892.281 173.547 889.031 177.641C886.125 181.328 884.672 186.016 884.672 191.703C884.672 196.234 885.531 199.641 887.25 201.922C888.969 204.203 891.547 205.344 894.984 205.344C898.141 205.344 901.203 203.562 904.172 200C906.859 196.719 908.391 193.469 908.766 190.25C909.422 186.875 910.125 181.578 910.875 174.359C909.625 173.391 908.328 172.672 906.984 172.203C905.641 171.734 904.25 171.5 902.812 171.5ZM966.75 177.359C966.531 181.266 964.969 183.219 962.062 183.219C959.375 183.219 958.031 181.672 958.031 178.578C958.031 177.984 957.984 176.891 957.891 175.297L957.75 171.359C952.812 171.953 948.859 173.344 945.891 175.531C943.109 177.562 940.797 180.625 938.953 184.719L939.047 210.406C939.047 213.562 937.5 215.141 934.406 215.141C931.656 215.141 930.281 213.562 930.281 210.406V177.5C930.281 176.469 930.312 174.922 930.375 172.859C930.469 170.797 930.516 169.25 930.516 168.219C930.516 165.062 931.891 163.484 934.641 163.484C937.703 163.484 939.25 166.078 939.281 171.266C945.281 165.484 951.938 162.594 959.25 162.594C961.781 162.594 963.672 163.547 964.922 165.453C966.172 167.359 966.797 170.234 966.797 174.078C966.797 175.703 966.781 176.797 966.75 177.359ZM1013.02 215.094C1012.42 215.094 1011.34 214.406 1009.78 213.031C1008.38 211.75 1007.33 210.609 1006.64 209.609C1003.64 211.234 1001 212.453 998.719 213.266C996.438 214.109 994.531 214.531 993 214.531C985.688 214.531 980.359 212.469 977.016 208.344C973.859 204.469 972.281 198.531 972.281 190.531C972.281 182.969 974.875 176.5 980.062 171.125C985.281 165.75 991.5 163.062 998.719 163.062C1001.44 163.062 1004.48 163.766 1007.86 165.172C1012.11 166.922 1014.23 169.031 1014.23 171.5C1014.23 172.344 1013.92 173.094 1013.3 173.75C1012.98 174.938 1012.73 176.891 1012.55 179.609C1012.39 182.328 1012.3 185.812 1012.27 190.062C1012.23 193.938 1012.5 197 1013.06 199.25C1013.38 200.625 1014.36 203.375 1016.02 207.5C1016.23 208.062 1016.59 208.891 1017.09 209.984L1017.38 210.781C1017.38 212.031 1016.94 213.062 1016.06 213.875C1015.19 214.688 1014.17 215.094 1013.02 215.094ZM1003.27 182.516C1003.27 181.172 1003.34 179.719 1003.5 178.156C1003.69 176.562 1003.95 174.875 1004.3 173.094C1003.14 172.5 1002.14 172.062 1001.3 171.781C1000.48 171.5 999.828 171.359 999.328 171.359C994.484 171.359 990.297 173.344 986.766 177.312C983.266 181.25 981.516 185.797 981.516 190.953C981.516 196.078 982.422 199.922 984.234 202.484C986.047 205.047 988.766 206.328 992.391 206.328C995.391 206.328 997.938 205.781 1000.03 204.688C1001.16 204.094 1002.73 202.906 1004.77 201.125C1003.77 192.844 1003.27 186.641 1003.27 182.516ZM1046.72 214.953C1040.31 214.953 1034.97 213.016 1030.69 209.141C1026.19 205.078 1023.94 199.719 1023.94 193.062C1023.94 186.719 1026.05 180.172 1030.27 173.422C1034.95 165.922 1040.23 162.172 1046.11 162.172C1049.17 162.172 1052.59 162.891 1056.38 164.328C1061.16 166.172 1063.55 168.422 1063.55 171.078C1063.55 172.266 1063.16 173.328 1062.38 174.266C1061.59 175.172 1060.62 175.625 1059.47 175.625C1058.56 175.625 1057.77 175.359 1057.08 174.828C1056.42 174.266 1055.78 173.719 1055.16 173.188C1053.31 171.719 1050.3 170.984 1046.11 170.984C1042.92 170.984 1039.77 173.828 1036.64 179.516C1033.8 184.734 1032.38 189.25 1032.38 193.062C1032.38 197.188 1033.78 200.438 1036.59 202.812C1039.22 205.031 1042.59 206.141 1046.72 206.141C1048.59 206.141 1050.59 205.641 1052.72 204.641L1058.16 201.734C1059.09 201.234 1059.77 200.984 1060.17 200.984C1061.33 200.984 1062.33 201.453 1063.17 202.391C1064.02 203.297 1064.44 204.344 1064.44 205.531C1064.44 207.812 1062.03 210.016 1057.22 212.141C1053 214.016 1049.5 214.953 1046.72 214.953ZM1096.73 214.156C1089.67 214.156 1083.95 212.391 1079.58 208.859C1074.8 204.953 1072.41 199.484 1072.41 192.453C1072.41 184.328 1074.38 177.516 1078.31 172.016C1082.59 166.016 1088.31 163.016 1095.47 163.016C1100.66 163.016 1104.89 163.891 1108.17 165.641C1112.2 167.797 1114.22 171.109 1114.22 175.578C1114.22 178.703 1112.45 181.547 1108.92 184.109C1107.36 185.234 1104.05 186.984 1098.98 189.359L1081.08 197.844C1082.83 200.438 1085 202.391 1087.59 203.703C1090.22 205.016 1093.27 205.672 1096.73 205.672C1098.89 205.672 1101.42 205.266 1104.33 204.453C1108.02 203.422 1110.39 202.078 1111.45 200.422C1112.52 198.734 1113.66 197.891 1114.88 197.891C1115.97 197.891 1116.94 198.312 1117.78 199.156C1118.66 199.969 1119.09 200.922 1119.09 202.016C1119.09 205.484 1116.3 208.469 1110.7 210.969C1105.92 213.094 1101.27 214.156 1096.73 214.156ZM1095.47 171.453C1091.66 171.453 1088.48 172.938 1085.95 175.906C1083.42 178.844 1081.53 183.281 1080.28 189.219L1094.67 182.375C1100.33 179.625 1104.36 177.234 1106.77 175.203C1104.08 172.703 1100.31 171.453 1095.47 171.453ZM1158.94 146.094C1151.38 146.094 1147.14 151.344 1146.23 161.844L1146.09 164.75C1151.41 164.375 1154.84 164.188 1156.41 164.188C1161.38 164.188 1163.86 165.75 1163.86 168.875C1163.86 171.156 1162.64 172.516 1160.2 172.953C1159.14 173.141 1157.89 173.219 1156.45 173.188C1155.05 173.125 1151.45 173.328 1145.67 173.797L1145.3 184.484C1145.3 186.422 1145.36 189.328 1145.48 193.203C1145.61 197.078 1145.67 199.969 1145.67 201.875C1145.67 207.812 1145.33 212.438 1144.64 215.75C1144.11 218.25 1142.66 219.5 1140.28 219.5C1139 219.5 1137.91 219.078 1137 218.234C1136.09 217.422 1135.64 216.391 1135.64 215.141C1135.64 214.891 1135.67 214.578 1135.73 214.203C1136.39 210.141 1136.72 205.719 1136.72 200.938L1136.58 188.141V174.547C1132.67 174.859 1130.2 175.016 1129.17 175.016C1126.02 175.016 1124.44 173.5 1124.44 170.469C1124.44 167.375 1127.17 165.75 1132.64 165.594L1137.14 165.453C1137.23 163.703 1137.47 161.328 1137.84 158.328C1138.66 151.391 1140.41 146.281 1143.09 143C1146.34 139.031 1151.42 137.047 1158.33 137.047C1162.8 137.047 1165.03 138.562 1165.03 141.594C1165.03 144.594 1163 146.094 1158.94 146.094ZM1214.53 184.625C1214.53 186.875 1214.55 190.25 1214.58 194.75C1214.61 199.25 1214.62 202.625 1214.62 204.875C1214.62 205.562 1214.67 206.609 1214.77 208.016C1214.89 209.422 1214.95 210.469 1214.95 211.156C1214.95 212.5 1214.5 213.594 1213.59 214.438C1212.69 215.312 1211.58 215.75 1210.27 215.75C1207.86 215.75 1206.33 214.266 1205.67 211.297C1201.77 213.328 1197.27 214.344 1192.17 214.344C1188.08 214.344 1184.69 213.438 1182 211.625C1179.03 209.625 1177.27 206.703 1176.7 202.859C1175.48 194.578 1174.88 187.203 1174.88 180.734C1174.88 176.453 1175.34 171.578 1176.28 166.109C1176.72 163.391 1178.2 162.031 1180.73 162.031C1182.08 162.031 1183.2 162.469 1184.11 163.344C1185.02 164.188 1185.47 165.281 1185.47 166.625C1185.47 168.062 1185.23 170.359 1184.77 173.516C1184.33 176.672 1184.11 179.078 1184.11 180.734C1184.11 185.953 1184.28 190.422 1184.62 194.141C1184.97 197.859 1185.48 200.844 1186.17 203.094C1187.2 203.656 1188.22 204.094 1189.22 204.406C1190.22 204.688 1191.2 204.828 1192.17 204.828C1196.36 204.828 1200.78 204.156 1205.44 202.812L1205.39 193.297L1205.3 184.203C1205.3 177.453 1205.59 171.594 1206.19 166.625C1206.53 163.75 1208.05 162.312 1210.73 162.312C1212.08 162.312 1213.2 162.75 1214.11 163.625C1215.02 164.5 1215.44 165.594 1215.38 166.906L1214.53 184.625ZM1238.16 175.156L1237.45 198.453C1237.45 200.922 1237.33 204.547 1237.08 209.328C1236.77 212.453 1235.23 214.016 1232.48 214.016C1229.42 214.016 1227.89 212.422 1227.89 209.234C1227.89 205.453 1228.06 199.781 1228.41 192.219C1228.75 184.625 1228.92 178.938 1228.92 175.156C1228.92 170.219 1229 164.578 1229.16 158.234C1229.31 151.859 1229.39 146.203 1229.39 141.266C1229.39 138.141 1230.92 136.578 1233.98 136.578C1237.08 136.578 1238.62 138.141 1238.62 141.266C1238.62 146.203 1238.55 151.859 1238.39 158.234C1238.23 164.578 1238.16 170.219 1238.16 175.156ZM1264.5 175.156L1263.8 198.453C1263.8 200.922 1263.67 204.547 1263.42 209.328C1263.11 212.453 1261.58 214.016 1258.83 214.016C1255.77 214.016 1254.23 212.422 1254.23 209.234C1254.23 205.453 1254.41 199.781 1254.75 192.219C1255.09 184.625 1255.27 178.938 1255.27 175.156C1255.27 170.219 1255.34 164.578 1255.5 158.234C1255.66 151.859 1255.73 146.203 1255.73 141.266C1255.73 138.141 1257.27 136.578 1260.33 136.578C1263.42 136.578 1264.97 138.141 1264.97 141.266C1264.97 146.203 1264.89 151.859 1264.73 158.234C1264.58 164.578 1264.5 170.219 1264.5 175.156ZM1319.81 170.188L1303.59 205.25C1299.59 213.781 1296.53 220.922 1294.41 226.672L1291.31 235.766C1290.5 238.016 1289.09 239.141 1287.09 239.141C1285.78 239.141 1284.64 238.703 1283.67 237.828C1282.73 236.984 1282.27 235.922 1282.27 234.641C1282.27 231.516 1285.64 222.469 1292.39 207.5L1275.61 175.203L1273.5 171.781C1272.66 170.344 1272.23 169.141 1272.23 168.172C1272.23 166.891 1272.72 165.766 1273.69 164.797C1274.69 163.828 1275.8 163.344 1277.02 163.344C1278.45 163.344 1279.56 163.891 1280.34 164.984C1285.66 172.359 1291.36 182.859 1297.45 196.484L1304.39 180.312C1306.89 174.719 1309.3 169.906 1311.61 165.875C1312.61 164.125 1313.92 163.25 1315.55 163.25C1316.83 163.25 1317.95 163.703 1318.92 164.609C1319.92 165.516 1320.42 166.594 1320.42 167.844C1320.42 168.531 1320.22 169.312 1319.81 170.188ZM1409.67 213.406C1406.8 213.406 1404.3 209.719 1402.17 202.344C1401.36 199.531 1400.34 194.609 1399.12 187.578C1395.94 188.016 1391.77 188.797 1386.61 189.922L1374.14 192.5C1372.58 196.594 1369.91 202.578 1366.12 210.453C1365.12 212.203 1363.77 213.078 1362.05 213.078C1360.8 213.078 1359.67 212.625 1358.67 211.719C1357.7 210.812 1357.22 209.688 1357.22 208.344C1357.22 206.844 1359.58 201.141 1364.3 191.234C1363.77 190.422 1363.5 189.484 1363.5 188.422C1363.5 185.891 1365.03 184.266 1368.09 183.547C1371.66 176.859 1376.16 169.172 1381.59 160.484C1389 148.641 1393.61 142.719 1395.42 142.719C1397.89 142.719 1399.58 144.438 1400.48 147.875L1403.44 163.625L1410.42 196.203L1413.09 203.609C1414 206.141 1414.45 207.828 1414.45 208.672C1414.45 210.016 1413.97 211.141 1413 212.047C1412.03 212.953 1410.92 213.406 1409.67 213.406ZM1393.12 159.828L1379.72 181.438C1383.5 180.469 1389.23 179.297 1396.92 177.922L1393.12 159.828ZM1464.28 177.359C1464.06 181.266 1462.5 183.219 1459.59 183.219C1456.91 183.219 1455.56 181.672 1455.56 178.578C1455.56 177.984 1455.52 176.891 1455.42 175.297L1455.28 171.359C1450.34 171.953 1446.39 173.344 1443.42 175.531C1440.64 177.562 1438.33 180.625 1436.48 184.719L1436.58 210.406C1436.58 213.562 1435.03 215.141 1431.94 215.141C1429.19 215.141 1427.81 213.562 1427.81 210.406V177.5C1427.81 176.469 1427.84 174.922 1427.91 172.859C1428 170.797 1428.05 169.25 1428.05 168.219C1428.05 165.062 1429.42 163.484 1432.17 163.484C1435.23 163.484 1436.78 166.078 1436.81 171.266C1442.81 165.484 1449.47 162.594 1456.78 162.594C1459.31 162.594 1461.2 163.547 1462.45 165.453C1463.7 167.359 1464.33 170.234 1464.33 174.078C1464.33 175.703 1464.31 176.797 1464.28 177.359ZM1505.3 172.062C1504.64 172.062 1503.86 172.031 1502.95 171.969C1502.08 171.906 1501.31 171.875 1500.66 171.875C1499.94 171.875 1497.81 172.109 1494.28 172.578L1495.17 200.281L1495.22 202.344L1495.27 204.734C1495.39 211.578 1493.75 215 1490.34 215C1489.09 215 1488 214.594 1487.06 213.781C1486.16 212.969 1485.7 211.953 1485.7 210.734C1485.7 209.547 1485.75 207.766 1485.84 205.391C1485.94 203.016 1485.98 201.234 1485.98 200.047L1485.05 172.672C1482.77 172.578 1479.3 172.312 1474.64 171.875C1471.86 171.5 1470.47 169.953 1470.47 167.234C1470.47 165.859 1470.89 164.719 1471.73 163.812C1472.58 162.906 1473.66 162.453 1474.97 162.453L1484.81 163.25C1484.81 161.656 1484.73 159.531 1484.58 156.875C1484.45 154.188 1484.39 152.25 1484.39 151.062C1484.39 149.75 1484.84 148.672 1485.75 147.828C1486.66 146.953 1487.77 146.516 1489.08 146.516C1491.89 146.516 1493.53 148.812 1494 153.406C1494.09 154.562 1494.14 155.953 1494.14 157.578L1494.05 160.297L1494 163.203C1497.88 162.703 1500.09 162.453 1500.66 162.453C1503.91 162.453 1506.03 162.609 1507.03 162.922C1508.94 163.547 1509.89 165.016 1509.89 167.328C1509.89 168.703 1509.45 169.844 1508.58 170.75C1507.73 171.625 1506.64 172.062 1505.3 172.062ZM144.984 284.484C144.109 284.484 142.203 284.281 139.266 283.875C139.016 288.594 138.891 296.859 138.891 308.672C138.891 309.922 138.484 310.984 137.672 311.859C136.859 312.703 135.844 313.125 134.625 313.125C133.375 313.125 132.344 312.703 131.531 311.859C130.719 310.984 130.312 309.922 130.312 308.672V294.891C130.312 290.297 130.594 283.828 131.156 275.484C131.781 266.453 132.125 259.984 132.188 256.078V249.609C132.188 246.516 132.375 244.266 132.75 242.859C133.469 240.109 135 238.922 137.344 239.297C138.344 238.984 139.766 238.75 141.609 238.594C143.453 238.438 145.719 238.359 148.406 238.359C154.125 238.359 159.484 240.312 164.484 244.219C169.984 248.531 172.734 253.719 172.734 259.781C172.734 267.531 169.797 273.703 163.922 278.297C158.672 282.422 152.359 284.484 144.984 284.484ZM147.328 247.266C145.953 247.266 144.719 247.297 143.625 247.359C142.562 247.422 141.656 247.516 140.906 247.641L140.812 256.266L139.828 274.922L144.984 275.531C150.234 275.531 154.656 274.203 158.25 271.547C162.188 268.641 164.156 264.719 164.156 259.781C164.156 256.281 162.281 253.266 158.531 250.734C155.062 248.422 151.328 247.266 147.328 247.266ZM218.578 277.359C218.359 281.266 216.797 283.219 213.891 283.219C211.203 283.219 209.859 281.672 209.859 278.578C209.859 277.984 209.812 276.891 209.719 275.297L209.578 271.359C204.641 271.953 200.688 273.344 197.719 275.531C194.938 277.562 192.625 280.625 190.781 284.719L190.875 310.406C190.875 313.562 189.328 315.141 186.234 315.141C183.484 315.141 182.109 313.562 182.109 310.406V277.5C182.109 276.469 182.141 274.922 182.203 272.859C182.297 270.797 182.344 269.25 182.344 268.219C182.344 265.062 183.719 263.484 186.469 263.484C189.531 263.484 191.078 266.078 191.109 271.266C197.109 265.484 203.766 262.594 211.078 262.594C213.609 262.594 215.5 263.547 216.75 265.453C218 267.359 218.625 270.234 218.625 274.078C218.625 275.703 218.609 276.797 218.578 277.359ZM237.188 252.656C235.688 252.656 234.391 252.125 233.297 251.062C232.203 250 231.656 248.719 231.656 247.219C231.656 245.719 232.203 244.438 233.297 243.375C234.391 242.312 235.688 241.781 237.188 241.781C238.688 241.781 239.969 242.312 241.031 243.375C242.125 244.438 242.672 245.719 242.672 247.219C242.672 248.719 242.125 250 241.031 251.062C239.969 252.125 238.688 252.656 237.188 252.656ZM239.297 290.719C239.297 292.594 239.344 295.406 239.438 299.156C239.562 302.875 239.625 305.672 239.625 307.547C239.625 308.922 239.203 310.047 238.359 310.922C237.516 311.797 236.406 312.234 235.031 312.234C233.688 312.234 232.578 311.797 231.703 310.922C230.859 310.047 230.438 308.922 230.438 307.547C230.438 305.672 230.375 302.875 230.25 299.156C230.156 295.406 230.109 292.594 230.109 290.719C230.109 287.781 230.266 284.125 230.578 279.75C230.891 275.344 231.047 271.672 231.047 268.734C231.047 267.328 231.469 266.188 232.312 265.312C233.188 264.438 234.297 264 235.641 264C236.984 264 238.078 264.438 238.922 265.312C239.797 266.188 240.234 267.328 240.234 268.734C240.234 271.672 240.078 275.344 239.766 279.75C239.453 284.125 239.297 287.781 239.297 290.719ZM293.812 274.078C291.031 277.422 287.469 282.266 283.125 288.609C278.094 295.984 274.406 301.203 272.062 304.266C275.344 304.109 278.203 304.031 280.641 304.031C281.859 304.031 283.672 304.266 286.078 304.734C288.484 305.203 290.297 305.438 291.516 305.438C292.891 305.438 294 305.891 294.844 306.797C295.719 307.672 296.156 308.797 296.156 310.172C296.156 311.578 295.719 312.719 294.844 313.594C294 314.469 292.891 314.906 291.516 314.906C290.297 314.906 288.484 314.672 286.078 314.203C283.672 313.734 281.859 313.5 280.641 313.5C273.609 313.5 266.938 314.141 260.625 315.422C259.969 315.547 259.391 315.609 258.891 315.609C255.859 315.609 254.344 314.281 254.344 311.625C254.344 310.062 255.125 308.562 256.688 307.125C264.844 299.75 273.719 288.266 283.312 272.672C279.156 272.922 276.141 273.047 274.266 273.047C269.641 273.047 264.891 272.688 260.016 271.969C257.234 271.562 255.844 270.016 255.844 267.328C255.844 265.953 256.266 264.812 257.109 263.906C257.953 262.969 259.016 262.5 260.297 262.5C261.828 262.5 264.141 262.688 267.234 263.062C270.328 263.406 272.672 263.578 274.266 263.578C276.391 263.578 279.578 263.438 283.828 263.156C288.078 262.844 291.266 262.688 293.391 262.688C296.047 262.688 297.375 263.781 297.375 265.969C297.375 268.5 296.188 271.203 293.812 274.078ZM328.688 314.156C321.625 314.156 315.906 312.391 311.531 308.859C306.75 304.953 304.359 299.484 304.359 292.453C304.359 284.328 306.328 277.516 310.266 272.016C314.547 266.016 320.266 263.016 327.422 263.016C332.609 263.016 336.844 263.891 340.125 265.641C344.156 267.797 346.172 271.109 346.172 275.578C346.172 278.703 344.406 281.547 340.875 284.109C339.312 285.234 336 286.984 330.938 289.359L313.031 297.844C314.781 300.438 316.953 302.391 319.547 303.703C322.172 305.016 325.219 305.672 328.688 305.672C330.844 305.672 333.375 305.266 336.281 304.453C339.969 303.422 342.344 302.078 343.406 300.422C344.469 298.734 345.609 297.891 346.828 297.891C347.922 297.891 348.891 298.312 349.734 299.156C350.609 299.969 351.047 300.922 351.047 302.016C351.047 305.484 348.25 308.469 342.656 310.969C337.875 313.094 333.219 314.156 328.688 314.156ZM327.422 271.453C323.609 271.453 320.438 272.938 317.906 275.906C315.375 278.844 313.484 283.281 312.234 289.219L326.625 282.375C332.281 279.625 336.312 277.234 338.719 275.203C336.031 272.703 332.266 271.453 327.422 271.453ZM419.578 246.094C412.016 246.094 407.781 251.344 406.875 261.844L406.734 264.75C412.047 264.375 415.484 264.188 417.047 264.188C422.016 264.188 424.5 265.75 424.5 268.875C424.5 271.156 423.281 272.516 420.844 272.953C419.781 273.141 418.531 273.219 417.094 273.188C415.688 273.125 412.094 273.328 406.312 273.797L405.938 284.484C405.938 286.422 406 289.328 406.125 293.203C406.25 297.078 406.312 299.969 406.312 301.875C406.312 307.812 405.969 312.438 405.281 315.75C404.75 318.25 403.297 319.5 400.922 319.5C399.641 319.5 398.547 319.078 397.641 318.234C396.734 317.422 396.281 316.391 396.281 315.141C396.281 314.891 396.312 314.578 396.375 314.203C397.031 310.141 397.359 305.719 397.359 300.938L397.219 288.141V274.547C393.312 274.859 390.844 275.016 389.812 275.016C386.656 275.016 385.078 273.5 385.078 270.469C385.078 267.375 387.812 265.75 393.281 265.594L397.781 265.453C397.875 263.703 398.109 261.328 398.484 258.328C399.297 251.391 401.047 246.281 403.734 243C406.984 239.031 412.062 237.047 418.969 237.047C423.438 237.047 425.672 238.562 425.672 241.594C425.672 244.594 423.641 246.094 419.578 246.094ZM454.5 314.766C449.25 314.766 444.734 312.828 440.953 308.953C436.734 304.641 434.516 298.844 434.297 291.562C434.109 284.5 435.891 278.281 439.641 272.906C444.016 266.562 450.109 263.391 457.922 263.391C464.172 263.391 468.906 266.25 472.125 271.969C474.688 276.594 475.922 282.156 475.828 288.656C475.734 295.594 473.922 301.516 470.391 306.422C466.391 311.984 461.094 314.766 454.5 314.766ZM457.312 272.906C452.719 272.875 449.141 275.062 446.578 279.469C444.547 283 443.531 287.031 443.531 291.562C443.531 296.094 444.766 299.625 447.234 302.156C449.297 304.25 451.719 305.297 454.5 305.297C457.75 305.297 460.547 304.109 462.891 301.734C465.547 299.109 466.953 295.562 467.109 291.094C467.547 279 464.281 272.938 457.312 272.906ZM523.922 277.359C523.703 281.266 522.141 283.219 519.234 283.219C516.547 283.219 515.203 281.672 515.203 278.578C515.203 277.984 515.156 276.891 515.062 275.297L514.922 271.359C509.984 271.953 506.031 273.344 503.062 275.531C500.281 277.562 497.969 280.625 496.125 284.719L496.219 310.406C496.219 313.562 494.672 315.141 491.578 315.141C488.828 315.141 487.453 313.562 487.453 310.406V277.5C487.453 276.469 487.484 274.922 487.547 272.859C487.641 270.797 487.688 269.25 487.688 268.219C487.688 265.062 489.062 263.484 491.812 263.484C494.875 263.484 496.422 266.078 496.453 271.266C502.453 265.484 509.109 262.594 516.422 262.594C518.953 262.594 520.844 263.547 522.094 265.453C523.344 267.359 523.969 270.234 523.969 274.078C523.969 275.703 523.953 276.797 523.922 277.359ZM598.875 315.094C598.281 315.094 597.203 314.406 595.641 313.031C594.234 311.75 593.188 310.609 592.5 309.609C589.5 311.234 586.859 312.453 584.578 313.266C582.297 314.109 580.391 314.531 578.859 314.531C571.547 314.531 566.219 312.469 562.875 308.344C559.719 304.469 558.141 298.531 558.141 290.531C558.141 282.969 560.734 276.5 565.922 271.125C571.141 265.75 577.359 263.062 584.578 263.062C587.297 263.062 590.344 263.766 593.719 265.172C597.969 266.922 600.094 269.031 600.094 271.5C600.094 272.344 599.781 273.094 599.156 273.75C598.844 274.938 598.594 276.891 598.406 279.609C598.25 282.328 598.156 285.812 598.125 290.062C598.094 293.938 598.359 297 598.922 299.25C599.234 300.625 600.219 303.375 601.875 307.5C602.094 308.062 602.453 308.891 602.953 309.984L603.234 310.781C603.234 312.031 602.797 313.062 601.922 313.875C601.047 314.688 600.031 315.094 598.875 315.094ZM589.125 282.516C589.125 281.172 589.203 279.719 589.359 278.156C589.547 276.562 589.812 274.875 590.156 273.094C589 272.5 588 272.062 587.156 271.781C586.344 271.5 585.688 271.359 585.188 271.359C580.344 271.359 576.156 273.344 572.625 277.312C569.125 281.25 567.375 285.797 567.375 290.953C567.375 296.078 568.281 299.922 570.094 302.484C571.906 305.047 574.625 306.328 578.25 306.328C581.25 306.328 583.797 305.781 585.891 304.688C587.016 304.094 588.594 302.906 590.625 301.125C589.625 292.844 589.125 286.641 589.125 282.516ZM647.859 277.359C647.641 281.266 646.078 283.219 643.172 283.219C640.484 283.219 639.141 281.672 639.141 278.578C639.141 277.984 639.094 276.891 639 275.297L638.859 271.359C633.922 271.953 629.969 273.344 627 275.531C624.219 277.562 621.906 280.625 620.062 284.719L620.156 310.406C620.156 313.562 618.609 315.141 615.516 315.141C612.766 315.141 611.391 313.562 611.391 310.406V277.5C611.391 276.469 611.422 274.922 611.484 272.859C611.578 270.797 611.625 269.25 611.625 268.219C611.625 265.062 613 263.484 615.75 263.484C618.812 263.484 620.359 266.078 620.391 271.266C626.391 265.484 633.047 262.594 640.359 262.594C642.891 262.594 644.781 263.547 646.031 265.453C647.281 267.359 647.906 270.234 647.906 274.078C647.906 275.703 647.891 276.797 647.859 277.359ZM688.875 272.062C688.219 272.062 687.438 272.031 686.531 271.969C685.656 271.906 684.891 271.875 684.234 271.875C683.516 271.875 681.391 272.109 677.859 272.578L678.75 300.281L678.797 302.344L678.844 304.734C678.969 311.578 677.328 315 673.922 315C672.672 315 671.578 314.594 670.641 313.781C669.734 312.969 669.281 311.953 669.281 310.734C669.281 309.547 669.328 307.766 669.422 305.391C669.516 303.016 669.562 301.234 669.562 300.047L668.625 272.672C666.344 272.578 662.875 272.312 658.219 271.875C655.438 271.5 654.047 269.953 654.047 267.234C654.047 265.859 654.469 264.719 655.312 263.812C656.156 262.906 657.234 262.453 658.547 262.453L668.391 263.25C668.391 261.656 668.312 259.531 668.156 256.875C668.031 254.188 667.969 252.25 667.969 251.062C667.969 249.75 668.422 248.672 669.328 247.828C670.234 246.953 671.344 246.516 672.656 246.516C675.469 246.516 677.109 248.812 677.578 253.406C677.672 254.562 677.719 255.953 677.719 257.578L677.625 260.297L677.578 263.203C681.453 262.703 683.672 262.453 684.234 262.453C687.484 262.453 689.609 262.609 690.609 262.922C692.516 263.547 693.469 265.016 693.469 267.328C693.469 268.703 693.031 269.844 692.156 270.75C691.312 271.625 690.219 272.062 688.875 272.062ZM711.75 252.656C710.25 252.656 708.953 252.125 707.859 251.062C706.766 250 706.219 248.719 706.219 247.219C706.219 245.719 706.766 244.438 707.859 243.375C708.953 242.312 710.25 241.781 711.75 241.781C713.25 241.781 714.531 242.312 715.594 243.375C716.688 244.438 717.234 245.719 717.234 247.219C717.234 248.719 716.688 250 715.594 251.062C714.531 252.125 713.25 252.656 711.75 252.656ZM713.859 290.719C713.859 292.594 713.906 295.406 714 299.156C714.125 302.875 714.188 305.672 714.188 307.547C714.188 308.922 713.766 310.047 712.922 310.922C712.078 311.797 710.969 312.234 709.594 312.234C708.25 312.234 707.141 311.797 706.266 310.922C705.422 310.047 705 308.922 705 307.547C705 305.672 704.938 302.875 704.812 299.156C704.719 295.406 704.672 292.594 704.672 290.719C704.672 287.781 704.828 284.125 705.141 279.75C705.453 275.344 705.609 271.672 705.609 268.734C705.609 267.328 706.031 266.188 706.875 265.312C707.75 264.438 708.859 264 710.203 264C711.547 264 712.641 264.438 713.484 265.312C714.359 266.188 714.797 267.328 714.797 268.734C714.797 271.672 714.641 275.344 714.328 279.75C714.016 284.125 713.859 287.781 713.859 290.719ZM761.344 275.906C759.625 275.906 758.422 275.328 757.734 274.172C757.266 273.359 756.859 271.672 756.516 269.109C754.172 269.703 750.562 270.797 745.688 272.391C740.656 274.391 738.125 276.859 738.094 279.797C739.031 280.141 739.953 280.391 740.859 280.547C748.047 281.828 753.391 283.594 756.891 285.844C761.984 289.125 764.531 293.875 764.531 300.094C764.531 305.188 762.328 309.031 757.922 311.625C754.266 313.75 749.641 314.812 744.047 314.812C739.953 314.812 736.047 314.125 732.328 312.75C727.516 311 725.109 308.562 725.109 305.438C725.109 304.188 725.594 303.094 726.562 302.156C727.562 301.219 728.688 300.75 729.938 300.75C730.906 300.75 732.156 301.5 733.688 303C734.438 303.719 736.125 304.312 738.75 304.781C740.844 305.156 742.609 305.344 744.047 305.344C746.672 305.344 748.984 305.031 750.984 304.406C753.891 303.5 755.344 302.062 755.344 300.094C755.344 295.844 752.375 292.969 746.438 291.469L741.562 290.391C737.406 289.484 734.453 288.422 732.703 287.203C730.172 285.453 728.906 282.812 728.906 279.281C728.906 272.75 731.984 268.094 738.141 265.312C740.016 264.469 743.016 263.469 747.141 262.312C751.266 261.125 754.219 260.125 756 259.312C757.281 258.75 758.672 258.469 760.172 258.469C761.516 258.469 762.609 258.906 763.453 259.781C764.328 260.656 764.766 261.797 764.766 263.203C764.766 264.109 764.953 265.438 765.328 267.188C765.734 268.938 765.938 270.266 765.938 271.172C765.938 272.578 765.5 273.719 764.625 274.594C763.781 275.469 762.688 275.906 761.344 275.906ZM807.844 272.062C807.188 272.062 806.406 272.031 805.5 271.969C804.625 271.906 803.859 271.875 803.203 271.875C802.484 271.875 800.359 272.109 796.828 272.578L797.719 300.281L797.766 302.344L797.812 304.734C797.938 311.578 796.297 315 792.891 315C791.641 315 790.547 314.594 789.609 313.781C788.703 312.969 788.25 311.953 788.25 310.734C788.25 309.547 788.297 307.766 788.391 305.391C788.484 303.016 788.531 301.234 788.531 300.047L787.594 272.672C785.312 272.578 781.844 272.312 777.188 271.875C774.406 271.5 773.016 269.953 773.016 267.234C773.016 265.859 773.438 264.719 774.281 263.812C775.125 262.906 776.203 262.453 777.516 262.453L787.359 263.25C787.359 261.656 787.281 259.531 787.125 256.875C787 254.188 786.938 252.25 786.938 251.062C786.938 249.75 787.391 248.672 788.297 247.828C789.203 246.953 790.312 246.516 791.625 246.516C794.438 246.516 796.078 248.812 796.547 253.406C796.641 254.562 796.688 255.953 796.688 257.578L796.594 260.297L796.547 263.203C800.422 262.703 802.641 262.453 803.203 262.453C806.453 262.453 808.578 262.609 809.578 262.922C811.484 263.547 812.438 265.016 812.438 267.328C812.438 268.703 812 269.844 811.125 270.75C810.281 271.625 809.188 272.062 807.844 272.062ZM853.406 275.906C851.688 275.906 850.484 275.328 849.797 274.172C849.328 273.359 848.922 271.672 848.578 269.109C846.234 269.703 842.625 270.797 837.75 272.391C832.719 274.391 830.188 276.859 830.156 279.797C831.094 280.141 832.016 280.391 832.922 280.547C840.109 281.828 845.453 283.594 848.953 285.844C854.047 289.125 856.594 293.875 856.594 300.094C856.594 305.188 854.391 309.031 849.984 311.625C846.328 313.75 841.703 314.812 836.109 314.812C832.016 314.812 828.109 314.125 824.391 312.75C819.578 311 817.172 308.562 817.172 305.438C817.172 304.188 817.656 303.094 818.625 302.156C819.625 301.219 820.75 300.75 822 300.75C822.969 300.75 824.219 301.5 825.75 303C826.5 303.719 828.188 304.312 830.812 304.781C832.906 305.156 834.672 305.344 836.109 305.344C838.734 305.344 841.047 305.031 843.047 304.406C845.953 303.5 847.406 302.062 847.406 300.094C847.406 295.844 844.438 292.969 838.5 291.469L833.625 290.391C829.469 289.484 826.516 288.422 824.766 287.203C822.234 285.453 820.969 282.812 820.969 279.281C820.969 272.75 824.047 268.094 830.203 265.312C832.078 264.469 835.078 263.469 839.203 262.312C843.328 261.125 846.281 260.125 848.062 259.312C849.344 258.75 850.734 258.469 852.234 258.469C853.578 258.469 854.672 258.906 855.516 259.781C856.391 260.656 856.828 261.797 856.828 263.203C856.828 264.109 857.016 265.438 857.391 267.188C857.797 268.938 858 270.266 858 271.172C858 272.578 857.562 273.719 856.688 274.594C855.844 275.469 854.75 275.906 853.406 275.906ZM933.844 315.094C933.25 315.094 932.172 314.406 930.609 313.031C929.203 311.75 928.156 310.609 927.469 309.609C924.469 311.234 921.828 312.453 919.547 313.266C917.266 314.109 915.359 314.531 913.828 314.531C906.516 314.531 901.188 312.469 897.844 308.344C894.688 304.469 893.109 298.531 893.109 290.531C893.109 282.969 895.703 276.5 900.891 271.125C906.109 265.75 912.328 263.062 919.547 263.062C922.266 263.062 925.312 263.766 928.688 265.172C932.938 266.922 935.062 269.031 935.062 271.5C935.062 272.344 934.75 273.094 934.125 273.75C933.812 274.938 933.562 276.891 933.375 279.609C933.219 282.328 933.125 285.812 933.094 290.062C933.062 293.938 933.328 297 933.891 299.25C934.203 300.625 935.188 303.375 936.844 307.5C937.062 308.062 937.422 308.891 937.922 309.984L938.203 310.781C938.203 312.031 937.766 313.062 936.891 313.875C936.016 314.688 935 315.094 933.844 315.094ZM924.094 282.516C924.094 281.172 924.172 279.719 924.328 278.156C924.516 276.562 924.781 274.875 925.125 273.094C923.969 272.5 922.969 272.062 922.125 271.781C921.312 271.5 920.656 271.359 920.156 271.359C915.312 271.359 911.125 273.344 907.594 277.312C904.094 281.25 902.344 285.797 902.344 290.953C902.344 296.078 903.25 299.922 905.062 302.484C906.875 305.047 909.594 306.328 913.219 306.328C916.219 306.328 918.766 305.781 920.859 304.688C921.984 304.094 923.562 302.906 925.594 301.125C924.594 292.844 924.094 286.641 924.094 282.516ZM984.938 291.797L983.859 307.547C983.672 313.797 983.031 318.906 981.938 322.875C980.531 327.938 978.281 331.672 975.188 334.078C971.438 336.984 966.016 338.438 958.922 338.438C954.766 338.438 951.281 338.156 948.469 337.594C944.531 336.812 942.562 335.188 942.562 332.719C942.562 329.938 943.922 328.547 946.641 328.547C947.766 328.547 949.641 328.812 952.266 329.344C954.891 329.906 957.797 330.156 960.984 330.094C966.984 330 971.125 327.094 973.406 321.375C974.906 317.562 975.703 311.703 975.797 303.797C974.109 306.922 972.094 309.266 969.75 310.828C967.438 312.391 964.781 313.172 961.781 313.172C956.125 313.172 951.516 311.25 947.953 307.406C944.422 303.531 942.656 298.516 942.656 292.359C942.656 283.922 945.078 277.125 949.922 271.969C954.922 266.656 961.734 264 970.359 264C973.266 264 975.703 264.375 977.672 265.125C979.641 265.875 981.141 267 982.172 268.5C985.516 268.594 987.188 270.453 987.188 274.078C987.188 276.297 986.859 279.266 986.203 282.984C985.484 287.297 985.062 290.234 984.938 291.797ZM969.891 271.5C963.953 271.5 959.359 273.547 956.109 277.641C953.203 281.328 951.75 286.016 951.75 291.703C951.75 296.234 952.609 299.641 954.328 301.922C956.047 304.203 958.625 305.344 962.062 305.344C965.219 305.344 968.281 303.562 971.25 300C973.938 296.719 975.469 293.469 975.844 290.25C976.5 286.875 977.203 281.578 977.953 274.359C976.703 273.391 975.406 272.672 974.062 272.203C972.719 271.734 971.328 271.5 969.891 271.5ZM1019.25 314.156C1012.19 314.156 1006.47 312.391 1002.09 308.859C997.312 304.953 994.922 299.484 994.922 292.453C994.922 284.328 996.891 277.516 1000.83 272.016C1005.11 266.016 1010.83 263.016 1017.98 263.016C1023.17 263.016 1027.41 263.891 1030.69 265.641C1034.72 267.797 1036.73 271.109 1036.73 275.578C1036.73 278.703 1034.97 281.547 1031.44 284.109C1029.88 285.234 1026.56 286.984 1021.5 289.359L1003.59 297.844C1005.34 300.438 1007.52 302.391 1010.11 303.703C1012.73 305.016 1015.78 305.672 1019.25 305.672C1021.41 305.672 1023.94 305.266 1026.84 304.453C1030.53 303.422 1032.91 302.078 1033.97 300.422C1035.03 298.734 1036.17 297.891 1037.39 297.891C1038.48 297.891 1039.45 298.312 1040.3 299.156C1041.17 299.969 1041.61 300.922 1041.61 302.016C1041.61 305.484 1038.81 308.469 1033.22 310.969C1028.44 313.094 1023.78 314.156 1019.25 314.156ZM1017.98 271.453C1014.17 271.453 1011 272.938 1008.47 275.906C1005.94 278.844 1004.05 283.281 1002.8 289.219L1017.19 282.375C1022.84 279.625 1026.88 277.234 1029.28 275.203C1026.59 272.703 1022.83 271.453 1017.98 271.453ZM1093.12 270.609C1092.75 275.203 1092.56 279.797 1092.56 284.391C1092.56 294.797 1093.05 302.656 1094.02 307.969C1094.08 308.406 1094.11 308.766 1094.11 309.047C1094.11 310.297 1093.67 311.328 1092.8 312.141C1091.92 312.953 1090.91 313.359 1089.75 313.359C1087.81 313.359 1086.39 311.953 1085.48 309.141C1083.23 310.797 1080.89 312.047 1078.45 312.891C1076.05 313.734 1073.53 314.156 1070.91 314.156C1064.44 314.156 1059.08 312 1054.83 307.688C1050.45 303.281 1048.27 297.625 1048.27 290.719C1048.27 282.375 1050.47 275.688 1054.88 270.656C1059.31 265.625 1065.06 263.109 1072.12 263.109C1075.75 263.109 1078.55 263.672 1080.52 264.797L1084.92 268.031C1085.36 254.875 1085.88 246.016 1086.47 241.453C1086.88 238.672 1088.3 237.281 1090.73 237.281C1093.58 237.281 1095 238.797 1095 241.828C1095 246.172 1094.38 255.766 1093.12 270.609ZM1072.31 271.828C1067.06 271.828 1063.12 273.391 1060.5 276.516C1057.88 279.609 1056.56 284.281 1056.56 290.531C1056.56 294.562 1057.98 298.031 1060.83 300.938C1063.7 303.844 1067.06 305.297 1070.91 305.297C1073.53 305.297 1075.75 304.812 1077.56 303.844C1078.62 303.281 1080.36 301.984 1082.77 299.953C1083.23 299.547 1083.69 299.062 1084.12 298.5L1083.98 290.391L1084.03 284.953L1084.12 279.422C1082.94 276.891 1081.36 275 1079.39 273.75C1077.42 272.469 1075.06 271.828 1072.31 271.828ZM1152.66 314.766C1147.41 314.766 1142.89 312.828 1139.11 308.953C1134.89 304.641 1132.67 298.844 1132.45 291.562C1132.27 284.5 1134.05 278.281 1137.8 272.906C1142.17 266.562 1148.27 263.391 1156.08 263.391C1162.33 263.391 1167.06 266.25 1170.28 271.969C1172.84 276.594 1174.08 282.156 1173.98 288.656C1173.89 295.594 1172.08 301.516 1168.55 306.422C1164.55 311.984 1159.25 314.766 1152.66 314.766ZM1155.47 272.906C1150.88 272.875 1147.3 275.062 1144.73 279.469C1142.7 283 1141.69 287.031 1141.69 291.562C1141.69 296.094 1142.92 299.625 1145.39 302.156C1147.45 304.25 1149.88 305.297 1152.66 305.297C1155.91 305.297 1158.7 304.109 1161.05 301.734C1163.7 299.109 1165.11 295.562 1165.27 291.094C1165.7 279 1162.44 272.938 1155.47 272.906ZM1207.22 309.562C1207.12 312.438 1205.7 313.875 1202.95 313.875C1200.67 313.875 1199.02 312.531 1197.98 309.844L1190.81 290.812L1182.47 269.297C1182.16 268.484 1182 267.766 1182 267.141C1182 265.859 1182.48 264.766 1183.45 263.859C1184.42 262.953 1185.55 262.5 1186.83 262.5C1188.7 262.5 1190.05 263.453 1190.86 265.359L1202.77 298.125C1205.11 293.125 1208.06 285.875 1211.62 276.375C1212.47 273.875 1213.8 270.344 1215.61 265.781C1216.58 263.781 1217.95 262.781 1219.73 262.781C1221.02 262.781 1222.14 263.234 1223.11 264.141C1224.08 265.047 1224.56 266.125 1224.56 267.375C1224.56 268.562 1221.98 275.25 1216.83 287.438L1207.22 309.562ZM1254.19 314.156C1247.12 314.156 1241.41 312.391 1237.03 308.859C1232.25 304.953 1229.86 299.484 1229.86 292.453C1229.86 284.328 1231.83 277.516 1235.77 272.016C1240.05 266.016 1245.77 263.016 1252.92 263.016C1258.11 263.016 1262.34 263.891 1265.62 265.641C1269.66 267.797 1271.67 271.109 1271.67 275.578C1271.67 278.703 1269.91 281.547 1266.38 284.109C1264.81 285.234 1261.5 286.984 1256.44 289.359L1238.53 297.844C1240.28 300.438 1242.45 302.391 1245.05 303.703C1247.67 305.016 1250.72 305.672 1254.19 305.672C1256.34 305.672 1258.88 305.266 1261.78 304.453C1265.47 303.422 1267.84 302.078 1268.91 300.422C1269.97 298.734 1271.11 297.891 1272.33 297.891C1273.42 297.891 1274.39 298.312 1275.23 299.156C1276.11 299.969 1276.55 300.922 1276.55 302.016C1276.55 305.484 1273.75 308.469 1268.16 310.969C1263.38 313.094 1258.72 314.156 1254.19 314.156ZM1252.92 271.453C1249.11 271.453 1245.94 272.938 1243.41 275.906C1240.88 278.844 1238.98 283.281 1237.73 289.219L1252.12 282.375C1257.78 279.625 1261.81 277.234 1264.22 275.203C1261.53 272.703 1257.77 271.453 1252.92 271.453ZM1321.36 277.359C1321.14 281.266 1319.58 283.219 1316.67 283.219C1313.98 283.219 1312.64 281.672 1312.64 278.578C1312.64 277.984 1312.59 276.891 1312.5 275.297L1312.36 271.359C1307.42 271.953 1303.47 273.344 1300.5 275.531C1297.72 277.562 1295.41 280.625 1293.56 284.719L1293.66 310.406C1293.66 313.562 1292.11 315.141 1289.02 315.141C1286.27 315.141 1284.89 313.562 1284.89 310.406V277.5C1284.89 276.469 1284.92 274.922 1284.98 272.859C1285.08 270.797 1285.12 269.25 1285.12 268.219C1285.12 265.062 1286.5 263.484 1289.25 263.484C1292.31 263.484 1293.86 266.078 1293.89 271.266C1299.89 265.484 1306.55 262.594 1313.86 262.594C1316.39 262.594 1318.28 263.547 1319.53 265.453C1320.78 267.359 1321.41 270.234 1321.41 274.078C1321.41 275.703 1321.39 276.797 1321.36 277.359ZM1389.94 306.328C1387.66 308.016 1384 310.047 1378.97 312.422C1373.38 315.109 1369.48 316.453 1367.3 316.453C1366.02 316.453 1364.95 315.984 1364.11 315.047C1363.3 314.109 1362.89 313.016 1362.89 311.766C1362.89 309.922 1363.95 308.531 1366.08 307.594L1373.91 304.922C1378.75 302.953 1382.58 300.688 1385.39 298.125C1388.2 295.562 1390.77 291.922 1393.08 287.203L1395.09 283.172C1393.34 284.172 1391.09 285.094 1388.34 285.938C1385.59 286.781 1383.36 287.203 1381.64 287.203C1375.73 287.203 1370.62 285.562 1366.31 282.281C1361.06 278.281 1358.44 272.594 1358.44 265.219C1358.44 256.5 1361.12 249.953 1366.5 245.578C1371.09 241.859 1377.12 240 1384.59 240C1390.34 240 1395.5 242.344 1400.06 247.031C1404.88 252 1407.3 258 1407.33 265.031C1407.36 272.969 1405.89 280.672 1402.92 288.141C1399.73 296.203 1395.41 302.266 1389.94 306.328ZM1383.28 248.016C1378.03 248.016 1374.08 249.375 1371.42 252.094C1368.8 254.812 1367.47 258.906 1367.44 264.375C1367.44 268.969 1369.05 272.531 1372.27 275.062C1375.11 277.281 1378.69 278.391 1383 278.391C1385.5 278.391 1388.11 277.641 1390.83 276.141C1392.08 275.453 1394.33 273.906 1397.58 271.5C1397.98 268.781 1398.19 266.625 1398.19 265.031C1398.16 261.125 1396.5 257.312 1393.22 253.594C1389.97 249.875 1386.66 248.016 1383.28 248.016ZM1440.42 313.828C1430.92 313.828 1423.98 309.484 1419.61 300.797C1416.3 294.109 1414.64 285.406 1414.64 274.688C1414.64 265.625 1416.8 257.719 1421.11 250.969C1426.2 243.062 1433.12 239.109 1441.88 239.109C1450.09 239.109 1456.5 242.609 1461.09 249.609C1465.06 255.672 1467.05 263.062 1467.05 271.781C1467.05 285.781 1464.83 296.297 1460.39 303.328C1455.95 310.328 1449.3 313.828 1440.42 313.828ZM1441.83 248.156C1436.02 248.156 1431.41 251.109 1428 257.016C1425.16 261.953 1423.73 267.594 1423.73 273.938C1423.73 284.219 1425.12 291.938 1427.91 297.094C1430.69 302.25 1434.86 304.828 1440.42 304.828C1447.05 304.828 1451.8 301.047 1454.67 293.484C1456.67 288.234 1457.67 281.578 1457.67 273.516C1457.67 265.047 1456.34 258.703 1453.69 254.484C1451.06 250.266 1447.11 248.156 1441.83 248.156Z" fill="white"/>
<path d="M76.0273 14.7114C76.6665 24.6874 96.233 56 96.233 56C96.233 56 112 24.0306 112 14.7114C112 5.37442 106.957 -0.607646 96.233 0.0491367C85.5086 0.723671 75.4058 4.71764 76.0273 14.7114Z" fill="white"/>
<path d="M115.606 12.8689C108.44 19.5305 97 55 97 55C97 55 130.961 48.4446 138.001 42.722C145.042 36.9817 146.424 29.1154 139.241 20.629C132.057 12.1248 122.754 6.2073 115.606 12.8689Z" fill="white"/>
<path d="M137.887 44.2103C128.608 42.306 95 53.9592 95 53.9592C95 53.9592 120.091 77.9295 128.608 80.2881C137.107 82.6816 143.889 79.1351 146.049 68.1982C148.21 57.2613 147.165 46.1147 137.887 44.2103Z" fill="white"/>
<path d="M129.802 84.3097C125.513 75.186 95.9882 54 95.9882 54C95.9882 54 93.312 90.6945 96.7678 99.4735C100.206 108.253 107.065 111.753 116.67 106.602C126.275 101.451 134.073 93.4334 129.802 84.3097Z" fill="white"/>
<path d="M99.0073 100.459C102.308 91.0356 96.3197 54 96.3197 54C96.3197 54 69.2268 76.5449 65.6012 85.0793C61.9757 93.6137 64.3207 101.277 74.5481 105.242C84.7756 109.225 95.7064 109.882 99.0073 100.459Z" fill="white"/>
<path d="M64.6733 84.399C73.7852 81.2945 98 53.479 98 53.479C98 53.479 64.4402 45.1111 55.7767 47.3949C47.1311 49.6965 42.8263 56.3693 46.0908 67.2351C49.3553 78.1008 55.5614 87.5035 64.6733 84.399Z" fill="white"/>
<path d="M53.6879 45.6854C61.5725 51.2522 97 54 97 54C97 54 82.6514 21.344 75.6547 15.6708C68.6402 9.97998 61.0753 10.5473 55.0197 19.908C48.982 29.2687 45.8033 40.1364 53.6879 45.6854Z" fill="white"/>
<path d="M98.491 74C108.712 74 117 65.2638 117 54.4911C117 43.7362 108.712 35 98.491 35C88.2878 35 80 43.7362 80 54.4911C80 65.2638 88.2878 74 98.491 74Z" fill="#F2C94C"/>
</svg>
