<svg width="247" height="283" viewBox="0 0 247 283" fill="none" xmlns="http://www.w3.org/2000/svg">
<path d="M220.799 98.4423L246.163 54.1448C246.96 52.7527 246.96 51.0477 246.163 49.6556L219.518 3.11853C219.508 3.09836 219.488 3.07818 219.478 3.04792C219.407 2.92686 219.326 2.8058 219.235 2.68474C219.205 2.64439 219.175 2.60403 219.145 2.56368C219.034 2.43253 218.923 2.30139 218.812 2.18033C218.802 2.17024 218.802 2.17024 218.802 2.16015C218.681 2.03909 218.539 1.91803 218.408 1.81715C218.368 1.78689 218.327 1.75662 218.287 1.72636C218.176 1.64565 218.065 1.56495 217.944 1.49433C217.904 1.47415 217.873 1.45397 217.833 1.42371C217.52 1.25221 217.187 1.11097 216.834 1.01009C216.794 1 216.754 0.989917 216.703 0.979829C216.572 0.949564 216.431 0.9193 216.29 0.899123C216.239 0.889035 216.199 0.878946 216.148 0.878946C215.967 0.85877 215.785 0.838593 215.604 0.838593H65.2196C65.038 0.838593 64.8463 0.848682 64.6748 0.878946C64.6244 0.889035 64.584 0.889035 64.5336 0.899123C64.3923 0.9193 64.2511 0.949564 64.1199 0.979829C64.0796 0.989917 64.0291 1 63.9888 1.01009C63.6357 1.11097 63.3027 1.25221 62.99 1.42371C62.9496 1.44389 62.9194 1.46406 62.8891 1.48424C62.768 1.55486 62.657 1.63556 62.5461 1.71627C62.5057 1.74653 62.4654 1.7768 62.425 1.80706C62.2838 1.91803 62.1526 2.02901 62.0315 2.16015L62.0215 2.17024C61.9004 2.2913 61.7894 2.42245 61.6784 2.56368C61.6482 2.60403 61.6179 2.64439 61.5876 2.68474C61.4968 2.8058 61.4161 2.92686 61.3455 3.04792C61.3354 3.06809 61.3152 3.08827 61.3051 3.11853L34.6505 49.6556C33.8535 51.0477 33.8535 52.7527 34.6505 54.1448L60.6998 99.6428V248.878C60.6998 249.06 60.7099 249.251 60.7402 249.423C60.7503 249.473 60.7503 249.514 60.7604 249.564C60.7805 249.705 60.8108 249.847 60.8411 249.978C60.8512 250.018 60.8612 250.068 60.8713 250.109C60.9722 250.462 61.1135 250.795 61.285 251.108C61.3051 251.148 61.3253 251.178 61.3455 251.208C61.4161 251.329 61.4968 251.44 61.5775 251.551C61.6078 251.592 61.6381 251.632 61.6683 251.672C61.7793 251.814 61.8903 251.945 62.0215 252.066L62.0315 252.076C62.1526 252.197 62.2838 252.308 62.425 252.419C62.4654 252.449 62.5057 252.48 62.5461 252.51C62.6671 252.601 62.7882 252.681 62.9093 252.752C62.9294 252.762 62.9496 252.782 62.9799 252.792L109.53 279.435C110.226 279.829 111.003 280.03 111.779 280.03C112.556 280.03 113.333 279.829 114.029 279.435L160.579 252.792C160.599 252.782 160.619 252.762 160.65 252.752C160.771 252.681 160.892 252.601 161.013 252.51C161.053 252.48 161.094 252.449 161.134 252.419C161.265 252.308 161.396 252.197 161.517 252.086C161.527 252.076 161.527 252.076 161.538 252.076C161.659 251.955 161.78 251.814 161.881 251.683C161.911 251.642 161.941 251.602 161.971 251.561C162.052 251.451 162.133 251.34 162.203 251.218C162.224 251.178 162.244 251.148 162.264 251.108C162.446 250.795 162.577 250.462 162.678 250.109C162.688 250.068 162.698 250.028 162.708 249.978C162.738 249.847 162.768 249.705 162.789 249.564C162.799 249.514 162.809 249.473 162.809 249.423C162.829 249.241 162.849 249.06 162.849 248.878V196.046H215.614C215.795 196.046 215.987 196.036 216.158 196.006C216.209 195.995 216.249 195.995 216.3 195.985C216.441 195.965 216.582 195.935 216.713 195.905C216.754 195.895 216.804 195.885 216.844 195.874C217.198 195.774 217.53 195.632 217.843 195.461C217.884 195.441 217.914 195.42 217.954 195.39C218.075 195.32 218.186 195.239 218.297 195.158C218.338 195.128 218.378 195.098 218.418 195.067C218.56 194.956 218.691 194.845 218.812 194.724C218.822 194.714 218.822 194.714 218.822 194.704C218.943 194.583 219.054 194.452 219.155 194.321C219.185 194.28 219.215 194.24 219.246 194.2C219.336 194.079 219.417 193.958 219.488 193.837C219.498 193.816 219.518 193.796 219.528 193.766L246.173 147.219C246.97 145.827 246.97 144.122 246.173 142.73L220.799 98.4423ZM186.326 140.46H112.001C110.902 140.409 109.792 140.742 108.894 141.489C108.864 141.519 108.834 141.549 108.803 141.58C108.733 141.64 108.652 141.711 108.581 141.771C108.581 141.771 108.581 141.771 108.571 141.781C107.754 142.598 107.24 143.728 107.24 144.979V219.612L69.7293 241.08V102.962H207.785L186.326 140.46ZM153.789 241.09L116.279 219.622V155.875L153.789 193.393V241.09ZM186.326 47.3857H94.4873L73.0183 9.87765H207.805L186.326 47.3857ZM94.4873 56.4248H186.326L207.795 93.9328H73.0183L94.4873 56.4248ZM215.593 89.3528L194.155 51.9052L215.593 14.4577L237.032 51.9052L215.593 89.3528ZM65.2196 14.4577L86.6583 51.9052L65.2196 89.3528L43.7809 51.9052L65.2196 14.4577ZM111.769 270.316L74.3197 248.878L111.769 227.441L149.219 248.878L111.769 270.316ZM160.186 187.017L122.686 149.509H186.316L207.795 187.017H160.186ZM215.593 182.437L194.155 144.989L215.593 107.542L237.032 144.989L215.593 182.437Z" fill="#F04D21"/>
<path d="M33.4727 279.653C33.8787 279.653 34.0527 279.479 34.0527 279.073L34.0527 277.043C34.0527 276.637 33.8787 276.463 33.4727 276.463L25.1497 276.463L25.1497 268.401C25.1497 267.995 24.9757 267.821 24.5697 267.821L22.8877 267.821C22.4817 267.821 22.3077 267.995 22.3077 268.401L22.3077 276.463L16.5947 276.463L16.5947 266.313C16.5947 266.023 16.4787 265.907 16.1887 265.907L14.3327 265.907C13.9267 265.907 13.7527 266.081 13.7527 266.487L13.7527 279.073C13.7527 279.479 13.9267 279.653 14.3327 279.653L33.4727 279.653ZM34.3427 258.303C34.3427 254.446 31.9357 251.198 27.2377 251.198C22.8587 251.198 20.1327 254.185 20.1327 258.303C20.1327 262.421 22.8587 265.408 27.2377 265.408C31.9357 265.408 34.3427 262.16 34.3427 258.303ZM31.7907 258.303C31.7907 260.826 29.9347 262.334 27.2667 262.334C24.3377 262.334 22.6847 260.536 22.6847 258.303C22.6847 256.07 24.3377 254.272 27.2667 254.272C29.9347 254.272 31.7907 255.78 31.7907 258.303ZM33.4727 248.283C33.8787 248.283 34.0527 248.109 34.0527 247.703L34.0527 245.905C34.0527 245.499 33.8787 245.325 33.4727 245.325L28.1077 245.325C26.3677 245.325 25.2657 244.948 24.3667 244.31C23.4677 243.672 22.6847 242.686 22.6847 241.526C22.6847 240.279 23.2937 239.67 24.2797 239.554C24.6277 239.525 24.7437 239.409 24.7437 239.09L24.7437 237.263C24.7437 236.886 24.5697 236.683 24.1637 236.683C21.7277 236.683 20.1327 238.307 20.1327 240.917C20.1327 242.918 21.0027 244.368 22.2207 245.325L21.0027 245.325C20.5967 245.325 20.4227 245.499 20.4227 245.905L20.4227 247.703C20.4227 248.109 20.5967 248.283 21.0027 248.283L33.4727 248.283ZM33.4727 234.123C33.8787 234.123 34.0527 233.949 34.0527 233.543L34.0527 231.745C34.0527 231.339 33.8787 231.165 33.4727 231.165L26.8027 231.165C25.2947 231.165 24.7147 230.846 23.9317 230.237C23.1487 229.628 22.6847 228.787 22.6847 227.975C22.6847 226.786 23.3227 226.264 24.5407 226.264L33.4727 226.264C33.8787 226.264 34.0527 226.09 34.0527 225.684L34.0527 223.886C34.0527 223.48 33.8787 223.306 33.4727 223.306L27.0637 223.306C25.6137 223.306 24.8017 222.987 23.9317 222.262C23.0907 221.566 22.6847 220.754 22.6847 219.884C22.6847 218.695 23.3517 218.173 24.5697 218.173L33.4727 218.173C33.8787 218.173 34.0527 217.999 34.0527 217.593L34.0527 215.795C34.0527 215.389 33.8787 215.215 33.4727 215.215L24.1637 215.215C21.4377 215.215 20.1327 216.897 20.1327 219.304C20.1327 221.334 20.9447 222.755 22.0467 223.683C20.8287 224.205 20.1327 225.394 20.1327 227.134C20.1327 229.048 20.9447 230.237 22.2497 231.165L21.0027 231.165C20.5967 231.165 20.4227 231.339 20.4227 231.745L20.4227 233.543C20.4227 233.949 20.5967 234.123 21.0027 234.123L33.4727 234.123ZM33.4727 211.524C33.8787 211.524 34.0527 211.35 34.0527 210.944L34.0527 209.146C34.0527 208.74 33.8787 208.566 33.4727 208.566L21.0027 208.566C20.5967 208.566 20.4227 208.74 20.4227 209.146L20.4227 210.944C20.4227 211.35 20.5967 211.524 21.0027 211.524L33.4727 211.524ZM16.2467 212.017C17.3487 212.017 18.2187 211.147 18.2187 210.045C18.2187 208.943 17.3487 208.073 16.2467 208.073C15.1447 208.073 14.2747 208.943 14.2747 210.045C14.2747 211.147 15.1447 212.017 16.2467 212.017ZM33.4727 195.121C33.9077 194.976 34.0527 194.773 34.0527 194.367L34.0527 192.946C34.0527 192.569 33.8787 192.395 33.4727 192.395L13.7527 192.395C13.3467 192.395 13.1727 192.569 13.1727 192.975L13.1727 194.773C13.1727 195.179 13.3467 195.353 13.7527 195.353L21.5827 195.353C20.6837 196.194 20.1327 197.499 20.1327 199.21C20.1327 202.806 22.7717 205.851 27.2377 205.851C31.9647 205.851 34.3427 202.98 34.3427 199.558C34.3427 197.47 33.8207 196.484 32.8637 195.353L33.4727 195.121ZM28.2237 195.353C29.1807 195.353 29.7897 195.498 30.4857 196.049C31.2397 196.629 31.7907 197.644 31.7907 198.949C31.7907 201.298 29.8767 202.777 27.2667 202.777C24.4247 202.777 22.6847 201.124 22.6847 198.92C22.6847 197.731 23.2357 196.774 23.9607 196.136C24.6277 195.527 25.2077 195.353 26.1067 195.353L28.2237 195.353ZM33.4727 178.284C33.9077 178.168 34.0527 177.936 34.0527 177.559L34.0527 176.138C34.0527 175.732 33.8787 175.558 33.4727 175.558L21.0027 175.558C20.5967 175.558 20.4227 175.732 20.4227 176.138L20.4227 177.936C20.4227 178.342 20.5967 178.516 21.0027 178.516L21.7277 178.516C20.8577 179.241 20.1327 180.604 20.1327 182.663C20.1327 186.491 22.7717 189.623 27.2377 189.623C31.9647 189.623 34.3427 186.52 34.3427 182.837C34.3427 180.749 33.7917 179.647 32.7187 178.516L33.4727 178.284ZM28.1367 178.516C29.0647 178.516 29.6447 178.69 30.3117 179.183C31.0657 179.792 31.7907 180.865 31.7907 182.373C31.7907 184.809 30.0507 186.549 27.2667 186.549C24.3957 186.549 22.6847 184.722 22.6847 182.315C22.6847 180.952 23.2647 179.966 23.8737 179.357C24.5407 178.719 25.1207 178.516 25.9907 178.516L28.1367 178.516ZM33.4727 172.017C33.8787 172.017 34.0527 171.843 34.0527 171.437L34.0527 169.639C34.0527 169.233 33.8787 169.059 33.4727 169.059L28.7457 169.059L27.8757 168.218L33.6467 164.042C33.9077 163.868 34.0527 163.636 34.0527 163.346L34.0527 160.62C34.0527 160.388 33.9367 160.272 33.7627 160.272C33.6467 160.272 33.5887 160.301 33.5017 160.359L25.7297 166.101L21.0027 161.432C20.9157 161.345 20.7997 161.316 20.7127 161.316C20.5387 161.316 20.4227 161.432 20.4227 161.664L20.4227 164.535C20.4227 164.825 20.5677 165.086 20.8287 165.318L24.6857 169.059L13.7527 169.059C13.3467 169.059 13.1727 169.233 13.1727 169.639L13.1727 171.437C13.1727 171.843 13.3467 172.017 13.7527 172.017L33.4727 172.017ZM33.4727 158.14C33.8787 158.14 34.0527 157.966 34.0527 157.56L34.0527 155.762C34.0527 155.356 33.8787 155.182 33.4727 155.182L21.0027 155.182C20.5967 155.182 20.4227 155.356 20.4227 155.762L20.4227 157.56C20.4227 157.966 20.5967 158.14 21.0027 158.14L33.4727 158.14ZM16.2467 158.633C17.3487 158.633 18.2187 157.763 18.2187 156.661C18.2187 155.559 17.3487 154.689 16.2467 154.689C15.1447 154.689 14.2747 155.559 14.2747 156.661C14.2747 157.763 15.1447 158.633 16.2467 158.633ZM33.4727 141.737C33.9077 141.592 34.0527 141.389 34.0527 140.983L34.0527 139.562C34.0527 139.185 33.8787 139.011 33.4727 139.011L13.7527 139.011C13.3467 139.011 13.1727 139.185 13.1727 139.591L13.1727 141.389C13.1727 141.795 13.3467 141.969 13.7527 141.969L21.5827 141.969C20.6837 142.81 20.1327 144.115 20.1327 145.826C20.1327 149.422 22.7717 152.467 27.2377 152.467C31.9647 152.467 34.3427 149.596 34.3427 146.174C34.3427 144.086 33.8207 143.1 32.8637 141.969L33.4727 141.737ZM28.2237 141.969C29.1807 141.969 29.7897 142.114 30.4857 142.665C31.2397 143.245 31.7907 144.26 31.7907 145.565C31.7907 147.914 29.8767 149.393 27.2667 149.393C24.4247 149.393 22.6847 147.74 22.6847 145.536C22.6847 144.347 23.2357 143.39 23.9607 142.752C24.6277 142.143 25.2077 141.969 26.1067 141.969L28.2237 141.969ZM30.2537 135.61C30.3987 135.842 30.6307 135.987 30.8627 135.987C31.0367 135.987 31.1237 135.958 31.2687 135.871C33.3277 134.508 34.3427 132.391 34.3427 130.042C34.3427 126.707 32.3707 124.909 30.1667 124.909C27.7017 124.909 26.5417 126.33 25.7877 129.375C25.2367 131.579 24.7437 132.246 23.8737 132.246C23.2357 132.246 22.6847 131.637 22.6847 130.593C22.6847 129.52 23.0037 128.621 23.9317 127.461C24.0187 127.345 24.1057 127.2 24.1057 126.997C24.1057 126.794 24.0477 126.678 23.8447 126.504L22.7717 125.634C22.6557 125.547 22.5107 125.46 22.3657 125.46C22.1337 125.46 22.0177 125.547 21.8727 125.721C20.7417 126.968 20.1327 128.418 20.1327 130.535C20.1327 132.855 21.4377 135.204 23.9607 135.204C26.2517 135.204 27.4117 133.406 28.0207 131.173C28.6877 128.737 29.1517 127.983 30.2247 127.983C31.1817 127.983 31.7907 128.679 31.7907 129.897C31.7907 131.028 31.2107 132.304 29.7607 133.377C29.5287 133.551 29.4127 133.725 29.4127 133.928C29.4127 134.102 29.4417 134.189 29.5577 134.392L30.2537 135.61Z" fill="black"/>
</svg>
