<svg width="771" height="175" viewBox="0 0 771 175" fill="none" xmlns="http://www.w3.org/2000/svg">
<path fill-rule="evenodd" clip-rule="evenodd" d="M770.097 173.84H434.663C435.158 125.613 510.058 86.5968 602.38 86.5968C694.702 86.5968 769.602 125.613 770.097 173.84Z" fill="#8CAE90"/>
<path fill-rule="evenodd" clip-rule="evenodd" d="M344.807 173.84C344.807 119.207 267.767 74.9182 172.734 74.9182C77.7008 74.9182 0.661133 119.207 0.661133 173.84H344.807Z" fill="#B4C9B6"/>
<path d="M112.121 56.7054C112.305 59.453 117.983 68.0619 117.983 68.0619C117.983 68.0619 122.562 59.2698 122.562 56.7054C122.562 54.1411 121.097 52.4925 117.983 52.6757C114.869 52.8589 111.938 53.9579 112.121 56.7054Z" fill="white"/>
<path d="M123.397 56.1304C121.345 57.9668 118.06 67.7422 118.06 67.7422C118.06 67.7422 127.807 65.9355 129.827 64.3563C131.847 62.7771 132.244 60.6073 130.182 58.2668C128.12 55.9263 125.449 54.294 123.397 56.1304Z" fill="white"/>
<path d="M129.894 64.762C127.193 64.2278 117.407 67.4844 117.407 67.4844C117.407 67.4844 124.715 74.1832 127.192 74.8469C129.669 75.5106 131.64 74.5218 132.269 71.4666C132.898 68.4115 132.595 65.2962 129.894 64.762Z" fill="white"/>
<path d="M127.531 75.8016C126.288 73.3443 117.696 67.6403 117.696 67.6403C117.696 67.6403 116.919 77.5229 117.921 79.8832C118.924 82.2435 120.917 83.188 123.711 81.802C126.506 80.4161 128.774 78.2588 127.531 75.8016Z" fill="white"/>
<path d="M118.588 80.2972C119.531 77.7103 117.82 67.5404 117.82 67.5404C117.82 67.5404 110.076 73.7294 109.039 76.0747C108.002 78.42 108.675 80.5204 111.597 81.6122C114.519 82.704 117.644 82.8841 118.588 80.2972Z" fill="white"/>
<path d="M108.044 76.2632C110.663 75.4136 117.622 67.8021 117.622 67.8021C117.622 67.8021 107.977 65.5125 105.49 66.1397C103.004 66.7669 101.764 68.5909 102.703 71.5655C103.642 74.54 105.424 77.1128 108.044 76.2632Z" fill="white"/>
<path d="M105.872 65.6559C108.159 67.1883 118.444 67.9472 118.444 67.9472C118.444 67.9472 114.277 58.9526 112.246 57.387C110.215 55.8214 108.015 55.9754 106.259 58.5534C104.503 61.1314 103.584 64.1235 105.872 65.6559Z" fill="white"/>
<path d="M125.245 81.082C125.245 81.082 132.714 87.9631 133.013 100.742" stroke="#8CAE90"/>
<circle cx="118.462" cy="67.6106" r="5.32809" fill="#F2C94C"/>
<path d="M161.549 65.2976C161.437 66.9772 157.966 72.24 157.966 72.24C157.966 72.24 155.166 66.8652 155.166 65.2976C155.166 63.7299 156.062 62.7222 157.966 62.8342C159.869 62.9461 161.661 63.618 161.549 65.2976Z" fill="white"/>
<path d="M154.655 64.946C155.91 66.0686 157.918 72.0445 157.918 72.0445C157.918 72.0445 151.96 70.94 150.725 69.9746C149.49 69.0092 149.247 67.6828 150.508 66.252C151.768 64.8212 153.401 63.8234 154.655 64.946Z" fill="white"/>
<path d="M150.684 70.2226C152.335 69.896 158.317 71.8868 158.317 71.8868C158.317 71.8868 153.85 75.9819 152.336 76.3876C150.822 76.7934 149.616 76.1889 149.232 74.3212C148.847 72.4536 149.033 70.5491 150.684 70.2226Z" fill="white"/>
<path d="M152.128 76.9713C152.888 75.4691 158.14 71.9822 158.14 71.9822C158.14 71.9822 158.616 78.0236 158.003 79.4665C157.39 80.9093 156.171 81.4867 154.463 80.6395C152.755 79.7922 151.368 78.4734 152.128 76.9713Z" fill="white"/>
<path d="M157.596 79.7196C157.019 78.1382 158.065 71.9211 158.065 71.9211C158.065 71.9211 162.799 75.7046 163.433 77.1383C164.067 78.572 163.655 79.856 161.869 80.5234C160.083 81.1908 158.173 81.301 157.596 79.7196Z" fill="white"/>
<path d="M164.041 77.2535C162.44 76.7341 158.186 72.0811 158.186 72.0811C158.186 72.0811 164.082 70.6814 165.602 71.0648C167.122 71.4483 167.88 72.5633 167.306 74.3817C166.732 76.2 165.642 77.7729 164.041 77.2535Z" fill="white"/>
<path d="M165.369 70.7691C163.971 71.7059 157.683 72.1699 157.683 72.1699C157.683 72.1699 160.231 66.6714 161.473 65.7143C162.714 64.7572 164.059 64.8513 165.133 66.4273C166.206 68.0033 166.768 69.8324 165.369 70.7691Z" fill="white"/>
<path d="M153.526 80.1993C153.526 80.1993 148.961 84.4059 148.778 92.2179" stroke="#8CAE90"/>
<circle r="3.25714" transform="matrix(-1 0 0 1 157.673 71.964)" fill="#F2C94C"/>
<path d="M112.9 104.743C112.9 104.743 112.281 107.724 113.814 113.325" stroke="#8CAE90"/>
<path d="M113.228 94.4652C113.384 95.6054 111.784 99.6073 111.784 99.6073C111.784 99.6073 109.17 96.393 108.954 95.3432C108.738 94.2934 109.2 93.4952 110.49 93.3084C111.78 93.1215 113.072 93.3249 113.228 94.4652Z" fill="white"/>
<path d="M108.564 95.1781C109.558 95.7573 111.726 99.4829 111.726 99.4829C111.726 99.4829 107.583 99.563 106.623 99.0864C105.663 98.6098 105.319 97.7548 105.966 96.6232C106.613 95.4916 107.569 94.5988 108.564 95.1781Z" fill="white"/>
<path d="M106.63 99.258C107.691 98.8121 111.971 99.3224 111.971 99.3224C111.971 99.3224 109.542 102.679 108.584 103.159C107.626 103.639 106.736 103.4 106.221 102.203C105.707 101.005 105.569 99.7038 106.63 99.258Z" fill="white"/>
<path d="M108.525 103.579C108.827 102.468 111.865 99.4106 111.865 99.4106C111.865 99.4106 113.014 103.391 112.802 104.442C112.59 105.492 111.854 106.047 110.593 105.714C109.333 105.382 108.223 104.689 108.525 103.579Z" fill="white"/>
<path d="M112.565 104.667C111.961 103.688 111.807 99.3801 111.807 99.3801C111.807 99.3801 115.497 101.263 116.119 102.136C116.741 103.008 116.642 103.925 115.538 104.618C114.433 105.31 113.169 105.647 112.565 104.667Z" fill="white"/>
<path d="M116.542 102.129C115.399 102.002 111.91 99.4707 111.91 99.4707C111.91 99.4707 115.666 97.7222 116.736 97.7698C117.807 97.8175 118.468 98.46 118.334 99.7567C118.199 101.053 117.686 102.257 116.542 102.129Z" fill="white"/>
<path d="M116.539 97.6038C115.732 98.4236 111.585 99.5992 111.585 99.5992C111.585 99.5992 112.535 95.5664 113.234 94.7547C113.934 93.9429 114.848 93.821 115.784 94.7287C116.719 95.6364 117.347 96.7841 116.539 97.6038Z" fill="white"/>
<circle r="2.22681" transform="matrix(-0.979547 0.201216 0.201216 0.979547 111.55 99.463)" fill="#F2C94C"/>
<path fill-rule="evenodd" clip-rule="evenodd" d="M770.342 174.321H0.658203C73.0697 131.277 218.231 101.896 385.5 101.896C552.769 101.896 697.931 131.277 770.342 174.321Z" fill="#CFDED1"/>
<path d="M405.193 107.935C404.511 93.9923 407.156 85.8979 417.075 70.9833H432.435C440.831 73.1541 444.537 78.0659 449.824 91.705C437.926 104.851 428.811 109.212 405.193 107.935Z" fill="#DFF2E1"/>
<path fill-rule="evenodd" clip-rule="evenodd" d="M416.842 70.5486H432.491L432.544 70.5624C436.818 71.6675 439.928 73.4823 442.631 76.7673C445.316 80.0294 447.584 84.7244 450.23 91.5479L450.326 91.7979L450.147 91.9967C444.177 98.592 438.869 103.026 432.059 105.635C425.257 108.241 417.002 109.009 405.169 108.369L404.778 108.348L404.759 107.956C404.416 100.95 404.908 95.3853 406.745 89.6902C408.579 84.003 411.746 78.2116 416.713 70.7426L416.842 70.5486ZM417.308 71.418C412.431 78.769 409.354 84.4313 407.572 89.957C405.811 95.4181 405.307 100.771 405.609 107.521C417.183 108.121 425.188 107.336 431.748 104.823C438.307 102.31 443.468 98.0513 449.322 91.612C446.722 84.9343 444.517 80.4274 441.96 77.3198C439.401 74.2099 436.474 72.4849 432.38 71.418H417.308Z" fill="black"/>
<path d="M415.021 121.21H402.124C403.41 117.848 404.614 116.554 408.065 115.848C411.144 116.005 412.603 117.083 414.146 119.638C414.431 120.111 414.719 120.633 415.021 121.21Z" fill="#ACA6A6"/>
<path fill-rule="evenodd" clip-rule="evenodd" d="M412.042 116.561C410.775 113.921 410.02 111.521 409.805 108.196L410.673 108.14C410.959 112.572 412.229 115.269 414.522 119.421C414.812 119.901 415.103 120.43 415.406 121.008L415.739 121.645H401.492L401.718 121.054C402.367 119.357 403.018 118.116 403.986 117.215C404.961 116.307 406.213 115.783 407.978 115.422L408.032 115.411L408.087 115.414C409.674 115.495 410.891 115.816 411.917 116.479C411.959 116.506 412.001 116.533 412.042 116.561ZM413.769 119.856C413.015 118.607 412.307 117.765 411.446 117.209C410.598 116.662 409.561 116.366 408.098 116.285C406.443 116.629 405.381 117.104 404.579 117.851C403.862 118.519 403.317 119.437 402.764 120.775H414.28C414.105 120.461 413.935 120.155 413.769 119.856Z" fill="black"/>
<path d="M454.342 107.229L461.988 96.8432C458.518 95.8854 456.763 96.0881 454.148 98.4486C452.449 101.021 452.452 102.835 453.595 105.592C453.806 106.102 454.056 106.644 454.342 107.229Z" fill="#ACA6A6"/>
<path fill-rule="evenodd" clip-rule="evenodd" d="M452.364 102.074C450.989 99.4883 449.505 97.4571 446.954 95.3125L446.395 95.978C449.794 98.8359 451.213 101.458 453.196 105.767C453.411 106.285 453.664 106.833 453.951 107.419L454.266 108.064L462.713 96.5922L462.104 96.4241C460.352 95.9406 458.967 95.7293 457.667 95.9742C456.357 96.221 455.194 96.9188 453.857 98.1258L453.816 98.1628L453.785 98.2089C452.909 99.5347 452.446 100.704 452.371 101.924C452.368 101.974 452.366 102.024 452.364 102.074ZM453.993 105.418C453.435 104.07 453.176 103.001 453.239 101.978C453.301 100.971 453.678 99.96 454.48 98.7342C455.739 97.6052 456.75 97.0317 457.828 96.8287C458.791 96.6471 459.853 96.7525 461.258 97.1009L454.43 106.374C454.281 106.047 454.136 105.728 453.993 105.418Z" fill="black"/>
<path d="M402.15 55.1884L385.775 65.6217C388.655 66.9963 389.377 68.3101 390.123 70.9833C400.368 65.0776 406.069 61.3482 415.626 53.3046C415.936 61.4246 416.157 65.574 416.786 70.9833H432.725C434.365 65.3304 434.797 61.0068 434.899 51.7107C440.254 56.1488 444.897 61.9991 448.23 62.2889C451.563 62.5787 457.34 52.4925 463.446 44.7551L459.098 41.4223C454.685 46.4942 452.35 48.4713 448.23 51.7107C443.351 46.7321 439.556 44.0416 432.725 39.2487C426.364 47.1327 422.893 47.0177 416.786 42.8713L402.15 55.1884Z" fill="#E2C8E2"/>
<path fill-rule="evenodd" clip-rule="evenodd" d="M432.641 38.6593L432.974 38.8928C439.678 43.5962 443.486 46.2944 448.266 51.1284C452.182 48.0417 454.488 46.0567 458.77 41.1369L459.038 40.8287L464.059 44.6783L463.786 45.0244C462.267 46.95 460.766 49.0238 459.314 51.0527C459.096 51.3577 458.878 51.6617 458.662 51.964C457.443 53.6701 456.262 55.3234 455.144 56.7953C453.829 58.5253 452.585 60.0257 451.45 61.0783C450.883 61.6048 450.329 62.0317 449.796 62.3188C449.264 62.6051 448.723 62.7681 448.192 62.722C447.25 62.6401 446.262 62.1727 445.252 61.4996C444.237 60.8222 443.157 59.9071 442.029 58.8763C441.237 58.1525 440.423 57.3735 439.585 56.572C438.227 55.2725 436.807 53.914 435.321 52.637C435.2 61.3216 434.743 65.5876 433.142 71.1044L433.051 71.418H416.398L416.353 71.0334C415.746 65.8076 415.518 61.7532 415.225 54.2078C406.048 61.8809 400.356 65.5858 390.339 71.3599L389.854 71.6397L389.703 71.1001C389.333 69.7732 388.983 68.8438 388.402 68.0784C387.826 67.3191 386.992 66.6845 385.587 66.014L384.88 65.6763L401.891 54.8373L416.757 42.3268L417.029 42.5117C420.075 44.5797 422.34 45.5488 424.582 45.1436C426.84 44.7355 429.212 42.91 432.386 38.9757L432.641 38.6593ZM432.806 39.8371C429.739 43.5813 427.261 45.543 424.737 45.9992C422.204 46.4568 419.753 45.3774 416.814 43.415L402.407 55.5396L386.651 65.5789C387.748 66.1728 388.518 66.793 389.095 67.5526C389.687 68.3324 390.054 69.232 390.385 70.3294C400.313 64.5925 405.962 60.869 415.346 52.972L416.026 52.3994L416.06 53.288C416.362 61.2121 416.58 65.3416 417.172 70.5486H432.397C433.947 65.1027 434.364 60.8129 434.463 51.7059L434.473 50.7941L435.175 51.3759C436.938 52.8363 438.636 54.4607 440.222 55.9778C441.053 56.7725 441.853 57.5378 442.616 58.2345C443.735 59.2572 444.775 60.1364 445.735 60.7762C446.701 61.4202 447.542 61.7927 448.267 61.8558C448.57 61.8821 448.938 61.7932 449.384 61.5532C449.828 61.314 450.321 60.9401 450.859 60.4409C451.936 59.442 453.142 57.9916 454.451 56.2691C455.561 54.8085 456.734 53.1674 457.953 51.4608C458.17 51.1579 458.388 50.853 458.607 50.5467C459.973 48.6376 461.391 46.6761 462.831 44.8326L459.157 42.0155C454.893 46.887 452.549 48.867 448.498 52.0524L448.192 52.2933L447.919 52.0149C443.15 47.1485 439.429 44.4851 432.806 39.8371Z" fill="black"/>
<path fill-rule="evenodd" clip-rule="evenodd" d="M426.045 1.22071L426.678 0.625244L468.531 45.1536C468.552 45.1672 468.582 45.1865 468.621 45.2102C468.707 45.263 468.836 45.3378 469.003 45.4215C469.335 45.5894 469.811 45.7906 470.38 45.9244C471.512 46.1908 473.001 46.1898 474.5 45.1318C475.241 44.6086 475.576 44.0591 475.7 43.5494C475.826 43.0312 475.746 42.501 475.562 42.0036C475.378 41.506 475.099 41.065 474.86 40.7441C474.741 40.5849 474.634 40.4583 474.558 40.3725C474.521 40.3296 474.49 40.2971 474.471 40.2759C474.461 40.2653 474.453 40.2576 474.448 40.2529L474.444 40.248L474.443 40.2475C474.443 40.2476 474.443 40.2477 474.751 39.9403C475.058 39.6329 475.058 39.6331 475.059 39.6332L475.059 39.6336L475.06 39.6346L475.063 39.6374L475.072 39.6466C475.079 39.6543 475.09 39.6651 475.103 39.6789C475.129 39.7065 475.165 39.7461 475.21 39.7966C475.299 39.8975 475.421 40.0429 475.557 40.2244C475.825 40.5848 476.155 41.1001 476.378 41.7023C476.601 42.3047 476.724 43.0176 476.545 43.7546C476.364 44.5 475.886 45.2176 475.002 45.8421C473.249 47.0792 471.487 47.0782 470.181 46.7708C469.53 46.6177 468.989 46.3886 468.611 46.1978C468.421 46.1022 468.271 46.0156 468.167 45.9519C468.115 45.92 468.074 45.8938 468.046 45.8749C468.031 45.8655 468.02 45.8579 468.012 45.8523L468.002 45.8456L467.999 45.8434L467.998 45.8426L467.998 45.8423C467.997 45.8422 467.997 45.8421 468.248 45.4869L467.997 45.8421L467.961 45.8167L426.045 1.22071Z" fill="black"/>
<path d="M460.447 37.0122C461.993 36.0388 462.451 36.2679 464.741 37.9857C467.032 39.7035 466.688 43.4827 465.715 44.4561C464.741 45.4295 462.68 45.0287 462.68 45.0287L459.187 42.1084C459.187 42.1084 458.901 37.9857 460.447 37.0122Z" fill="#EAD8C8"/>
<path fill-rule="evenodd" clip-rule="evenodd" d="M463.555 36.6053C463.96 36.8633 464.431 37.2095 465.002 37.6379C466.283 38.5986 466.802 40.1143 466.886 41.4733C466.928 42.157 466.862 42.82 466.716 43.3843C466.574 43.9372 466.344 44.4416 466.022 44.7635C465.414 45.372 464.51 45.5195 463.847 45.5419C463.503 45.5535 463.194 45.5322 462.971 45.5083C462.859 45.4963 462.768 45.4835 462.704 45.4736C462.672 45.4686 462.646 45.4643 462.628 45.4611C462.619 45.4595 462.612 45.4582 462.607 45.4572L462.6 45.456L462.598 45.4557L462.597 45.4555C462.597 45.4554 462.597 45.4554 462.68 45.0287L462.597 45.4555L462.487 45.434L458.766 42.3232L458.753 42.1385L459.187 42.1084C458.753 42.1385 458.753 42.1386 458.753 42.1385L458.753 42.1371L458.753 42.1342L458.752 42.1239C458.752 42.1152 458.751 42.1026 458.75 42.0864C458.748 42.054 458.746 42.0071 458.743 41.9476C458.738 41.8285 458.733 41.6585 458.732 41.4519C458.729 41.0397 458.742 40.4768 458.805 39.8797C458.868 39.2856 458.982 38.6402 459.189 38.0704C459.394 37.5088 459.71 36.9625 460.215 36.6443C461.007 36.146 461.643 35.8714 462.422 36.0683C462.785 36.1602 463.151 36.3479 463.555 36.6053ZM459.612 41.8966L462.868 44.6191C462.918 44.6265 462.984 44.6353 463.064 44.6439C463.258 44.6647 463.525 44.6828 463.818 44.6729C464.428 44.6523 465.043 44.5135 465.407 44.1487C465.572 43.9838 465.75 43.6508 465.874 43.1676C465.996 42.6958 466.055 42.1242 466.018 41.5267C465.944 40.3233 465.49 39.0905 464.481 38.3334C463.906 37.9029 463.461 37.5762 463.088 37.3386C462.714 37.1004 462.439 36.9696 462.208 36.9112C461.798 36.8074 461.433 36.905 460.678 37.3801C460.411 37.5487 460.183 37.8827 460.006 38.3679C459.833 38.8449 459.728 39.4127 459.67 39.971C459.611 40.5262 459.599 41.0549 459.601 41.4461C459.602 41.6328 459.607 41.7871 459.612 41.8966Z" fill="black"/>
<path d="M390.267 69.9689C390.267 72.4499 388.126 74.461 385.485 74.461C382.844 74.461 380.703 72.4499 380.703 69.9689C380.703 67.488 382.844 65.4768 385.485 65.4768C388.126 65.4768 390.267 67.488 390.267 69.9689Z" fill="#EAD8C8"/>
<path fill-rule="evenodd" clip-rule="evenodd" d="M385.485 73.5916C387.698 73.5916 389.398 71.9193 389.398 69.9689C389.398 68.0186 387.698 66.3462 385.485 66.3462C383.272 66.3462 381.573 68.0186 381.573 69.9689C381.573 71.9193 383.272 73.5916 385.485 73.5916ZM385.485 74.461C388.126 74.461 390.267 72.4499 390.267 69.9689C390.267 67.488 388.126 65.4768 385.485 65.4768C382.844 65.4768 380.703 67.488 380.703 69.9689C380.703 72.4499 382.844 74.461 385.485 74.461Z" fill="black"/>
<path fill-rule="evenodd" clip-rule="evenodd" d="M306.355 12.9227C309.913 28.3638 312.239 37.0446 317.07 52.5959L316.239 52.8538C311.402 37.2814 309.07 28.5797 305.508 13.1179L306.355 12.9227ZM320.038 69.1849C320.894 67.578 320.922 66.0522 319.996 61.5061L320.848 61.3326C321.771 65.8663 321.823 67.6827 320.806 69.5935C320.482 70.2016 319.802 70.536 319.061 70.6893C318.304 70.8459 317.389 70.8357 316.449 70.6732C314.578 70.3498 312.488 69.4006 311.238 67.7698L311.928 67.241C313.004 68.6448 314.865 69.517 316.597 69.8165C317.46 69.9655 318.26 69.9671 318.885 69.8379C319.525 69.7054 319.894 69.4562 320.038 69.1849Z" fill="black"/>
<path d="M351.868 37.2198C339.416 42.6704 332.627 45.9276 321.872 53.1596L323.756 59.5355C333.207 54.4158 338.556 51.8383 348.39 48.9573V72.5771C348.39 72.5771 348.834 72.2163 355.161 71.7077C361.488 71.1991 362.011 71.7077 362.011 71.7077L362.736 47.0735C372.582 55.8742 377.513 60.929 385.486 70.1137L389.254 65.7665C380.344 53.6519 374.521 47.1212 362.736 35.9156C358.497 40.0523 356.117 40.4107 351.868 37.2198Z" fill="#EEEFCF"/>
<path fill-rule="evenodd" clip-rule="evenodd" d="M362.731 35.3121L363.035 35.6007C374.837 46.8221 380.677 53.3718 389.604 65.509L389.809 65.7888L385.486 70.7773L385.157 70.3988C377.386 61.447 372.515 56.4294 363.142 48.0216L362.416 72.7081L361.758 72.0678C361.747 72.0645 361.734 72.0606 361.717 72.0561C361.607 72.0263 361.374 71.9815 360.928 71.9508C360.038 71.8894 358.35 71.8875 355.195 72.1411C352.036 72.395 350.358 72.6111 349.475 72.7617C349.033 72.8371 348.799 72.8947 348.682 72.9296C348.655 72.9376 348.635 72.9441 348.622 72.9488L347.955 73.4915V49.5388C338.514 52.3426 333.219 54.9035 323.962 59.9178L323.491 60.1735L321.364 52.9769L321.629 52.7989C332.415 45.5464 339.23 42.2771 351.693 36.8217L351.925 36.7199L352.128 36.8723C354.229 38.45 355.769 39.0703 357.251 38.8843C358.754 38.6957 360.319 37.6665 362.432 35.6046L362.731 35.3121ZM362.737 36.5178C360.747 38.4155 359.082 39.5307 357.359 39.747C355.588 39.9693 353.868 39.2304 351.811 37.7193C339.619 43.0595 332.884 46.2997 322.379 53.3426L324.02 58.898C333.195 53.9391 338.558 51.3848 348.267 48.5402L348.824 48.377V72C348.961 71.971 349.127 71.9392 349.329 71.9047C350.249 71.7477 351.957 71.5291 355.125 71.2745C358.298 71.0195 360.035 71.0176 360.988 71.0834C361.235 71.1004 361.433 71.1222 361.592 71.1462L362.328 46.1267L363.025 46.7495C372.749 55.4409 377.691 60.4898 385.485 69.4505L388.697 65.7445C379.995 53.9341 374.214 47.4467 362.737 36.5178Z" fill="black"/>
<path d="M324.335 56.7823C324.335 59.5033 322.064 61.7092 319.263 61.7092C316.462 61.7092 314.191 59.5033 314.191 56.7823C314.191 54.0613 316.462 51.8555 319.263 51.8555C322.064 51.8555 324.335 54.0613 324.335 56.7823Z" fill="#C0B4A9"/>
<path fill-rule="evenodd" clip-rule="evenodd" d="M319.263 60.8397C321.608 60.8397 323.465 58.9996 323.465 56.7823C323.465 54.5651 321.608 52.7249 319.263 52.7249C316.918 52.7249 315.061 54.5651 315.061 56.7823C315.061 58.9996 316.918 60.8397 319.263 60.8397ZM319.263 61.7092C322.064 61.7092 324.335 59.5033 324.335 56.7823C324.335 54.0613 322.064 51.8555 319.263 51.8555C316.462 51.8555 314.191 54.0613 314.191 56.7823C314.191 59.5033 316.462 61.7092 319.263 61.7092Z" fill="black"/>
<path d="M393.601 69.9688C393.601 72.4497 391.654 74.4609 389.253 74.4609C386.853 74.4609 384.906 72.4497 384.906 69.9688C384.906 67.4879 386.853 65.4767 389.253 65.4767C391.654 65.4767 393.601 67.4879 393.601 69.9688Z" fill="#C0B4A9"/>
<path fill-rule="evenodd" clip-rule="evenodd" d="M389.253 73.5915C391.148 73.5915 392.731 71.9966 392.731 69.9688C392.731 67.941 391.148 66.3461 389.253 66.3461C387.359 66.3461 385.776 67.941 385.776 69.9688C385.776 71.9966 387.359 73.5915 389.253 73.5915ZM389.253 74.4609C391.654 74.4609 393.601 72.4497 393.601 69.9688C393.601 67.4879 391.654 65.4767 389.253 65.4767C386.853 65.4767 384.906 67.4879 384.906 69.9688C384.906 72.4497 386.853 74.4609 389.253 74.4609Z" fill="black"/>
<path d="M368.097 21.9842C368.966 29.6643 362.425 38.8317 357.084 39.518C355.343 39.7417 353.347 39.0575 351.403 37.6748C347.384 34.8154 343.589 28.9686 342.738 21.9842C342.568 20.5888 342.587 19.2265 342.784 17.9268C343.056 16.1375 343.667 14.467 344.593 12.9925C345.619 11.3578 347.031 9.96401 348.795 8.91632C350.296 8.02509 352.052 7.38432 354.041 7.05878C357.287 6.52766 360.076 7.63081 362.301 9.64394C363.688 10.8993 364.856 12.5086 365.778 14.2961C366.553 15.7977 367.155 17.425 367.568 19.0739C367.81 20.0436 367.988 21.0207 368.097 21.9842Z" fill="#C0B4A9"/>
<path fill-rule="evenodd" clip-rule="evenodd" d="M349.019 8.28814L348.041 5.74316L347.23 6.05503L348.259 8.7341C346.69 9.72445 345.403 10.9892 344.423 12.4539L341.568 11.2927L341.241 12.0981L343.959 13.2036C343.217 14.4999 342.701 15.9282 342.424 17.4418L339.461 17.0605L339.35 17.9228L342.294 18.3017C342.149 19.5075 342.151 20.7597 342.306 22.0364C343.171 29.1342 347.026 35.0939 351.151 38.0286C353.144 39.4461 355.249 40.1916 357.139 39.9487C358.58 39.7636 360.063 39.0141 361.451 37.9084C362.843 36.7996 364.164 35.3133 365.282 33.6122C367.514 30.2183 368.978 25.9055 368.529 21.9349C368.438 21.1308 368.3 20.3181 368.118 19.5082H370.386V18.6388H367.904C367.519 17.191 366.992 15.7636 366.33 14.4245L368.358 12.9002L367.835 12.2052L365.923 13.6428C365.108 12.1571 364.119 10.7988 362.967 9.67384L365.148 7.96823L364.612 7.28343L362.317 9.07886C360.056 7.14624 357.235 6.0952 353.971 6.62933C352.124 6.9315 350.467 7.49977 349.019 8.28814ZM362.009 9.96585C359.864 8.02559 357.204 6.98116 354.111 7.48736C352.171 7.80474 350.468 8.42803 349.017 9.28966C347.312 10.3023 345.95 11.6473 344.961 13.2231C344.068 14.645 343.477 16.2587 343.214 17.9917C343.039 19.1444 343.008 20.3504 343.132 21.5879C344.873 21.7694 346.478 21.9223 347.99 22.0451C351.325 22.3161 354.203 22.4406 357.078 22.4024C359.828 22.3658 362.58 22.1803 365.73 21.8298C366.341 21.7617 366.968 21.6875 367.612 21.6069C367.504 20.8014 367.348 19.9878 367.146 19.1791C366.741 17.5606 366.15 15.9649 365.392 14.495C364.488 12.7443 363.35 11.1797 362.009 9.96585ZM367.706 22.4714C367.187 22.5362 366.68 22.597 366.182 22.6538C366.17 22.7583 366.155 22.8815 366.133 23.0195C366.064 23.4579 365.935 24.0531 365.694 24.6716C365.215 25.9025 364.255 27.3018 362.375 27.6287C360.456 27.9625 359.008 26.6942 358.097 25.4998C357.647 24.9098 357.301 24.3056 357.065 23.8413C356.568 24.7845 356.032 25.6286 355.371 26.2778C354.505 27.1275 353.437 27.6352 352.012 27.6352C350.626 27.6352 349.56 27.2598 348.809 26.3659C348.133 25.5614 347.763 24.3935 347.565 22.8825C346.208 22.7692 344.777 22.6325 343.242 22.4735C344.204 29.1031 347.845 34.6096 351.655 37.3201C353.55 38.6681 355.437 39.2909 357.028 39.0864C358.258 38.9283 359.596 38.2745 360.909 37.2284C362.219 36.1853 363.48 34.771 364.556 33.1345C366.628 29.9819 367.976 26.0637 367.706 22.4714ZM348.453 22.9541C348.646 24.3028 348.979 25.2166 349.475 25.8065C350.009 26.4424 350.79 26.7657 352.012 26.7657C353.196 26.7657 354.049 26.3568 354.761 25.6575C355.366 25.0632 355.874 24.2544 356.378 23.2779C353.859 23.2882 351.314 23.1763 348.453 22.9541ZM357.747 23.2602C360.156 23.2076 362.587 23.0413 365.294 22.752C365.288 22.7941 365.281 22.8383 365.274 22.8845C365.212 23.2814 365.096 23.8122 364.884 24.3559C364.458 25.4494 363.679 26.5195 362.226 26.7721C360.812 27.018 359.652 26.1047 358.788 24.9724C358.365 24.4186 358.039 23.8438 357.818 23.4049C357.793 23.3547 357.769 23.3064 357.747 23.2602Z" fill="black"/>
<path d="M353.867 20.6168C353.867 21.4368 353.218 22.1015 352.418 22.1015C351.618 22.1015 350.969 21.4368 350.969 20.6168C350.969 19.7968 351.618 19.1321 352.418 19.1321C353.218 19.1321 353.867 19.7968 353.867 20.6168Z" fill="black"/>
<path d="M362.851 20.6168C362.851 21.4368 362.202 22.1015 361.402 22.1015C360.602 22.1015 359.953 21.4368 359.953 20.6168C359.953 19.7968 360.602 19.1321 361.402 19.1321C362.202 19.1321 362.851 19.7968 362.851 20.6168Z" fill="black"/>
<path fill-rule="evenodd" clip-rule="evenodd" d="M356.309 34.0998C354.835 34.0113 353.525 33.1601 352.411 31.9045L353.062 31.3276C354.092 32.4891 355.204 33.1624 356.361 33.2319C357.509 33.3009 358.814 32.7814 360.25 31.3121L360.872 31.9199C359.328 33.4998 357.792 34.1889 356.309 34.0998Z" fill="black"/>
<path d="M355.055 71.7077C334.054 74.0731 328.239 78.9246 318.031 101.486L323.175 104.633C333.085 89.0173 344.982 75.0406 359.982 78.9531C374.982 82.8655 365.569 101.712 355.055 120.541H365.923C384.132 86.7622 376.056 69.3423 355.055 71.7077Z" fill="#B3CAD7"/>
<path fill-rule="evenodd" clip-rule="evenodd" d="M367.969 73.9734C364.644 72.1987 360.297 71.5548 355.104 72.1397C344.62 73.3205 338.022 75.1146 332.769 79.3615C327.557 83.5748 323.614 90.244 318.586 101.316L323.038 104.039C327.938 96.3549 333.346 89.059 339.396 84.1328C345.551 79.1212 352.414 76.5299 360.092 78.5324C363.945 79.5375 366.297 81.5262 367.421 84.2901C368.534 87.0243 368.414 90.4413 367.509 94.2539C365.742 101.703 360.913 110.917 355.795 120.107H365.663C374.655 103.355 377.084 90.7643 374.775 82.6898C373.621 78.6541 371.284 75.7423 367.969 73.9734ZM366.649 120.107C375.489 103.507 377.997 90.7961 375.611 82.4508C374.397 78.2048 371.916 75.0939 368.379 73.2063C364.852 71.3245 360.314 70.6779 355.006 71.2757C344.489 72.4603 337.679 74.2747 332.222 78.6853C326.852 83.0267 322.847 89.8423 317.839 100.859L310.795 96.5507L310.342 97.2924L325.267 106.422L325.721 105.68L323.78 104.493C328.666 96.8323 334.01 89.6395 339.945 84.807C345.965 79.9046 352.55 77.4638 359.872 79.3737C363.519 80.3249 365.616 82.1592 366.616 84.6178C367.629 87.1062 367.551 90.3114 366.663 94.0531C364.887 101.538 359.939 110.903 354.676 120.329L354.314 120.976H371.575V120.107H366.649Z" fill="black"/>
<path d="M423.65 46.0516C413.391 46.9401 412.745 33.0466 412.745 31.5118C412.745 31.0938 412.859 29.8429 413.238 28.247C413.41 27.5243 413.637 26.7309 413.932 25.9121C415.376 21.9002 418.467 17.2783 424.862 17.3759C431.918 17.4836 434.521 22.1179 435.447 25.9121C435.652 26.7507 435.775 27.5484 435.846 28.247C435.936 29.1271 435.943 29.8501 435.928 30.3002C435.847 32.7235 433.909 45.1631 423.65 46.0516Z" fill="#EAD8C8"/>
<path fill-rule="evenodd" clip-rule="evenodd" d="M413.523 25.7648C414.991 21.6879 418.194 16.8394 424.868 16.9413C428.501 16.9967 431.026 18.222 432.761 19.954C434.485 21.6758 435.395 23.8659 435.87 25.809C436.08 26.67 436.206 27.4877 436.279 28.203C436.37 29.1037 436.378 29.8463 436.363 30.3147C436.321 31.5758 435.805 35.356 433.994 38.9472C432.178 42.5479 429.022 46.0227 423.688 46.4847C421.014 46.7162 418.939 45.9829 417.347 44.71C415.766 43.446 414.686 41.6716 413.948 39.8541C412.474 36.2253 412.311 32.3041 412.311 31.5118C412.311 31.0508 412.431 29.765 412.816 28.1465C412.991 27.4101 413.222 26.6009 413.523 25.7648ZM414.57 25.4534C414.611 25.4509 414.654 25.4483 414.698 25.4453C415.181 25.413 415.853 25.3484 416.61 25.2193C418.137 24.9589 419.947 24.4451 421.247 23.4527C422.536 22.4688 423.337 20.9533 423.816 19.6448C424.054 18.9958 424.209 18.41 424.303 17.9872C424.317 17.9256 424.33 17.8676 424.341 17.8134C418.875 17.9589 416.029 21.7897 414.57 25.4534ZM424.99 18.8244C424.898 19.1606 424.78 19.5406 424.633 19.944C424.129 21.3182 423.254 23.0139 421.775 24.1438C420.306 25.2653 418.327 25.8084 416.756 26.0764C415.964 26.2116 415.261 26.2791 414.756 26.3128C414.55 26.3266 414.376 26.3348 414.242 26.3397C414.046 26.909 413.884 27.4634 413.751 27.9864L417.079 29.3446C417.119 29.3077 417.164 29.2668 417.214 29.2226C417.428 29.0321 417.731 28.7789 418.087 28.5307C418.442 28.2835 418.858 28.0343 419.297 27.8585C419.733 27.6839 420.221 27.5704 420.705 27.629C421.594 27.7363 422.419 28.242 422.995 28.6817C423.288 28.9062 423.531 29.124 423.7 29.2859C423.752 29.3359 423.797 29.3808 423.835 29.4191H426.875C426.885 29.3988 426.895 29.3777 426.905 29.3559C427.008 29.1473 427.17 28.8689 427.41 28.5874C427.896 28.0178 428.7 27.4398 429.937 27.4064C431.189 27.3726 432.004 27.9593 432.492 28.548C432.699 28.7979 432.847 29.048 432.95 29.2516L435.381 27.9976C435.32 27.4833 435.23 26.9228 435.1 26.3378C434.979 26.3327 434.829 26.3249 434.655 26.3127C434.173 26.2789 433.506 26.2112 432.768 26.0754C431.314 25.8078 429.497 25.2608 428.315 24.1096C427.176 22.9995 426.21 21.3392 425.537 19.9882C425.327 19.5663 425.144 19.1702 424.99 18.8244ZM434.877 25.4559C434.395 23.7642 433.562 21.9831 432.146 20.5692C430.686 19.1105 428.577 18.0143 425.512 17.8346C425.522 17.8606 425.533 17.8872 425.545 17.9145C425.725 18.3448 425.987 18.9404 426.316 19.6006C426.979 20.9323 427.892 22.4832 428.922 23.4869C429.91 24.4495 431.508 24.9595 432.925 25.2203C433.624 25.3488 434.257 25.4132 434.716 25.4454C434.773 25.4494 434.826 25.4529 434.877 25.4559ZM435.467 28.9317L433.218 30.0915C433.248 30.2736 433.284 30.5201 433.308 30.8005C433.357 31.3793 433.364 32.1571 433.142 32.8114C432.71 34.0843 431.481 35.2219 429.94 35.1925C428.494 35.1648 427.09 34.4238 426.742 32.7608C426.584 32.005 426.585 31.2572 426.624 30.7056C426.634 30.5511 426.648 30.4108 426.662 30.2885H424.085V33.2574C424.085 33.5994 423.95 33.945 423.761 34.2501C423.569 34.5612 423.302 34.8631 422.989 35.1248C422.372 35.6418 421.517 36.0496 420.627 35.9969C419.829 35.9497 418.965 35.7343 418.249 35.3149C417.528 34.8933 416.93 34.2469 416.75 33.3424C416.59 32.5391 416.592 31.6458 416.63 30.9684C416.649 30.6294 416.678 30.3379 416.702 30.1297L413.55 28.8435C413.266 30.1733 413.18 31.1773 413.18 31.5118C413.18 32.2544 413.34 36.0473 414.753 39.5269C415.459 41.2635 416.465 42.8918 417.89 44.0309C419.304 45.1611 421.156 45.8313 423.613 45.6185C428.537 45.192 431.479 42.0028 433.218 38.5557C434.961 35.0992 435.455 31.4479 435.494 30.2857C435.504 29.967 435.503 29.5002 435.467 28.9317ZM417.586 30.0609C417.58 30.1059 417.574 30.1609 417.566 30.2246C417.544 30.4198 417.516 30.6959 417.498 31.0174C417.462 31.6667 417.464 32.4751 417.603 33.1723C417.722 33.7683 418.117 34.2306 418.688 34.5646C419.263 34.9008 419.987 35.088 420.679 35.129C421.279 35.1645 421.923 34.8839 422.431 34.4581C422.682 34.2485 422.884 34.0155 423.021 33.7934C423.162 33.5654 423.215 33.3796 423.215 33.2574V30.0287C423.183 29.9959 423.144 29.9572 423.098 29.9138C422.947 29.7686 422.729 29.5731 422.467 29.3726C421.93 28.9623 421.256 28.5713 420.601 28.4921C420.314 28.4574 419.98 28.5216 419.62 28.6657C419.263 28.8087 418.906 29.0194 418.584 29.2438C418.264 29.4672 417.988 29.6974 417.791 29.8722C417.707 29.9476 417.637 30.0122 417.586 30.0609ZM427.589 29.9654C427.587 29.9732 427.585 29.9829 427.583 29.9944C427.576 30.0317 427.567 30.088 427.556 30.1604C427.535 30.3055 427.508 30.5145 427.491 30.7658C427.456 31.2718 427.457 31.933 427.593 32.5828C427.833 33.731 428.781 34.3007 429.957 34.3232C431.039 34.3439 431.981 33.5278 432.318 32.5322C432.481 32.0522 432.488 31.4211 432.441 30.8745C432.418 30.6079 432.384 30.3744 432.356 30.208C432.342 30.1249 432.329 30.059 432.32 30.0146C432.315 29.9929 432.312 29.9763 432.31 29.9655C432.31 29.9654 432.31 29.9656 432.31 29.9655C432.306 29.955 432.3 29.9375 432.292 29.9145C432.275 29.8682 432.248 29.7993 432.208 29.7153C432.129 29.5463 432.004 29.3227 431.822 29.1026C431.464 28.6702 430.888 28.2505 429.961 28.2755C429.018 28.301 428.431 28.7295 428.071 29.1516C427.889 29.3659 427.764 29.5797 427.686 29.7393C427.647 29.8187 427.62 29.8835 427.603 29.9266C427.597 29.9428 427.592 29.9559 427.589 29.9654ZM432.313 29.9758L432.313 29.9763L432.313 29.9767C432.313 29.9766 432.313 29.9763 432.313 29.9758ZM420.252 38.641C420.252 38.6409 420.252 38.6407 420.653 38.4733C421.054 38.3058 421.054 38.3057 421.054 38.3056L421.055 38.3085C421.057 38.3118 421.059 38.3175 421.063 38.3254C421.07 38.3413 421.081 38.3659 421.097 38.3981C421.128 38.4625 421.176 38.5565 421.24 38.6697C421.37 38.8972 421.565 39.1961 421.824 39.4863C422.346 40.0706 423.082 40.5732 424.056 40.4826C425.096 40.3859 425.769 39.9068 426.188 39.4537C426.399 39.2252 426.545 39.0028 426.637 38.8392C426.684 38.7576 426.716 38.6915 426.736 38.6476C426.746 38.6257 426.753 38.6095 426.757 38.5998C426.759 38.5949 426.76 38.5917 426.761 38.5902L426.761 38.5907C426.761 38.5909 426.761 38.5911 427.167 38.7446C427.574 38.8981 427.574 38.8983 427.574 38.8985L427.573 38.9001L427.572 38.9028L427.569 38.9103C427.567 38.9162 427.564 38.924 427.56 38.9335C427.552 38.9525 427.541 38.9784 427.526 39.0104C427.497 39.0742 427.453 39.1624 427.394 39.2674C427.276 39.4769 427.092 39.7564 426.826 40.0435C426.293 40.6215 425.431 41.2279 424.137 41.3483C422.778 41.4747 421.792 40.7562 421.175 40.0652C420.865 39.7178 420.637 39.3654 420.486 39.101C420.41 38.9683 420.353 38.8563 420.314 38.7761C420.295 38.736 420.28 38.7037 420.269 38.6807C420.264 38.6692 420.26 38.66 420.257 38.6533L420.254 38.6451L420.253 38.6424L420.252 38.6414L420.252 38.641Z" fill="black"/>
<path d="M421.586 31.1466C421.586 31.7827 421.07 32.2985 420.434 32.2985C419.798 32.2985 419.282 31.7827 419.282 31.1466C419.282 30.5104 419.798 29.9946 420.434 29.9946C421.07 29.9946 421.586 30.5104 421.586 31.1466Z" fill="black"/>
<path d="M431.15 30.8568C431.15 31.4929 430.634 32.0087 429.998 32.0087C429.361 32.0087 428.846 31.4929 428.846 30.8568C428.846 30.2206 429.361 29.7048 429.998 29.7048C430.634 29.7048 431.15 30.2206 431.15 30.8568Z" fill="black"/>
<path d="M417.415 20.2594C420.343 17.9741 424.813 17.58 424.813 17.58C424.813 17.58 424.119 22.3084 421.422 24.1997C418.725 26.091 414.101 26.091 414.101 26.091C414.101 26.091 414.486 22.5448 417.415 20.2594Z" fill="#C4C4C4"/>
<path d="M432.23 20.3997C429.282 17.5315 424.813 17.58 424.813 17.58C424.813 17.58 426.715 21.9553 428.521 23.9485C430.328 25.9417 435.177 25.9417 435.177 25.9417C435.177 25.9417 435.177 23.2679 432.23 20.3997Z" fill="#C4C4C4"/>
<path fill-rule="evenodd" clip-rule="evenodd" d="M424.804 16.7106L424.813 17.5799L424.737 16.7139L424.77 16.7109L424.804 16.7106ZM435.178 25.9416C436.047 25.9416 436.047 25.9411 436.047 25.9406L436.047 25.9373L436.047 25.9321L436.047 25.9186C436.047 25.9084 436.046 25.8955 436.046 25.88C436.045 25.8492 436.043 25.8082 436.039 25.7577C436.032 25.6567 436.017 25.5175 435.991 25.3451C435.937 25.0004 435.832 24.5226 435.627 23.9526C435.217 22.8089 434.411 21.3085 432.836 19.7765C431.207 18.191 429.184 17.4336 427.614 17.0675C426.823 16.8831 426.13 16.794 425.633 16.751C425.384 16.7294 425.182 16.7192 425.04 16.7145C424.969 16.7121 424.913 16.7111 424.873 16.7107C424.853 16.7105 424.837 16.7104 424.826 16.7104L424.812 16.7105L424.807 16.7105L424.805 16.7105C424.804 16.7105 424.804 16.7106 424.813 17.5799C424.737 16.7139 424.737 16.7139 424.737 16.7139L424.735 16.7141L424.731 16.7144L424.718 16.7156C424.707 16.7166 424.692 16.7181 424.673 16.7201C424.636 16.724 424.582 16.7298 424.513 16.738C424.375 16.7544 424.179 16.7801 423.935 16.8182C423.448 16.8943 422.769 17.0203 421.994 17.221C420.461 17.618 418.48 18.3255 416.88 19.5739C415.257 20.8403 414.351 22.4461 413.851 23.7131C413.6 24.3489 413.448 24.9082 413.358 25.3124C413.313 25.5149 413.283 25.6795 413.265 25.7965C413.255 25.8551 413.249 25.9019 413.244 25.9357C413.242 25.9526 413.24 25.9663 413.239 25.9765L413.237 25.9894L413.237 25.9939L413.237 25.9956L413.237 25.9964C413.237 25.9967 413.237 25.9971 414.101 26.091L413.237 25.9971L413.132 26.9604H414.101V26.091C414.101 26.9604 414.101 26.9604 414.101 26.9604L414.103 26.9604L414.107 26.9604L414.12 26.9603C414.131 26.9603 414.146 26.9601 414.165 26.9599C414.204 26.9594 414.259 26.9584 414.329 26.9564C414.47 26.9524 414.671 26.9446 414.919 26.9292C415.416 26.8984 416.106 26.8368 416.886 26.7133C418.418 26.4707 420.408 25.9727 421.922 24.9115C423.496 23.8077 424.42 21.9408 424.947 20.475C424.99 20.3572 425.03 20.2409 425.068 20.1268C425.117 20.2227 425.168 20.3203 425.219 20.4192C425.923 21.7668 426.893 23.4464 427.877 24.5323C428.453 25.1669 429.229 25.6028 430.004 25.9092C430.786 26.2186 431.624 26.4184 432.379 26.5491C433.136 26.6804 433.831 26.7455 434.336 26.7781C434.589 26.7944 434.796 26.8026 434.941 26.8068C435.013 26.8089 435.071 26.8099 435.111 26.8105C435.131 26.8107 435.147 26.8109 435.158 26.811L435.171 26.811L435.175 26.811L435.177 26.811C435.177 26.811 435.178 26.811 435.178 25.9416ZM434.306 25.9047C434.838 25.9416 435.178 25.9416 435.178 25.9416H436.047V26.811H435.178V25.9416C435.178 25.9416 435.178 25.616 435.052 25.0702C434.819 24.0519 434.149 22.267 432.23 20.3996C430.137 18.3626 427.276 17.7968 425.794 17.6399C425.189 17.5759 424.813 17.5799 424.813 17.5799C424.813 17.5799 424.469 17.6103 423.91 17.7029C422.452 17.9442 419.531 18.608 417.415 20.2594C415.39 21.8391 414.581 24.0214 414.275 25.2183C414.138 25.7529 414.101 26.091 414.101 26.091C414.101 26.091 414.439 26.091 414.985 26.0537C416.459 25.9529 419.454 25.5799 421.422 24.1996C423.178 22.9685 424.085 20.5352 424.504 18.9865C424.554 18.8024 424.597 18.6307 424.634 18.4751C424.762 17.9289 424.813 17.5799 424.813 17.5799C424.813 17.5799 424.963 17.9243 425.218 18.4638C425.281 18.5969 425.351 18.7419 425.426 18.8966C426.132 20.3492 427.347 22.6524 428.522 23.9484C429.851 25.4145 432.825 25.8022 434.306 25.9047Z" fill="black"/>
<path d="M650.127 62.6732C649.972 65.0015 645.16 72.297 645.16 72.297C645.16 72.297 641.279 64.8463 641.279 62.6732C641.279 60.5001 642.521 59.1031 645.16 59.2583C647.799 59.4136 650.282 60.3449 650.127 62.6732Z" fill="white"/>
<path d="M640.572 62.1859C642.311 63.7421 645.096 72.026 645.096 72.026C645.096 72.026 636.836 70.495 635.124 69.1567C633.412 67.8184 633.076 65.9797 634.823 63.9963C636.57 62.0129 638.834 60.6297 640.572 62.1859Z" fill="white"/>
<path d="M635.067 69.5005C637.356 69.0479 645.648 71.8076 645.648 71.8076C645.648 71.8076 639.456 77.4843 637.356 78.0467C635.257 78.6091 633.587 77.7713 633.054 75.1822C632.521 72.5932 632.777 69.9532 635.067 69.5005Z" fill="white"/>
<path d="M637.069 78.8557C638.122 76.7734 645.403 71.9397 645.403 71.9397C645.403 71.9397 646.062 80.3145 645.212 82.3146C644.363 84.3148 642.673 85.1152 640.305 83.9407C637.937 82.7662 636.016 80.9381 637.069 78.8557Z" fill="white"/>
<path d="M644.647 82.6654C643.847 80.4733 645.298 71.855 645.298 71.855C645.298 71.855 651.86 77.0998 652.739 79.0872C653.618 81.0747 653.047 82.8545 650.571 83.7798C648.095 84.705 645.447 84.8576 644.647 82.6654Z" fill="white"/>
<path d="M653.582 79.247C651.363 78.527 645.466 72.0769 645.466 72.0769C645.466 72.0769 653.639 70.1366 655.747 70.6681C657.854 71.1996 658.904 72.7453 658.109 75.266C657.313 77.7867 655.802 79.967 653.582 79.247Z" fill="white"/>
<path d="M655.425 70.258C653.486 71.5566 644.77 72.1997 644.77 72.1997C644.77 72.1997 648.302 64.5775 650.023 63.2507C651.744 61.924 653.608 62.0545 655.096 64.2392C656.585 66.4238 657.363 68.9594 655.425 70.258Z" fill="white"/>
<path d="M639.007 83.3304C639.007 83.3304 632.678 89.1617 632.424 99.991" stroke="#B4C9B6"/>
<circle r="4.51515" transform="matrix(-1 0 0 1 644.754 71.9144)" fill="#F2C94C"/>
<path d="M596.465 77.1781C596.56 78.6015 599.502 83.0612 599.502 83.0612C599.502 83.0612 601.874 78.5066 601.874 77.1781C601.874 75.8497 601.115 74.9957 599.502 75.0906C597.888 75.1854 596.37 75.7548 596.465 77.1781Z" fill="white"/>
<path d="M602.306 76.8803C601.243 77.8316 599.541 82.8957 599.541 82.8957C599.541 82.8957 604.591 81.9597 605.637 81.1416C606.684 80.3235 606.889 79.1995 605.821 77.987C604.753 76.7745 603.369 75.929 602.306 76.8803Z" fill="white"/>
<path d="M605.672 81.3518C604.272 81.0751 599.203 82.7621 599.203 82.7621C599.203 82.7621 602.989 86.2324 604.272 86.5762C605.555 86.92 606.577 86.4078 606.902 84.8251C607.228 83.2424 607.071 81.6285 605.672 81.3518Z" fill="white"/>
<path d="M604.449 87.0707C603.805 85.7977 599.354 82.8428 599.354 82.8428C599.354 82.8428 598.951 87.9624 599.47 89.1852C599.99 90.4079 601.022 90.8972 602.47 90.1792C603.918 89.4612 605.092 88.3437 604.449 87.0707Z" fill="white"/>
<path d="M599.815 89.3996C600.304 88.0595 599.417 82.7911 599.417 82.7911C599.417 82.7911 595.406 85.9973 594.868 87.2122C594.331 88.4272 594.68 89.5152 596.194 90.0808C597.707 90.6464 599.326 90.7398 599.815 89.3996Z" fill="white"/>
<path d="M594.353 87.3098C595.71 86.8697 599.315 82.9267 599.315 82.9267C599.315 82.9267 594.319 81.7405 593.03 82.0654C591.742 82.3904 591.1 83.3353 591.586 84.8762C592.073 86.4171 592.996 87.75 594.353 87.3098Z" fill="white"/>
<path d="M593.227 81.8147C594.412 82.6086 599.74 83.0018 599.74 83.0018C599.74 83.0018 597.581 78.3422 596.529 77.5311C595.477 76.7201 594.337 76.7999 593.428 78.1354C592.518 79.4709 592.042 81.0209 593.227 81.8147Z" fill="white"/>
<path d="M603.264 89.8062C603.264 89.8062 607.133 93.3709 607.288 99.991" stroke="#B4C9B6"/>
<circle cx="599.749" cy="82.8274" r="2.76017" fill="#F2C94C"/>
<path d="M617.636 100.684C617.636 100.684 618.363 104.181 616.564 110.752" stroke="#B4C9B6"/>
<path d="M617.251 88.6274C617.068 89.965 618.946 94.6597 618.946 94.6597C618.946 94.6597 622.013 90.8889 622.266 89.6574C622.519 88.4258 621.978 87.4895 620.464 87.2703C618.95 87.0511 617.435 87.2897 617.251 88.6274Z" fill="white"/>
<path d="M622.723 89.4635C621.557 90.143 619.014 94.5136 619.014 94.5136C619.014 94.5136 623.873 94.6075 625 94.0484C626.126 93.4893 626.53 92.4863 625.771 91.1588C625.011 89.8313 623.89 88.784 622.723 89.4635Z" fill="white"/>
<path d="M624.991 94.2499C623.747 93.7269 618.726 94.3255 618.726 94.3255C618.726 94.3255 621.574 98.2636 622.699 98.8267C623.823 99.3898 624.867 99.1095 625.471 97.7042C626.074 96.299 626.236 94.773 624.991 94.2499Z" fill="white"/>
<path d="M622.768 99.3188C622.414 98.016 618.85 94.429 618.85 94.429C618.85 94.429 617.502 99.0985 617.75 100.331C617.999 101.563 618.863 102.214 620.342 101.824C621.821 101.434 623.123 100.621 622.768 99.3188Z" fill="white"/>
<path d="M618.029 100.596C618.737 99.4463 618.919 94.3932 618.919 94.3932C618.919 94.3932 614.589 96.6016 613.859 97.6257C613.13 98.6497 613.246 99.7248 614.542 100.537C615.837 101.35 617.32 101.745 618.029 100.596Z" fill="white"/>
<path d="M613.363 97.618C614.705 97.4684 618.798 94.4994 618.798 94.4994C618.798 94.4994 614.392 92.4482 613.135 92.5041C611.879 92.5601 611.104 93.3138 611.262 94.835C611.419 96.3562 612.021 97.7677 613.363 97.618Z" fill="white"/>
<path d="M613.366 92.3091C614.313 93.2708 619.178 94.65 619.178 94.65C619.178 94.65 618.064 89.9191 617.243 88.9668C616.422 88.0145 615.35 87.8714 614.252 88.9363C613.155 90.0012 612.418 91.3475 613.366 92.3091Z" fill="white"/>
<circle cx="619.22" cy="94.4903" r="2.61231" transform="rotate(11.6081 619.22 94.4903)" fill="#F2C94C"/>
</svg>
