<svg width="771" height="286" viewBox="0 0 771 286" fill="none" xmlns="http://www.w3.org/2000/svg">
<path d="M339.091 25.2972C338.37 28.4042 336.932 30.8877 334.775 32.7478C332.588 34.6182 330.028 35.5481 327.096 35.5375C324.32 35.5274 322.241 34.7895 320.858 33.3236C319.476 31.8473 318.79 29.6431 318.8 26.7109C318.81 24.0396 319.477 21.3029 320.802 18.5007C322.127 15.6985 323.826 13.4298 325.898 11.6947C327.353 10.479 328.91 9.87422 330.569 9.88021C331.581 9.88387 332.957 10.2541 334.697 10.9908C336.76 11.8643 337.79 12.7915 337.786 13.7724C337.784 14.3359 337.569 14.8412 337.139 15.2883C336.71 15.7251 336.182 15.9423 335.556 15.94C335.243 15.9389 334.55 15.6442 333.477 15.056C332.415 14.4574 331.441 14.1564 330.554 14.1532C329.615 14.1498 328.343 15.1574 326.739 17.176C324.402 20.1102 323.227 23.2938 323.214 26.7268C323.208 28.4694 323.459 29.6547 323.968 30.2826C324.509 30.942 325.556 31.2745 327.111 31.2801C328.707 31.2859 330.113 30.837 331.326 29.9336C332.613 28.9782 333.568 27.5834 334.19 25.7491C331.769 25.9282 329.659 26.4162 327.861 27.2132C327.537 27.3581 327.214 27.43 326.89 27.4288C326.243 27.4265 325.707 27.1845 325.28 26.703C324.896 26.2738 324.705 25.7879 324.707 25.2453C324.712 23.6487 326.605 22.539 330.385 21.9162C332.515 21.5691 334.999 21.4007 337.837 21.4109C338.463 21.4132 338.984 21.6185 339.4 22.027C339.826 22.4355 340.039 22.9371 340.036 23.5319C340.034 24.2937 339.718 24.8821 339.091 25.2972Z" fill="white" fill-opacity="0.9"/>
<path d="M354.704 23.2719C354.604 24.868 353.876 25.6637 352.519 25.6588C351.204 25.654 350.55 24.9734 350.554 23.6169L350.482 22.0357C348.133 22.4029 346.448 23.6021 345.429 25.6332L345.416 33.5062C345.414 34.101 345.209 34.5907 344.8 34.9753C344.392 35.3704 343.875 35.5668 343.249 35.5645C342.602 35.5622 342.102 35.3517 341.748 34.933C341.416 34.5561 341.25 34.0755 341.253 33.4912L341.29 23.2391C341.291 22.9156 341.303 22.4356 341.326 21.7992C341.349 21.1523 341.362 20.6671 341.363 20.3437C341.365 19.7593 341.539 19.2747 341.884 18.8899C342.241 18.4946 342.742 18.2982 343.389 18.3005C344.547 18.3047 345.234 18.902 345.449 20.0923C347.301 18.7216 349.354 18.0403 351.608 18.0485C353.695 18.056 354.733 19.4476 354.723 22.2232C354.721 22.7554 354.715 23.105 354.704 23.2719Z" fill="white" fill-opacity="0.9"/>
<path d="M363.393 35.5121C361.463 35.5051 359.806 34.8365 358.423 33.5063C356.905 32.0503 356.114 30.1118 356.049 27.6907C355.985 25.3843 356.623 23.331 357.966 21.5306C359.559 19.4076 361.77 18.3513 364.598 18.3615C366.685 18.369 368.341 19.2098 369.566 20.8838C370.667 22.3904 371.213 24.255 371.205 26.4776C371.196 28.8985 370.542 30.9622 369.242 32.6688C367.785 34.5731 365.835 35.5209 363.393 35.5121ZM364.379 22.4929C363.096 22.4778 362.082 23.0585 361.337 24.235C360.707 25.224 360.39 26.3811 360.385 27.7064C360.38 28.9585 360.732 29.9198 361.439 30.5902C362 31.1244 362.657 31.3929 363.408 31.3956C364.316 31.3988 365.105 31.0939 365.775 30.4806C366.539 29.7634 366.95 28.7892 367.006 27.5581C367.154 24.1986 366.279 22.5102 364.379 22.4929Z" fill="white" fill-opacity="0.9"/>
<path d="M393.828 22.8198C392.718 26.9062 391.603 30.617 390.485 33.9522C390.169 34.8902 389.654 35.8535 388.941 36.8423C388.438 37.5291 387.769 37.8659 386.934 37.8524C385.619 37.8268 384.591 36.5552 383.848 34.0378C383.57 33.0767 383.243 31.286 382.866 28.6655C382.645 29.1238 382.509 29.4311 382.456 29.5875C381.909 30.8794 381.108 32.8852 380.055 35.6049C379.897 36.0426 379.661 36.3913 379.347 36.6511C378.906 37.3486 378.252 37.7115 377.386 37.7397C376.896 37.7587 376.381 37.3186 375.841 36.4193C375.271 35.5094 374.811 34.339 374.461 32.9082C374.142 31.6131 373.652 28.7939 372.989 24.4506C372.846 23.5109 372.776 22.775 372.778 22.2429C372.78 21.669 372.996 21.1949 373.425 20.8208C373.864 20.4363 374.387 20.2452 374.992 20.2474C376.119 20.2514 376.811 20.8122 377.068 21.9297C377.201 22.5145 377.314 23.2349 377.404 24.0909C377.525 25.3227 377.601 26.0481 377.631 26.2674C377.764 27.0818 377.968 28.413 378.243 30.2609C379.023 28.1455 379.919 25.5139 380.932 22.3662C381.365 21.0113 382.171 20.3359 383.35 20.3402C384.508 20.3444 385.267 21.1036 385.627 22.618C385.884 23.6833 386.156 25.0669 386.442 26.7688C386.861 29.2434 387.116 30.7156 387.208 31.1855C387.303 30.8624 388.134 27.6932 389.7 21.6779C389.933 20.7813 390.587 20.335 391.661 20.3389C392.256 20.341 392.777 20.536 393.225 20.9237C393.682 21.3114 393.91 21.7922 393.908 22.3662C393.908 22.4705 393.881 22.6217 393.828 22.8198Z" fill="white" fill-opacity="0.9"/>
<path d="M415.559 36.5504C412.471 36.5393 409.844 35.6428 407.68 33.8611C405.371 31.9536 404.221 29.492 404.232 26.4764C404.245 22.9286 405.368 19.6978 407.601 16.7841C410.107 13.5062 413.254 11.874 417.041 11.8877C420.683 11.9009 423.409 12.7455 425.218 14.4216C427.028 16.0978 427.927 18.6106 427.915 21.9601C427.902 25.508 426.868 28.7182 424.812 31.5908C422.442 34.9109 419.358 36.5642 415.559 36.5504ZM417.026 16.1295C414.699 16.121 412.702 17.2408 411.035 19.4887C409.472 21.5909 408.687 23.9255 408.677 26.4924C408.671 28.2246 409.339 29.6357 410.681 30.7258C411.971 31.7739 413.602 32.3016 415.575 32.3087C417.87 32.317 419.789 31.197 421.331 28.9486C422.747 26.898 423.46 24.5632 423.47 21.9441C423.477 19.7528 422.993 18.2275 422.015 17.3684C421.079 16.5511 419.416 16.1381 417.026 16.1295Z" fill="white" fill-opacity="0.9"/>
<path d="M435.293 33.366C435.286 35.3486 434.562 36.3373 433.122 36.3321C432.496 36.3299 431.98 36.1297 431.575 35.7318C431.169 35.3338 430.967 34.8217 430.97 34.1956L431.048 12.5488C431.05 11.9436 431.271 11.4487 431.711 11.0642C432.129 10.7109 432.646 10.5354 433.262 10.5376C433.878 10.5398 434.383 10.7295 434.778 11.1066C435.174 11.4732 435.37 11.9592 435.368 12.5644L435.293 33.366Z" fill="white" fill-opacity="0.9"/>
<path d="M450.836 18.0816C450.984 14.5238 451.155 12.067 451.348 10.7112C451.53 9.48051 452.21 8.86731 453.389 8.87157C454.005 8.8738 454.5 9.07385 454.874 9.47173C455.248 9.8696 455.434 10.3555 455.432 10.9294C455.427 12.4424 455.299 14.6959 455.048 17.6898C454.807 20.6838 454.684 22.9372 454.679 24.4503C454.666 28.1442 454.777 30.6177 455.012 31.8707C455.043 32.0378 455.058 32.1891 455.057 32.3248C455.055 32.8987 454.845 33.3727 454.426 33.7469C454.008 34.1106 453.522 34.2914 452.969 34.2894C452.196 34.2866 451.624 33.9402 451.251 33.2502C450.54 33.6754 449.803 33.991 449.04 34.197C448.278 34.4133 447.489 34.5201 446.676 34.5171C444.338 34.5087 442.4 33.7556 440.861 32.2578C439.291 30.7287 438.51 28.785 438.519 26.4267C438.529 23.6198 439.33 21.3583 440.922 19.6423C442.515 17.9158 444.589 17.0572 447.146 17.0665C447.928 17.0693 448.627 17.1553 449.242 17.3245C449.857 17.4937 450.388 17.746 450.836 18.0816ZM450.505 23.0108C450.163 22.3522 449.716 21.8602 449.164 21.5347C448.612 21.2092 447.956 21.0451 447.194 21.0423C445.65 21.0368 444.49 21.4813 443.714 22.3759C442.939 23.26 442.548 24.5943 442.541 26.3786C442.537 27.5056 442.951 28.4723 443.783 29.2788C444.615 30.0853 445.584 30.4905 446.69 30.4945C447.494 30.4974 448.104 30.4057 448.522 30.2194C448.805 30.0952 449.286 29.763 449.966 29.2229C450.144 29.0774 450.317 28.9163 450.484 28.7395C450.465 28.2386 450.472 26.329 450.505 23.0108Z" fill="white" fill-opacity="0.9"/>
<path d="M261.767 74.305C260.947 74.2881 260.259 74.0074 259.704 73.4628C259.15 72.9042 258.874 72.2354 258.877 71.4563C258.882 70.065 258.952 67.9782 259.087 65.1961C259.236 62.414 259.314 60.3273 259.319 58.936C259.324 57.3917 259.298 55.075 259.239 51.9861C259.195 48.8972 259.175 46.5806 259.181 45.0363C259.184 44.271 259.555 43.5141 260.295 42.7655C261.035 42.0029 261.823 41.6232 262.658 41.6262C263.117 41.6278 264.27 42.0633 266.117 42.9326C268.27 43.9699 269.548 44.552 269.951 44.6786C274.023 46.0151 277.494 48.0729 280.364 50.852C283.788 54.1617 285.493 57.8132 285.479 61.8062C285.47 64.2131 284.871 66.4997 283.68 68.6658C282.49 70.8737 280.862 72.6418 278.798 73.97C276.483 75.4643 273.232 76.2038 269.044 76.1887C268.029 76.185 266.86 76.0347 265.54 75.7378C263.941 75.3703 262.684 74.8927 261.767 74.305ZM273.574 52.8935C272.227 52.04 269.338 50.6939 264.906 48.8552L264.832 69.516C265.373 69.8658 265.991 70.1324 266.686 70.3158C267.395 70.4853 268.181 70.5716 269.044 70.5747C272.049 70.5856 274.207 70.176 275.518 69.3459C276.759 68.5574 277.744 67.4826 278.472 66.1218C279.214 64.761 279.588 63.3432 279.593 61.8684C279.606 58.418 277.599 55.4264 273.574 52.8935Z" fill="white" fill-opacity="0.9"/>
<path d="M293.757 47.5484C292.866 47.5451 292.095 47.2432 291.443 46.6426C290.792 46.042 290.467 45.3104 290.47 44.4478C290.473 43.5852 290.803 42.8559 291.459 42.26C292.115 41.6641 292.888 41.3678 293.779 41.371C294.669 41.3742 295.433 41.6761 296.071 42.2767C296.723 42.8773 297.047 43.6089 297.044 44.4715C297.041 45.3341 296.712 46.0634 296.055 46.6593C295.413 47.2552 294.647 47.5516 293.757 47.5484ZM295.475 62.8521C295.472 63.6451 295.489 64.9183 295.524 66.6715C295.573 68.4247 295.597 69.6978 295.594 70.4909C295.591 71.2978 295.317 71.9647 294.773 72.4914C294.228 73.0042 293.538 73.2591 292.704 73.2561C291.869 73.2531 291.181 72.9932 290.64 72.4765C290.1 71.9458 289.831 71.277 289.834 70.4701C289.837 69.677 289.813 68.4039 289.764 66.6506C289.729 64.8975 289.712 63.6243 289.715 62.8313C289.72 61.593 289.795 60.042 289.941 58.1782C290.087 56.3143 290.162 54.7633 290.166 53.525C290.169 52.7181 290.443 52.0582 290.987 51.5454C291.532 51.0186 292.221 50.7568 293.056 50.7598C293.891 50.7628 294.579 51.0296 295.119 51.5603C295.66 52.077 295.929 52.7389 295.926 53.5458C295.922 54.7841 295.847 56.3351 295.701 58.199C295.555 60.0628 295.48 61.6138 295.475 62.8521Z" fill="white" fill-opacity="0.9"/>
<path d="M315.583 59.0141C314.206 59.0091 313.38 58.4287 313.106 57.2729C312.55 57.1735 311.98 57.1228 311.395 57.1206C308.042 57.1085 306.364 57.5616 306.361 58.4799C306.359 59.0225 307.365 59.7565 309.379 60.6821C312.129 61.9581 313.99 62.9527 314.961 63.6658C316.973 65.1339 317.976 66.7862 317.969 68.6228C317.961 71.0158 316.841 72.8274 314.611 74.0576C312.812 75.039 310.605 75.5249 307.99 75.5155C306.139 75.5088 304.45 75.2175 302.921 74.6415C300.837 73.8548 299.798 72.7032 299.803 71.1867C299.808 69.7954 300.639 69.1028 302.294 69.1088C302.934 69.1111 303.859 69.3161 305.068 69.724C306.277 70.1318 307.208 70.337 307.862 70.3393C310.687 70.3495 312.108 69.7842 312.126 68.6434C312.128 67.9338 311.15 67.1442 309.192 66.2745C306.33 64.9981 304.497 64.0801 303.692 63.5207C301.735 62.1362 300.76 60.4562 300.768 58.4805C300.778 55.684 302.266 53.8042 305.233 52.841C306.974 52.2768 309.619 52.0011 313.167 52.014C314.558 52.019 315.587 52.2036 316.253 52.5677C317.17 53.058 317.626 53.957 317.621 55.2649C317.612 57.7692 316.933 59.0189 315.583 59.0141Z" fill="white" fill-opacity="0.9"/>
<path d="M341.055 61.9444C340.458 65.2118 340.098 68.661 339.974 72.2919C339.818 76.7853 339.055 80.0451 337.684 82.0715C335.852 84.7779 332.619 86.1228 327.986 86.1061C322.574 86.0865 319.872 85.0054 319.88 82.8628C319.882 82.0976 320.128 81.4794 320.617 81.0081C321.105 80.5368 321.746 80.3026 322.539 80.3055C323.165 80.3077 324.062 80.4292 325.23 80.67C326.398 80.9107 327.434 81.0327 328.338 81.036C330.412 81.0435 331.944 80.416 332.937 79.1535C333.887 77.9186 334.451 75.9519 334.628 73.2534C333.915 73.9743 333.113 74.5141 332.222 74.8726C331.33 75.2311 330.355 75.4084 329.298 75.4046C326.529 75.3946 324.279 74.4891 322.546 72.688C320.827 70.8731 319.973 68.5604 319.983 65.75C319.997 61.9657 321.163 58.909 323.481 56.58C325.883 54.1677 329.122 52.969 333.198 52.9837C334.506 52.9884 335.632 53.1525 336.577 53.4759C337.522 53.7993 338.286 54.2891 338.868 54.9451C340.634 55.1602 341.514 56.2068 341.507 58.0851C341.503 59.0173 341.353 60.3037 341.055 61.9444ZM332.972 57.7412C330.621 57.7327 328.789 58.4983 327.475 60.0379C326.301 61.4389 325.711 63.2594 325.702 65.4994C325.696 67.155 326.005 68.4014 326.628 69.2384C327.251 70.0754 328.189 70.4962 329.441 70.5008C330.582 70.5049 331.732 69.8481 332.892 68.5306C333.981 67.2823 334.605 66.0463 334.762 64.8225C335.032 63.4878 335.345 61.4089 335.703 58.5859C335.231 58.3059 334.766 58.0955 334.307 57.9547C333.849 57.8139 333.404 57.7428 332.972 57.7412Z" fill="white" fill-opacity="0.9"/>
<path d="M361.82 62.2771C361.687 64.4053 360.716 65.4662 358.908 65.4596C357.155 65.4533 356.281 64.5458 356.288 62.7371L356.191 60.6289C353.059 61.1184 350.813 62.7173 349.454 65.4255L349.437 75.9229C349.434 76.7159 349.16 77.3689 348.616 77.8817C348.071 78.4084 347.382 78.6703 346.547 78.6673C345.684 78.6641 345.017 78.3835 344.546 77.8252C344.103 77.3228 343.883 76.682 343.885 75.9028L343.935 62.2333C343.936 61.802 343.953 61.1621 343.984 60.3135C344.014 59.451 344.031 58.8041 344.032 58.3728C344.035 57.5936 344.267 56.9475 344.728 56.4344C345.203 55.9074 345.872 55.6455 346.734 55.6486C348.279 55.6542 349.194 56.4505 349.481 58.0377C351.95 56.21 354.687 55.3017 357.692 55.3125C360.475 55.3226 361.859 57.178 361.846 60.8789C361.843 61.5884 361.835 62.0545 361.82 62.2771Z" fill="white" fill-opacity="0.9"/>
<path d="M382.849 77.8221C382.209 77.8198 381.196 77.1204 379.809 75.7241C378.527 76.3317 377.399 76.7867 376.424 77.0893C375.449 77.4058 374.62 77.5628 373.938 77.5603C370.585 77.5482 368.07 76.6417 366.393 74.8409C364.73 73.0401 363.905 70.3518 363.918 66.7762C363.93 63.4232 365.179 60.5616 367.664 58.1914C370.149 55.8073 373.117 54.6215 376.567 54.6339C377.889 54.6387 379.418 55.0199 381.155 55.7775C383.252 56.6894 384.299 57.7436 384.295 58.9402C384.293 59.441 384.131 59.8787 383.81 60.2532C383.669 60.8092 383.555 61.5114 383.468 62.3598C383.396 63.1943 383.357 64.1751 383.353 65.302C383.344 67.9594 383.525 69.8731 383.896 71.0432C383.937 71.1685 384.255 71.8932 384.848 73.2171C385.386 74.4156 385.655 75.0983 385.655 75.2652C385.652 76.0026 385.365 76.6138 384.792 77.0986C384.234 77.5836 383.586 77.8247 382.849 77.8221ZM377.725 63.4869C377.727 63.0417 377.756 62.534 377.814 61.9637C377.886 61.3796 377.985 60.733 378.113 60.0239C377.835 59.8838 377.585 59.7855 377.363 59.729C377.154 59.6587 376.974 59.6233 376.821 59.6227C374.929 59.6159 373.27 60.3543 371.846 61.8378C370.421 63.3075 369.705 65.0162 369.698 66.964C369.692 68.8284 370.021 70.2348 370.685 71.1833C371.349 72.1179 372.349 72.5876 373.685 72.5924C374.548 72.5955 375.362 72.4593 376.128 72.1838C376.909 71.8945 377.64 71.4728 378.324 70.9187C377.919 67.6059 377.719 65.1286 377.725 63.4869Z" fill="white" fill-opacity="0.9"/>
<path d="M398.25 75.9042C395.189 75.8931 392.625 75.0143 390.558 73.2677C388.381 71.4233 387.297 68.9984 387.308 65.9932C387.318 63.2246 388.309 60.369 390.282 57.4265C392.52 54.0676 395.114 52.3935 398.063 52.4041C399.51 52.4094 401.199 52.805 403.131 53.5912C405.478 54.5597 406.65 55.67 406.645 56.9221C406.643 57.6039 406.404 58.2082 405.929 58.7352C405.426 59.3038 404.778 59.5867 403.985 59.5839C403.387 59.5817 402.665 59.2591 401.818 58.616C400.986 57.9591 399.728 57.6276 398.045 57.6215C396.973 57.6176 395.808 58.6639 394.548 60.7602C393.344 62.7872 392.74 64.5381 392.734 66.0128C392.729 67.4737 393.253 68.6234 394.308 69.462C395.307 70.2587 396.627 70.66 398.269 70.6659C399.201 70.6693 400.343 70.3186 401.695 69.6139C403.047 68.9093 403.904 68.5576 404.266 68.5589C405.017 68.5616 405.656 68.8352 406.183 69.3797C406.724 69.9243 406.993 70.5444 406.99 71.24C406.986 72.3253 405.8 73.4062 403.431 74.4829C401.312 75.4352 399.585 75.909 398.25 75.9042Z" fill="white" fill-opacity="0.9"/>
<path d="M421.124 75.632C417.799 75.62 415.082 74.8171 412.973 73.2234C410.642 71.4619 409.482 68.9882 409.493 65.8021C409.506 62.2821 410.442 59.3081 412.301 56.88C414.37 54.1883 417.151 52.8488 420.643 52.8614C423.064 52.8701 425.073 53.2669 426.67 54.0519C428.767 55.089 429.812 56.6928 429.804 58.8632C429.798 60.3936 428.938 61.7471 427.222 62.9235C426.441 63.4633 424.873 64.2507 422.518 65.2856L415.474 68.3698C416.139 69.0957 416.944 69.6412 417.889 70.0064C418.833 70.3715 419.918 70.5563 421.142 70.5607C423.007 70.5675 424.587 70.1906 425.884 69.43C427.041 68.7525 427.968 68.4149 428.663 68.4174C430.11 68.4227 430.831 69.1279 430.826 70.5331C430.82 72.1192 429.654 73.4089 427.327 74.4022C425.376 75.23 423.308 75.6399 421.124 75.632ZM420.625 57.9118C419.331 57.9071 418.223 58.3344 417.302 59.1937C416.38 60.053 415.638 61.3442 415.076 63.0674C416.65 62.3914 418.218 61.7223 419.778 61.0601C421.66 60.2182 423.158 59.4375 424.274 58.718C423.344 58.186 422.127 57.9172 420.625 57.9118Z" fill="white" fill-opacity="0.9"/>
<path d="M444.424 56.1893C446.289 56.0291 447.625 55.9505 448.432 55.9534C451.033 55.9628 452.331 56.8579 452.324 58.6388C452.318 60.4753 450.93 61.3468 448.162 61.2533C447.286 61.2223 445.957 61.2801 444.175 61.4268C444.114 62.9013 444.094 64.7795 444.113 67.0614C444.157 70.345 444.178 72.2164 444.176 72.6756C444.167 75.2216 444 77.2384 443.674 78.726C443.349 80.2135 442.428 80.9545 440.912 80.9491C440.132 80.9463 439.452 80.6933 438.869 80.1904C438.301 79.6874 438.018 79.0534 438.02 78.2882C438.021 78.1073 438.036 77.9334 438.064 77.7666C438.405 75.7782 438.579 73.9075 438.585 72.1545L438.623 61.7197C438.372 61.7327 437.913 61.7867 437.245 61.8817C436.716 61.9494 436.312 61.9827 436.034 61.9817C435.185 61.9786 434.484 61.7326 433.929 61.2437C433.374 60.7408 433.098 60.0719 433.101 59.2372C433.106 57.9433 433.791 57.097 435.156 56.6985C435.769 56.5198 436.986 56.406 438.809 56.3569C438.824 56.1065 438.917 55.3207 439.089 53.9996C439.49 50.8984 440.34 48.5919 441.639 47.0801C443.26 45.1937 445.74 44.2566 449.079 44.2687C451.625 44.2779 452.895 45.1938 452.888 47.0164C452.882 48.8251 451.696 49.7251 449.331 49.7166C447.647 49.7105 446.421 50.2974 445.651 51.4772C445.078 52.3517 444.69 53.7207 444.489 55.5844L444.424 56.1893Z" fill="white" fill-opacity="0.9"/>
<path d="M474.597 62.8025C474.594 63.7346 474.596 65.1399 474.603 67.0182C474.61 68.8965 474.612 70.3017 474.608 71.2339C474.607 71.5261 474.627 71.9644 474.666 72.5489C474.72 73.1195 474.746 73.5509 474.745 73.8431C474.742 74.6222 474.455 75.2612 473.882 75.76C473.324 76.2728 472.634 76.5277 471.813 76.5247C470.659 76.5205 469.819 75.9958 469.294 74.9504C467.511 75.5979 465.666 75.9182 463.76 75.9113C461.784 75.9041 460.123 75.4807 458.777 74.6411C457.264 73.6756 456.364 72.2741 456.079 70.4365C455.549 66.9563 455.289 63.8458 455.299 61.1049C455.305 59.2962 455.521 57.2309 455.947 54.9089C456.231 53.3378 457.173 52.5551 458.773 52.5609C459.58 52.5638 460.268 52.8237 460.836 53.3405C461.405 53.8434 461.688 54.4844 461.685 55.2636C461.683 55.8757 461.575 56.8354 461.362 58.1424C461.162 59.4496 461.061 60.444 461.059 61.1257C461.052 63.0875 461.108 64.8059 461.228 66.2812C461.362 67.7425 461.559 68.9537 461.82 69.9146C462.167 70.0689 462.501 70.1884 462.82 70.273C463.154 70.3577 463.474 70.4006 463.78 70.4017C465.324 70.4073 467.022 70.1908 468.874 69.7523C468.878 68.681 468.876 67.4636 468.867 66.1001C468.845 64.4721 468.835 63.3034 468.838 62.5938C468.848 59.7417 468.989 57.2795 469.261 55.2075C469.476 53.5526 470.425 52.7282 472.108 52.7343C472.929 52.7372 473.631 52.9971 474.213 53.514C474.796 54.0309 475.065 54.6789 475.02 55.4578C474.737 60.7577 474.596 63.206 474.597 62.8025Z" fill="white" fill-opacity="0.9"/>
<path d="M485.019 69.9241C485.01 72.5675 484.045 73.8858 482.125 73.8789C481.29 73.8758 480.602 73.609 480.062 73.0783C479.521 72.5477 479.252 71.865 479.255 71.0302L479.359 42.1677C479.362 41.3607 479.657 40.7009 480.243 40.1883C480.801 39.7172 481.491 39.4832 482.312 39.4862C483.133 39.4891 483.806 39.742 484.333 40.2448C484.86 40.7337 485.122 41.3816 485.119 42.1885L485.019 69.9241Z" fill="white" fill-opacity="0.9"/>
<path d="M496.686 71.8771C496.677 74.5206 495.712 75.8389 493.792 75.8319C492.957 75.8289 492.269 75.5621 491.729 75.0314C491.188 74.5008 490.919 73.8181 490.922 72.9833L491.026 44.1208C491.029 43.3138 491.324 42.654 491.91 42.1413C492.468 41.6703 493.158 41.4363 493.979 41.4393C494.8 41.4422 495.473 41.6951 496 42.1979C496.527 42.6867 496.789 43.3346 496.786 44.1416L496.686 71.8771Z" fill="white" fill-opacity="0.9"/>
<path d="M522.784 57.4043C521.256 60.5571 518.838 65.5084 515.53 72.2583C513.736 75.8831 512.369 78.8904 511.428 81.2801C511.133 82.1416 510.669 83.4199 510.037 85.1151C509.531 86.4211 508.638 87.0718 507.358 87.0671C506.565 87.0643 505.871 86.8044 505.274 86.2874C504.678 85.7705 504.381 85.1225 504.384 84.3433C504.388 83.0494 505.877 79.2217 508.85 72.8602C507.33 69.8356 504.918 65.3816 501.614 59.4983C501.282 58.9684 500.943 58.4315 500.598 57.8877C500.224 57.2463 500.039 56.6613 500.04 56.1326C500.043 55.3813 500.345 54.7215 500.945 54.1532C501.545 53.585 502.235 53.3022 503.014 53.305C503.932 53.3084 504.648 53.6518 505.16 54.3354C507.126 56.9721 509.415 60.9387 512.025 66.2351C513.526 62.9431 514.437 60.9568 514.76 60.2762C515.755 58.2068 516.728 56.3877 517.68 54.8189C518.282 53.8193 519.105 53.3214 520.148 53.3252C520.927 53.328 521.622 53.5949 522.232 54.1258C522.843 54.6567 523.146 55.3048 523.144 56.07C523.142 56.4734 523.022 56.9182 522.784 57.4043Z" fill="white" fill-opacity="0.9"/>
<path fill-rule="evenodd" clip-rule="evenodd" d="M770.097 284.84H434.663C435.158 236.612 510.058 197.597 602.38 197.597C694.702 197.597 769.602 236.612 770.097 284.84Z" fill="#8CAE90"/>
<path fill-rule="evenodd" clip-rule="evenodd" d="M344.807 284.84C344.807 230.207 267.767 185.918 172.734 185.918C77.7008 185.918 0.661133 230.207 0.661133 284.84H344.807Z" fill="#B4C9B6"/>
<path d="M112.121 187.705C112.305 190.453 117.983 199.062 117.983 199.062C117.983 199.062 122.562 190.27 122.562 187.705C122.562 185.141 121.097 183.492 117.983 183.676C114.869 183.859 111.938 184.958 112.121 187.705Z" fill="white"/>
<path d="M123.397 187.13C121.345 188.967 118.06 198.742 118.06 198.742C118.06 198.742 127.807 196.935 129.827 195.356C131.847 193.777 132.244 191.607 130.182 189.267C128.12 186.926 125.449 185.294 123.397 187.13Z" fill="white"/>
<path d="M129.894 195.762C127.193 195.228 117.407 198.484 117.407 198.484C117.407 198.484 124.715 205.183 127.192 205.847C129.669 206.51 131.64 205.522 132.269 202.467C132.898 199.411 132.595 196.296 129.894 195.762Z" fill="white"/>
<path d="M127.531 206.801C126.288 204.344 117.696 198.64 117.696 198.64C117.696 198.64 116.919 208.523 117.921 210.883C118.924 213.243 120.917 214.188 123.711 212.802C126.506 211.416 128.774 209.259 127.531 206.801Z" fill="white"/>
<path d="M118.588 211.297C119.531 208.71 117.82 198.54 117.82 198.54C117.82 198.54 110.076 204.729 109.039 207.075C108.002 209.42 108.675 211.52 111.597 212.612C114.519 213.704 117.644 213.884 118.588 211.297Z" fill="white"/>
<path d="M108.044 207.263C110.663 206.413 117.622 198.802 117.622 198.802C117.622 198.802 107.977 196.512 105.49 197.14C103.004 197.767 101.764 199.591 102.703 202.565C103.642 205.54 105.424 208.113 108.044 207.263Z" fill="white"/>
<path d="M105.872 196.656C108.159 198.188 118.444 198.947 118.444 198.947C118.444 198.947 114.277 189.953 112.246 188.387C110.215 186.821 108.015 186.975 106.259 189.553C104.503 192.131 103.584 195.123 105.872 196.656Z" fill="white"/>
<path d="M125.245 212.082C125.245 212.082 132.714 218.963 133.013 231.742" stroke="#8CAE90"/>
<circle cx="118.462" cy="198.61" r="5.32809" fill="#F2C94C"/>
<path d="M161.549 196.297C161.437 197.977 157.966 203.24 157.966 203.24C157.966 203.24 155.166 197.865 155.166 196.297C155.166 194.73 156.062 193.722 157.966 193.834C159.869 193.946 161.661 194.618 161.549 196.297Z" fill="white"/>
<path d="M154.655 195.946C155.91 197.068 157.918 203.044 157.918 203.044C157.918 203.044 151.96 201.94 150.725 200.974C149.49 200.009 149.247 198.683 150.508 197.252C151.768 195.821 153.401 194.823 154.655 195.946Z" fill="white"/>
<path d="M150.684 201.222C152.335 200.896 158.317 202.887 158.317 202.887C158.317 202.887 153.85 206.982 152.336 207.387C150.822 207.793 149.616 207.189 149.232 205.321C148.847 203.453 149.033 201.549 150.684 201.222Z" fill="white"/>
<path d="M152.128 207.971C152.888 206.469 158.14 202.982 158.14 202.982C158.14 202.982 158.616 209.023 158.003 210.466C157.39 211.909 156.171 212.487 154.463 211.639C152.755 210.792 151.368 209.473 152.128 207.971Z" fill="white"/>
<path d="M157.596 210.719C157.019 209.138 158.065 202.921 158.065 202.921C158.065 202.921 162.799 206.704 163.433 208.138C164.067 209.572 163.655 210.856 161.869 211.523C160.083 212.191 158.173 212.301 157.596 210.719Z" fill="white"/>
<path d="M164.041 208.253C162.44 207.734 158.186 203.081 158.186 203.081C158.186 203.081 164.082 201.681 165.602 202.065C167.122 202.448 167.88 203.563 167.306 205.382C166.732 207.2 165.642 208.773 164.041 208.253Z" fill="white"/>
<path d="M165.369 201.769C163.971 202.706 157.683 203.17 157.683 203.17C157.683 203.17 160.231 197.671 161.473 196.714C162.714 195.757 164.059 195.851 165.133 197.427C166.206 199.003 166.768 200.832 165.369 201.769Z" fill="white"/>
<path d="M153.526 211.199C153.526 211.199 148.961 215.406 148.778 223.218" stroke="#8CAE90"/>
<circle r="3.25714" transform="matrix(-1 0 0 1 157.673 202.964)" fill="#F2C94C"/>
<path d="M112.9 235.742C112.9 235.742 112.281 238.724 113.814 244.325" stroke="#8CAE90"/>
<path d="M113.228 225.465C113.384 226.605 111.784 230.607 111.784 230.607C111.784 230.607 109.17 227.393 108.954 226.343C108.738 225.293 109.2 224.495 110.49 224.308C111.78 224.121 113.072 224.325 113.228 225.465Z" fill="white"/>
<path d="M108.564 226.178C109.558 226.757 111.726 230.483 111.726 230.483C111.726 230.483 107.583 230.563 106.623 230.086C105.663 229.61 105.319 228.755 105.966 227.623C106.613 226.492 107.569 225.599 108.564 226.178Z" fill="white"/>
<path d="M106.63 230.258C107.691 229.812 111.971 230.322 111.971 230.322C111.971 230.322 109.542 233.679 108.584 234.159C107.626 234.639 106.736 234.4 106.221 233.202C105.707 232.005 105.569 230.704 106.63 230.258Z" fill="white"/>
<path d="M108.525 234.579C108.827 233.468 111.865 230.411 111.865 230.411C111.865 230.411 113.014 234.391 112.802 235.442C112.59 236.492 111.854 237.046 110.593 236.714C109.333 236.382 108.223 235.689 108.525 234.579Z" fill="white"/>
<path d="M112.565 235.667C111.961 234.687 111.807 230.38 111.807 230.38C111.807 230.38 115.497 232.263 116.119 233.135C116.741 234.008 116.642 234.925 115.538 235.618C114.433 236.31 113.169 236.647 112.565 235.667Z" fill="white"/>
<path d="M116.542 233.129C115.399 233.001 111.91 230.471 111.91 230.471C111.91 230.471 115.666 228.722 116.736 228.77C117.807 228.817 118.468 229.46 118.334 230.757C118.199 232.053 117.686 233.256 116.542 233.129Z" fill="white"/>
<path d="M116.539 228.604C115.732 229.423 111.585 230.599 111.585 230.599C111.585 230.599 112.535 226.566 113.234 225.755C113.934 224.943 114.848 224.821 115.784 225.729C116.719 226.636 117.347 227.784 116.539 228.604Z" fill="white"/>
<circle r="2.22681" transform="matrix(-0.979547 0.201216 0.201216 0.979547 111.55 230.463)" fill="#F2C94C"/>
<path fill-rule="evenodd" clip-rule="evenodd" d="M770.342 285.32H0.658203C73.0697 242.277 218.231 212.896 385.5 212.896C552.769 212.896 697.931 242.277 770.342 285.32Z" fill="#CFDED1"/>
<path d="M405.193 218.934C404.511 204.992 407.156 196.898 417.075 181.983H432.435C440.831 184.154 444.537 189.066 449.824 202.705C437.926 215.851 428.811 220.212 405.193 218.934Z" fill="#DFF2E1"/>
<path fill-rule="evenodd" clip-rule="evenodd" d="M416.842 181.548H432.491L432.544 181.562C436.818 182.667 439.928 184.482 442.631 187.767C445.316 191.029 447.584 195.724 450.23 202.548L450.326 202.798L450.147 202.997C444.177 209.592 438.869 214.025 432.059 216.635C425.257 219.241 417.002 220.009 405.169 219.369L404.778 219.347L404.759 218.956C404.416 211.95 404.908 206.385 406.745 200.69C408.579 195.003 411.746 189.212 416.713 181.742L416.842 181.548ZM417.308 182.418C412.431 189.769 409.354 195.431 407.572 200.957C405.811 206.418 405.307 211.77 405.609 218.521C417.183 219.121 425.188 218.336 431.748 215.823C438.307 213.31 443.468 209.051 449.322 202.612C446.722 195.934 444.517 191.427 441.96 188.32C439.401 185.21 436.474 183.485 432.38 182.418H417.308Z" fill="black"/>
<path d="M415.021 232.21H402.124C403.41 228.847 404.614 227.554 408.065 226.848C411.144 227.005 412.603 228.083 414.146 230.638C414.431 231.11 414.719 231.633 415.021 232.21Z" fill="#ACA6A6"/>
<path fill-rule="evenodd" clip-rule="evenodd" d="M412.042 227.561C410.775 224.921 410.02 222.521 409.805 219.196L410.673 219.14C410.959 223.571 412.229 226.269 414.522 230.421C414.812 230.901 415.103 231.43 415.406 232.008L415.739 232.644H401.492L401.718 232.054C402.367 230.357 403.018 229.116 403.986 228.215C404.961 227.306 406.213 226.783 407.978 226.422L408.032 226.411L408.087 226.414C409.674 226.495 410.891 226.815 411.917 227.478C411.959 227.505 412.001 227.533 412.042 227.561ZM413.769 230.856C413.015 229.607 412.307 228.765 411.446 228.209C410.598 227.662 409.561 227.365 408.098 227.285C406.443 227.629 405.381 228.104 404.579 228.851C403.862 229.519 403.317 230.437 402.764 231.775H414.28C414.105 231.461 413.935 231.155 413.769 230.856Z" fill="black"/>
<path d="M454.342 218.228L461.988 207.843C458.518 206.885 456.763 207.088 454.148 209.448C452.449 212.021 452.452 213.835 453.595 216.592C453.806 217.102 454.056 217.644 454.342 218.228Z" fill="#ACA6A6"/>
<path fill-rule="evenodd" clip-rule="evenodd" d="M452.364 213.074C450.989 210.488 449.505 208.457 446.954 206.312L446.395 206.978C449.794 209.836 451.213 212.458 453.196 216.766C453.411 217.285 453.664 217.833 453.951 218.419L454.266 219.064L462.713 207.592L462.104 207.424C460.352 206.941 458.967 206.729 457.667 206.974C456.357 207.221 455.194 207.919 453.857 209.126L453.816 209.163L453.785 209.209C452.909 210.535 452.446 211.704 452.371 212.924C452.368 212.974 452.366 213.024 452.364 213.074ZM453.993 216.418C453.435 215.07 453.176 214.001 453.239 212.978C453.301 211.971 453.678 210.96 454.48 209.734C455.739 208.605 456.75 208.032 457.828 207.829C458.791 207.647 459.853 207.752 461.258 208.101L454.43 217.374C454.281 217.047 454.136 216.728 453.993 216.418Z" fill="black"/>
<path d="M402.15 166.188L385.775 176.622C388.655 177.996 389.377 179.31 390.123 181.983C400.368 176.077 406.069 172.348 415.626 164.305C415.936 172.424 416.157 176.574 416.786 181.983H432.725C434.365 176.33 434.797 172.007 434.899 162.711C440.254 167.149 444.897 172.999 448.23 173.289C451.563 173.579 457.34 163.492 463.446 155.755L459.098 152.422C454.685 157.494 452.35 159.471 448.23 162.711C443.351 157.732 439.556 155.041 432.725 150.249C426.364 158.133 422.893 158.018 416.786 153.871L402.15 166.188Z" fill="#E2C8E2"/>
<path fill-rule="evenodd" clip-rule="evenodd" d="M432.641 149.659L432.974 149.893C439.678 154.596 443.486 157.294 448.266 162.128C452.182 159.042 454.488 157.057 458.77 152.137L459.038 151.829L464.059 155.678L463.786 156.024C462.267 157.95 460.766 160.024 459.314 162.053C459.096 162.358 458.878 162.662 458.662 162.964C457.443 164.67 456.262 166.323 455.144 167.795C453.829 169.525 452.585 171.026 451.45 172.078C450.883 172.605 450.329 173.032 449.796 173.319C449.264 173.605 448.723 173.768 448.192 173.722C447.25 173.64 446.262 173.173 445.252 172.499C444.237 171.822 443.157 170.907 442.029 169.876C441.237 169.152 440.423 168.373 439.585 167.572C438.227 166.272 436.807 164.914 435.321 163.637C435.2 172.321 434.743 176.587 433.142 182.104L433.051 182.418H416.398L416.353 182.033C415.746 176.807 415.518 172.753 415.225 165.208C406.048 172.881 400.356 176.586 390.339 182.36L389.854 182.64L389.703 182.1C389.333 180.773 388.983 179.844 388.402 179.078C387.826 178.319 386.992 177.684 385.587 177.014L384.88 176.676L401.891 165.837L416.757 153.327L417.029 153.512C420.075 155.58 422.34 156.549 424.582 156.143C426.84 155.735 429.212 153.91 432.386 149.976L432.641 149.659ZM432.806 150.837C429.739 154.581 427.261 156.543 424.737 156.999C422.204 157.457 419.753 156.377 416.814 154.415L402.407 166.539L386.651 176.579C387.748 177.173 388.518 177.793 389.095 178.552C389.687 179.332 390.054 180.232 390.385 181.329C400.313 175.592 405.962 171.869 415.346 163.972L416.026 163.399L416.06 164.288C416.362 172.212 416.58 176.341 417.172 181.548H432.397C433.947 176.103 434.364 171.813 434.463 162.706L434.473 161.794L435.175 162.376C436.938 163.836 438.636 165.461 440.222 166.978C441.053 167.772 441.853 168.538 442.616 169.234C443.735 170.257 444.775 171.136 445.735 171.776C446.701 172.42 447.542 172.793 448.267 172.856C448.57 172.882 448.938 172.793 449.384 172.553C449.828 172.314 450.321 171.94 450.859 171.441C451.936 170.442 453.142 168.991 454.451 167.269C455.561 165.808 456.734 164.167 457.953 162.461C458.17 162.158 458.388 161.853 458.607 161.547C459.973 159.637 461.391 157.676 462.831 155.832L459.157 153.015C454.893 157.887 452.549 159.867 448.498 163.052L448.192 163.293L447.919 163.015C443.15 158.148 439.429 155.485 432.806 150.837Z" fill="black"/>
<path fill-rule="evenodd" clip-rule="evenodd" d="M426.045 112.221L426.678 111.625L468.531 156.154C468.552 156.167 468.582 156.186 468.621 156.21C468.707 156.263 468.836 156.338 469.003 156.421C469.335 156.589 469.811 156.79 470.38 156.924C471.512 157.191 473.001 157.19 474.5 156.132C475.241 155.608 475.576 155.059 475.7 154.549C475.826 154.031 475.746 153.501 475.562 153.004C475.378 152.506 475.099 152.065 474.86 151.744C474.741 151.585 474.634 151.458 474.558 151.372C474.521 151.329 474.49 151.297 474.471 151.276C474.461 151.265 474.453 151.257 474.448 151.253L474.444 151.248L474.443 151.247C474.443 151.247 474.443 151.248 474.751 150.94C475.058 150.633 475.058 150.633 475.059 150.633L475.059 150.633L475.06 150.634L475.063 150.637L475.072 150.646C475.079 150.654 475.09 150.665 475.103 150.679C475.129 150.706 475.165 150.746 475.21 150.796C475.299 150.897 475.421 151.043 475.557 151.224C475.825 151.585 476.155 152.1 476.378 152.702C476.601 153.305 476.724 154.018 476.545 154.754C476.364 155.5 475.886 156.218 475.002 156.842C473.249 158.079 471.487 158.078 470.181 157.771C469.53 157.618 468.989 157.388 468.611 157.198C468.421 157.102 468.271 157.016 468.167 156.952C468.115 156.92 468.074 156.894 468.046 156.875C468.031 156.865 468.02 156.858 468.012 156.852L468.002 156.845L467.999 156.843L467.998 156.843L467.998 156.842C467.997 156.842 467.997 156.842 468.248 156.487L467.997 156.842L467.961 156.817L426.045 112.221Z" fill="black"/>
<path d="M460.447 148.012C461.993 147.039 462.451 147.268 464.741 148.986C467.032 150.703 466.688 154.483 465.715 155.456C464.741 156.429 462.68 156.029 462.68 156.029L459.187 153.108C459.187 153.108 458.901 148.986 460.447 148.012Z" fill="#EAD8C8"/>
<path fill-rule="evenodd" clip-rule="evenodd" d="M463.555 147.605C463.96 147.863 464.431 148.209 465.002 148.638C466.283 149.599 466.802 151.114 466.886 152.473C466.928 153.157 466.862 153.82 466.716 154.384C466.574 154.937 466.344 155.442 466.022 155.763C465.414 156.372 464.51 156.519 463.847 156.542C463.503 156.553 463.194 156.532 462.971 156.508C462.859 156.496 462.768 156.483 462.704 156.473C462.672 156.468 462.646 156.464 462.628 156.461C462.619 156.459 462.612 156.458 462.607 156.457L462.6 156.456L462.598 156.456L462.597 156.455C462.597 156.455 462.597 156.455 462.68 156.029L462.597 156.455L462.487 156.434L458.766 153.323L458.753 153.138L459.187 153.108C458.753 153.138 458.753 153.139 458.753 153.138L458.753 153.137L458.753 153.134L458.752 153.124C458.752 153.115 458.751 153.102 458.75 153.086C458.748 153.054 458.746 153.007 458.743 152.947C458.738 152.828 458.733 152.658 458.732 152.452C458.729 152.04 458.742 151.477 458.805 150.88C458.868 150.285 458.982 149.64 459.189 149.07C459.394 148.509 459.71 147.962 460.215 147.644C461.007 147.146 461.643 146.871 462.422 147.068C462.785 147.16 463.151 147.348 463.555 147.605ZM459.612 152.897L462.868 155.619C462.918 155.626 462.984 155.635 463.064 155.644C463.258 155.665 463.525 155.683 463.818 155.673C464.428 155.652 465.043 155.513 465.407 155.149C465.572 154.984 465.75 154.651 465.874 154.168C465.996 153.696 466.055 153.124 466.018 152.527C465.944 151.323 465.49 150.09 464.481 149.333C463.906 148.903 463.461 148.576 463.088 148.339C462.714 148.1 462.439 147.969 462.208 147.911C461.798 147.807 461.433 147.905 460.678 148.38C460.411 148.549 460.183 148.883 460.006 149.368C459.833 149.845 459.728 150.413 459.67 150.971C459.611 151.526 459.599 152.055 459.601 152.446C459.602 152.633 459.607 152.787 459.612 152.897Z" fill="black"/>
<path d="M390.267 180.969C390.267 183.45 388.126 185.461 385.485 185.461C382.844 185.461 380.703 183.45 380.703 180.969C380.703 178.488 382.844 176.477 385.485 176.477C388.126 176.477 390.267 178.488 390.267 180.969Z" fill="#EAD8C8"/>
<path fill-rule="evenodd" clip-rule="evenodd" d="M385.485 184.591C387.698 184.591 389.398 182.919 389.398 180.969C389.398 179.018 387.698 177.346 385.485 177.346C383.272 177.346 381.573 179.018 381.573 180.969C381.573 182.919 383.272 184.591 385.485 184.591ZM385.485 185.461C388.126 185.461 390.267 183.45 390.267 180.969C390.267 178.488 388.126 176.477 385.485 176.477C382.844 176.477 380.703 178.488 380.703 180.969C380.703 183.45 382.844 185.461 385.485 185.461Z" fill="black"/>
<path fill-rule="evenodd" clip-rule="evenodd" d="M306.355 123.923C309.913 139.364 312.239 148.044 317.07 163.596L316.239 163.854C311.402 148.281 309.07 139.58 305.508 124.118L306.355 123.923ZM320.038 180.185C320.894 178.578 320.922 177.052 319.996 172.506L320.848 172.332C321.771 176.866 321.823 178.683 320.806 180.593C320.482 181.202 319.802 181.536 319.061 181.689C318.304 181.846 317.389 181.836 316.449 181.673C314.578 181.35 312.488 180.4 311.238 178.77L311.928 178.241C313.004 179.645 314.865 180.517 316.597 180.816C317.46 180.965 318.26 180.967 318.885 180.838C319.525 180.705 319.894 180.456 320.038 180.185Z" fill="black"/>
<path d="M351.868 148.22C339.416 153.67 332.627 156.928 321.872 164.159L323.756 170.535C333.207 165.416 338.556 162.838 348.39 159.957V183.577C348.39 183.577 348.834 183.216 355.161 182.708C361.488 182.199 362.011 182.708 362.011 182.708L362.736 158.073C372.582 166.874 377.513 171.929 385.486 181.114L389.254 176.766C380.344 164.652 374.521 158.121 362.736 146.916C358.497 151.052 356.117 151.411 351.868 148.22Z" fill="#EEEFCF"/>
<path fill-rule="evenodd" clip-rule="evenodd" d="M362.731 146.312L363.035 146.601C374.837 157.822 380.677 164.372 389.604 176.509L389.809 176.789L385.486 181.777L385.157 181.399C377.386 172.447 372.515 167.429 363.142 159.021L362.416 183.708L361.758 183.068C361.747 183.064 361.734 183.06 361.717 183.056C361.607 183.026 361.374 182.981 360.928 182.951C360.038 182.889 358.35 182.887 355.195 183.141C352.036 183.395 350.358 183.611 349.475 183.762C349.033 183.837 348.799 183.895 348.682 183.929C348.655 183.937 348.635 183.944 348.622 183.949L347.955 184.491V160.539C338.514 163.342 333.219 165.903 323.962 170.918L323.491 171.173L321.364 163.977L321.629 163.799C332.415 156.546 339.23 153.277 351.693 147.822L351.925 147.72L352.128 147.872C354.229 149.45 355.769 150.07 357.251 149.884C358.754 149.696 360.319 148.666 362.432 146.604L362.731 146.312ZM362.737 147.518C360.747 149.415 359.082 150.531 357.359 150.747C355.588 150.969 353.868 150.23 351.811 148.719C339.619 154.059 332.884 157.3 322.379 164.343L324.02 169.898C333.195 164.939 338.558 162.385 348.267 159.54L348.824 159.377V183C348.961 182.971 349.127 182.939 349.329 182.905C350.249 182.748 351.957 182.529 355.125 182.274C358.298 182.019 360.035 182.018 360.988 182.083C361.235 182.1 361.433 182.122 361.592 182.146L362.328 157.127L363.025 157.749C372.749 166.441 377.691 171.49 385.485 180.45L388.697 176.744C379.995 164.934 374.214 158.447 362.737 147.518Z" fill="black"/>
<path d="M324.335 167.782C324.335 170.503 322.064 172.709 319.263 172.709C316.462 172.709 314.191 170.503 314.191 167.782C314.191 165.061 316.462 162.855 319.263 162.855C322.064 162.855 324.335 165.061 324.335 167.782Z" fill="#C0B4A9"/>
<path fill-rule="evenodd" clip-rule="evenodd" d="M319.263 171.84C321.608 171.84 323.465 169.999 323.465 167.782C323.465 165.565 321.608 163.725 319.263 163.725C316.918 163.725 315.061 165.565 315.061 167.782C315.061 169.999 316.918 171.84 319.263 171.84ZM319.263 172.709C322.064 172.709 324.335 170.503 324.335 167.782C324.335 165.061 322.064 162.855 319.263 162.855C316.462 162.855 314.191 165.061 314.191 167.782C314.191 170.503 316.462 172.709 319.263 172.709Z" fill="black"/>
<path d="M393.601 180.969C393.601 183.45 391.654 185.461 389.253 185.461C386.853 185.461 384.906 183.45 384.906 180.969C384.906 178.488 386.853 176.477 389.253 176.477C391.654 176.477 393.601 178.488 393.601 180.969Z" fill="#C0B4A9"/>
<path fill-rule="evenodd" clip-rule="evenodd" d="M389.253 184.591C391.148 184.591 392.731 182.997 392.731 180.969C392.731 178.941 391.148 177.346 389.253 177.346C387.359 177.346 385.776 178.941 385.776 180.969C385.776 182.997 387.359 184.591 389.253 184.591ZM389.253 185.461C391.654 185.461 393.601 183.45 393.601 180.969C393.601 178.488 391.654 176.477 389.253 176.477C386.853 176.477 384.906 178.488 384.906 180.969C384.906 183.45 386.853 185.461 389.253 185.461Z" fill="black"/>
<path d="M368.097 132.984C368.966 140.664 362.425 149.832 357.084 150.518C355.343 150.742 353.347 150.057 351.403 148.675C347.384 145.815 343.589 139.968 342.738 132.984C342.568 131.589 342.587 130.226 342.784 128.927C343.056 127.137 343.667 125.467 344.593 123.992C345.619 122.358 347.031 120.964 348.795 119.916C350.296 119.025 352.052 118.384 354.041 118.059C357.287 117.528 360.076 118.631 362.301 120.644C363.688 121.899 364.856 123.508 365.778 125.296C366.553 126.798 367.155 128.425 367.568 130.074C367.81 131.043 367.988 132.021 368.097 132.984Z" fill="#C0B4A9"/>
<path fill-rule="evenodd" clip-rule="evenodd" d="M349.019 119.288L348.041 116.743L347.23 117.055L348.259 119.734C346.69 120.724 345.403 121.989 344.423 123.454L341.568 122.293L341.241 123.098L343.959 124.203C343.217 125.5 342.701 126.928 342.424 128.442L339.461 128.06L339.35 128.923L342.294 129.302C342.149 130.507 342.151 131.76 342.306 133.036C343.171 140.134 347.026 146.094 351.151 149.028C353.144 150.446 355.249 151.191 357.139 150.949C358.58 150.764 360.063 150.014 361.451 148.908C362.843 147.799 364.164 146.313 365.282 144.612C367.514 141.218 368.978 136.905 368.529 132.935C368.438 132.131 368.3 131.318 368.118 130.508H370.386V129.639H367.904C367.519 128.191 366.992 126.764 366.33 125.424L368.358 123.9L367.835 123.205L365.923 124.643C365.108 123.157 364.119 121.799 362.967 120.674L365.148 118.968L364.612 118.283L362.317 120.079C360.056 118.146 357.235 117.095 353.971 117.629C352.124 117.931 350.467 118.5 349.019 119.288ZM362.009 120.966C359.864 119.025 357.204 117.981 354.111 118.487C352.171 118.805 350.468 119.428 349.017 120.29C347.312 121.302 345.95 122.647 344.961 124.223C344.068 125.645 343.477 127.259 343.214 128.992C343.039 130.144 343.008 131.35 343.132 132.588C344.873 132.769 346.478 132.922 347.99 133.045C351.325 133.316 354.203 133.44 357.078 133.402C359.828 133.366 362.58 133.18 365.73 132.83C366.341 132.762 366.968 132.687 367.612 132.607C367.504 131.801 367.348 130.988 367.146 130.179C366.741 128.56 366.15 126.965 365.392 125.495C364.488 123.744 363.35 122.18 362.009 120.966ZM367.706 133.471C367.187 133.536 366.68 133.597 366.182 133.654C366.17 133.758 366.155 133.881 366.133 134.019C366.064 134.458 365.935 135.053 365.694 135.671C365.215 136.902 364.255 138.302 362.375 138.629C360.456 138.962 359.008 137.694 358.097 136.5C357.647 135.91 357.301 135.305 357.065 134.841C356.568 135.784 356.032 136.628 355.371 137.278C354.505 138.127 353.437 138.635 352.012 138.635C350.626 138.635 349.56 138.26 348.809 137.366C348.133 136.561 347.763 135.393 347.565 133.882C346.208 133.769 344.777 133.632 343.242 133.473C344.204 140.103 347.845 145.61 351.655 148.32C353.55 149.668 355.437 150.291 357.028 150.086C358.258 149.928 359.596 149.274 360.909 148.228C362.219 147.185 363.48 145.771 364.556 144.134C366.628 140.982 367.976 137.064 367.706 133.471ZM348.453 133.954C348.646 135.303 348.979 136.216 349.475 136.806C350.009 137.442 350.79 137.766 352.012 137.766C353.196 137.766 354.049 137.357 354.761 136.657C355.366 136.063 355.874 135.254 356.378 134.278C353.859 134.288 351.314 134.176 348.453 133.954ZM357.747 134.26C360.156 134.207 362.587 134.041 365.294 133.752C365.288 133.794 365.281 133.838 365.274 133.884C365.212 134.281 365.096 134.812 364.884 135.356C364.458 136.449 363.679 137.519 362.226 137.772C360.812 138.018 359.652 137.105 358.788 135.972C358.365 135.418 358.039 134.844 357.818 134.405C357.793 134.355 357.769 134.306 357.747 134.26Z" fill="black"/>
<path d="M353.867 131.617C353.867 132.437 353.218 133.101 352.418 133.101C351.618 133.101 350.969 132.437 350.969 131.617C350.969 130.797 351.618 130.132 352.418 130.132C353.218 130.132 353.867 130.797 353.867 131.617Z" fill="black"/>
<path d="M362.851 131.617C362.851 132.437 362.202 133.101 361.402 133.101C360.602 133.101 359.953 132.437 359.953 131.617C359.953 130.797 360.602 130.132 361.402 130.132C362.202 130.132 362.851 130.797 362.851 131.617Z" fill="black"/>
<path fill-rule="evenodd" clip-rule="evenodd" d="M356.309 145.1C354.835 145.011 353.525 144.16 352.411 142.904L353.062 142.327C354.092 143.489 355.204 144.162 356.361 144.232C357.509 144.301 358.814 143.781 360.25 142.312L360.872 142.92C359.328 144.5 357.792 145.189 356.309 145.1Z" fill="black"/>
<path d="M355.055 182.708C334.054 185.073 328.239 189.924 318.031 212.486L323.175 215.632C333.085 200.017 344.982 186.04 359.982 189.953C374.982 193.865 365.569 212.712 355.055 231.541H365.923C384.132 197.762 376.056 180.342 355.055 182.708Z" fill="#B3CAD7"/>
<path fill-rule="evenodd" clip-rule="evenodd" d="M367.969 184.973C364.644 183.199 360.297 182.555 355.104 183.14C344.62 184.32 338.022 186.115 332.769 190.361C327.557 194.575 323.614 201.244 318.586 212.316L323.038 215.039C327.938 207.355 333.346 200.059 339.396 195.133C345.551 190.121 352.414 187.53 360.092 189.532C363.945 190.537 366.297 192.526 367.421 195.29C368.534 198.024 368.414 201.441 367.509 205.254C365.742 212.703 360.913 221.917 355.795 231.107H365.663C374.655 214.355 377.084 201.764 374.775 193.69C373.621 189.654 371.284 186.742 367.969 184.973ZM366.649 231.107C375.489 214.507 377.997 201.796 375.611 193.451C374.397 189.205 371.916 186.094 368.379 184.206C364.852 182.324 360.314 181.678 355.006 182.276C344.489 183.46 337.679 185.275 332.222 189.685C326.852 194.027 322.847 200.842 317.839 211.858L310.795 207.551L310.342 208.292L325.267 217.421L325.721 216.68L323.78 215.492C328.666 207.832 334.01 200.639 339.945 195.807C345.965 190.904 352.55 188.464 359.872 190.374C363.519 191.325 365.616 193.159 366.616 195.618C367.629 198.106 367.551 201.311 366.663 205.053C364.887 212.538 359.939 221.903 354.676 231.329L354.314 231.976H371.575V231.107H366.649Z" fill="black"/>
<path d="M423.65 157.051C413.391 157.94 412.745 144.046 412.745 142.512C412.745 142.094 412.859 140.843 413.238 139.247C413.41 138.524 413.637 137.731 413.932 136.912C415.376 132.9 418.467 128.278 424.862 128.376C431.918 128.484 434.521 133.118 435.447 136.912C435.652 137.751 435.775 138.548 435.846 139.247C435.936 140.127 435.943 140.85 435.928 141.3C435.847 143.723 433.909 156.163 423.65 157.051Z" fill="#EAD8C8"/>
<path fill-rule="evenodd" clip-rule="evenodd" d="M413.523 136.765C414.991 132.688 418.194 127.839 424.868 127.941C428.501 127.997 431.026 129.222 432.761 130.954C434.485 132.676 435.395 134.866 435.87 136.809C436.08 137.67 436.206 138.488 436.279 139.203C436.37 140.104 436.378 140.846 436.363 141.315C436.321 142.576 435.805 146.356 433.994 149.947C432.178 153.548 429.022 157.023 423.688 157.485C421.014 157.716 418.939 156.983 417.347 155.71C415.766 154.446 414.686 152.671 413.948 150.854C412.474 147.225 412.311 143.304 412.311 142.512C412.311 142.051 412.431 140.765 412.816 139.146C412.991 138.41 413.222 137.601 413.523 136.765ZM414.57 136.453C414.611 136.451 414.654 136.448 414.698 136.445C415.181 136.413 415.853 136.348 416.61 136.219C418.137 135.959 419.947 135.445 421.247 134.453C422.536 133.469 423.337 131.953 423.816 130.645C424.054 129.996 424.209 129.41 424.303 128.987C424.317 128.926 424.33 128.868 424.341 128.813C418.875 128.959 416.029 132.79 414.57 136.453ZM424.99 129.824C424.898 130.16 424.78 130.541 424.633 130.944C424.129 132.318 423.254 134.014 421.775 135.144C420.306 136.265 418.327 136.808 416.756 137.076C415.964 137.211 415.261 137.279 414.756 137.313C414.55 137.326 414.376 137.335 414.242 137.34C414.046 137.909 413.884 138.463 413.751 138.986L417.079 140.344C417.119 140.308 417.164 140.267 417.214 140.223C417.428 140.032 417.731 139.779 418.087 139.531C418.442 139.283 418.858 139.034 419.297 138.858C419.733 138.684 420.221 138.57 420.705 138.629C421.594 138.736 422.419 139.242 422.995 139.682C423.288 139.906 423.531 140.124 423.7 140.286C423.752 140.336 423.797 140.381 423.835 140.419H426.875C426.885 140.399 426.895 140.378 426.905 140.356C427.008 140.147 427.17 139.869 427.41 139.587C427.896 139.018 428.7 138.44 429.937 138.406C431.189 138.372 432.004 138.959 432.492 139.548C432.699 139.798 432.847 140.048 432.95 140.251L435.381 138.998C435.32 138.483 435.23 137.923 435.1 137.338C434.979 137.333 434.829 137.325 434.655 137.313C434.173 137.279 433.506 137.211 432.768 137.075C431.314 136.808 429.497 136.261 428.315 135.11C427.176 133.999 426.21 132.339 425.537 130.988C425.327 130.566 425.144 130.17 424.99 129.824ZM434.877 136.456C434.395 134.764 433.562 132.983 432.146 131.569C430.686 130.11 428.577 129.014 425.512 128.835C425.522 128.86 425.533 128.887 425.545 128.914C425.725 129.345 425.987 129.94 426.316 130.6C426.979 131.932 427.892 133.483 428.922 134.487C429.91 135.449 431.508 135.959 432.925 136.22C433.624 136.349 434.257 136.413 434.716 136.445C434.773 136.449 434.826 136.453 434.877 136.456ZM435.467 139.932L433.218 141.091C433.248 141.273 433.284 141.52 433.308 141.8C433.357 142.379 433.364 143.157 433.142 143.811C432.71 145.084 431.481 146.222 429.94 146.192C428.494 146.165 427.09 145.424 426.742 143.761C426.584 143.005 426.585 142.257 426.624 141.705C426.634 141.551 426.648 141.411 426.662 141.288H424.085V144.257C424.085 144.599 423.95 144.945 423.761 145.25C423.569 145.561 423.302 145.863 422.989 146.125C422.372 146.642 421.517 147.05 420.627 146.997C419.829 146.95 418.965 146.734 418.249 146.315C417.528 145.893 416.93 145.247 416.75 144.342C416.59 143.539 416.592 142.646 416.63 141.968C416.649 141.629 416.678 141.338 416.702 141.13L413.55 139.843C413.266 141.173 413.18 142.177 413.18 142.512C413.18 143.254 413.34 147.047 414.753 150.527C415.459 152.263 416.465 153.892 417.89 155.031C419.304 156.161 421.156 156.831 423.613 156.618C428.537 156.192 431.479 153.003 433.218 149.556C434.961 146.099 435.455 142.448 435.494 141.286C435.504 140.967 435.503 140.5 435.467 139.932ZM417.586 141.061C417.58 141.106 417.574 141.161 417.566 141.224C417.544 141.42 417.516 141.696 417.498 142.017C417.462 142.667 417.464 143.475 417.603 144.172C417.722 144.768 418.117 145.23 418.688 145.564C419.263 145.901 419.987 146.088 420.679 146.129C421.279 146.164 421.923 145.884 422.431 145.458C422.682 145.248 422.884 145.015 423.021 144.793C423.162 144.565 423.215 144.379 423.215 144.257V141.029C423.183 140.996 423.144 140.957 423.098 140.914C422.947 140.769 422.729 140.573 422.467 140.372C421.93 139.962 421.256 139.571 420.601 139.492C420.314 139.457 419.98 139.521 419.62 139.666C419.263 139.809 418.906 140.019 418.584 140.244C418.264 140.467 417.988 140.697 417.791 140.872C417.707 140.947 417.637 141.012 417.586 141.061ZM427.589 140.965C427.587 140.973 427.585 140.983 427.583 140.994C427.576 141.032 427.567 141.088 427.556 141.16C427.535 141.305 427.508 141.514 427.491 141.766C427.456 142.272 427.457 142.933 427.593 143.583C427.833 144.731 428.781 145.301 429.957 145.323C431.039 145.344 431.981 144.528 432.318 143.532C432.481 143.052 432.488 142.421 432.441 141.874C432.418 141.608 432.384 141.374 432.356 141.208C432.342 141.125 432.329 141.059 432.32 141.014C432.315 140.993 432.312 140.976 432.31 140.965C432.31 140.965 432.31 140.965 432.31 140.965C432.306 140.955 432.3 140.937 432.292 140.914C432.275 140.868 432.248 140.799 432.208 140.715C432.129 140.546 432.004 140.323 431.822 140.102C431.464 139.67 430.888 139.25 429.961 139.275C429.018 139.301 428.431 139.729 428.071 140.151C427.889 140.366 427.764 140.58 427.686 140.739C427.647 140.819 427.62 140.883 427.603 140.926C427.597 140.943 427.592 140.956 427.589 140.965ZM432.313 140.976L432.313 140.976L432.313 140.977C432.313 140.976 432.313 140.976 432.313 140.976ZM420.252 149.641C420.252 149.641 420.252 149.641 420.653 149.473C421.054 149.306 421.054 149.306 421.054 149.305L421.055 149.308C421.057 149.312 421.059 149.317 421.063 149.325C421.07 149.341 421.081 149.366 421.097 149.398C421.128 149.462 421.176 149.556 421.24 149.67C421.37 149.897 421.565 150.196 421.824 150.486C422.346 151.071 423.082 151.573 424.056 151.482C425.096 151.386 425.769 150.907 426.188 150.454C426.399 150.225 426.545 150.003 426.637 149.839C426.684 149.757 426.716 149.691 426.736 149.647C426.746 149.626 426.753 149.609 426.757 149.6C426.759 149.595 426.76 149.592 426.761 149.59L426.761 149.591C426.761 149.591 426.761 149.591 427.167 149.744C427.574 149.898 427.574 149.898 427.574 149.898L427.573 149.9L427.572 149.903L427.569 149.91C427.567 149.916 427.564 149.924 427.56 149.933C427.552 149.952 427.541 149.978 427.526 150.01C427.497 150.074 427.453 150.162 427.394 150.267C427.276 150.477 427.092 150.756 426.826 151.043C426.293 151.621 425.431 152.228 424.137 152.348C422.778 152.475 421.792 151.756 421.175 151.065C420.865 150.718 420.637 150.365 420.486 150.101C420.41 149.968 420.353 149.856 420.314 149.776C420.295 149.736 420.28 149.704 420.269 149.681C420.264 149.669 420.26 149.66 420.257 149.653L420.254 149.645L420.253 149.642L420.252 149.641L420.252 149.641Z" fill="black"/>
<path d="M421.586 142.146C421.586 142.783 421.07 143.298 420.434 143.298C419.798 143.298 419.282 142.783 419.282 142.146C419.282 141.51 419.798 140.995 420.434 140.995C421.07 140.995 421.586 141.51 421.586 142.146Z" fill="black"/>
<path d="M431.15 141.857C431.15 142.493 430.634 143.009 429.998 143.009C429.361 143.009 428.846 142.493 428.846 141.857C428.846 141.22 429.361 140.705 429.998 140.705C430.634 140.705 431.15 141.22 431.15 141.857Z" fill="black"/>
<path d="M417.415 131.259C420.343 128.974 424.813 128.58 424.813 128.58C424.813 128.58 424.119 133.308 421.422 135.2C418.725 137.091 414.101 137.091 414.101 137.091C414.101 137.091 414.486 133.545 417.415 131.259Z" fill="#C4C4C4"/>
<path d="M432.23 131.4C429.282 128.531 424.813 128.58 424.813 128.58C424.813 128.58 426.715 132.955 428.521 134.948C430.328 136.942 435.177 136.942 435.177 136.942C435.177 136.942 435.177 134.268 432.23 131.4Z" fill="#C4C4C4"/>
<path fill-rule="evenodd" clip-rule="evenodd" d="M424.804 127.71L424.813 128.58L424.737 127.714L424.77 127.711L424.804 127.71ZM435.178 136.941C436.047 136.941 436.047 136.941 436.047 136.94L436.047 136.937L436.047 136.932L436.047 136.919C436.047 136.908 436.046 136.895 436.046 136.88C436.045 136.849 436.043 136.808 436.039 136.758C436.032 136.657 436.017 136.517 435.991 136.345C435.937 136 435.832 135.522 435.627 134.952C435.217 133.809 434.411 132.308 432.836 130.776C431.207 129.191 429.184 128.433 427.614 128.067C426.823 127.883 426.13 127.794 425.633 127.751C425.384 127.729 425.182 127.719 425.04 127.714C424.969 127.712 424.913 127.711 424.873 127.711C424.853 127.71 424.837 127.71 424.826 127.71L424.812 127.71L424.807 127.71L424.805 127.71C424.804 127.71 424.804 127.71 424.813 128.58C424.737 127.714 424.737 127.714 424.737 127.714L424.735 127.714L424.731 127.714L424.718 127.716C424.707 127.717 424.692 127.718 424.673 127.72C424.636 127.724 424.582 127.73 424.513 127.738C424.375 127.754 424.179 127.78 423.935 127.818C423.448 127.894 422.769 128.02 421.994 128.221C420.461 128.618 418.48 129.325 416.88 130.574C415.257 131.84 414.351 133.446 413.851 134.713C413.6 135.349 413.448 135.908 413.358 136.312C413.313 136.515 413.283 136.679 413.265 136.796C413.255 136.855 413.249 136.902 413.244 136.936C413.242 136.952 413.24 136.966 413.239 136.976L413.237 136.989L413.237 136.994L413.237 136.996L413.237 136.996C413.237 136.997 413.237 136.997 414.101 137.091L413.237 136.997L413.132 137.96H414.101V137.091C414.101 137.96 414.101 137.96 414.101 137.96L414.103 137.96L414.107 137.96L414.12 137.96C414.131 137.96 414.146 137.96 414.165 137.96C414.204 137.959 414.259 137.958 414.329 137.956C414.47 137.952 414.671 137.945 414.919 137.929C415.416 137.898 416.106 137.837 416.886 137.713C418.418 137.471 420.408 136.973 421.922 135.911C423.496 134.808 424.42 132.941 424.947 131.475C424.99 131.357 425.03 131.241 425.068 131.127C425.117 131.223 425.168 131.32 425.219 131.419C425.923 132.767 426.893 134.446 427.877 135.532C428.453 136.167 429.229 136.603 430.004 136.909C430.786 137.218 431.624 137.418 432.379 137.549C433.136 137.68 433.831 137.745 434.336 137.778C434.589 137.794 434.796 137.803 434.941 137.807C435.013 137.809 435.071 137.81 435.111 137.81C435.131 137.811 435.147 137.811 435.158 137.811L435.171 137.811L435.175 137.811L435.177 137.811C435.177 137.811 435.178 137.811 435.178 136.941ZM434.306 136.905C434.838 136.941 435.178 136.941 435.178 136.941H436.047V137.811H435.178V136.941C435.178 136.941 435.178 136.616 435.052 136.07C434.819 135.052 434.149 133.267 432.23 131.399C430.137 129.363 427.276 128.797 425.794 128.64C425.189 128.576 424.813 128.58 424.813 128.58C424.813 128.58 424.469 128.61 423.91 128.703C422.452 128.944 419.531 129.608 417.415 131.259C415.39 132.839 414.581 135.021 414.275 136.218C414.138 136.753 414.101 137.091 414.101 137.091C414.101 137.091 414.439 137.091 414.985 137.054C416.459 136.953 419.454 136.58 421.422 135.2C423.178 133.968 424.085 131.535 424.504 129.986C424.554 129.802 424.597 129.631 424.634 129.475C424.762 128.929 424.813 128.58 424.813 128.58C424.813 128.58 424.963 128.924 425.218 129.464C425.281 129.597 425.351 129.742 425.426 129.896C426.132 131.349 427.347 133.652 428.522 134.948C429.851 136.414 432.825 136.802 434.306 136.905Z" fill="black"/>
<path d="M640.127 183.673C639.972 186.001 635.16 193.297 635.16 193.297C635.16 193.297 631.279 185.846 631.279 183.673C631.279 181.5 632.521 180.103 635.16 180.258C637.799 180.413 640.282 181.345 640.127 183.673Z" fill="white"/>
<path d="M630.572 183.186C632.311 184.742 635.096 193.026 635.096 193.026C635.096 193.026 626.836 191.495 625.124 190.157C623.412 188.818 623.076 186.98 624.823 184.996C626.57 183.013 628.834 181.63 630.572 183.186Z" fill="white"/>
<path d="M625.067 190.5C627.356 190.048 635.648 192.807 635.648 192.807C635.648 192.807 629.456 198.484 627.356 199.047C625.257 199.609 623.587 198.771 623.054 196.182C622.521 193.593 622.777 190.953 625.067 190.5Z" fill="white"/>
<path d="M627.069 199.856C628.122 197.773 635.403 192.94 635.403 192.94C635.403 192.94 636.062 201.314 635.212 203.315C634.363 205.315 632.673 206.115 630.305 204.941C627.937 203.766 626.016 201.938 627.069 199.856Z" fill="white"/>
<path d="M634.647 203.665C633.847 201.473 635.298 192.855 635.298 192.855C635.298 192.855 641.86 198.1 642.739 200.087C643.618 202.075 643.047 203.854 640.571 204.78C638.095 205.705 635.447 205.858 634.647 203.665Z" fill="white"/>
<path d="M643.582 200.247C641.363 199.527 635.466 193.077 635.466 193.077C635.466 193.077 643.639 191.136 645.747 191.668C647.854 192.199 648.904 193.745 648.109 196.266C647.313 198.787 645.802 200.967 643.582 200.247Z" fill="white"/>
<path d="M645.425 191.258C643.486 192.556 634.77 193.2 634.77 193.2C634.77 193.2 638.302 185.577 640.023 184.251C641.744 182.924 643.608 183.054 645.096 185.239C646.585 187.424 647.363 189.959 645.425 191.258Z" fill="white"/>
<path d="M629.007 204.33C629.007 204.33 622.678 210.162 622.424 220.991" stroke="#B4C9B6"/>
<circle r="4.51515" transform="matrix(-1 0 0 1 634.754 192.914)" fill="#F2C94C"/>
<path d="M586.465 198.178C586.56 199.601 589.502 204.061 589.502 204.061C589.502 204.061 591.874 199.506 591.874 198.178C591.874 196.85 591.115 195.996 589.502 196.09C587.888 196.185 586.37 196.755 586.465 198.178Z" fill="white"/>
<path d="M592.306 197.88C591.243 198.831 589.541 203.896 589.541 203.896C589.541 203.896 594.591 202.96 595.637 202.141C596.684 201.323 596.889 200.199 595.821 198.987C594.753 197.774 593.369 196.929 592.306 197.88Z" fill="white"/>
<path d="M595.672 202.352C594.272 202.075 589.203 203.762 589.203 203.762C589.203 203.762 592.989 207.232 594.272 207.576C595.555 207.92 596.577 207.408 596.902 205.825C597.228 204.242 597.071 202.628 595.672 202.352Z" fill="white"/>
<path d="M594.449 208.071C593.805 206.798 589.354 203.843 589.354 203.843C589.354 203.843 588.951 208.962 589.47 210.185C589.99 211.408 591.022 211.897 592.47 211.179C593.918 210.461 595.092 209.344 594.449 208.071Z" fill="white"/>
<path d="M589.815 210.4C590.304 209.059 589.417 203.791 589.417 203.791C589.417 203.791 585.406 206.997 584.868 208.212C584.331 209.427 584.68 210.515 586.194 211.081C587.707 211.646 589.326 211.74 589.815 210.4Z" fill="white"/>
<path d="M584.353 208.31C585.71 207.87 589.315 203.927 589.315 203.927C589.315 203.927 584.319 202.74 583.03 203.065C581.742 203.39 581.1 204.335 581.586 205.876C582.073 207.417 582.996 208.75 584.353 208.31Z" fill="white"/>
<path d="M583.227 202.815C584.412 203.608 589.74 204.002 589.74 204.002C589.74 204.002 587.581 199.342 586.529 198.531C585.477 197.72 584.337 197.8 583.428 199.135C582.518 200.471 582.042 202.021 583.227 202.815Z" fill="white"/>
<path d="M593.264 210.806C593.264 210.806 597.133 214.371 597.288 220.991" stroke="#B4C9B6"/>
<circle cx="589.749" cy="203.827" r="2.76017" fill="#F2C94C"/>
<path d="M607.636 221.684C607.636 221.684 608.363 225.181 606.564 231.752" stroke="#B4C9B6"/>
<path d="M607.251 209.627C607.068 210.965 608.946 215.66 608.946 215.66C608.946 215.66 612.013 211.889 612.266 210.657C612.519 209.426 611.978 208.489 610.464 208.27C608.95 208.051 607.435 208.29 607.251 209.627Z" fill="white"/>
<path d="M612.723 210.463C611.557 211.143 609.014 215.513 609.014 215.513C609.014 215.513 613.873 215.607 615 215.048C616.126 214.489 616.53 213.486 615.771 212.159C615.011 210.831 613.89 209.784 612.723 210.463Z" fill="white"/>
<path d="M614.991 215.25C613.747 214.727 608.726 215.325 608.726 215.325C608.726 215.325 611.574 219.263 612.699 219.827C613.823 220.39 614.867 220.109 615.471 218.704C616.074 217.299 616.236 215.773 614.991 215.25Z" fill="white"/>
<path d="M612.768 220.319C612.414 219.016 608.85 215.429 608.85 215.429C608.85 215.429 607.502 220.098 607.75 221.331C607.999 222.563 608.863 223.214 610.342 222.824C611.821 222.434 613.123 221.621 612.768 220.319Z" fill="white"/>
<path d="M608.029 221.595C608.737 220.446 608.919 215.393 608.919 215.393C608.919 215.393 604.589 217.602 603.859 218.626C603.13 219.65 603.246 220.725 604.542 221.537C605.837 222.35 607.32 222.745 608.029 221.595Z" fill="white"/>
<path d="M603.363 218.618C604.705 218.468 608.798 215.499 608.798 215.499C608.798 215.499 604.392 213.448 603.135 213.504C601.879 213.56 601.104 214.314 601.262 215.835C601.419 217.356 602.021 218.768 603.363 218.618Z" fill="white"/>
<path d="M603.366 213.309C604.313 214.271 609.178 215.65 609.178 215.65C609.178 215.65 608.064 210.919 607.243 209.967C606.422 209.014 605.35 208.871 604.252 209.936C603.155 211.001 602.418 212.347 603.366 213.309Z" fill="white"/>
<circle cx="609.22" cy="215.49" r="2.61231" transform="rotate(11.6081 609.22 215.49)" fill="#F2C94C"/>
</svg>
