<svg width="1618" height="286" viewBox="0 0 1618 286" fill="none" xmlns="http://www.w3.org/2000/svg">
<rect x="677.959" y="0.171875" width="940" height="226.817" rx="30" transform="rotate(1 677.959 0.171875)" fill="#8CAE90"/>
<rect x="15.9746" y="2" width="791.445" height="229" rx="30" transform="rotate(4 15.9746 2)" fill="#B4C9B6"/>
<path d="M236.521 54.9577C234.212 54.8367 230.664 54.463 225.878 53.8366C221.215 53.248 217.665 52.9055 215.229 52.8092L211.906 52.635C211.774 56.9465 211.829 63.959 212.071 73.6725C212.285 82.7273 212.261 89.7513 211.999 94.7445C211.942 95.8367 211.964 97.4964 212.067 99.7236C212.169 101.951 212.191 103.626 212.132 104.749C212.021 106.872 211.582 108.679 210.815 110.172C209.833 112.186 208.422 113.145 206.58 113.048C205.332 112.983 204.232 112.487 203.279 111.561C202.326 110.635 201.886 109.485 201.957 108.112C201.982 107.644 202.097 106.946 202.302 106.018C202.507 105.09 202.622 104.392 202.646 103.924C202.727 102.395 202.738 100.095 202.679 97.0255C202.652 93.9573 202.68 91.6431 202.762 90.0827C202.995 85.6201 202.965 79.3287 202.671 71.2084C202.38 62.4311 202.288 56.1364 202.393 52.3242L198.131 52.1478C191.297 51.7896 185.955 51.009 182.107 49.8059C179.613 49.0181 178.43 47.4071 178.558 44.973C178.625 43.6935 179.09 42.5913 179.952 41.6664C180.945 40.6232 182.173 40.1868 183.635 40.3573C184.724 40.477 187.205 40.8887 191.08 41.5924C194.181 42.1305 196.699 42.4502 198.634 42.5516C200.507 42.6497 203.348 42.7673 207.159 42.9045C210.971 43.0104 213.813 43.1124 215.685 43.2105C218.088 43.3365 221.637 43.6945 226.331 44.2848C231.057 44.8767 234.621 45.2356 237.024 45.3615C238.366 45.4318 239.465 45.9588 240.321 46.9424C241.178 47.8949 241.571 49.0577 241.499 50.4308C241.429 51.7727 240.917 52.888 239.963 53.7768C239.01 54.6344 237.863 55.028 236.521 54.9577ZM263.081 117.793C256.029 117.424 250.41 115.361 246.226 111.606C241.656 107.455 239.555 101.868 239.923 94.8466C240.348 86.7328 242.67 80.0326 246.89 74.7462C251.48 68.9785 257.348 66.2819 264.494 66.6565C269.674 66.928 273.857 68.0234 277.042 69.9427C280.955 72.307 282.795 75.7204 282.561 80.1831C282.397 83.3038 280.485 86.0512 276.825 88.4254C275.206 89.4671 271.806 91.0413 266.626 93.1481L248.3 100.684C249.912 103.366 251.979 105.43 254.5 106.876C257.053 108.324 260.062 109.139 263.526 109.32C265.679 109.433 268.228 109.16 271.173 108.501C274.909 107.664 277.351 106.446 278.499 104.848C279.648 103.218 280.831 102.436 282.049 102.499C283.141 102.557 284.086 103.029 284.885 103.915C285.716 104.772 286.103 105.747 286.046 106.839C285.864 110.303 282.915 113.137 277.198 115.341C272.312 117.213 267.607 118.03 263.081 117.793ZM264.052 75.0824C260.245 74.8829 257 76.1992 254.317 79.0314C251.635 81.8324 249.515 86.1649 247.956 92.0288L262.685 85.9476C268.478 83.4974 272.628 81.321 275.138 79.4185C272.585 76.7813 268.89 75.3359 264.052 75.0824ZM332.087 84.5623C331.664 88.4518 330.002 90.3204 327.099 90.1683C324.416 90.0277 323.155 88.4126 323.316 85.3231C323.348 84.7301 323.358 83.6354 323.348 82.039L323.413 78.0995C318.452 78.434 314.431 79.6159 311.352 81.645C308.468 83.5279 305.999 86.4652 303.943 90.4568L302.692 116.114C302.527 119.266 300.9 120.761 297.81 120.599C295.064 120.455 293.774 118.807 293.939 115.655L295.661 82.7941C295.715 81.7643 295.827 80.2212 295.997 78.1648C296.199 76.11 296.327 74.5677 296.381 73.5378C296.546 70.3859 298.002 68.8819 300.748 69.0258C303.806 69.1861 305.215 71.8573 304.975 77.0393C311.269 71.58 318.068 69.0417 325.37 69.4244C327.898 69.5569 329.736 70.6076 330.885 72.5767C332.033 74.5458 332.507 77.4495 332.306 81.288C332.221 82.9108 332.148 84.0022 332.087 84.5623ZM399.163 126.662C396.604 126.528 395.177 125.092 394.883 122.354C394.501 118.891 394.193 114.025 393.958 107.754L393.127 93.1593C392.928 90.9896 392.508 88.8554 391.867 86.7564C390.953 83.8922 389.872 82.4273 388.623 82.3619C387.469 82.3014 385.264 83.1716 382.009 84.9725C378.918 86.6255 376.876 87.9736 375.883 89.0167C375.698 91.9486 375.622 94.8861 375.656 97.8294L376.405 110.402C376.739 115.363 376.822 119.451 376.654 122.666C376.582 124.039 376.086 125.139 375.167 125.967C374.277 126.828 373.161 127.224 371.819 127.153C370.477 127.083 369.393 126.572 368.566 125.622C367.77 124.704 367.407 123.558 367.479 122.185C367.677 118.409 367.579 112.818 367.185 105.412C366.823 97.9768 366.742 92.3711 366.939 88.595C367.113 85.287 366.78 82.6879 365.94 80.7976C363.703 81.6818 361.402 83.1884 359.038 85.3176L353.19 91.2071C352.652 91.9299 351.804 92.8712 350.648 94.0311C350.55 95.9035 350.234 98.6563 349.699 102.29C349.164 105.923 348.851 108.613 348.76 110.361C348.711 111.297 348.782 112.615 348.975 114.315C349.199 116.017 349.291 117.242 349.252 117.991C349.185 119.27 348.645 120.322 347.631 121.145C346.649 121.969 345.519 122.348 344.239 122.281C340.713 122.096 339.16 117.994 339.58 109.974C339.678 108.101 339.996 105.317 340.534 101.622C341.072 97.9258 341.39 95.1418 341.488 93.2694C341.575 91.6154 341.549 89.1262 341.41 85.8019C341.302 82.4792 341.293 79.9753 341.381 78.2901C341.752 71.2061 343.53 67.7475 346.713 67.9143C347.93 67.9781 349.01 68.5667 349.953 69.6801C350.927 70.7951 351.382 71.9767 351.316 73.225C351.285 73.818 351.159 74.7345 350.937 75.9746C350.716 77.2147 350.588 78.1624 350.554 78.8178L350.39 83.7378C352.187 80.4837 354.733 77.5973 358.025 75.0787C361.319 72.5288 364.074 71.312 366.29 71.4281C371.19 71.6849 374.432 74.2957 376.019 79.2605C377.854 77.0723 379.988 75.4786 382.418 74.4795C384.85 73.4491 387.596 73.0141 390.654 73.1744C395.866 73.4475 399.276 76.4426 400.885 82.1596C401.201 83.3027 401.611 87.7208 402.115 95.414C402.708 100.827 403.362 109.827 404.08 122.413C404.108 123.666 403.631 124.705 402.649 125.53C401.667 126.355 400.505 126.732 399.163 126.662ZM447.926 89.1781C446.21 89.0881 445.039 88.4478 444.412 87.2572C443.987 86.4212 443.67 84.7148 443.46 82.1378C441.089 82.6081 437.427 83.5114 432.475 84.8479C427.346 86.5818 424.689 88.9147 424.504 91.8465C425.423 92.2389 426.33 92.5368 427.227 92.7402C434.338 94.3959 439.582 96.4388 442.959 98.8689C447.874 102.412 450.169 107.289 449.843 113.499C449.577 118.586 447.176 122.309 442.64 124.669C438.877 126.599 434.203 127.418 428.617 127.126C424.529 126.911 420.664 126.02 417.022 124.453C412.308 122.453 410.032 119.893 410.196 116.772C410.261 115.524 410.802 114.457 411.819 113.572C412.866 112.688 414.014 112.279 415.263 112.344C416.23 112.395 417.439 113.209 418.89 114.787C419.601 115.544 421.255 116.226 423.852 116.831C425.923 117.315 427.677 117.595 429.112 117.67C431.734 117.807 434.059 117.616 436.089 117.097C439.039 116.344 440.565 114.984 440.668 113.018C440.891 108.774 438.077 105.748 432.226 103.939L427.414 102.607C423.311 101.485 420.417 100.269 418.734 98.9605C416.297 97.0804 415.172 94.3772 415.356 90.8508C415.698 84.3285 419.016 79.8397 425.309 77.3845C427.226 76.64 430.274 75.7984 434.454 74.8596C438.635 73.8896 441.637 73.0455 443.458 72.3274C444.767 71.8327 446.171 71.6246 447.668 71.7031C449.01 71.7734 450.08 72.2676 450.877 73.1855C451.705 74.1051 452.082 75.2671 452.008 76.6714C451.961 77.5764 452.078 78.9126 452.361 80.6798C452.675 82.4486 452.809 83.7856 452.761 84.6906C452.688 86.0949 452.191 87.2111 451.272 88.0391C450.383 88.8687 449.268 89.2484 447.926 89.1781ZM526.202 132.522C525.61 132.491 524.569 131.748 523.08 130.293C521.743 128.94 520.757 127.746 520.123 126.711C517.042 128.177 514.342 129.256 512.021 129.948C509.699 130.671 507.773 130.992 506.244 130.912C498.941 130.53 493.728 128.191 490.605 123.897C487.656 119.862 486.391 113.85 486.809 105.861C487.205 98.3088 490.134 91.9846 495.596 86.8885C501.089 81.794 507.439 79.4356 514.648 79.8134C517.363 79.9557 520.369 80.8173 523.666 82.3983C527.819 84.3683 529.83 86.586 529.701 89.0514C529.657 89.894 529.306 90.6266 528.647 91.2493C528.273 92.4188 527.921 94.3561 527.591 97.0613C527.293 99.7682 527.017 103.243 526.764 107.485C526.53 111.353 526.635 114.426 527.078 116.702C527.319 118.092 528.158 120.889 529.596 125.095C529.785 125.668 530.1 126.514 530.542 127.633L530.782 128.443C530.716 129.691 530.225 130.698 529.309 131.464C528.393 132.23 527.357 132.582 526.202 132.522ZM518.171 99.4779C518.241 98.136 518.395 96.6889 518.633 95.1367C518.904 93.555 519.257 91.8837 519.694 90.1229C518.57 89.4694 517.594 88.9802 516.767 88.6552C515.97 88.3318 515.322 88.157 514.823 88.1308C509.986 87.8773 505.7 89.6398 501.966 93.4183C498.265 97.1673 496.279 101.616 496.009 106.765C495.741 111.883 496.445 115.769 498.121 118.423C499.797 121.077 502.444 122.499 506.065 122.689C509.06 122.846 511.632 122.433 513.781 121.45C514.935 120.916 516.573 119.813 518.695 118.14C518.13 109.818 517.955 103.597 518.171 99.4779ZM574.593 135.292C571.909 135.152 570.472 133.606 570.283 130.654L569.509 120.334C569.264 116.66 569.224 113.231 569.391 110.048C569.437 109.174 569.561 107.694 569.764 105.608C569.999 103.524 570.139 102.045 570.185 101.171C570.538 94.4304 569.466 90.9946 566.97 90.8638C563.475 90.6806 560.027 92.5809 556.626 96.5646C553.557 100.19 551.06 104.847 549.135 110.535C549.008 111.749 548.788 113.271 548.473 115.101C548.204 116.651 548.031 118.16 547.954 119.627C547.905 120.563 547.925 121.972 548.014 123.854C548.103 125.737 548.123 127.146 548.074 128.082C548.001 129.486 547.504 130.603 546.584 131.431C545.696 132.26 544.581 132.64 543.239 132.57C541.866 132.498 540.781 132.003 539.984 131.085C539.187 130.167 538.826 129.006 538.899 127.601C538.948 126.665 538.913 125.255 538.792 123.371C538.703 121.489 538.683 120.08 538.732 119.143C538.901 115.929 539.352 111.494 540.087 105.837C540.854 100.15 541.322 95.7 541.491 92.4856C541.543 91.487 541.558 90.0014 541.536 88.0288C541.546 86.0578 541.577 84.573 541.629 83.5744C541.699 82.2325 542.194 81.1631 543.112 80.3663C544.062 79.54 545.193 79.1611 546.504 79.2298C549.375 79.3803 550.844 81.4913 550.913 85.563L550.766 91.0472C556.375 84.3316 561.942 81.1185 567.465 81.408C572.459 81.6697 575.823 84.0521 577.558 88.5554C578.746 91.5592 579.252 95.9354 579.076 101.684L578.829 106.412L578.554 110.763C578.418 113.353 578.57 116.725 579.009 120.879C579.482 125.003 579.651 128.344 579.516 130.903C579.445 132.277 578.934 133.361 577.985 134.156C577.065 134.984 575.934 135.363 574.593 135.292ZM634.323 93.6426C633.708 98.2104 633.28 102.788 633.04 107.375C632.495 117.767 632.568 125.641 633.257 130.997C633.297 131.438 633.309 131.798 633.294 132.079C633.229 133.327 632.738 134.334 631.822 135.1C630.905 135.865 629.87 136.218 628.715 136.157C626.78 136.056 625.434 134.577 624.676 131.721C622.343 133.257 619.937 134.383 617.458 135.098C615.011 135.815 612.477 136.104 609.856 135.967C603.396 135.628 598.156 133.195 594.138 128.666C590 124.036 588.111 118.273 588.473 111.377C588.909 103.044 591.459 96.4813 596.123 91.6875C600.818 86.8954 606.691 84.6842 613.744 85.0538C617.364 85.2435 620.128 85.9516 622.035 87.1781L626.266 90.6386C627.391 77.5233 628.37 68.7031 629.202 64.1779C629.753 61.4217 631.246 60.1074 633.68 60.235C636.52 60.3838 637.86 61.9718 637.702 64.9989C637.474 69.3367 636.348 78.8846 634.323 93.6426ZM613.475 93.7704C608.232 93.4956 604.218 94.8499 601.434 97.8332C598.65 100.785 597.095 105.382 596.768 111.624C596.557 115.649 597.795 119.188 600.483 122.239C603.202 125.292 606.481 126.919 610.319 127.12C612.941 127.257 615.182 126.889 617.042 126.017C618.133 125.511 619.933 124.306 622.442 122.404C622.931 122.023 623.409 121.563 623.876 121.024L624.16 112.918L624.491 107.491L624.874 101.972C623.821 99.382 622.344 97.4114 620.443 96.0601C618.544 94.6775 616.221 93.9143 613.475 93.7704ZM222.937 161.001C220.94 160.897 219.503 159.648 218.627 157.255C217.858 155.212 217.11 153.952 216.384 153.476C215.747 153.099 214.133 152.842 211.543 152.706C207.018 152.469 201.812 155.67 195.925 162.308C187.948 171.216 183.741 179.835 183.305 188.168C183.094 192.193 184.207 195.725 186.645 198.763C189.141 201.898 192.261 203.564 196.006 203.76C199.22 203.928 202.494 203.271 205.826 201.787C207.685 200.945 210.559 199.25 214.448 196.7C216.295 195.482 217.671 194.897 218.576 194.945C219.918 195.015 221.015 195.589 221.866 196.666C222.719 197.712 223.112 198.859 223.047 200.108C222.973 201.512 222.316 202.714 221.074 203.712C212.453 210.583 203.929 213.798 195.503 213.356C189.043 213.018 183.712 210.25 179.509 205.055C175.455 200.023 173.599 194.23 173.942 187.677C174.497 177.098 179.497 166.485 188.942 155.84C196.824 146.959 204.525 142.716 212.046 143.11C213.575 143.19 214.944 143.34 216.153 143.56C217.364 143.749 218.429 144.023 219.349 144.385C220.524 142.85 221.986 142.129 223.733 142.221C225.887 142.333 227.17 143.824 227.583 146.694C227.95 149.248 228.037 152.366 227.844 156.048C227.777 157.328 227.374 158.433 226.637 159.365C225.731 160.538 224.497 161.083 222.937 161.001ZM250.186 217.865C244.943 217.59 240.535 215.419 236.962 211.351C232.974 206.824 231.062 200.919 231.225 193.636C231.407 186.574 233.511 180.457 237.538 175.285C242.239 169.179 248.49 166.33 256.292 166.739C262.533 167.066 267.111 170.17 270.026 176.049C272.343 180.802 273.285 186.421 272.851 192.907C272.394 199.831 270.275 205.649 266.491 210.364C262.206 215.71 256.771 218.21 250.186 217.865ZM255.185 176.21C250.599 175.938 246.912 177.936 244.122 182.202C241.909 185.622 240.684 189.594 240.446 194.119C240.209 198.645 241.257 202.236 243.59 204.893C245.54 207.091 247.904 208.264 250.681 208.409C253.927 208.579 256.782 207.54 259.247 205.291C262.037 202.808 263.627 199.34 264.017 194.885C265.087 182.831 262.143 176.606 255.185 176.21ZM318.968 222.033C316.284 221.892 314.848 220.346 314.658 217.395L313.885 207.074C313.639 203.4 313.6 199.972 313.767 196.789C313.812 195.915 313.937 194.435 314.14 192.349C314.375 190.265 314.515 188.785 314.56 187.912C314.914 181.171 313.842 177.735 311.345 177.604C307.85 177.421 304.402 179.321 301.002 183.305C297.933 186.931 295.436 191.588 293.51 197.276C293.384 198.49 293.163 200.012 292.849 201.841C292.58 203.392 292.407 204.901 292.33 206.367C292.281 207.303 292.301 208.713 292.39 210.595C292.479 212.477 292.499 213.886 292.45 214.823C292.376 216.227 291.88 217.343 290.96 218.171C290.072 219.001 288.957 219.38 287.615 219.31C286.241 219.238 285.157 218.743 284.36 217.825C283.563 216.907 283.201 215.746 283.275 214.342C283.324 213.406 283.288 211.996 283.168 210.112C283.079 208.229 283.059 206.82 283.108 205.884C283.276 202.67 283.728 198.234 284.463 192.577C285.23 186.891 285.698 182.44 285.866 179.226C285.919 178.228 285.934 176.742 285.912 174.769C285.922 172.798 285.952 171.314 286.005 170.315C286.075 168.973 286.569 167.904 287.487 167.107C288.438 166.281 289.569 165.902 290.879 165.97C293.75 166.121 295.22 168.232 295.288 172.304L295.142 177.788C300.751 171.072 306.317 167.859 311.841 168.149C316.834 168.41 320.198 170.793 321.934 175.296C323.122 178.3 323.628 182.676 323.452 188.425L323.204 193.152L322.929 197.503C322.794 200.094 322.945 203.466 323.385 207.619C323.857 211.743 324.026 215.085 323.892 217.644C323.82 219.017 323.31 220.101 322.36 220.896C321.441 221.724 320.31 222.103 318.968 222.033ZM378.699 180.383C378.084 184.951 377.656 189.529 377.416 194.116C376.871 204.508 376.943 212.382 377.633 217.738C377.672 218.178 377.685 218.539 377.67 218.819C377.605 220.068 377.114 221.075 376.197 221.84C375.281 222.606 374.246 222.958 373.091 222.898C371.156 222.796 369.81 221.318 369.052 218.462C366.718 219.998 364.312 221.123 361.834 221.839C359.387 222.555 356.853 222.845 354.231 222.707C347.771 222.369 342.532 219.935 338.514 215.406C334.375 210.777 332.487 205.014 332.848 198.117C333.285 189.785 335.835 183.222 340.499 178.428C345.193 173.636 351.067 171.425 358.12 171.794C361.74 171.984 364.504 172.692 366.411 173.919L370.642 177.379C371.767 164.264 372.746 155.444 373.577 150.918C374.129 148.162 375.621 146.848 378.055 146.976C380.895 147.124 382.236 148.712 382.077 151.739C381.85 156.077 380.724 165.625 378.699 180.383ZM357.851 180.511C352.608 180.236 348.594 181.59 345.809 184.574C343.026 187.526 341.471 192.123 341.144 198.364C340.933 202.39 342.171 205.928 344.859 208.979C347.578 212.032 350.856 213.659 354.695 213.86C357.316 213.998 359.557 213.63 361.418 212.757C362.509 212.251 364.308 211.047 366.818 209.144C367.307 208.763 367.785 208.303 368.251 207.764L368.535 199.659L368.867 194.231L369.25 188.712C368.196 186.123 366.719 184.152 364.819 182.801C362.92 181.418 360.597 180.655 357.851 180.511ZM401.826 163.617C400.329 163.539 399.061 162.94 398.025 161.822C396.988 160.704 396.509 159.396 396.587 157.898C396.666 156.4 397.279 155.149 398.427 154.145C399.575 153.141 400.898 152.679 402.396 152.757C403.894 152.836 405.145 153.433 406.151 154.55C407.187 155.668 407.666 156.976 407.588 158.474C407.509 159.972 406.896 161.223 405.748 162.227C404.632 163.232 403.324 163.696 401.826 163.617ZM401.941 201.738C401.843 203.611 401.742 206.422 401.64 210.171C401.57 213.892 401.486 216.688 401.388 218.56C401.316 219.933 400.836 221.035 399.947 221.865C399.059 222.694 397.928 223.073 396.555 223.001C395.213 222.931 394.128 222.436 393.3 221.516C392.503 220.598 392.141 219.453 392.213 218.08C392.311 216.207 392.395 213.411 392.465 209.691C392.568 205.941 392.668 203.13 392.766 201.257C392.92 198.324 393.267 194.681 393.808 190.328C394.351 185.944 394.699 182.286 394.853 179.352C394.926 177.948 395.407 176.831 396.296 176.001C397.215 175.173 398.346 174.794 399.688 174.865C401.03 174.935 402.099 175.429 402.896 176.347C403.724 177.267 404.101 178.429 404.028 179.833C403.874 182.766 403.526 186.425 402.983 190.809C402.442 195.162 402.095 198.805 401.941 201.738ZM450.056 185.578C449.4 185.544 448.622 185.471 447.72 185.362C446.85 185.253 446.087 185.182 445.431 185.148C444.714 185.11 442.579 185.233 439.028 185.516L438.468 213.228L438.407 215.29L438.328 217.68C438.095 224.521 436.278 227.852 432.876 227.674C431.628 227.609 430.557 227.146 429.663 226.285C428.8 225.426 428.401 224.388 428.465 223.171C428.527 221.985 428.667 220.209 428.885 217.842C429.103 215.475 429.243 213.699 429.305 212.513L429.802 185.127C427.528 184.914 424.078 184.467 419.451 183.786C416.694 183.266 415.386 181.649 415.528 178.934C415.6 177.56 416.081 176.444 416.971 175.583C417.861 174.722 418.961 174.326 420.272 174.394L430.061 175.705C430.144 174.114 430.177 171.988 430.16 169.327C430.176 166.636 430.215 164.698 430.277 163.513C430.346 162.202 430.855 161.149 431.804 160.354C432.755 159.527 433.886 159.148 435.196 159.217C438.005 159.364 439.523 161.744 439.751 166.356C439.784 167.516 439.758 168.907 439.673 170.529L439.437 173.24L439.238 176.139C443.134 175.843 445.363 175.709 445.924 175.739C449.17 175.909 451.284 176.176 452.266 176.541C454.137 177.264 455.012 178.781 454.891 181.09C454.819 182.464 454.322 183.58 453.401 184.439C452.513 185.269 451.398 185.648 450.056 185.578ZM473.915 167.395C472.417 167.317 471.15 166.719 470.113 165.6C469.077 164.482 468.597 163.174 468.676 161.676C468.754 160.178 469.368 158.927 470.515 157.923C471.663 156.919 472.986 156.457 474.484 156.535C475.982 156.614 477.234 157.211 478.239 158.328C479.276 159.446 479.755 160.754 479.676 162.252C479.598 163.75 478.985 165.001 477.837 166.005C476.72 167.01 475.413 167.474 473.915 167.395ZM474.029 205.516C473.931 207.389 473.831 210.2 473.728 213.949C473.659 217.67 473.575 220.466 473.476 222.338C473.404 223.711 472.924 224.813 472.036 225.643C471.148 226.472 470.017 226.851 468.644 226.779C467.302 226.709 466.217 226.214 465.389 225.294C464.592 224.376 464.23 223.231 464.302 221.858C464.4 219.985 464.484 217.189 464.553 213.469C464.656 209.719 464.756 206.908 464.855 205.035C465.008 202.102 465.356 198.459 465.897 194.106C466.439 189.722 466.788 186.064 466.941 183.13C467.015 181.726 467.496 180.609 468.384 179.779C469.304 178.951 470.435 178.572 471.777 178.643C473.119 178.713 474.188 179.207 474.985 180.125C475.813 181.045 476.19 182.207 476.116 183.611C475.963 186.544 475.614 190.203 475.072 194.587C474.531 198.94 474.183 202.583 474.029 205.516ZM506.147 231.279C500.904 231.004 496.496 228.833 492.923 224.766C488.936 220.238 487.023 214.333 487.186 207.051C487.368 199.988 489.473 193.871 493.499 188.7C498.2 182.593 504.451 179.745 512.253 180.154C518.494 180.481 523.073 183.584 525.988 189.463C528.305 194.216 529.246 199.836 528.812 206.322C528.356 213.245 526.236 219.064 522.453 223.779C518.167 229.124 512.732 231.624 506.147 231.279ZM511.146 189.624C506.561 189.353 502.873 191.35 500.083 195.616C497.87 199.036 496.645 203.009 496.408 207.534C496.171 212.059 497.218 215.65 499.551 218.307C501.501 220.506 503.865 221.678 506.643 221.823C509.888 221.994 512.743 220.954 515.208 218.705C517.998 216.223 519.588 212.754 519.978 208.3C521.048 196.245 518.104 190.02 511.146 189.624ZM574.929 235.447C572.246 235.307 570.809 233.761 570.619 230.809L569.846 220.489C569.6 216.815 569.561 213.386 569.728 210.203C569.774 209.329 569.898 207.849 570.101 205.763C570.336 203.679 570.476 202.2 570.522 201.326C570.875 194.585 569.803 191.149 567.307 191.019C563.811 190.835 560.364 192.736 556.963 196.719C553.894 200.345 551.397 205.002 549.471 210.69C549.345 211.904 549.125 213.426 548.81 215.256C548.541 216.806 548.368 218.315 548.291 219.782C548.242 220.718 548.262 222.127 548.351 224.009C548.44 225.892 548.46 227.301 548.411 228.237C548.337 229.641 547.841 230.757 546.921 231.585C546.033 232.415 544.918 232.795 543.576 232.724C542.203 232.652 541.118 232.158 540.321 231.24C539.524 230.322 539.163 229.16 539.236 227.756C539.285 226.82 539.25 225.41 539.129 223.526C539.04 221.644 539.02 220.235 539.069 219.298C539.238 216.084 539.689 211.648 540.424 205.992C541.191 200.305 541.659 195.855 541.828 192.641C541.88 191.642 541.895 190.156 541.873 188.184C541.883 186.213 541.914 184.728 541.966 183.729C542.036 182.387 542.53 181.318 543.448 180.521C544.399 179.695 545.53 179.316 546.841 179.385C549.712 179.535 551.181 181.646 551.25 185.718L551.103 191.202C556.712 184.486 562.279 181.273 567.802 181.563C572.795 181.825 576.16 184.207 577.895 188.71C579.083 191.714 579.589 196.09 579.413 201.839L579.165 206.567L578.891 210.918C578.755 213.508 578.907 216.88 579.346 221.034C579.818 225.158 579.987 228.499 579.853 231.058C579.781 232.431 579.271 233.516 578.322 234.311C577.402 235.139 576.271 235.518 574.929 235.447ZM622.867 198.484C621.151 198.394 619.98 197.753 619.353 196.563C618.928 195.727 618.611 194.02 618.401 191.443C616.03 191.914 612.368 192.817 607.416 194.153C602.287 195.887 599.63 198.22 599.445 201.152C600.364 201.544 601.271 201.842 602.168 202.046C609.279 203.701 614.523 205.744 617.9 208.174C622.815 211.718 625.11 216.595 624.784 222.805C624.518 227.891 622.117 231.615 617.581 233.974C613.818 235.905 609.144 236.724 603.558 236.431C599.47 236.217 595.605 235.326 591.963 233.758C587.249 231.759 584.973 229.199 585.137 226.078C585.202 224.83 585.743 223.763 586.76 222.877C587.807 221.993 588.955 221.584 590.204 221.65C591.171 221.7 592.38 222.515 593.831 224.093C594.542 224.85 596.196 225.531 598.793 226.137C600.864 226.621 602.618 226.9 604.053 226.975C606.675 227.113 609 226.922 611.03 226.402C613.98 225.649 615.506 224.29 615.609 222.324C615.832 218.08 613.018 215.053 607.167 213.245L602.355 211.913C598.252 210.79 595.358 209.575 593.675 208.266C591.238 206.386 590.113 203.683 590.297 200.156C590.639 193.634 593.957 189.145 600.25 186.69C602.167 185.946 605.215 185.104 609.395 184.165C613.576 183.195 616.578 182.351 618.399 181.633C619.708 181.138 621.112 180.93 622.609 181.009C623.951 181.079 625.021 181.573 625.818 182.491C626.646 183.411 627.023 184.573 626.949 185.977C626.902 186.882 627.019 188.218 627.302 189.985C627.616 191.754 627.75 193.091 627.702 193.996C627.629 195.4 627.132 196.517 626.213 197.345C625.324 198.174 624.209 198.554 622.867 198.484Z" fill="white"/>
<path d="M955.707 128.363C955.051 128.363 953.621 128.211 951.418 127.906C951.23 131.445 951.137 137.645 951.137 146.504C951.137 147.441 950.832 148.238 950.223 148.895C949.613 149.527 948.852 149.844 947.938 149.844C947 149.844 946.227 149.527 945.617 148.895C945.008 148.238 944.703 147.441 944.703 146.504V136.168C944.703 132.723 944.914 127.871 945.336 121.613C945.805 114.84 946.062 109.988 946.109 107.059V102.207C946.109 99.8867 946.25 98.1992 946.531 97.1445C947.07 95.082 948.219 94.1914 949.977 94.4727C950.727 94.2383 951.793 94.0625 953.176 93.9453C954.559 93.8281 956.258 93.7695 958.273 93.7695C962.562 93.7695 966.582 95.2344 970.332 98.1641C974.457 101.398 976.52 105.289 976.52 109.836C976.52 115.648 974.316 120.277 969.91 123.723C965.973 126.816 961.238 128.363 955.707 128.363ZM957.465 100.449C956.434 100.449 955.508 100.473 954.688 100.52C953.891 100.566 953.211 100.637 952.648 100.73L952.578 107.199L951.84 121.191L955.707 121.648C959.645 121.648 962.961 120.652 965.656 118.66C968.609 116.48 970.086 113.539 970.086 109.836C970.086 107.211 968.68 104.949 965.867 103.051C963.266 101.316 960.465 100.449 957.465 100.449ZM992.48 121.367L991.953 138.84C991.953 140.691 991.859 143.41 991.672 146.996C991.438 149.34 990.289 150.512 988.227 150.512C985.93 150.512 984.781 149.316 984.781 146.926C984.781 144.09 984.91 139.836 985.168 134.164C985.426 128.469 985.555 124.203 985.555 121.367C985.555 117.664 985.613 113.434 985.73 108.676C985.848 103.895 985.906 99.6523 985.906 95.9492C985.906 93.6055 987.055 92.4336 989.352 92.4336C991.672 92.4336 992.832 93.6055 992.832 95.9492C992.832 99.6523 992.773 103.895 992.656 108.676C992.539 113.434 992.48 117.664 992.48 121.367ZM1019.73 150.617C1014.43 150.617 1010.14 149.293 1006.86 146.645C1003.27 143.715 1001.48 139.613 1001.48 134.34C1001.48 128.246 1002.96 123.137 1005.91 119.012C1009.12 114.512 1013.41 112.262 1018.78 112.262C1022.67 112.262 1025.84 112.918 1028.3 114.23C1031.33 115.848 1032.84 118.332 1032.84 121.684C1032.84 124.027 1031.52 126.16 1028.87 128.082C1027.7 128.926 1025.21 130.238 1021.41 132.02L1007.98 138.383C1009.3 140.328 1010.93 141.793 1012.87 142.777C1014.84 143.762 1017.12 144.254 1019.73 144.254C1021.34 144.254 1023.24 143.949 1025.42 143.34C1028.19 142.566 1029.97 141.559 1030.77 140.316C1031.56 139.051 1032.42 138.418 1033.33 138.418C1034.15 138.418 1034.88 138.734 1035.51 139.367C1036.17 139.977 1036.5 140.691 1036.5 141.512C1036.5 144.113 1034.4 146.352 1030.2 148.227C1026.62 149.82 1023.12 150.617 1019.73 150.617ZM1018.78 118.59C1015.92 118.59 1013.54 119.703 1011.64 121.93C1009.74 124.133 1008.32 127.461 1007.39 131.914L1018.18 126.781C1022.42 124.719 1025.45 122.926 1027.25 121.402C1025.23 119.527 1022.41 118.59 1018.78 118.59ZM1070.21 151.32C1069.77 151.32 1068.96 150.805 1067.79 149.773C1066.73 148.812 1065.95 147.957 1065.43 147.207C1063.18 148.426 1061.2 149.34 1059.49 149.949C1057.78 150.582 1056.35 150.898 1055.2 150.898C1049.71 150.898 1045.72 149.352 1043.21 146.258C1040.84 143.352 1039.66 138.898 1039.66 132.898C1039.66 127.227 1041.61 122.375 1045.5 118.344C1049.41 114.312 1054.07 112.297 1059.49 112.297C1061.53 112.297 1063.81 112.824 1066.34 113.879C1069.53 115.191 1071.12 116.773 1071.12 118.625C1071.12 119.258 1070.89 119.82 1070.42 120.312C1070.19 121.203 1070 122.668 1069.86 124.707C1069.74 126.746 1069.67 129.359 1069.65 132.547C1069.62 135.453 1069.82 137.75 1070.25 139.438C1070.48 140.469 1071.22 142.531 1072.46 145.625C1072.62 146.047 1072.89 146.668 1073.27 147.488L1073.48 148.086C1073.48 149.023 1073.15 149.797 1072.5 150.406C1071.84 151.016 1071.08 151.32 1070.21 151.32ZM1062.9 126.887C1062.9 125.879 1062.96 124.789 1063.07 123.617C1063.21 122.422 1063.41 121.156 1063.67 119.82C1062.8 119.375 1062.05 119.047 1061.42 118.836C1060.81 118.625 1060.32 118.52 1059.95 118.52C1056.31 118.52 1053.17 120.008 1050.52 122.984C1047.9 125.938 1046.59 129.348 1046.59 133.215C1046.59 137.059 1047.27 139.941 1048.62 141.863C1049.98 143.785 1052.02 144.746 1054.74 144.746C1056.99 144.746 1058.9 144.336 1060.47 143.516C1061.32 143.07 1062.5 142.18 1064.02 140.844C1063.27 134.633 1062.9 129.98 1062.9 126.887ZM1103.33 121.93C1102.04 121.93 1101.14 121.496 1100.62 120.629C1100.27 120.02 1099.96 118.754 1099.71 116.832C1097.95 117.277 1095.24 118.098 1091.59 119.293C1087.81 120.793 1085.91 122.645 1085.89 124.848C1086.59 125.105 1087.29 125.293 1087.96 125.41C1093.36 126.371 1097.36 127.695 1099.99 129.383C1103.81 131.844 1105.72 135.406 1105.72 140.07C1105.72 143.891 1104.07 146.773 1100.76 148.719C1098.02 150.312 1094.55 151.109 1090.36 151.109C1087.29 151.109 1084.36 150.594 1081.57 149.562C1077.96 148.25 1076.15 146.422 1076.15 144.078C1076.15 143.141 1076.52 142.32 1077.24 141.617C1077.99 140.914 1078.84 140.562 1079.77 140.562C1080.5 140.562 1081.44 141.125 1082.59 142.25C1083.15 142.789 1084.41 143.234 1086.38 143.586C1087.95 143.867 1089.28 144.008 1090.36 144.008C1092.32 144.008 1094.06 143.773 1095.56 143.305C1097.74 142.625 1098.83 141.547 1098.83 140.07C1098.83 136.883 1096.6 134.727 1092.15 133.602L1088.49 132.793C1085.38 132.113 1083.16 131.316 1081.85 130.402C1079.95 129.09 1079 127.109 1079 124.461C1079 119.562 1081.31 116.07 1085.93 113.984C1087.33 113.352 1089.58 112.602 1092.68 111.734C1095.77 110.844 1097.98 110.094 1099.32 109.484C1100.28 109.062 1101.32 108.852 1102.45 108.852C1103.46 108.852 1104.28 109.18 1104.91 109.836C1105.57 110.492 1105.89 111.348 1105.89 112.402C1105.89 113.082 1106.04 114.078 1106.32 115.391C1106.62 116.703 1106.77 117.699 1106.77 118.379C1106.77 119.434 1106.45 120.289 1105.79 120.945C1105.16 121.602 1104.34 121.93 1103.33 121.93ZM1131.1 150.617C1125.8 150.617 1121.52 149.293 1118.23 146.645C1114.65 143.715 1112.86 139.613 1112.86 134.34C1112.86 128.246 1114.33 123.137 1117.29 119.012C1120.5 114.512 1124.79 112.262 1130.15 112.262C1134.04 112.262 1137.22 112.918 1139.68 114.23C1142.7 115.848 1144.21 118.332 1144.21 121.684C1144.21 124.027 1142.89 126.16 1140.24 128.082C1139.07 128.926 1136.59 130.238 1132.79 132.02L1119.36 138.383C1120.67 140.328 1122.3 141.793 1124.25 142.777C1126.21 143.762 1128.5 144.254 1131.1 144.254C1132.72 144.254 1134.62 143.949 1136.8 143.34C1139.56 142.566 1141.34 141.559 1142.14 140.316C1142.94 139.051 1143.79 138.418 1144.71 138.418C1145.53 138.418 1146.25 138.734 1146.89 139.367C1147.54 139.977 1147.87 140.691 1147.87 141.512C1147.87 144.113 1145.77 146.352 1141.58 148.227C1137.99 149.82 1134.5 150.617 1131.1 150.617ZM1130.15 118.59C1127.29 118.59 1124.91 119.703 1123.02 121.93C1121.12 124.133 1119.7 127.461 1118.76 131.914L1129.55 126.781C1133.8 124.719 1136.82 122.926 1138.62 121.402C1136.61 119.527 1133.79 118.59 1130.15 118.59ZM1210.34 149.387C1209.45 149.387 1208.62 149.012 1207.85 148.262C1200.09 140.598 1191.46 135.441 1181.97 132.793L1182.25 139.684L1182.43 146.609C1182.43 147.641 1182.09 148.496 1181.41 149.176C1180.75 149.879 1179.92 150.23 1178.91 150.23C1177.91 150.23 1177.06 149.879 1176.38 149.176C1175.73 148.496 1175.4 147.641 1175.4 146.609C1175.4 144.758 1175.3 142.004 1175.12 138.348C1174.95 134.668 1174.87 131.902 1174.87 130.051C1174.87 127.895 1175.11 124.684 1175.57 120.418C1176.04 116.152 1176.28 112.953 1176.28 110.82C1176.28 109.625 1176.16 107.855 1175.93 105.512C1175.71 103.168 1175.61 101.398 1175.61 100.203C1175.61 98.8672 1175.98 97.6953 1176.73 96.6875C1177.62 95.4453 1178.86 94.8828 1180.43 95L1188.9 95.668C1192.11 96.0664 1194.82 96.8516 1197.02 98.0234C1206.51 103.062 1211.26 109.215 1211.26 116.48C1211.26 120.043 1209.64 123.195 1206.41 125.938C1203.8 128.141 1200.56 129.816 1196.67 130.965C1203.96 134.879 1209.41 139.004 1213.02 143.34C1213.62 144.09 1213.93 144.887 1213.93 145.73C1213.93 146.715 1213.57 147.57 1212.84 148.297C1212.14 149.023 1211.3 149.387 1210.34 149.387ZM1187.95 102.91L1182.75 102.488L1183.1 106.742C1183.26 108.477 1183.34 109.895 1183.34 110.996C1183.34 112.871 1183.19 115.203 1182.89 117.992L1182.15 124.988C1182.48 124.988 1182.98 125 1183.66 125.023C1184.36 125.047 1184.89 125.059 1185.24 125.059C1191.22 125.059 1195.7 124.262 1198.67 122.668C1199.98 121.941 1201.2 120.992 1202.33 119.82C1203.57 118.508 1204.19 117.395 1204.19 116.48C1204.19 113.223 1202.34 110.188 1198.64 107.375C1195.24 104.797 1191.68 103.309 1187.95 102.91ZM1237.34 150.617C1232.05 150.617 1227.76 149.293 1224.48 146.645C1220.89 143.715 1219.1 139.613 1219.1 134.34C1219.1 128.246 1220.57 123.137 1223.53 119.012C1226.74 114.512 1231.03 112.262 1236.39 112.262C1240.29 112.262 1243.46 112.918 1245.92 114.23C1248.95 115.848 1250.46 118.332 1250.46 121.684C1250.46 124.027 1249.13 126.16 1246.48 128.082C1245.31 128.926 1242.83 130.238 1239.03 132.02L1225.6 138.383C1226.91 140.328 1228.54 141.793 1230.49 142.777C1232.46 143.762 1234.74 144.254 1237.34 144.254C1238.96 144.254 1240.86 143.949 1243.04 143.34C1245.8 142.566 1247.59 141.559 1248.38 140.316C1249.18 139.051 1250.04 138.418 1250.95 138.418C1251.77 138.418 1252.5 138.734 1253.13 139.367C1253.79 139.977 1254.11 140.691 1254.11 141.512C1254.11 144.113 1252.02 146.352 1247.82 148.227C1244.23 149.82 1240.74 150.617 1237.34 150.617ZM1236.39 118.59C1233.54 118.59 1231.16 119.703 1229.26 121.93C1227.36 124.133 1225.94 127.461 1225 131.914L1235.8 126.781C1240.04 124.719 1243.06 122.926 1244.87 121.402C1242.85 119.527 1240.03 118.59 1236.39 118.59ZM1287.83 151.32C1287.38 151.32 1286.57 150.805 1285.4 149.773C1284.35 148.812 1283.56 147.957 1283.05 147.207C1280.8 148.426 1278.82 149.34 1277.11 149.949C1275.39 150.582 1273.96 150.898 1272.82 150.898C1267.33 150.898 1263.34 149.352 1260.83 146.258C1258.46 143.352 1257.28 138.898 1257.28 132.898C1257.28 127.227 1259.22 122.375 1263.11 118.344C1267.03 114.312 1271.69 112.297 1277.11 112.297C1279.14 112.297 1281.43 112.824 1283.96 113.879C1287.15 115.191 1288.74 116.773 1288.74 118.625C1288.74 119.258 1288.51 119.82 1288.04 120.312C1287.8 121.203 1287.62 122.668 1287.48 124.707C1287.36 126.746 1287.29 129.359 1287.27 132.547C1287.24 135.453 1287.44 137.75 1287.86 139.438C1288.1 140.469 1288.84 142.531 1290.08 145.625C1290.24 146.047 1290.51 146.668 1290.89 147.488L1291.1 148.086C1291.1 149.023 1290.77 149.797 1290.11 150.406C1289.46 151.016 1288.7 151.32 1287.83 151.32ZM1280.52 126.887C1280.52 125.879 1280.57 124.789 1280.69 123.617C1280.83 122.422 1281.03 121.156 1281.29 119.82C1280.42 119.375 1279.67 119.047 1279.04 118.836C1278.43 118.625 1277.94 118.52 1277.56 118.52C1273.93 118.52 1270.79 120.008 1268.14 122.984C1265.52 125.938 1264.2 129.348 1264.2 133.215C1264.2 137.059 1264.88 139.941 1266.24 141.863C1267.6 143.785 1269.64 144.746 1272.36 144.746C1274.61 144.746 1276.52 144.336 1278.09 143.516C1278.93 143.07 1280.12 142.18 1281.64 140.844C1280.89 134.633 1280.52 129.98 1280.52 126.887ZM1329.59 117.957C1329.31 121.402 1329.17 124.848 1329.17 128.293C1329.17 136.098 1329.54 141.992 1330.26 145.977C1330.31 146.305 1330.33 146.574 1330.33 146.785C1330.33 147.723 1330 148.496 1329.35 149.105C1328.69 149.715 1327.93 150.02 1327.06 150.02C1325.61 150.02 1324.54 148.965 1323.86 146.855C1322.18 148.098 1320.42 149.035 1318.59 149.668C1316.79 150.301 1314.9 150.617 1312.93 150.617C1308.08 150.617 1304.06 149 1300.87 145.766C1297.59 142.461 1295.95 138.219 1295.95 133.039C1295.95 126.781 1297.6 121.766 1300.91 117.992C1304.23 114.219 1308.55 112.332 1313.84 112.332C1316.56 112.332 1318.66 112.754 1320.14 113.598L1323.44 116.023C1323.77 106.156 1324.16 99.5117 1324.6 96.0898C1324.91 94.0039 1325.97 92.9609 1327.8 92.9609C1329.93 92.9609 1331 94.0977 1331 96.3711C1331 99.6289 1330.53 106.824 1329.59 117.957ZM1313.98 118.871C1310.05 118.871 1307.09 120.043 1305.12 122.387C1303.16 124.707 1302.17 128.211 1302.17 132.898C1302.17 135.922 1303.24 138.523 1305.37 140.703C1307.53 142.883 1310.05 143.973 1312.93 143.973C1314.9 143.973 1316.56 143.609 1317.92 142.883C1318.72 142.461 1320.02 141.488 1321.82 139.965C1322.18 139.66 1322.52 139.297 1322.84 138.875L1322.74 132.793L1322.77 128.715L1322.84 124.566C1321.95 122.668 1320.77 121.25 1319.29 120.312C1317.82 119.352 1316.05 118.871 1313.98 118.871ZM1346.29 95.7031V134.832C1346.29 136.918 1345.25 137.961 1343.16 137.961C1341.08 137.961 1340.04 136.918 1340.04 134.832C1340.04 133.871 1340 132.441 1339.93 130.543C1339.88 128.621 1339.86 127.191 1339.86 126.254C1339.86 122.855 1339.88 117.77 1339.93 110.996C1340 104.199 1340.04 99.1016 1340.04 95.7031C1340.04 93.6172 1341.08 92.5742 1343.16 92.5742C1345.25 92.5742 1346.29 93.6172 1346.29 95.7031ZM1346.33 148.191C1346.33 149.035 1345.99 149.762 1345.31 150.371C1344.65 151.004 1343.9 151.32 1343.06 151.32C1342.12 151.32 1341.18 150.711 1340.25 149.492C1339.33 148.344 1338.88 147.289 1338.88 146.328C1338.88 145.484 1339.2 144.758 1339.86 144.148C1340.54 143.539 1341.31 143.234 1342.18 143.234C1343.09 143.234 1344.03 143.844 1344.99 145.062C1345.88 146.211 1346.33 147.254 1346.33 148.191Z" fill="white"/>
</svg>
