<svg width="215" height="76" viewBox="0 0 215 76" fill="none" xmlns="http://www.w3.org/2000/svg">
<path d="M66.3795 20.2965C65.8064 22.7667 64.6627 24.7411 62.9484 26.2199C61.2092 27.7069 59.174 28.4462 56.8429 28.4378C54.6362 28.4298 52.9832 27.8431 51.8841 26.6777C50.7849 25.504 50.2396 23.7516 50.248 21.4204C50.2557 19.2967 50.7862 17.1209 51.8395 14.8931C52.8929 12.6653 54.2433 10.8616 55.8909 9.48213C57.0476 8.51568 58.2854 8.03484 59.6045 8.0396C60.4092 8.04251 61.5032 8.33682 62.8865 8.92254C64.5266 9.61703 65.3452 10.3542 65.3424 11.134C65.3408 11.582 65.1693 11.9837 64.8278 12.3392C64.4865 12.6864 64.0669 12.8591 63.5691 12.8573C63.3202 12.8564 62.7694 12.6221 61.9166 12.1545C61.0721 11.6786 60.2973 11.4393 59.5922 11.4368C58.8455 11.4341 57.8347 12.2351 56.5596 13.8399C54.7012 16.1727 53.767 18.7038 53.7572 21.4331C53.7522 22.8185 53.952 23.7608 54.3567 24.26C54.7862 24.7842 55.619 25.0486 56.8551 25.053C58.1244 25.0576 59.2415 24.7008 60.2064 23.9825C61.2295 23.223 61.9885 22.1141 62.4832 20.6558C60.558 20.7981 58.8808 21.1861 57.4516 21.8198C57.194 21.935 56.9367 21.9921 56.6795 21.9912C56.1651 21.9893 55.7386 21.797 55.3998 21.4141C55.0941 21.0729 54.942 20.6866 54.9436 20.2552C54.9482 18.9859 56.4529 18.1037 59.4579 17.6085C61.1513 17.3326 63.1262 17.1987 65.3827 17.2068C65.8804 17.2086 66.2946 17.3719 66.6253 17.6966C66.9643 18.0214 67.1329 18.4202 67.1312 18.8931C67.129 19.4987 66.8784 19.9665 66.3795 20.2965Z" fill="white" fill-opacity="0.9"/>
<path d="M78.7919 18.6863C78.7127 19.9553 78.1338 20.5879 77.0554 20.584C76.0101 20.5802 75.4894 20.0391 75.4933 18.9606L75.4356 17.7036C73.568 17.9955 72.2289 18.9488 71.4183 20.5636L71.4081 26.8229C71.4064 27.2958 71.2433 27.6851 70.9186 27.9909C70.5939 28.3049 70.1827 28.4611 69.685 28.4593C69.1706 28.4574 68.773 28.2901 68.4922 27.9572C68.2278 27.6576 68.0964 27.2755 68.0981 26.8109L68.1275 18.6602C68.1285 18.4031 68.1381 18.0215 68.1566 17.5155C68.175 17.0012 68.1847 16.6155 68.1856 16.3583C68.1873 15.8937 68.3256 15.5085 68.6005 15.2025C68.8837 14.8883 69.2824 14.7321 69.7968 14.734C70.7176 14.7373 71.2634 15.2121 71.4342 16.1585C72.9066 15.0687 74.5387 14.5271 76.3306 14.5336C77.9898 14.5396 78.8154 15.6459 78.8074 17.8526C78.8059 18.2757 78.8007 18.5536 78.7919 18.6863Z" fill="white" fill-opacity="0.9"/>
<path d="M85.7005 28.4176C84.1658 28.412 82.8487 27.8805 81.7491 26.8229C80.5421 25.6654 79.913 24.1242 79.8619 22.1994C79.8104 20.3658 80.3182 18.7333 81.3853 17.302C82.6524 15.6142 84.41 14.7743 86.6582 14.7824C88.3174 14.7884 89.634 15.4569 90.6081 16.7877C91.4832 17.9855 91.9175 19.4679 91.9111 21.2349C91.9042 23.1596 91.3839 24.8003 90.3503 26.1571C89.1917 27.6711 87.6418 28.4246 85.7005 28.4176ZM86.4846 18.067C85.4642 18.055 84.6578 18.5167 84.0654 19.452C83.5648 20.2383 83.3126 21.1583 83.3088 22.2118C83.3052 23.2073 83.5845 23.9716 84.1467 24.5046C84.5932 24.9293 85.1151 25.1427 85.7124 25.1449C86.4341 25.1475 87.0613 24.905 87.594 24.4175C88.2017 23.8472 88.528 23.0727 88.573 22.094C88.6905 19.4231 87.9944 18.0808 86.4846 18.067Z" fill="white" fill-opacity="0.9"/>
<path d="M109.897 18.3269C109.014 21.5757 108.128 24.5259 107.239 27.1774C106.988 27.9231 106.579 28.689 106.012 29.4751C105.611 30.0212 105.079 30.2889 104.416 30.2782C103.371 30.2578 102.553 29.2469 101.963 27.2455C101.742 26.4814 101.481 25.0577 101.182 22.9743C101.006 23.3387 100.898 23.5831 100.856 23.7074C100.421 24.7345 99.7843 26.3292 98.9469 28.4914C98.8212 28.8394 98.6336 29.1166 98.3839 29.3231C98.0335 29.8777 97.5139 30.1662 96.8253 30.1886C96.4353 30.2037 96.0259 29.8538 95.5971 29.1388C95.1435 28.4154 94.7777 27.485 94.4997 26.3474C94.2462 25.3178 93.8561 23.0765 93.3294 19.6234C93.2159 18.8764 93.16 18.2913 93.1615 17.8682C93.1632 17.412 93.3346 17.0351 93.6758 16.7377C94.0253 16.432 94.4407 16.28 94.9218 16.2818C95.8178 16.285 96.3679 16.7308 96.5721 17.6192C96.6782 18.0842 96.7674 18.6569 96.8396 19.3375C96.9356 20.3167 96.9958 20.8935 97.02 21.0678C97.1255 21.7153 97.2876 22.7736 97.5063 24.2428C98.1263 22.561 98.839 20.4688 99.6445 17.9663C99.9885 16.8891 100.629 16.3521 101.567 16.3555C102.488 16.3589 103.091 16.9625 103.377 18.1665C103.581 19.0134 103.797 20.1134 104.025 21.4664C104.358 23.4338 104.561 24.6043 104.634 24.9779C104.71 24.721 105.37 22.2014 106.615 17.4191C106.8 16.7063 107.32 16.3514 108.174 16.3545C108.647 16.3562 109.062 16.5112 109.417 16.8194C109.781 17.1277 109.962 17.51 109.961 17.9662C109.96 18.0492 109.939 18.1694 109.897 18.3269Z" fill="white" fill-opacity="0.9"/>
<path d="M127.174 29.2431C124.718 29.2342 122.63 28.5215 120.91 27.105C119.074 25.5885 118.16 23.6315 118.168 21.234C118.179 18.4134 119.071 15.8448 120.847 13.5284C122.839 10.9223 125.341 9.62475 128.352 9.63563C131.247 9.64609 133.414 10.3176 134.853 11.6502C136.292 12.9827 137.006 14.9805 136.997 17.6435C136.986 20.4641 136.164 23.0163 134.53 25.3C132.646 27.9397 130.193 29.254 127.174 29.2431ZM128.34 13.0079C126.49 13.0012 124.902 13.8915 123.577 15.6786C122.335 17.3499 121.71 19.2059 121.702 21.2467C121.697 22.6238 122.229 23.7457 123.296 24.6124C124.321 25.4457 125.618 25.8652 127.186 25.8708C129.011 25.8774 130.537 24.987 131.763 23.1995C132.888 21.5692 133.455 19.713 133.463 17.6307C133.469 15.8886 133.083 14.6759 132.306 13.9929C131.562 13.3431 130.24 13.0148 128.34 13.0079Z" fill="white" fill-opacity="0.9"/>
<path d="M142.862 26.7114C142.857 28.2876 142.281 29.0737 141.137 29.0695C140.639 29.0677 140.229 28.9086 139.906 28.5922C139.584 28.2758 139.424 27.8687 139.425 27.371L139.488 10.1612C139.489 9.68002 139.665 9.28659 140.015 8.9809C140.347 8.70004 140.759 8.56049 141.248 8.56226C141.737 8.56403 142.139 8.71481 142.453 9.0146C142.768 9.3061 142.924 9.69242 142.922 10.1736L142.862 26.7114Z" fill="white" fill-opacity="0.9"/>
<path d="M155.22 14.5599C155.338 11.7314 155.473 9.77816 155.626 8.70024C155.771 7.72183 156.312 7.23433 157.249 7.23771C157.739 7.23948 158.132 7.39853 158.43 7.71485C158.727 8.03117 158.875 8.41747 158.874 8.87374C158.869 10.0766 158.768 11.8682 158.568 14.2484C158.377 16.6287 158.279 18.4203 158.275 19.6232C158.264 22.5599 158.353 24.5264 158.54 25.5226C158.564 25.6554 158.576 25.7757 158.576 25.8836C158.574 26.3399 158.407 26.7167 158.074 27.0142C157.741 27.3033 157.355 27.4471 156.915 27.4455C156.301 27.4433 155.846 27.1679 155.549 26.6193C154.984 26.9574 154.398 27.2083 153.792 27.372C153.186 27.5441 152.559 27.6289 151.912 27.6266C150.054 27.6199 148.513 27.0211 147.289 25.8304C146.041 24.6147 145.42 23.0694 145.427 21.1945C145.435 18.9629 146.072 17.165 147.338 15.8007C148.604 14.4281 150.253 13.7455 152.286 13.7529C152.908 13.7551 153.463 13.8235 153.952 13.958C154.441 14.0925 154.864 14.2931 155.22 14.5599ZM154.956 18.4788C154.685 17.9552 154.329 17.564 153.891 17.3052C153.452 17.0464 152.93 16.916 152.324 16.9138C151.096 16.9093 150.174 17.2627 149.558 17.974C148.941 18.6769 148.63 19.7377 148.625 21.1563C148.622 22.0522 148.951 22.8208 149.612 23.462C150.274 24.1031 151.044 24.4253 151.924 24.4285C152.562 24.4308 153.048 24.3579 153.38 24.2098C153.605 24.111 153.987 23.8469 154.528 23.4175C154.669 23.3019 154.807 23.1738 154.94 23.0332C154.925 22.635 154.93 21.1168 154.956 18.4788Z" fill="white" fill-opacity="0.9"/>
<path d="M4.90539 59.2589C4.25282 59.2455 3.70609 59.0223 3.26521 58.5893C2.82436 58.1453 2.60505 57.6135 2.60729 56.9941C2.61129 55.888 2.66706 54.229 2.7746 52.0171C2.8932 49.8053 2.9545 48.1463 2.9585 47.0402C2.96293 45.8124 2.94193 43.9706 2.8955 41.5148C2.86013 39.0591 2.84466 37.2173 2.84909 35.9895C2.85129 35.3812 3.14659 34.7794 3.73499 34.1842C4.32343 33.578 4.94949 33.276 5.61316 33.2784C5.97818 33.2798 6.89501 33.626 8.36367 34.3171C10.0752 35.1418 11.0912 35.6045 11.4116 35.7052C14.6487 36.7677 17.4081 38.4037 19.6898 40.6132C22.4125 43.2445 23.7681 46.1475 23.7566 49.3221C23.7497 51.2356 23.273 53.0535 22.3266 54.7757C21.38 56.531 20.0863 57.9366 18.4454 58.9926C16.6049 60.1806 14.02 60.7685 10.6906 60.7565C9.88312 60.7536 8.9544 60.6341 7.90443 60.398C6.63343 60.1058 5.63375 59.7261 4.90539 59.2589ZM14.2916 42.2363C13.2211 41.5577 10.9242 40.4875 7.40092 39.0257L7.34158 55.4516C7.77196 55.7297 8.26343 55.9416 8.81597 56.0874C9.37961 56.2222 10.0043 56.2908 10.6901 56.2933C13.0793 56.3019 14.795 55.9763 15.8372 55.3163C16.8239 54.6894 17.6068 53.835 18.1859 52.7531C18.776 51.6712 19.0732 50.544 19.0775 49.3715C19.0874 46.6284 17.4921 44.2499 14.2916 42.2363Z" fill="white" fill-opacity="0.9"/>
<path d="M30.3375 37.9867C29.6296 37.9842 29.0166 37.7441 28.4984 37.2666C27.9803 36.7891 27.7224 36.2075 27.7249 35.5217C27.7274 34.8359 27.9894 34.2561 28.511 33.7824C29.0326 33.3086 29.6474 33.073 30.3553 33.0756C31.0632 33.0781 31.6707 33.3181 32.1778 33.7956C32.696 34.2731 32.9538 34.8548 32.9513 35.5406C32.9489 36.2264 32.6868 36.8061 32.1652 37.2799C31.6547 37.7537 31.0455 37.9893 30.3375 37.9867ZM31.7039 50.1536C31.7016 50.7841 31.7146 51.7962 31.7427 53.1901C31.7819 54.5839 31.8004 55.5961 31.7981 56.2266C31.7958 56.8681 31.5782 57.3983 31.1453 57.8171C30.7124 58.2248 30.1642 58.4274 29.5005 58.425C28.8368 58.4226 28.29 58.216 27.8601 57.8052C27.4302 57.3833 27.2165 56.8516 27.2188 56.2101C27.2211 55.5796 27.2026 54.5674 27.1634 53.1735C27.1352 51.7797 27.1223 50.7675 27.1246 50.137C27.1281 49.1526 27.1879 47.9195 27.3039 46.4377C27.4198 44.9559 27.4796 43.7228 27.4832 42.7383C27.4855 42.0968 27.7031 41.5721 28.1359 41.1644C28.5688 40.7457 29.1171 40.5375 29.7808 40.5399C30.4445 40.5423 30.9912 40.7544 31.4211 41.1763C31.851 41.5871 32.0648 42.1133 32.0625 42.7549C32.0589 43.7393 31.9992 44.9724 31.8832 46.4542C31.7672 47.936 31.7075 49.1691 31.7039 50.1536Z" fill="white" fill-opacity="0.9"/>
<path d="M47.6902 47.1022C46.5952 47.0983 45.9387 46.6369 45.7208 45.718C45.2786 45.639 44.8253 45.5986 44.3607 45.5969C41.695 45.5873 40.3608 45.9475 40.3581 46.6775C40.3566 47.1089 41.1564 47.6925 42.7576 48.4284C44.9441 49.4429 46.4235 50.2336 47.1957 50.8005C48.7954 51.9677 49.5926 53.2813 49.5873 54.7414C49.5804 56.6439 48.6903 58.0842 46.917 59.0623C45.4873 59.8425 43.7326 60.2288 41.6531 60.2213C40.182 60.216 38.8389 59.9844 37.6238 59.5265C35.9669 58.901 35.1406 57.9855 35.1449 56.7798C35.1489 55.6737 35.8091 55.123 37.1253 55.1278C37.6342 55.1296 38.3691 55.2927 39.3303 55.6169C40.2915 55.9412 41.032 56.1042 41.5519 56.1061C43.7973 56.1142 44.9272 55.6648 44.9415 54.7578C44.9435 54.1937 44.166 53.5659 42.6088 52.8745C40.3339 51.8597 38.8764 51.1299 38.2365 50.6851C36.6808 49.5844 35.9058 48.2488 35.9115 46.6781C35.9195 44.4548 37.1029 42.9602 39.4618 42.1945C40.8461 41.746 42.9485 41.5268 45.7691 41.537C46.8752 41.541 47.6932 41.6877 48.2231 41.9772C48.9518 42.367 49.3142 43.0818 49.3104 44.1215C49.3032 46.1125 48.7632 47.1061 47.6902 47.1022Z" fill="white" fill-opacity="0.9"/>
<path d="M67.9406 49.4319C67.4667 52.0296 67.1802 54.7718 67.0813 57.6584C66.9578 61.2308 66.3511 63.8225 65.2613 65.4335C63.8045 67.5852 61.2344 68.6544 57.551 68.6411C53.2482 68.6255 51.0999 67.766 51.1061 66.0626C51.1083 65.4543 51.3036 64.9627 51.6921 64.5881C52.0806 64.2134 52.5901 64.0272 53.2206 64.0295C53.7183 64.0312 54.4315 64.1279 55.3599 64.3192C56.2884 64.5106 57.1121 64.6076 57.8311 64.6102C59.4792 64.6162 60.6977 64.1173 61.4867 63.1136C62.2424 62.1318 62.6905 60.5683 62.831 58.4229C62.2648 58.996 61.6272 59.4251 60.9183 59.7102C60.2093 59.9952 59.4345 60.1362 58.5939 60.1332C56.3927 60.1252 54.6034 59.4053 53.2259 57.9734C51.8595 56.5305 51.1803 54.6919 51.1884 52.4575C51.1993 49.4489 52.1261 47.0187 53.969 45.1671C55.8785 43.2493 58.4537 42.2963 61.6946 42.308C62.7344 42.3117 63.6299 42.4422 64.3811 42.6993C65.1323 42.9564 65.7393 43.3458 66.202 43.8673C67.6062 44.0383 68.3055 44.8704 68.3002 46.3637C68.2975 47.1048 68.1776 48.1275 67.9406 49.4319ZM61.515 46.0903C59.6457 46.0835 58.1889 46.6922 57.1447 47.9162C56.2116 49.03 55.7418 50.4774 55.7353 52.2582C55.7306 53.5745 55.9759 54.5654 56.4712 55.2309C56.9666 55.8963 57.712 56.2309 58.7075 56.2345C59.6145 56.2377 60.529 55.7156 61.4509 54.6681C62.3172 53.6757 62.813 52.6931 62.9382 51.7201C63.1522 50.659 63.4015 49.0062 63.6861 46.7618C63.3109 46.5392 62.9409 46.372 62.5763 46.2601C62.2117 46.1481 61.8579 46.0915 61.515 46.0903Z" fill="white" fill-opacity="0.9"/>
<path d="M84.4498 49.6964C84.3441 51.3884 83.5723 52.2318 82.1343 52.2266C80.7406 52.2216 80.0464 51.5001 80.0516 50.0621L79.9747 48.3861C77.4845 48.7753 75.699 50.0464 74.6183 52.1995L74.6047 60.5452C74.6024 61.1757 74.3849 61.6948 73.952 62.1025C73.5191 62.5213 72.9708 62.7294 72.3071 62.727C71.6213 62.7246 71.0912 62.5014 70.7167 62.0576C70.3642 61.6581 70.1891 61.1487 70.1913 60.5293L70.2306 49.6616C70.2318 49.3187 70.2447 48.81 70.2693 48.1353C70.2939 47.4496 70.3068 46.9353 70.308 46.5924C70.3103 45.973 70.4946 45.4593 70.8611 45.0513C71.2387 44.6324 71.7704 44.4241 72.4562 44.4266C73.684 44.4311 74.4118 45.0642 74.6395 46.326C76.6026 44.873 78.7788 44.1508 81.168 44.1594C83.3802 44.1674 84.481 45.6426 84.4704 48.5848C84.4683 49.1489 84.4615 49.5195 84.4498 49.6964Z" fill="white" fill-opacity="0.9"/>
<path d="M101.168 62.0551C100.659 62.0532 99.8539 61.4973 98.7518 60.3872C97.7324 60.8702 96.8351 61.232 96.06 61.4725C95.2848 61.7241 94.6262 61.8489 94.0842 61.847C91.4184 61.8374 89.4189 61.1167 88.0857 59.685C86.7635 58.2533 86.1075 56.1161 86.1178 53.2733C86.1274 50.6076 87.1201 48.3325 89.0958 46.4482C91.0716 44.5528 93.4311 43.61 96.1742 43.6199C97.2251 43.6237 98.4407 43.9268 99.8212 44.5291C101.489 45.2541 102.321 46.0922 102.317 47.0435C102.316 47.4417 102.188 47.7897 101.932 48.0874C101.82 48.5294 101.729 49.0877 101.661 49.7622C101.603 50.4257 101.572 51.2054 101.569 52.1013C101.562 54.214 101.705 55.7355 102.001 56.6657C102.033 56.7654 102.286 57.3415 102.758 58.394C103.186 59.3468 103.399 59.8896 103.399 60.0223C103.397 60.6086 103.168 61.0944 102.713 61.48C102.269 61.8655 101.754 62.0572 101.168 62.0551ZM97.0946 50.6583C97.0958 50.3043 97.1194 49.9007 97.1653 49.4473C97.2223 48.9829 97.3016 48.4689 97.4032 47.9051C97.1823 47.7937 96.9835 47.7156 96.8067 47.6707C96.641 47.6148 96.4973 47.5866 96.3756 47.5862C94.8713 47.5807 93.5529 48.1677 92.4204 49.3472C91.2879 50.5156 90.7188 51.8741 90.7132 53.4227C90.7079 54.9049 90.9693 56.023 91.4976 56.7771C92.0258 57.5201 92.8209 57.8935 93.8828 57.8974C94.5685 57.8998 95.216 57.7916 95.8252 57.5725C96.4454 57.3425 97.0274 57.0072 97.571 56.5667C97.2487 53.933 97.0899 51.9635 97.0946 50.6583Z" fill="white" fill-opacity="0.9"/>
<path d="M113.412 60.5303C110.979 60.5215 108.941 59.8228 107.297 58.4342C105.566 56.9679 104.705 55.0401 104.713 52.6509C104.721 50.4497 105.509 48.1794 107.077 45.8401C108.857 43.1697 110.919 41.8387 113.264 41.8472C114.415 41.8514 115.757 42.1659 117.293 42.7909C119.159 43.5609 120.091 44.4436 120.087 45.4391C120.085 45.9811 119.895 46.4616 119.518 46.8806C119.118 47.3326 118.603 47.5575 117.972 47.5553C117.497 47.5535 116.922 47.2971 116.249 46.7858C115.588 46.2635 114.588 46 113.249 45.9951C112.397 45.9921 111.471 46.8238 110.469 48.4905C109.512 50.102 109.032 51.494 109.027 52.6665C109.023 53.8279 109.44 54.742 110.278 55.4087C111.072 56.042 112.122 56.3611 113.427 56.3658C114.168 56.3685 115.077 56.0897 116.151 55.5294C117.226 54.9692 117.908 54.6896 118.195 54.6906C118.793 54.6928 119.301 54.9103 119.719 55.3432C120.149 55.7762 120.363 56.2692 120.361 56.8222C120.358 57.685 119.415 58.5444 117.531 59.4003C115.847 60.1575 114.474 60.5341 113.412 60.5303Z" fill="white" fill-opacity="0.9"/>
<path d="M131.598 60.3139C128.954 60.3044 126.794 59.6661 125.117 58.399C123.264 56.9986 122.342 55.0319 122.351 52.4989C122.361 49.7004 123.105 47.336 124.584 45.4056C126.228 43.2656 128.439 42.2007 131.215 42.2107C133.14 42.2177 134.737 42.5331 136.007 43.1572C137.674 43.9817 138.505 45.2568 138.499 46.9823C138.494 48.1991 137.81 49.2751 136.446 50.2103C135.825 50.6395 134.578 51.2655 132.706 52.0883L127.106 54.5403C127.635 55.1174 128.275 55.5511 129.026 55.8414C129.777 56.1317 130.639 56.2786 131.612 56.2821C133.095 56.2875 134.351 55.9879 135.382 55.3832C136.302 54.8445 137.039 54.5762 137.592 54.5782C138.742 54.5823 139.315 55.143 139.311 56.2602C139.307 57.5212 138.379 58.5465 136.529 59.3362C134.978 59.9943 133.335 60.3202 131.598 60.3139ZM131.201 46.2259C130.172 46.2222 129.292 46.5619 128.559 47.2451C127.827 47.9282 127.237 48.9548 126.789 50.3248C128.041 49.7873 129.287 49.2553 130.528 48.7289C132.024 48.0595 133.215 47.4389 134.102 46.8669C133.363 46.4439 132.395 46.2302 131.201 46.2259Z" fill="white" fill-opacity="0.9"/>
<path d="M150.122 44.8565C151.604 44.7291 152.667 44.6666 153.308 44.6689C155.376 44.6764 156.408 45.3881 156.403 46.8039C156.398 48.264 155.295 48.9568 153.094 48.8825C152.397 48.8579 151.34 48.9038 149.924 49.0204C149.876 50.1927 149.859 51.6859 149.875 53.5001C149.91 56.1107 149.926 57.5985 149.925 57.9635C149.918 59.9877 149.785 61.5911 149.526 62.7737C149.267 63.9563 148.535 64.5455 147.33 64.5411C146.71 64.5389 146.169 64.3378 145.706 63.9379C145.254 63.5381 145.029 63.034 145.031 62.4256C145.031 62.2818 145.043 62.1436 145.066 62.011C145.337 60.4302 145.475 58.9429 145.48 57.5492L145.51 49.2533C145.311 49.2637 144.946 49.3066 144.414 49.3821C143.994 49.4359 143.673 49.4624 143.452 49.4616C142.777 49.4592 142.219 49.2636 141.778 48.8748C141.337 48.475 141.118 47.9433 141.12 47.2796C141.124 46.2509 141.668 45.5782 142.753 45.2613C143.241 45.1193 144.209 45.0287 145.658 44.9897C145.67 44.7907 145.744 44.166 145.88 43.1156C146.199 40.6501 146.875 38.8164 147.908 37.6144C149.197 36.1147 151.168 35.3697 153.823 35.3793C155.847 35.3866 156.856 36.1148 156.851 37.5638C156.846 39.0017 155.903 39.7173 154.023 39.7105C152.684 39.7057 151.709 40.1723 151.098 41.1103C150.642 41.8055 150.333 42.8939 150.173 44.3755L150.122 44.8565Z" fill="white" fill-opacity="0.9"/>
<path d="M174.11 50.1141C174.108 50.8552 174.109 51.9724 174.115 53.4657C174.12 54.959 174.122 56.0762 174.119 56.8173C174.118 57.0496 174.134 57.3981 174.165 57.8628C174.208 58.3165 174.229 58.6594 174.228 58.8917C174.226 59.5111 173.997 60.0191 173.542 60.4157C173.098 60.8234 172.55 61.026 171.897 61.0237C170.979 61.0203 170.312 60.6031 169.894 59.772C168.476 60.2868 167.01 60.5414 165.495 60.536C163.924 60.5303 162.603 60.1937 161.533 59.5261C160.33 58.7585 159.615 57.6443 159.388 56.1834C158.966 53.4165 158.76 50.9436 158.768 48.7645C158.773 47.3266 158.945 45.6846 159.283 43.8386C159.509 42.5895 160.258 41.9672 161.53 41.9718C162.171 41.9741 162.718 42.1807 163.17 42.5916C163.622 42.9915 163.847 43.5011 163.845 44.1205C163.843 44.6072 163.757 45.3701 163.588 46.4093C163.429 47.4485 163.349 48.2391 163.347 48.7811C163.341 50.3407 163.386 51.7069 163.481 52.8798C163.588 54.0416 163.745 55.0045 163.952 55.7685C164.228 55.8912 164.493 55.9861 164.748 56.0534C165.013 56.1207 165.267 56.1548 165.51 56.1557C166.738 56.1602 168.088 55.9881 169.561 55.6394C169.564 54.7877 169.562 53.8198 169.555 52.7358C169.537 51.4416 169.529 50.5124 169.531 49.9483C169.54 47.6807 169.652 45.7233 169.868 44.0759C170.039 42.7602 170.793 42.1048 172.132 42.1096C172.784 42.112 173.342 42.3187 173.805 42.7296C174.268 43.1405 174.482 43.6557 174.447 44.275C174.221 48.4885 174.109 50.4349 174.11 50.1141Z" fill="white" fill-opacity="0.9"/>
<path d="M182.396 55.776C182.389 57.8776 181.622 58.9256 180.095 58.9201C179.431 58.9177 178.885 58.7056 178.455 58.2837C178.025 57.8618 177.811 57.319 177.814 56.6554L177.896 33.709C177.899 33.0674 178.133 32.5429 178.599 32.1353C179.043 31.7608 179.591 31.5747 180.244 31.5771C180.896 31.5794 181.432 31.7805 181.851 32.1802C182.27 32.5689 182.478 33.084 182.476 33.7255L182.396 55.776Z" fill="white" fill-opacity="0.9"/>
<path d="M191.672 57.3287C191.664 59.4304 190.897 60.4784 189.371 60.4729C188.707 60.4705 188.16 60.2583 187.73 59.8365C187.3 59.4146 187.087 58.8718 187.089 58.2081L187.172 35.2617C187.174 34.6202 187.409 34.0956 187.875 33.688C188.318 33.3135 188.867 33.1275 189.519 33.1298C190.172 33.1322 190.708 33.3332 191.126 33.733C191.545 34.1216 191.754 34.6367 191.751 35.2783L191.672 57.3287Z" fill="white" fill-opacity="0.9"/>
<path d="M212.42 45.8225C211.205 48.329 209.283 52.2654 206.653 57.6317C205.227 60.5136 204.14 62.9044 203.392 64.8043C203.157 65.4892 202.788 66.5055 202.286 67.8532C201.884 68.8915 201.174 69.4088 200.156 69.4052C199.526 69.4029 198.974 69.1962 198.499 68.7853C198.025 68.3743 197.789 67.8591 197.791 67.2397C197.795 66.211 198.979 63.1678 201.342 58.1103C200.134 55.7056 198.217 52.1646 195.59 47.4872C195.326 47.066 195.056 46.6391 194.781 46.2067C194.485 45.6968 194.337 45.2317 194.338 44.8114C194.341 44.2141 194.58 43.6896 195.058 43.2378C195.535 42.786 196.083 42.5612 196.703 42.5634C197.433 42.5661 198.001 42.8391 198.409 43.3826C199.972 45.4788 201.791 48.6324 203.866 52.8432C205.059 50.2259 205.784 48.6468 206.04 48.1057C206.832 46.4604 207.606 45.0142 208.362 43.767C208.841 42.9723 209.495 42.5765 210.325 42.5795C210.944 42.5817 211.496 42.7939 211.981 43.2159C212.467 43.638 212.708 44.1533 212.706 44.7616C212.705 45.0824 212.609 45.436 212.42 45.8225Z" fill="white" fill-opacity="0.9"/>
</svg>
